<?xml version="1.0" encoding="UTF-8"?>
<svg id="Layer_2" data-name="Layer 2" xmlns="http://www.w3.org/2000/svg" viewBox="0 0 21.07 25.22">
  <defs>
    <style>
      .cls-1 {
        fill: #fa4942;
      }
    </style>
  </defs>
  <g id="middle">
    <g id="Layer_2-2" data-name="Layer 2">
      <g id="mid_bottom" data-name="mid bottom">
        <path class="cls-1" d="M19.15,3.04h-5.25C13.74,1.2,12.11-.15,10.27,.01c-1.61,.15-2.88,1.42-3.02,3.02H1.99C.91,3.02,.02,3.89,0,4.97c0,.54,.2,1.05,.59,1.43,.38,.36,.88,.55,1.4,.55h0v14.7c0,1.9,1.48,3.46,3.37,3.58H15.75c1.89-.12,3.36-1.69,3.36-3.58V6.94h0c1.07,.02,1.94-.84,1.96-1.9,0-.01,0-.03,0-.04,0-1.07-.85-1.94-1.92-1.96ZM10.59,1.64c.7,0,1.33,.41,1.62,1.04h-3.23c.28-.64,.91-1.06,1.61-1.08v.04Zm7.15,20.05c0,1.12-.85,2.05-1.96,2.17H5.39c-1.14-.1-2.02-1.06-2-2.21V6.98h14.35v14.7Zm1.4-16H1.99c-.36-.05-.61-.39-.55-.75,.04-.29,.27-.51,.55-.55H19.15c.36-.05,.69,.2,.75,.55,.05,.36-.2,.69-.55,.75-.06,0-.13,0-.19,0h-.01Z"/>
        <path class="cls-1" d="M6.56,20.45c.38,0,.69-.32,.69-.7V10.94c0-.37-.3-.67-.67-.67,0,0,0,0-.01,0-.36,0-.66,.28-.67,.64,0,0,0,.02,0,.03v8.81c0,.38,.29,.69,.67,.7,0,0,0,0,0,0Z"/>
        <path class="cls-1" d="M10.58,20.45c.38,0,.69-.32,.69-.7V10.94c0-.39-.31-.7-.7-.7s-.7,.31-.7,.7v8.81c0,.39,.31,.7,.7,.7,0,0,0,0,.01,0Z"/>
        <path class="cls-1" d="M14.74,20.45c.38,0,.69-.32,.69-.7V10.94c0-.37-.3-.67-.67-.67,0,0,0,0-.01,0-.36,0-.66,.28-.67,.64,0,0,0,.02,0,.03v8.81c0,.38,.29,.69,.67,.7,0,0,0,0,0,0Z"/>
      </g>
    </g>
  </g>
</svg>