<?xml version="1.0" encoding="UTF-8"?>
<svg id="Layer_2" data-name="Layer 2" xmlns="http://www.w3.org/2000/svg" viewBox="0 0 22.94 29.25">
  <defs>
    <style>
      .cls-1 {
        fill: #6159a7;
      }
    </style>
  </defs>
  <g id="middle">
    <g>
      <path class="cls-1" d="M20.1,20.86c0,.4-.32,.72-.72,.72H3.57c-.4,0-.72-.32-.72-.72s.32-.72,.72-.72h15.8c.4,0,.72,.32,.72,.72Z"/>
      <path class="cls-1" d="M20.1,24.48c0,.4-.32,.72-.72,.72H3.57c-.4,0-.72-.32-.72-.72s.32-.72,.72-.72h15.8c.4,0,.72,.32,.72,.72Z"/>
      <path class="cls-1" d="M20.1,17.24c0,.4-.32,.72-.72,.72H3.57c-.4,0-.72-.32-.72-.72s.32-.72,.72-.72h15.8c.4,0,.72,.32,.72,.72Z"/>
      <path class="cls-1" d="M20.1,13.61c0,.4-.32,.72-.72,.72H3.57c-.4,0-.72-.32-.72-.72s.32-.72,.72-.72h15.8c.4,0,.72,.32,.72,.72Z"/>
      <path class="cls-1" d="M20.1,9.99c0,.4-.32,.72-.72,.72h-6.77c-.4,0-.72-.32-.72-.72s.32-.72,.72-.72h6.77c.4,0,.72,.32,.72,.72Z"/>
      <path class="cls-1" d="M22.94,4.65c0-2.55-2.09-4.65-4.65-4.65H4.65C2.09,0,0,2.1,0,4.65V24.6c0,2.55,2.09,4.65,4.65,4.65h13.64c2.57,0,4.65-2.1,4.65-4.65V4.65Zm-1.45,19.95c0,1.77-1.43,3.2-3.2,3.2H4.65c-1.77,0-3.2-1.43-3.2-3.2V4.65c0-1.77,1.43-3.2,3.2-3.2h13.64c1.77,0,3.2,1.43,3.2,3.2V24.6Z"/>
      <rect class="cls-1" x="3.37" y="3.5" width="7.26" height="7.26" rx="1.15" ry="1.15"/>
    </g>
  </g>
</svg>