<svg xmlns="http://www.w3.org/2000/svg" viewBox="0 0 50.32 44.95"><defs><style>.cls-1{fill:#635ba9;}</style></defs><g id="Layer_2" data-name="Layer 2"><g id="features_icon" data-name="features icon"><path class="cls-1" d="M42.76,15.7a18.71,18.71,0,0,0-1.41-4.18A19.72,19.72,0,0,0,40,9.13,16.86,16.86,0,0,0,38.2,6.88a21,21,0,0,0-8.5-5.6A22.33,22.33,0,0,0,22.2,0C10.64,0,1.27,8.67,1.27,19.37A18.13,18.13,0,0,0,3.92,28.8L.12,35.64A.92.92,0,0,0,1.18,37l7.36-2,.89-.25.31.21h0a20.76,20.76,0,0,0,2.46,1.47,22.09,22.09,0,0,0,10,2.36c11.56,0,20.93-8.68,20.93-19.39A17.78,17.78,0,0,0,42.76,15.7ZM14.67,22a3,3,0,1,1,3-3A3,3,0,0,1,14.67,22Zm8.42,0a3,3,0,1,1,3-3A3,3,0,0,1,23.09,22Zm7.66,0a3,3,0,1,1,3-3A3,3,0,0,1,30.75,22Z"/><path class="cls-1" d="M49.14,43.18,40.9,40.91a21.89,21.89,0,0,1-12.78,4,21.63,21.63,0,0,1-16-6.84A22.47,22.47,0,0,0,15,39.34a23.45,23.45,0,0,0,7.8,1.33c12.12,0,22-9.17,22-20.42a19,19,0,0,0-.94-5.91,17.17,17.17,0,0,0-1.06-2.59,18.61,18.61,0,0,1,6.27,13.82A18.06,18.06,0,0,1,46.41,35l3.79,6.85A.92.92,0,0,1,49.14,43.18Z"/></g></g></svg>