<svg xmlns="http://www.w3.org/2000/svg" viewBox="0 0 59.37 54.69"><defs><style>.cls-1{fill:#635ba9;}</style></defs><g id="Layer_2" data-name="Layer 2"><g id="features_icon" data-name="features icon"><path class="cls-1" d="M34.16,20.44c2,2,2.26,6.12-4.78,9.76-7-3.64-6.78-7.76-4.78-9.76s4.78-.65,4.78.93C29.38,19.79,32.16,18.44,34.16,20.44ZM12,35.05a9,9,0,1,0-9-9A9,9,0,0,0,12,35.05Zm1.81.07H10.19A10.3,10.3,0,0,0,0,44.11,1.18,1.18,0,0,0,1.2,45.39H22.79A1.18,1.18,0,0,0,24,44.11,10.3,10.3,0,0,0,13.8,35.12ZM47.37,24.74a9,9,0,1,0-9-9A9,9,0,0,0,47.37,24.74Zm1.81.07H45.57a10.31,10.31,0,0,0-10.18,9,1.18,1.18,0,0,0,1.19,1.27H58.17a1.18,1.18,0,0,0,1.19-1.27A10.31,10.31,0,0,0,49.18,24.81ZM9.79,15.35a2,2,0,0,0,.94.34,2.1,2.1,0,0,0,1.94-.92A16.9,16.9,0,0,1,28,8l-1.28,3.79L38.9,9.31,30.69,0,29.36,4A21.05,21.05,0,0,0,9.2,12.49,2.06,2.06,0,0,0,9.79,15.35ZM51.7,36.27a2.09,2.09,0,0,0-2.75,1,16.91,16.91,0,0,1-14.09,9.08l.66-3.94L23.88,46.77l9.57,7.92.7-4.14H35A21.06,21.06,0,0,0,52.74,39,2.09,2.09,0,0,0,51.7,36.27Z"/></g></g></svg>