<?xml version="1.0" encoding="utf-8"?>
<!-- Generator: Adobe Illustrator 24.3.0, SVG Export Plug-In . SVG Version: 6.00 Build 0)  -->
<svg version="1.1" id="Layer_1" xmlns="http://www.w3.org/2000/svg" xmlns:xlink="http://www.w3.org/1999/xlink" x="0px" y="0px"
	 viewBox="0 0 51.7 51.7" style="enable-background:new 0 0 51.7 51.7;" xml:space="preserve">
<style type="text/css">
	.st0{fill:#FFFFFF;stroke:#FFFFFF;stroke-miterlimit:10;}
	.st1{fill:#635BA9;}
</style>
<circle class="st0" cx="25.8" cy="25.8" r="25.3"/>
<path class="st1" d="M18.8,18.3c-0.1,0-0.1,0-0.2,0l-0.5-0.1c-0.3,0-0.5-0.2-0.7-0.4c-0.2-0.2-0.2-0.5-0.2-0.8
	c0.7-3.4,3.3-6,6.7-6.7c0.6-0.1,1.2-0.2,1.8-0.2c4.1,0,7.6,2.9,8.5,6.9c0.1,0.3,0,0.5-0.2,0.8c-0.2,0.2-0.4,0.4-0.7,0.4l-0.4,0.1
	c-0.1,0-0.2,0-0.3,0h0c-0.5,0-1-0.4-1-0.9c0,0,0-0.1,0-0.1c-0.6-2.3-2.4-4.1-4.8-4.6c-0.4-0.1-0.8-0.1-1.2-0.1c-2.9,0-5.4,2.1-6,4.9
	C19.7,18,19.3,18.3,18.8,18.3z"/>
<path class="st1" d="M20.4,27.7c2.2-1.6,2.6-4.7,1-6.9c-0.7-0.9-1.7-1.6-2.9-1.9c-2.7-0.6-5.3,1.2-5.9,3.9c-0.1,0.3-0.1,0.6-0.1,0.9
	c0,1.6,0.7,3,2,3.9c-1.8,0.8-3.2,2.3-4,4.1c-0.4,1.1,0.1,2.3,1.2,2.7c0.2,0.1,0.5,0.2,0.8,0.2h10c1.2,0,2.1-0.9,2.1-2.1
	c0-0.3-0.1-0.5-0.2-0.8C23.7,29.9,22.2,28.4,20.4,27.7z"/>
<path class="st1" d="M37.2,27.7c2.2-1.6,2.6-4.7,1-6.9c-0.7-0.9-1.7-1.6-2.9-1.9c-2.7-0.6-5.3,1.2-5.9,3.9c-0.1,0.3-0.1,0.6-0.1,0.9
	c0,1.6,0.7,3,2,3.9c-1.9,0.8-3.4,2.3-4.1,4.2c-0.4,1,0.1,2.2,1.1,2.6c0.2,0.1,0.5,0.1,0.7,0.1h10.5c1.1,0,2-0.9,2-2
	c0-0.2-0.1-0.5-0.1-0.7C40.5,30,39.1,28.5,37.2,27.7z"/>
</svg>
