<svg xmlns="http://www.w3.org/2000/svg" viewBox="0 0 110.65 78.66"><defs><style>.cls-1{fill:#6159a8;}</style></defs><g id="Layer_2" data-name="Layer 2"><g id="mid_bottom" data-name="mid bottom"><path class="cls-1" d="M22.15,48a32,32,0,0,0-6.09,8.88,33.72,33.72,0,0,0-2.72,9.18c-.07.81-.17,1.61-.23,2.4s0,1.59,0,2.43v2.55l-8.32,0a4.73,4.73,0,0,1-3.35-1.39A4.69,4.69,0,0,1,0,68.75,29.87,29.87,0,0,1,14.28,43.33,22.87,22.87,0,0,0,22.15,48Zm9.74-8.71a20.31,20.31,0,0,1-3.78-4A21.61,21.61,0,0,1,24,21.77a21.21,21.21,0,0,1,2-8.43,21.44,21.44,0,0,1,4.08-6,19,19,0,0,0-12.43,33.7,19.29,19.29,0,0,0,6.91,3.65c.68-.66,1.34-1.24,2-1.77.27-.24.53-.46.8-.67.71-.55,1.37-1,2-1.49a3.31,3.31,0,0,1,3-.37s.88.33,2.22.8A19.9,19.9,0,0,1,31.89,39.3ZM88,45.4A29.82,29.82,0,0,0,85,43.34,23,23,0,0,1,77.16,48a31.25,31.25,0,0,1,2.44,2.84,8.62,8.62,0,0,1,8-5.45ZM87.75,71l-.37,1.57L89,72.17A2.61,2.61,0,0,0,87.75,71Zm5.57.18a.14.14,0,0,0,.1-.11.15.15,0,0,0,0-.13l-4.34-4.34a.21.21,0,0,0-.12,0h-.05s-.1,0-.11.12l-.86,3.65A3.32,3.32,0,0,1,89.63,72ZM64.7,41.22c1.34-.47,2.2-.78,2.22-.8a3.31,3.31,0,0,1,3,.37c.66.46,1.32.94,2,1.49.27.21.53.43.79.67a24.43,24.43,0,0,1,2,1.77,19.21,19.21,0,0,0,6.91-3.65A19,19,0,0,0,69.21,7.37a22,22,0,0,1,6.12,14.4A21.67,21.67,0,0,1,71.2,35.28a20.36,20.36,0,0,1-3.79,4A19.21,19.21,0,0,1,64.7,41.22ZM69.38,13A21.79,21.79,0,1,0,32.23,35.17a20.63,20.63,0,0,0,3.91,3.9,22,22,0,0,0,7,3.62,21.79,21.79,0,0,0,19.58-3.62,20.84,20.84,0,0,0,3.67-3.6,21.76,21.76,0,0,0,3-22.45ZM79,73.12V56.87q-.54-1.17-1.17-2.28a33.2,33.2,0,0,0-8-9.42L68.32,44h0c-.29-.22-.57-.42-.86-.61a2.8,2.8,0,0,0-.32-.2,38.07,38.07,0,0,1-8,3.6c-2.69.86-4.52.94-9.65,1.39-2.82.25-9.12-1.59-13.5-3l-1.14-.38c-2.1-.71-3.54-1.24-3.54-1.24-.61.42-1.2.86-1.78,1.31-.25.2-.5.4-.75.63A28.63,28.63,0,0,0,26,48a32.14,32.14,0,0,0-6.08,8.88,33.81,33.81,0,0,0-2.73,9.19c-.06.81-.16,1.6-.23,2.39s-.05,1.59-.05,2.43v2.76L79,73.36A1.93,1.93,0,0,1,79,73.12ZM67.44,43.38c.3.2.58.4.86.61m-.86-.61c.3.2.58.4.86.61M87.75,71l-.37,1.57L89,72.17A2.61,2.61,0,0,0,87.75,71Zm5.64-.06-4.34-4.34a.21.21,0,0,0-.12,0h-.05s-.1,0-.11.12l-.86,3.65A3.32,3.32,0,0,1,89.63,72l3.69-.87a.14.14,0,0,0,.1-.11A.15.15,0,0,0,93.39,70.91ZM87.75,71l-.37,1.57L89,72.17A2.61,2.61,0,0,0,87.75,71Zm5.64-.06-4.34-4.34a.21.21,0,0,0-.12,0h-.05s-.1,0-.11.12l-.86,3.65A3.32,3.32,0,0,1,89.63,72l3.69-.87a.14.14,0,0,0,.1-.11A.15.15,0,0,0,93.39,70.91Zm0,0-4.34-4.34a.21.21,0,0,0-.12,0h-.05s-.1,0-.11.12l-.86,3.65A3.32,3.32,0,0,1,89.63,72l3.69-.87a.14.14,0,0,0,.1-.11A.15.15,0,0,0,93.39,70.91ZM87.75,71l-.37,1.57L89,72.17A2.61,2.61,0,0,0,87.75,71Zm17.36-22.5H87.61A5.56,5.56,0,0,0,82.07,54V73.12a5.57,5.57,0,0,0,5.54,5.54h17.5a5.56,5.56,0,0,0,5.54-5.54V54A5.55,5.55,0,0,0,105.11,48.47ZM94.23,71.28l-.15-.15a.16.16,0,0,1,0,.1.79.79,0,0,1-.59.57l-7,1.65,1.63-6.94a.81.81,0,0,1,.59-.62.29.29,0,0,1,.13,0l-.18-.18L97,57.33l1.51-1.51,5.58,5.58Zm10.35-10.35L99,55.35l1.67-1.67,5.58,5.58Z"/></g></g></svg>