<svg xmlns="http://www.w3.org/2000/svg" viewBox="0 0 187.35 187.35"><defs><style>.cls-1{fill:#6159a8;}</style></defs><g id="Layer_2" data-name="Layer 2"><g id="mid_bottom" data-name="mid bottom"><path class="cls-1" d="M93.68,187.35a93.68,93.68,0,1,1,93.67-93.67A93.78,93.78,0,0,1,93.68,187.35Zm0-179.87a86.2,86.2,0,1,0,86.2,86.2A86.3,86.3,0,0,0,93.68,7.48ZM50.86,93.21a42,42,0,0,0-8,11.72,44.81,44.81,0,0,0-3.61,12.14c-.08,1.07-.21,2.12-.3,3.17s-.07,2.09-.07,3.21v3.36l-11,0A6.29,6.29,0,0,1,23.44,125a6.2,6.2,0,0,1-1.83-4.41A39.44,39.44,0,0,1,40.47,87,30.43,30.43,0,0,0,50.86,93.21ZM63.74,81.7a26.47,26.47,0,0,1-5-5.3,28.59,28.59,0,0,1-5.46-17.86,29.16,29.16,0,0,1,8.08-19A25.15,25.15,0,0,0,44.94,84a25.52,25.52,0,0,0,9.13,4.82c.89-.87,1.77-1.63,2.64-2.33.35-.33.7-.61,1-.9.94-.72,1.81-1.35,2.68-2a4.37,4.37,0,0,1,4-.48s1.16.43,2.93,1A26,26,0,0,1,63.74,81.7Zm76,9.68A39.63,39.63,0,0,0,133.93,87a30.34,30.34,0,0,1-10.39,6.18,42,42,0,0,1,5.38,6.85,25.5,25.5,0,0,1,10.8-8.68Zm-32.64-7.14c1.77-.62,2.9-1,2.92-1a4.39,4.39,0,0,1,4,.48c.87.61,1.74,1.24,2.68,2,.35.29.7.57,1,.9.87.7,1.74,1.46,2.64,2.33A25.52,25.52,0,0,0,129.46,84,25.15,25.15,0,0,0,113,39.52a29.16,29.16,0,0,1,8.08,19,28.71,28.71,0,0,1-5.46,17.86,26.47,26.47,0,0,1-5,5.3A27.26,27.26,0,0,1,107.08,84.24ZM113.25,47a28.77,28.77,0,0,0-52.83.37,28.76,28.76,0,0,0,3.76,28.89,27.71,27.71,0,0,0,5.17,5.15,28.92,28.92,0,0,0,9.26,4.78,28.76,28.76,0,0,0,25.87-4.78,27.6,27.6,0,0,0,4.84-4.76A28.71,28.71,0,0,0,113.25,47Zm12.83,58.18c-.5-1.11-1.06-2.2-1.67-3.27a43.77,43.77,0,0,0-10.54-12.44l-2-1.53s0,0,0,0c-.37-.29-.74-.55-1.14-.81a3.1,3.1,0,0,0-.41-.26A50.4,50.4,0,0,1,99.66,91.6c-3.56,1.13-6,1.24-12.75,1.83-3.74.33-12-2.1-17.84-4l-1.51-.5c-2.77-.94-4.67-1.64-4.67-1.64-.81.55-1.59,1.14-2.36,1.73-.32.26-.65.52-1,.83a38.53,38.53,0,0,0-3.65,3.36,42.3,42.3,0,0,0-8,11.73,44.27,44.27,0,0,0-3.6,12.13c-.09,1.07-.22,2.12-.31,3.17s-.06,2.1-.06,3.21v3.65l83.15-.41a25.65,25.65,0,0,1-1-21.52ZM110.7,87.1c.39.26.76.52,1.14.8m-1.14-.8c.39.26.76.52,1.14.8M165,99.64a21.58,21.58,0,0,0-30.51,0,21.5,21.5,0,0,0-6,11.89A21.57,21.57,0,1,0,165,99.64Zm-3.54,17.2h-9.77v9.77a1.94,1.94,0,0,1-3.88.12.49.49,0,0,1,0-.12v-9.77H138a1.95,1.95,0,0,1,0-3.9h9.77v-9.77a1.87,1.87,0,0,1,.36-1.12,1.94,1.94,0,0,1,3.53,1.12v9.77h9.77a2,2,0,1,1,0,3.9Z"/></g></g></svg>