<svg xmlns="http://www.w3.org/2000/svg" viewBox="0 0 40.71 33.04"><defs><style>.cls-1{fill:#fff;}</style></defs><g id="Layer_2" data-name="Layer 2"><g id="header_button" data-name="header button"><path class="cls-1" d="M31.39,13.91a9.58,9.58,0,0,0-9.32,6.55A12.54,12.54,0,0,1,5.64,17,9.84,9.84,0,0,0,0,25.82H0A6.21,6.21,0,0,0,6.22,32H26.88a9.57,9.57,0,1,0,4.51-18.13Zm-1.64,17A7.57,7.57,0,1,1,38.58,22,7.54,7.54,0,0,1,29.75,30.91ZM25.32,8.6A9.57,9.57,0,1,1,17,.07,9.59,9.59,0,0,1,25.32,8.6Zm9.87,15.29a1,1,0,0,1-1,1h-2v2.05a1,1,0,0,1-2,0V24.89h-2a1,1,0,0,1,0-2h2v-2a1,1,0,0,1,2,0v2h2A1,1,0,0,1,35.19,23.89Z"/></g></g></svg>