<svg xmlns="http://www.w3.org/2000/svg" viewBox="0 0 60.5 60.5"><defs><style>.cls-1{fill:#6159a8;}</style></defs><g id="Layer_2" data-name="Layer 2"><g id="mid_bottom" data-name="mid bottom"><path class="cls-1" d="M30.25,60.5A30.25,30.25,0,1,1,60.5,30.25,30.28,30.28,0,0,1,30.25,60.5Zm0-58.08A27.84,27.84,0,1,0,58.09,30.25,27.86,27.86,0,0,0,30.25,2.42Zm-14,29a13.24,13.24,0,0,0-2.57,3.75,13.87,13.87,0,0,0-1.15,3.88c0,.34-.07.68-.1,1s0,.67,0,1v1.07l-3.51,0a2,2,0,0,1-2-2,12.64,12.64,0,0,1,6-10.74A9.67,9.67,0,0,0,16.24,31.44Zm4.11-3.68a8.56,8.56,0,0,1-1.59-1.7A9.1,9.1,0,0,1,17,20.35a8.88,8.88,0,0,1,.86-3.56,9.08,9.08,0,0,1,1.72-2.52,8,8,0,0,0-2.33,15.78c.29-.28.57-.52.85-.75l.33-.28c.3-.23.58-.44.86-.63a1.38,1.38,0,0,1,1.26-.15l.94.33A8.49,8.49,0,0,1,20.35,27.76ZM44,30.33c-.4-.31-.82-.6-1.25-.87a9.72,9.72,0,0,1-3.32,2,14.79,14.79,0,0,1,1,1.2,3.65,3.65,0,0,1,3.38-2.31Zm-.1,10.8-.15.67.67-.16A1.22,1.22,0,0,0,43.94,41.13Zm2.35.08s0,0,.05,0a.15.15,0,0,0,0-.06L44.5,39.28l-.06,0h0s0,0,0,.05L44,40.85a1.5,1.5,0,0,1,.74.73ZM34.21,28.57l.94-.33a1.38,1.38,0,0,1,1.26.15c.28.19.56.4.86.63l.33.28c.28.23.56.47.85.75a8,8,0,0,0-2.33-15.78,9.08,9.08,0,0,1,1.72,2.52,8.88,8.88,0,0,1,.86,3.56A9.15,9.15,0,0,1,37,26.06a8.91,8.91,0,0,1-1.6,1.7A8.49,8.49,0,0,1,34.21,28.57Zm2-11.91A9.2,9.2,0,0,0,20.93,14.2a9.51,9.51,0,0,0-1.64,2.58A9.22,9.22,0,0,0,20.49,26a8.89,8.89,0,0,0,1.66,1.64,9.26,9.26,0,0,0,3,1.53,9.19,9.19,0,0,0,8.27-1.53,8.92,8.92,0,0,0,1.55-1.52,9.19,9.19,0,0,0,1.26-9.48ZM40.25,42V35.18c-.16-.33-.32-.65-.5-1a14,14,0,0,0-3.37-4l-.63-.49s0,0,0,0l-.35-.26c-.05,0-.09-.06-.15-.08a15.34,15.34,0,0,1-3.4,1.52,16.71,16.71,0,0,1-4.07.59c-1.2.1-3.85-.67-5.71-1.28l-.47-.16c-.9-.3-1.5-.52-1.5-.52-.25.17-.5.36-.75.55l-.32.26a13.24,13.24,0,0,0-1.17,1.08,13.88,13.88,0,0,0-2.57,3.75,14.55,14.55,0,0,0-1.14,3.88c0,.34-.08.68-.09,1s0,.67,0,1v1.16l26.25-.12ZM35.37,29.48l.36.26m-.36-.26.36.26m8.21,11.39-.15.67.67-.16A1.22,1.22,0,0,0,43.94,41.13Zm.56-1.85-.06,0h0s0,0,0,.05L44,40.85a1.5,1.5,0,0,1,.74.73l1.54-.37s0,0,.05,0a.15.15,0,0,0,0-.06Zm6.77-7.65H43.88A2.36,2.36,0,0,0,41.54,34V42a2.35,2.35,0,0,0,2.34,2.34h7.39A2.35,2.35,0,0,0,53.62,42V34A2.36,2.36,0,0,0,51.27,31.63Zm-2.5,7.54-2.09,2.1,0-.07a.09.09,0,0,1,0,0,.37.37,0,0,1-.25.24l-3,.69.68-2.93a.36.36,0,0,1,.25-.26s0,0,.07,0l-.08-.08,4.17-4.17,2.35,2.35Zm2.28-2.28-2.36-2.35.72-.71,2.34,2.36Z"/></g></g></svg>