<svg xmlns="http://www.w3.org/2000/svg" viewBox="0 0 113.3 80.75"><defs><style>.cls-1{fill:#6159a8;}</style></defs><g id="Layer_2" data-name="Layer 2"><g id="mid_bottom" data-name="mid bottom"><path class="cls-1" d="M22.15,48a32,32,0,0,0-6.09,8.88,33.72,33.72,0,0,0-2.72,9.18c-.07.81-.17,1.61-.23,2.4s0,1.59,0,2.43v2.55l-8.32,0a4.73,4.73,0,0,1-3.35-1.39A4.69,4.69,0,0,1,0,68.75,29.87,29.87,0,0,1,14.28,43.33,22.87,22.87,0,0,0,22.15,48Zm9.74-8.71a20.31,20.31,0,0,1-3.78-4A21.61,21.61,0,0,1,24,21.77a21.21,21.21,0,0,1,2-8.43,21.44,21.44,0,0,1,4.08-6,19,19,0,0,0-12.43,33.7,19.29,19.29,0,0,0,6.91,3.65c.68-.66,1.34-1.24,2-1.77.27-.24.53-.46.8-.67.71-.55,1.37-1,2-1.49a3.31,3.31,0,0,1,3-.37s.88.33,2.22.8A19.9,19.9,0,0,1,31.89,39.3Zm57.52,7.32A30.58,30.58,0,0,0,85,43.34,23,23,0,0,1,77.16,48a32.06,32.06,0,0,1,4.08,5.19,18.12,18.12,0,0,1,2.06-2.44A19.22,19.22,0,0,1,89.41,46.62ZM64.7,41.22c1.34-.47,2.2-.78,2.22-.8a3.31,3.31,0,0,1,3,.37c.66.46,1.32.94,2,1.49.27.21.53.43.79.67a24.43,24.43,0,0,1,2,1.77,19.21,19.21,0,0,0,6.91-3.65A19,19,0,0,0,69.21,7.37a22,22,0,0,1,6.12,14.4A21.67,21.67,0,0,1,71.2,35.28a20.36,20.36,0,0,1-3.79,4A19.21,19.21,0,0,1,64.7,41.22ZM69.38,13A21.79,21.79,0,1,0,32.23,35.17a20.63,20.63,0,0,0,3.91,3.9,22,22,0,0,0,7,3.62,21.79,21.79,0,0,0,19.58-3.62,20.84,20.84,0,0,0,3.67-3.6,21.76,21.76,0,0,0,3-22.45Zm9.71,44.07c-.38-.85-.81-1.69-1.27-2.5a33.16,33.16,0,0,0-8-9.42L68.32,44h0a10.29,10.29,0,0,0-.86-.61c-.12-.07-.2-.15-.31-.2a38.07,38.07,0,0,1-8,3.6c-2.7.86-4.53.94-9.65,1.39-2.83.25-9.13-1.59-13.51-3l-1.14-.38c-2.1-.71-3.53-1.24-3.53-1.24-.62.42-1.21.86-1.79,1.31-.25.2-.49.4-.74.63A27.59,27.59,0,0,0,26,48a31.71,31.71,0,0,0-6.08,8.88,33.46,33.46,0,0,0-2.73,9.19c-.07.81-.17,1.6-.23,2.39s-.05,1.59-.05,2.43v2.76l63-.3A19.35,19.35,0,0,1,79.09,57.09ZM67.44,43.38c.3.2.58.4.86.61m-.86-.61c.3.2.58.4.86.61m40.21,8.89a16.3,16.3,0,0,0-23.09,0,16.2,16.2,0,0,0-4.59,9A16.37,16.37,0,0,0,82,71a16.33,16.33,0,1,0,26.51-18.08Zm-2.68,13H98.44v7.39A1.48,1.48,0,0,1,97,74.77a1.46,1.46,0,0,1-1.46-1.39.28.28,0,0,1,0-.09V65.9H88.1a1.48,1.48,0,1,1,0-3h7.39V55.56a1.49,1.49,0,0,1,.27-.86,1.48,1.48,0,0,1,2.68.86V63h7.39a1.48,1.48,0,1,1,0,3Z"/></g></g></svg>