<?xml version="1.0" encoding="UTF-8"?>
<svg id="Layer_2" data-name="Layer 2" xmlns="http://www.w3.org/2000/svg" viewBox="0 0 200 200">
  <defs>
    <style>
      .cls-1 {
        fill: #3a3092;
      }

      .cls-2 {
        fill: #f2f2f2;
      }
    </style>
  </defs>
  <g id="Layer_1-2" data-name="Layer 1">
    <g>
      <path class="cls-2" d="M100.02,0C44.86,0,0,44.86,0,100.02s44.86,99.98,100.02,99.98,99.98-44.86,99.98-99.98S155.14,0,100.02,0Z"/>
      <g id="Layer_2-2" data-name="Layer 2">
        <g id="logo">
          <path class="cls-1" d="M110.78,64.99c-3.59,0-7.1,.98-10.18,2.81,.25,.18,.51,.36,.75,.55s.68,.52,1,.8l.29,.25c.2,.18,.41,.36,.58,.54l.46,.46,.18,.18c7.98-3.86,17.58-.51,21.43,7.47,3.86,7.98,.51,17.58-7.47,21.43-4.41,2.13-9.55,2.13-13.96,0l-.88-.41c-1.19-.65-2.28-1.45-3.27-2.38l-.61-.6c-5.88-6.18-5.88-15.89,0-22.07l-.64-.57c-.26-.22-.54-.44-.82-.64l-.31-.23c-.19-.13-.38-.26-.58-.38l-.15-.1-.57-.33-.19-.13c-6.85,7.61-6.85,19.17,0,26.78l.61,.66c.99,1.02,2.09,1.92,3.28,2.69,.26,.18,.52,.35,.8,.5,9.52,5.64,21.82,2.5,27.46-7.02,5.64-9.52,2.5-21.82-7.02-27.46-3.09-1.83-6.62-2.8-10.21-2.8h.04Z"/>
          <path class="cls-1" d="M98.37,64.37l1.38,.72,1.37-.72c8.35-4.29,10.66-8.99,11.16-12.18,.48-3.04-.54-6.13-2.73-8.29-1.52-1.57-3.61-2.47-5.79-2.49h0c-1.42,0-2.81,.38-4.02,1.12-1.2-.73-2.58-1.12-3.99-1.12-2.19,.02-4.28,.92-5.79,2.49-2.21,2.17-3.23,5.29-2.73,8.35,.49,3.14,2.83,7.83,11.15,12.13Zm-6.3-18.35c.96-1.01,2.28-1.59,3.67-1.61,2.17,0,4.01,1.48,4.01,3.1,0-1.62,1.84-3.1,4.01-3.1,1.39,.02,2.71,.6,3.67,1.61,3.21,3.22,3.58,9.85-7.68,15.69-11.31-5.84-10.9-12.47-7.68-15.69Z"/>
          <path class="cls-1" d="M88.68,105.08c3.6,0,7.14-.97,10.23-2.81l-.69-.55h0l-.41-.31h0l-.51-.39c-.08-.07-.16-.14-.24-.21-.14-.11-.27-.23-.41-.35l-.33-.32-.49-.46-.18-.19c-2.17,1.06-4.56,1.6-6.97,1.6-8.86,0-16.06-7.17-16.07-16.03,0-8.86,7.17-16.06,16.03-16.07,2.42,0,4.82,.54,7,1.6l.79,.42c1.19,.65,2.29,1.46,3.28,2.38l.61,.61c5.87,6.18,5.87,15.87,0,22.06,.2,.2,.42,.39,.64,.58l.81,.64c.11,.07,.21,.15,.32,.21,.19,.14,.38,.27,.58,.39l.15,.1c.18,.12,.37,.23,.56,.33l.19,.1c6.87-7.61,6.87-19.17,0-26.78-.19-.21-.39-.43-.61-.64-.99-1.01-2.08-1.92-3.27-2.69-.26-.18-.52-.35-.8-.5-9.53-5.63-21.82-2.48-27.45,7.05-5.63,9.53-2.48,21.82,7.05,27.45,3.08,1.82,6.59,2.78,10.17,2.79Z"/>
          <path class="cls-1" d="M53.27,133.18h-.45c-1.13,.16-2.21-.54-2.52-1.64-.18-.69-.26-1.41-.24-2.12,.17-1.64,.55-3.26,1.13-4.81,.84-2.48,1.87-4.88,3.09-7.2,.64-1.13,1.02-2.38,1.11-3.67,0-.29-.03-.58-.11-.86-.14-.69-.76-1.18-1.47-1.14-.29,0-.58,.06-.86,.15-1.77,.52-3.81,2.21-6.07,5-2,2.5-3.74,4.85-5.15,7,.08-.23,.17-.5,.27-.82,1.46-4.34,2.2-7.49,2.2-9.35,.04-.72-.17-1.42-.6-2-.78-1-2.21-1-3.92-.08-.76,.4-1.44,.94-2,1.6-1.71,2.09-3.22,4.34-4.51,6.71-.09,.18-.2,.35-.34,.5h0c.03-.23,.09-.46,.19-.67,.7-1.77,1.18-3.62,1.44-5.51,.04-.33,.06-.67,.06-1,.02-.9-.15-1.8-.48-2.64-.71-1.69-2.43-2.73-4.26-2.56-2.44,0-5.11,1-7.92,3.06-2.47,1.72-4.43,4.09-5.65,6.85-.44,1.09-.69,2.25-.75,3.42-.02,.77,.08,1.54,.31,2.27,.47,1.45,1.53,2.65,2.91,3.3,1.32,.67,2.88,.71,4.24,.11,1.82-.7,3.35-2.02,4.31-3.72,.45-.69,.72-1.49,.79-2.31,.01-.52-.08-1.03-.26-1.51-.35-.95-1.29-1.55-2.3-1.47-.22,0-.45,.02-.67,.06-.51,0-.77,.15-.85,.32-.05,.08-.05,.18,0,.26,.13,.2,.38,.29,.61,.24,.2-.01,.4-.01,.6,0,1.13,0,1.68,.58,1.68,1.79-.05,1-.36,1.96-.9,2.8-1.25,2.11-2.86,3.18-4.8,3.18-.59-.01-1.16-.17-1.67-.46-1.5-.72-2.28-2.27-2.28-4.59,.06-1.14,.31-2.27,.72-3.34,.31-.84,.72-1.64,1.23-2.38,1.37-2.06,3.16-3.81,5.26-5.13,1.53-1.12,3.34-1.82,5.23-2,2.12,0,3.15,1.25,3.15,3.83,0,2.19-.95,5.73-2.81,10.52-1.06,2.96-2.4,5.82-4,8.53h0c-.01,.08-.01,.16,0,.24,0,.24,.21,.54,.87,.54,.68,.09,1.34-.27,1.65-.88,.05-.14,.12-.29,.2-.46,.08-.14,.14-.28,.2-.42l1.21-2.69c.75-1.65,1.43-3.1,2-4.32,.76-1.52,1.59-3,2.5-4.43,1.14-1.86,2.4-3.64,3.77-5.34,1.06-1.33,2-2,2.9-2,.28,.02,.53,.16,.7,.38,.24,.28,.36,.64,.35,1,0,.41-.01,.82-.06,1.22-.31,2.72-.91,5.41-1.79,8-.36,1-.77,2.08-1.2,3.09s-.81,1.82-1.12,2.4-.61,1.15-.91,1.68-.46,.84-.52,.92c-.07,.14-.07,.3,0,.44,.1,.41,.44,.61,1,.61,.75,0,1.35-.52,1.8-1.56,.98-2.04,2.1-4.01,3.36-5.89,1.76-2.77,3.11-4.74,4-5.85,.89-1.11,1.72-2.08,2.49-2.84,1.48-1.45,2.58-2.18,3.26-2.18,.29,0,.66,.08,.66,.8-.09,.9-.33,1.78-.73,2.6-1.41,3.09-2.35,5.2-2.8,6.28-.28,.68-.62,1.64-1,2.87-.37,1.09-.57,2.22-.6,3.37,0,2.75,1.5,4.29,4.46,4.59,.13,.01,.27,.01,.4,0,.18,0,.36-.04,.52-.12,.26-.13,.28-.28,.25-.38s-.4-.19-.51-.19Z"/>
          <path class="cls-1" d="M78.15,118.15c-.27,.22-.45,.53-.51,.88-.05,.32,.04,.64,.25,.89,.2,.25,.51,.39,.83,.37,.34,0,.68-.13,.93-.36,.27-.22,.45-.53,.51-.87,.08-.32-.01-.66-.23-.9-.21-.24-.53-.38-.85-.37-.34,0-.67,.13-.93,.36Z"/>
          <path class="cls-1" d="M124.58,124.91c-.06-.02-.12-.02-.18,0-.12,0-.22,.16-.33,.37-.51,1.03-1.09,2.04-1.73,3-.91,1.26-2.21,2.19-3.7,2.63,.26-.73,.61-1.75,1-3,.49-1.43,.9-2.6,1.22-3.46,.25-.69,.54-1.36,.89-2,.26-.49,.64-.91,1.1-1.22,.05-.04,.05-.12,.01-.17-.02-.02-.05-.04-.08-.04h-1.49c-.49-.04-.95,.22-1.18,.65-1.15,2.56-2.6,4.98-4.33,7.19-.75,.88-1.16,1.06-1.38,1.06-.18,.01-.36-.06-.48-.2-.14-.24-.21-.51-.18-.79,.08-.65,.28-1.28,.6-1.86,1-2.09,1.82-3.74,2.49-4.88,.17-.3,.42-.56,.71-.74,.1-.07,.2-.15,.29-.23,.03-.04,.03-.09,0-.13-.01-.04-.05-.07-.1-.07h-1.69c-.49-.05-.96,.21-1.18,.65-.41,.84-.93,1.86-1.55,3l-.13,.26c-.09,.08-.16,.18-.2,.29-1.56,3.13-2.8,4.72-3.68,4.72-.2,0-.41-.07-.41-.6,0-1.19,1.14-3.8,3.38-7.74,.01-.03,.01-.07,0-.1-.01-.03-.04-.06-.07-.07-.11-.04-.22-.06-.34-.06-.8,.11-1.56,.39-2.24,.83-.93,.49-1.79,1.09-2.58,1.78-.61,.56-1.19,1.15-1.72,1.79,1.29-2.5,2.24-3.92,2.83-4.24,.03-.04,.03-.1,0-.14-.01-.05-.07-.09-.12-.07,0,0,0,0,0,0-.21,.04-.42,.04-.63,0-.19-.05-.39-.08-.59-.09-.37-.02-.73,.12-1,.37-.8,1.04-1.47,2.18-2,3.38-.06,.04-.1,.09-.13,.15,0,.08-.14,.31-.31,.69s-.32,.67-.43,.86-.28,.53-.52,1c-.33,.54-.73,1.04-1.18,1.48-.32,.42-.8,.68-1.32,.71-.46,.04-.9-.17-1.16-.55,.97-.92,1.75-2.02,2.29-3.24,.38-.79,.6-1.65,.62-2.53,0-1.77-.72-2.66-2.14-2.66-1.12,.08-2.16,.57-2.94,1.38-.97,.92-1.73,2.04-2.23,3.27l-.14,.33c-.52,1.11-1.17,2.16-1.94,3.12-.55,.67-1.03,1-1.44,1-.11,0-.41,0-.41-.66,0-1.14,1.13-3.72,3.36-7.68,.01-.03,.01-.06,0-.09,0-.03-.03-.06-.06-.07-.1-.05-.22-.08-.33-.07-.8,.11-1.57,.4-2.25,.84-.94,.51-1.82,1.12-2.63,1.83-.59,.52-1.13,1.07-1.64,1.67l.71-1.3c.47-.65,.81-1.39,1-2.18,0-.37-.25-.69-.6-.79-.06-.07-.18-.12-.4,0-.1,.03-.21,.05-.32,.06-.16,.02-.31,.09-.44,.19l-.4,.22c-.17,.08-.32,.19-.46,.31l-.5,.27-.44,.4-.23,.2-.23,.21-.42,.37-.84,.75c-.43,.41-.84,.85-1.21,1.31,1.37-2.52,2.26-3.94,2.85-4.24,.05-.03,.08-.08,.06-.14-.02-.06-.08-.09-.14-.07,0,0,0,0,0,0-.21,.04-.42,.04-.63,0-.19-.05-.39-.08-.59-.09-.37-.02-.73,.12-1,.37-.81,1.05-1.48,2.2-2,3.42-.07,.08-.13,.16-.18,.26-.66,1.49-1.53,2.89-2.57,4.14-.26,.28-.62,.45-1,.49-.51,0-.74-.21-.74-.68,.03-.59,.19-1.17,.46-1.7l2.2-5.16c.21-.37,.27-.64,.17-.84s-.37-.3-.85-.3h-1.52s-.08,.03-.1,.07c-.02,.03-.02,.08,0,.11,.16,.18,.27,.41,.31,.65,0,.14-.01,.28-.05,.41l-1.31,3.32c-1.66,3.25-2.56,4-3,4-.12,.01-.23-.04-.3-.13-.13-.17-.2-.63,.19-1.81,.14-.41,.3-.82,.48-1.21,.2-.45,.37-.82,.52-1.12l.5-1,.59-1.22c.19-.35,.31-.73,.35-1.12,0-.34,0-.45-.08-.5-.02-.04-.07-.06-.11-.05-.92,.09-1.71,.13-2.32,.13h-1.19c.78-.49,1.29-1.31,1.37-2.23,0-.21-.03-.42-.09-.62-.2-.56-.53-.85-1-.85s-.77,.32-.89,1c-.08,.46-.18,.93-.3,1.4,0-.06,0-.12,0-.18-.03-.14-.15-.23-.29-.23h-1.15c.38-.73,.77-1.53,1.16-2.36,.38-.73,.6-1.53,.64-2.35,.07-.56-.21-1.1-.7-1.37-.16-.05-.33-.07-.5-.06-.41,.07-.79,.26-1.11,.53-.66,.56-1.21,1.24-1.61,2-.56,1-1.17,2.17-1.82,3.6h-1.59c-.14,0-.27,.09-.31,.22-.05,.12-.05,.26,0,.38,.02,.14,.15,.24,.29,.23h1.27c-.68,1.63-1.26,3.3-1.72,5-.57,1.1-1.24,2.15-2,3.13-.62,.76-1,.92-1.21,.92s-.3,0-.3-.43c.02-.5,.1-1,.23-1.49,.23-.9,.56-1.78,1-2.6,.37-.79,.83-1.54,1.38-2.22,.05-.05,.04-.12,0-.17-.03-.03-.07-.04-.1-.03-.2,.05-.42,.05-.62,0-.19-.04-.39-.07-.59-.08-.38,0-.74,.14-1,.41-.36,.43-.66,.91-.9,1.42-1.76,3.34-3.19,5-4.24,5-.14,0-.58,0-.58-1,.11-1.01,.48-1.98,1.07-2.82,.52-.92,1.13-1.78,1.84-2.57,1.17-1.2,2.13-1.81,2.88-1.81,.58-.04,1.1,.35,1.22,.92,.01,.04,.05,.07,.09,.08,.24,.06,.5-.06,.6-.29,.08-.26,0-.54-.2-.71-.86-.85-2.11-1.15-3.26-.78-1.3,.32-2.46,1.04-3.32,2.06-1.43,1.52-2.28,3.5-2.38,5.58-.08,.8,.26,1.58,.88,2.08,.25,.2,.55,.3,.87,.3,1,0,2.19-1,3.54-3-.07,.33-.11,.66-.12,1-.02,.41,.08,.81,.27,1.17,.28,.51,.82,.83,1.4,.83,.9,0,1.93-1,3.11-2.88v.5c-.02,.61,.18,1.21,.58,1.68,.37,.44,.92,.68,1.5,.67,.85-.04,1.64-.43,2.19-1.07l.1-.07c1.07-1,2.21-3.11,3.37-6.15l.3-.81c1.34,.05,2,.31,2,.8,0,.12-.02,.25-.07,.36,0,.12-.31,.59-.77,1.38-.38,.64-.71,1.31-1,2-.19,.43-.3,.88-.34,1.35-.01,.26,.02,.53,.09,.78,.13,.79,.8,1.37,1.6,1.38,.86-.1,1.63-.58,2.1-1.31,.26-.3,.49-.59,.69-.86v.06c0,.51,.16,1.02,.46,1.43,.37,.46,.95,.7,1.54,.65,.61-.04,1.18-.29,1.62-.72-.13,.27-.25,.51-.35,.69-.03,.04-.03,.1,0,.14,.03,0,.05,0,.08,0h.06c.24-.09,.49-.14,.75-.13,.29,0,.57-.03,.85-.1,.19-.08,.34-.24,.41-.43,.95-1.99,2.23-3.8,3.79-5.36,.45-.46,.95-.86,1.49-1.2,.08-.04,.17-.07,.26-.09v.27c-.1,.48-.28,.95-.51,1.38-.76,1.37-1.27,2.87-1.5,4.42,.02,.26,.1,.5,.24,.72,.16,.29,.46,.46,.79,.44,.05,0,.1-.03,.11-.09,0,0,0,0,0,0,.34-1.08,.86-2.1,1.55-3,.72-1.08,1.55-2.09,2.48-3,1-.89,1.38-1.07,1.57-1.07,.34,0,.34,.12,.34,.17-.03,.26-.13,.51-.28,.73-.62,.91-1.14,1.88-1.54,2.9-.16,.5-.26,1.02-.28,1.54,0,.35,.09,.7,.27,1,.31,.5,.85,.81,1.44,.82,.52,0,1.04-.15,1.47-.45,.37-.25,.7-.55,1-.88,.38-.42,.71-.87,1-1.36,0,1.71,.74,2.58,2.13,2.58,.85-.05,1.67-.36,2.34-.9,.47,.46,1.12,.71,1.78,.68,.48-.01,.96-.16,1.36-.43l.18-.12c-.16,.33-.3,.6-.4,.8-.03,.04-.03,.09,0,.13,.03,.01,.05,.01,.08,0h0c.24-.09,.49-.13,.75-.12,.29,0,.57-.04,.85-.1,.19-.08,.35-.22,.44-.41,.95-2.02,2.24-3.86,3.82-5.44,1.07-1,1.53-1.21,1.72-1.21,.35,0,.35,.12,.35,.17-.03,.26-.13,.51-.28,.73-.62,.91-1.13,1.88-1.54,2.9-.16,.5-.26,1.02-.28,1.54-.01,.36,.1,.71,.3,1,.36,.54,.98,.85,1.63,.82,.83-.07,1.59-.49,2.1-1.15,.37-.46,.71-.94,1-1.45,0,.11-.02,.28-.06,.51-.05,.21-.03,.44,.06,.64,.16,.87,.98,1.45,1.85,1.32,.89,.02,1.75-.32,2.37-.96,.83-.96,1.56-2,2.17-3.11-.51,1.78-1.18,3.52-2,5.18-.46,.13-1.45,.38-2.94,.74-1.29,.29-2.54,.71-3.75,1.24-1.12,.45-2.06,1.27-2.66,2.32-.26,.52-.4,1.1-.42,1.68,0,.53,.27,1.02,.71,1.32,.59,.4,1.29,.59,2,.54,1.63-.02,3.21-.62,4.44-1.69,1.76-1.63,3.21-3.55,4.29-5.69,.82-.28,1.63-.62,2.41-1,.64-.34,1.21-.8,1.69-1.34,.46-.51,.87-1.06,1.23-1.64,.31-.52,.63-1.1,.93-1.72,.47-1,.47-1.06,.47-1.12,0-.16-.12-.3-.28-.34Zm-26.82,4.34c-.38,.37-.87,.6-1.4,.65-.36,0-.85-.12-.85-1.15,.08-1.13,.41-2.22,.95-3.21,.43-.99,1.04-1.9,1.8-2.67,.42-.53,1.02-.89,1.69-1,.61,0,.9,.41,.9,1.24-.02,.95-.25,1.88-.68,2.72-.29,.61-.56,1.12-.8,1.53-.04-.18-.13-.35-.27-.48-.17-.19-.42-.29-.67-.29-.47,0-1,.23-1.09,1.31,0,.48,.15,.95,.42,1.35Zm-31-9.27c.57-1.38,1.24-2.72,2-4,.53-.76,.76-.84,.83-.84s.08,.05,.08,.44c0,.81-.6,2.3-1.78,4.42l-1.13-.02Zm-1.6,3.87c.62-1.56,1-2.55,1.23-3h1c-.66,1.06-1.42,2.07-2.26,3h.03Zm50.65,8.92l-.46,.77c-.94,1.28-2.01,2.45-3.19,3.51-.88,.93-2.08,1.51-3.36,1.62-.32,.01-.63-.08-.9-.26-.22-.16-.34-.42-.33-.69,.01-.37,.11-.74,.29-1.07,.53-1.02,1.41-1.81,2.48-2.24,1.78-.66,3.6-1.2,5.44-1.64h.03Zm-45.68-12.17c-.33,1.25-.74,2.48-1.22,3.68-.27,.66-.56,1.28-.86,1.88-.59,1.23-1.42,2.34-2.43,3.26-.3,.19-.64,.3-1,.32-.21,.01-.41-.11-.5-.3-.11-.2-.18-.42-.18-.65,0-.23,.02-.46,.08-.68l.62-2.79c1.43-1.32,2.65-2.84,3.64-4.51h1.54c.14,0,.26-.08,.31-.21Z"/>
          <path class="cls-1" d="M168.11,120.29c.34,0,.67-.13,.93-.36h0c.27-.22,.45-.53,.51-.87,.07-.32-.02-.66-.24-.9-.21-.24-.52-.38-.84-.37-.35,0-.68,.13-.94,.36-.26,.23-.44,.54-.51,.88-.04,.32,.05,.64,.25,.89,.21,.24,.52,.38,.84,.37Z"/>
          <path class="cls-1" d="M183.87,119.98h-1.14c.38-.73,.77-1.53,1.16-2.36,.38-.73,.6-1.53,.64-2.35,.07-.56-.21-1.1-.7-1.37-.16-.05-.33-.07-.5-.06-.41,.07-.79,.26-1.11,.53-.66,.56-1.21,1.24-1.61,2-.56,1-1.17,2.17-1.82,3.6h-1.59c-.14,0-.27,.09-.31,.22-.05,.12-.05,.26,0,.38,.02,.14,.15,.24,.29,.23h1.28c-.68,1.63-1.26,3.3-1.73,5-.5,1.03-1.07,2.01-1.72,2.95-.48,.71-1.25,1.17-2.1,1.26h-.2c.46-.36,.86-.8,1.18-1.3,.38-.55,.59-1.19,.6-1.86-.05-.84-.27-1.65-.65-2.4l-.49-1.08c-.15-.39-.23-.8-.21-1.22,0-.94,.28-1.53,.87-1.81,.27-.11,.57-.09,.82,.06,.12,.05,.25,.05,.37,0,.08-.03,.15-.1,.18-.18,.07-.15,.06-.36-.33-.55-.25-.12-.53-.19-.81-.19-1,0-1.92,.81-2.68,2.41-.43,.94-.93,2-1.49,3.06-.07,.08-.12,.17-.16,.26-.28,.54-.54,1-.79,1.49-.28,.08-.52,.26-.68,.51-.23,.29-.36,.64-.37,1,0,.05,0,.11,0,.16-.22,.33-.47,.64-.75,.93-.26,.28-.62,.45-1,.49-.5,0-.74-.21-.74-.68,.04-.59,.19-1.17,.46-1.7l2.21-5.16c.2-.37,.26-.64,.17-.84s-.38-.3-.85-.3h-1.52s-.09,.03-.11,.07c-.02,.04-.02,.08,0,.12,.16,.18,.26,.4,.3,.64,.02,.14,.02,.27,0,.41l-1.19,3c-.54,1.14-1.18,2.23-1.89,3.27-.47,.71-1.25,1.18-2.1,1.26h-.2c.46-.36,.86-.8,1.18-1.3,.38-.55,.59-1.19,.6-1.86-.05-.83-.27-1.65-.64-2.4-.19-.39-.35-.75-.5-1.08-.15-.39-.23-.8-.21-1.22,0-.94,.28-1.53,.87-1.81,.27-.11,.57-.09,.82,.06,.12,.05,.25,.05,.37,0,.08-.03,.15-.1,.18-.18,.07-.15,.06-.36-.33-.55-.25-.13-.53-.19-.81-.19-1,0-1.92,.81-2.68,2.41-.46,1-1,2.13-1.62,3.32-.28,.55-.54,1-.77,1.47-.3,.07-.57,.26-.73,.53-.23,.29-.36,.64-.37,1v.26c-.04,.07-.09,.14-.15,.2-.47,.71-1.24,1.17-2.09,1.26h-.21c.46-.37,.87-.81,1.19-1.3,.38-.55,.58-1.2,.6-1.86-.06-.84-.28-1.65-.65-2.4-.19-.39-.35-.75-.5-1.08-.15-.39-.23-.8-.21-1.22-.11-.73,.24-1.45,.88-1.81,.26-.11,.56-.09,.81,.06,.12,.05,.25,.05,.37,0,.09-.03,.15-.1,.19-.18,.06-.15,.05-.36-.34-.55-.25-.13-.53-.19-.81-.19-1,0-1.92,.81-2.67,2.41-.46,1-1,2.07-1.57,3.22-.07,.08-.13,.17-.18,.27-.19,.44-.41,.88-.65,1.3-.3,.08-.56,.27-.73,.53-.22,.29-.35,.64-.37,1v.15l-.64,.87c-1.16,1.4-2.17,2.11-3,2.11-.28-.01-.54-.16-.7-.39-.24-.4-.36-.87-.32-1.34,.08-1.94,.61-3.84,1.54-5.54,.59-1.22,1.33-2.35,2.22-3.37,.45-.45,.71-1.05,.72-1.68,0-.76-.41-.92-.75-.92-.57,0-1.18,.62-1.86,1.91-.86,1.52-1.86,2.95-3,4.27-1.24,1.51-2.61,2.92-4.1,4.19-1.94,1.59-3.67,2.4-5.13,2.4-1.27,0-2-.72-2.2-2.19-.01-.18-.01-.36,0-.54,.1-1.38,.44-2.74,1-4,1.02-2.29,2.29-4.46,3.78-6.47,1.95,.54,3.97,.8,6,.75,2.15,.04,4.3-.28,6.35-.94,.99-.31,1.91-.81,2.72-1.46,1.11-.77,1.81-2,1.92-3.35,.01-1.04-.48-2.02-1.33-2.62-1.04-.72-2.28-1.07-3.54-1-4.65,0-9.2,2.42-13.52,7.19-.84-.37-1.6-.9-2.23-1.57-.44-.42-.72-.98-.78-1.58,0-.22,.06-.44,.15-.64,.13-.23,.13-.51,0-.74-.07-.07-.17-.12-.28-.12-.16,.02-.3,.12-.38,.26-.31,.21-.45,.67-.45,1.41-.01,.69,.23,1.36,.69,1.87,.76,.79,1.67,1.43,2.67,1.87-.9,1.06-1.68,2.2-2.35,3.42-1.29,2.12-2.02,4.52-2.12,7,0,2.19,.7,3.59,2,4.16,.35,.2,.75,.32,1.15,.34,.22,.01,.44,.01,.66,0,1.32-.12,2.6-.54,3.73-1.23,1.97-1.29,3.75-2.84,5.3-4.61-.12,.3-.22,.61-.29,.92-.2,.78-.3,1.58-.3,2.38-.01,.75,.19,1.48,.58,2.12,.37,.6,1.03,.96,1.74,.92,.8-.02,1.58-.26,2.26-.69,.73-.45,1.37-1.04,1.88-1.73,.13-.18,.26-.36,.38-.55,.41,.9,1.37,1.43,2.35,1.31,.39-.01,.78-.11,1.14-.27,.66,.18,1.35,.15,2-.06,.43-.14,.83-.38,1.15-.7l.37-.39c.38,.96,1.37,1.55,2.4,1.42,.39-.01,.78-.11,1.14-.27,.66,.18,1.35,.16,2-.06,.44-.14,.84-.38,1.16-.7l.57-.6c.16-.15,.3-.31,.42-.5,.02,.49,.18,.97,.46,1.37,.38,.46,.96,.7,1.55,.65,.88-.1,1.67-.57,2.19-1.29,.38,.96,1.36,1.53,2.38,1.4,.4-.01,.79-.1,1.15-.27,.66,.18,1.35,.16,2-.06,.44-.14,.84-.38,1.16-.7l.57-.6c.23-.21,.42-.45,.58-.72l.21-.34v.26c-.02,.61,.18,1.21,.58,1.68,.37,.44,.92,.68,1.5,.67,1.16,0,2.26-.83,3.27-2.46,.53-.79,1.02-1.62,1.46-2.47,.07-.15,.1-.31,.09-.47-.01-.06-.05-.12-.11-.15-.07-.03-.15-.03-.22,0-.16,.07-.28,.2-.33,.36-.66,1.56-1.64,2.97-2.88,4.13-.3,.19-.64,.3-1,.32-.21,.01-.41-.11-.5-.3-.11-.2-.18-.42-.18-.65,0-.23,.02-.46,.08-.68l.62-2.79c1.43-1.32,2.65-2.84,3.64-4.51h1.54c.14,0,.26-.08,.31-.21,.04-.13,.04-.26,0-.39-.03-.12-.13-.21-.25-.22Zm-.23-4.44c0,.81-.6,2.3-1.78,4.42h-1.14c.57-1.38,1.24-2.72,2-4,.53-.76,.76-.84,.83-.84s.09,.05,.09,.42Zm-2.28,5.25c-.66,1.06-1.41,2.07-2.24,3,.62-1.56,1-2.55,1.23-3h1.01Zm-11.6,7.52c.05,.69,.39,1.33,.94,1.76-.1,.01-.2,.01-.3,0-.42,.04-.81-.23-.91-.64,0-.12,0-.23,0-.35,0-.27,.1-.54,.27-.75v-.02Zm.62-.64c0-.62-.25-.85-.51-.92h0l.05-.11c.39-.73,1.12-2.18,2.21-4.35v.18c.03,.67,.09,1.34,.19,2,.11,.78,.18,1.56,.2,2.34,.12,1.09-.27,2.17-1.06,2.93-.74-.4-1.17-1.21-1.08-2.05v-.02Zm-12.51,.64c.06,.69,.4,1.33,.94,1.76-.1,.01-.2,.01-.3,0-.42,.04-.81-.23-.91-.64v-.35c0-.27,.1-.54,.27-.75v-.02Zm.62-.64c0-.58-.21-.81-.45-.89,.13-.27,.24-.49,.3-.65s.15-.35,.24-.52c.01-.05,.03-.09,.06-.13,.4-.8,.94-1.86,1.61-3.21v.18c0,.36,.07,1,.19,2,.11,.78,.18,1.56,.2,2.34,.09,1.09-.32,2.16-1.12,2.9-.72-.4-1.13-1.18-1.06-2l.03-.02Zm-7.7,.64c.06,.69,.4,1.33,.94,1.76-.1,.01-.2,.01-.3,0-.42,.04-.8-.23-.9-.64,0-.12,0-.23,0-.35,0-.27,.1-.53,.26-.75v-.02Zm.62-.64c0-.61-.23-.84-.49-.91,.13-.25,.25-.51,.37-.76,.42-.82,1-2.06,1.88-3.73v.18c.03,.67,.1,1.34,.2,2,.11,.78,.17,1.56,.19,2.34,.11,1.1-.29,2.19-1.1,2.95-.71-.42-1.1-1.23-1-2.05l-.05-.02Zm-14.18-10.7c.84-1,1.63-1.85,2.36-2.57,.82-.79,1.69-1.53,2.61-2.2,.96-.7,2.02-1.25,3.15-1.61,1.09-.36,2.23-.55,3.38-.55,.92-.05,1.83,.17,2.63,.62,.6,.36,.96,1.03,.93,1.73-.03,1.4-.79,2.68-2,3.38-1.71,1.2-4.47,1.81-8.2,1.81-1.64,.03-3.28-.16-4.86-.59v-.02Z"/>
        </g>
      </g>
    </g>
  </g>
</svg>