<svg xmlns="http://www.w3.org/2000/svg" viewBox="0 0 29 28.13"><defs><style>.cls-1{fill:#6159a8;}</style></defs><g id="Layer_2" data-name="Layer 2"><g id="search"><path class="cls-1" d="M28.84,24.44a.62.62,0,0,0,0-.87l-8.17-7.42a.61.61,0,0,0-.87.05L16.6,19.68a.63.63,0,0,0,0,.88L24.81,28a.62.62,0,0,0,.87,0Z"/><path class="cls-1" d="M10.12,0A10.13,10.13,0,1,1,6.81.56,10.13,10.13,0,0,1,10.12,0m0,2.74a7.35,7.35,0,0,0-2.41.41h0a7.39,7.39,0,0,0-4.56,9.38,7.37,7.37,0,1,0,7-9.79Z"/><path class="cls-1" d="M10.12,14.7C15.4,12,15.2,8.88,13.7,7.38s-3.58-.48-3.58.7c0-1.18-2.09-2.2-3.59-.7S4.84,12,10.12,14.7Z"/></g></g></svg>