<svg xmlns="http://www.w3.org/2000/svg" viewBox="0 0 412.42 202.52"><defs><style>.cls-1{fill:#6159a8;}</style></defs><g id="Layer_2" data-name="Layer 2"><g id="header"><path class="cls-1" d="M228.17,48.24a41.06,41.06,0,0,0-21.08,5.81.28.28,0,0,0-.13.23.25.25,0,0,0,.12.24c.55.38,1.06.74,1.54,1.11s1.28,1,2,1.64l.58.5,1.18,1.09.93.92.37.39a.28.28,0,0,0,.33.06A32.14,32.14,0,0,1,228.17,57a32.54,32.54,0,1,1,0,65.08,32.14,32.14,0,0,1-14.12-3.23c-.5-.24-1-.51-1.61-.83a33.08,33.08,0,0,1-6.64-4.87c-.42-.4-.83-.81-1.24-1.23a32.5,32.5,0,0,1,0-44.75.27.27,0,0,0,0-.39c-.38-.38-.8-.75-1.32-1.19s-1.08-.88-1.69-1.33l-.65-.46c-.41-.29-.82-.56-1.2-.8a2.79,2.79,0,0,0-.33-.19c-.38-.25-.77-.47-1.18-.7l-.38-.21a.27.27,0,0,0-.34.06,41.19,41.19,0,0,0,0,55.16c.41.46.83.9,1.25,1.34a40.59,40.59,0,0,0,6.75,5.56c.5.34,1.06.68,1.65,1a41.3,41.3,0,1,0,21.07-76.81Z"/><path class="cls-1" d="M202.65,47.52,205.47,49a.31.31,0,0,0,.13,0,.28.28,0,0,0,.13,0l2.82-1.46c17.13-8.84,21.94-18.55,23-25.14a19.78,19.78,0,0,0-5.67-17.2A17,17,0,0,0,213.8,0a16,16,0,0,0-8.22,2.25A15.86,15.86,0,0,0,197.41,0a17,17,0,0,0-12.06,5.18,19.78,19.78,0,0,0-5.66,17.2C180.71,29,185.53,38.68,202.65,47.52ZM190.1,9.92a10.19,10.19,0,0,1,7.31-3.21c4.21,0,7.91,2.84,7.91,6.07a.29.29,0,0,0,.28.28.28.28,0,0,0,.28-.28,5.51,5.51,0,0,1,2.33-4.2,9.17,9.17,0,0,1,5.58-1.87h0a10.21,10.21,0,0,1,7.31,3.21,13.16,13.16,0,0,1,3.78,11.42c-.78,5.05-4.77,12.63-19.29,20.15-14.51-7.52-18.5-15.1-19.28-20.15A13.13,13.13,0,0,1,190.1,9.92Z"/><path class="cls-1" d="M183,130.85A40.91,40.91,0,0,0,204.11,125a.24.24,0,0,0,.14-.23.3.3,0,0,0-.12-.24c-.53-.36-1-.72-1.54-1.1l-.13-.1-.86-.67,0,0-.8-.66-.49-.43-.81-.72-.68-.64-.08-.08-.85-.85c-.13-.12-.25-.25-.37-.38a.27.27,0,0,0-.32-.06A32.15,32.15,0,0,1,183,122.08,32.54,32.54,0,0,1,183,57a32.21,32.21,0,0,1,14.13,3.23c.5.24,1,.52,1.61.84a32.93,32.93,0,0,1,6.64,4.86l1.24,1.23a32.5,32.5,0,0,1,0,44.75.28.28,0,0,0,0,.4c.38.36.79.73,1.33,1.19s1.09.89,1.69,1.32a6.48,6.48,0,0,0,.65.46c.39.29.8.56,1.19.8a3,3,0,0,0,.33.19c.37.25.74.46,1.18.7l.39.21a.28.28,0,0,0,.34-.06,41.21,41.21,0,0,0,0-55.16c-.37-.42-.79-.87-1.25-1.33a41.11,41.11,0,0,0-6.74-5.56c-.54-.36-1.1-.71-1.65-1A41.3,41.3,0,1,0,183,130.85Z"/><path class="cls-1" d="M92.23,187.22l-1.11,0c-3.35,0-5.35-1.3-6.13-4a18.84,18.84,0,0,1-.6-5.18c0-2.08.93-6,2.76-11.72a125.12,125.12,0,0,1,7.53-17.56c1.81-3.62,2.73-6.64,2.73-9a7.41,7.41,0,0,0-.28-2.1A3.45,3.45,0,0,0,93.55,135a7.71,7.71,0,0,0-2.1.35c-4.31,1.27-9.29,5.4-14.81,12.27-4.91,6.11-9.13,11.84-12.56,17,.19-.56.41-1.23.67-2,3.55-10.59,5.34-18.26,5.34-22.81A7.61,7.61,0,0,0,68.65,135c-1.92-2.44-5.39-2.43-9.56-.21a16.15,16.15,0,0,0-4.8,3.91,103.05,103.05,0,0,0-11,16.37,4.82,4.82,0,0,1-.81,1.22s0-.07,0-.11a5.84,5.84,0,0,1,.46-1.62,58.58,58.58,0,0,0,3.52-13.49,24.39,24.39,0,0,0,.14-2.52,16.23,16.23,0,0,0-1.17-6.45c-1.75-4.14-5.24-6.24-10.38-6.24-6,0-12.46,2.51-19.31,7.47A40,40,0,0,0,1.84,150.15,25.57,25.57,0,0,0,0,158.5,17.35,17.35,0,0,0,.76,164a13.51,13.51,0,0,0,7.09,8.05,12.08,12.08,0,0,0,10.34.27,20.71,20.71,0,0,0,10.53-9.09,12.16,12.16,0,0,0,1.92-5.63,9.49,9.49,0,0,0-.63-3.72,5.55,5.55,0,0,0-5.58-3.54,10.14,10.14,0,0,0-1.66.13c-1.24.15-1.88.4-2.05.8a.61.61,0,0,0,.09.64,1.42,1.42,0,0,0,1.49.57c.57-.06,1.06-.1,1.45-.1,2.76,0,4.1,1.43,4.1,4.37a14,14,0,0,1-2.32,6.81c-3,5.14-7,7.75-11.69,7.75a8.94,8.94,0,0,1-4-1C6.1,168.57,4.2,164.8,4.2,159.15A27.46,27.46,0,0,1,5.94,151a27.1,27.1,0,0,1,3-5.8,42.59,42.59,0,0,1,12.83-12.53c5.12-3.24,9.42-4.88,12.76-4.88,5.17,0,7.68,3.06,7.68,9.36,0,5.33-2.31,14-6.86,25.66-3.58,9.25-6.88,16.24-9.82,20.79a.2.2,0,0,0,0,.08,2.3,2.3,0,0,0-.07.58c.07.6.5,1.32,2.1,1.32,2,0,3.4-.71,4-2.13a10.35,10.35,0,0,1,.49-1.12c.21-.42.37-.76.48-1s1-2.29,3-6.57c1.84-4.06,3.49-7.61,4.92-10.55s3.45-6.54,6.08-10.8a130.11,130.11,0,0,1,9.36-13.09c2.58-3.24,5-4.88,7.06-4.88a2.36,2.36,0,0,1,1.72.92,3.69,3.69,0,0,1,.84,2.54,24.41,24.41,0,0,1-.14,2.83A93.37,93.37,0,0,1,61,161.21c-.89,2.55-1.88,5.08-2.92,7.54s-2,4.42-2.72,5.84-1.51,2.81-2.23,4.11-1.14,2.05-1.27,2.24a1.2,1.2,0,0,0,0,1.07c.18.68.75,1.49,2.43,1.49,1.83,0,3.3-1.28,4.38-3.81,1.15-2.76,3.91-7.59,8.2-14.36s7.58-11.57,9.76-14.27a90.39,90.39,0,0,1,6.12-6.89c3.61-3.52,6.29-5.31,8-5.31.69,0,1.61.2,1.61,1.94a18,18,0,0,1-1.8,6.36c-3.44,7.55-5.73,12.7-6.81,15.32-.68,1.61-1.51,4-2.47,7a27.57,27.57,0,0,0-1.46,8.21c0,6.7,3.67,10.47,10.88,11.2a5,5,0,0,0,1,.08,3,3,0,0,0,1.27-.3c.65-.31.7-.68.62-.94C93.29,187.18,92.49,187.21,92.23,187.22Z"/><path class="cls-1" d="M152.92,150.57a3.54,3.54,0,0,0-1.24,2.14,2.72,2.72,0,0,0,.6,2.16,2.51,2.51,0,0,0,2,.91,3.44,3.44,0,0,0,2.27-.87,3.58,3.58,0,0,0,1.24-2.12,2.5,2.5,0,0,0-.57-2.19,2.64,2.64,0,0,0-2.07-.91A3.43,3.43,0,0,0,152.92,150.57Z"/><path class="cls-1" d="M266.16,167.06a.52.52,0,0,0-.44,0c-.27.08-.52.37-.78.9a69.82,69.82,0,0,1-4.23,7.38,17.19,17.19,0,0,1-9,6.41c.61-1.71,1.44-4.13,2.54-7.37,1.17-3.44,2.17-6.27,3-8.42a41.14,41.14,0,0,1,2.17-5,8.77,8.77,0,0,1,2.68-3,.28.28,0,0,0,.11-.31.29.29,0,0,0-.27-.2h-3.64a3,3,0,0,0-2.88,1.57c-3.84,7.95-7.39,13.85-10.55,17.55-1.83,2.14-2.84,2.59-3.36,2.59a1.42,1.42,0,0,1-1.17-.5,3.11,3.11,0,0,1-.44-1.91,12.63,12.63,0,0,1,1.46-4.54c2.41-5.13,4.45-9.14,6.06-11.92a5.39,5.39,0,0,1,1.74-1.8,8.23,8.23,0,0,0,.71-.56.29.29,0,0,0,.06-.31.3.3,0,0,0-.26-.17h-4.12a2.9,2.9,0,0,0-2.88,1.57c-1,2-2.26,4.53-3.77,7.42l-.31.59a2,2,0,0,0-.5.76c-3.8,7.64-6.82,11.51-9,11.51-.47,0-1-.17-1-1.47,0-2.91,2.78-9.26,8.26-18.88a.27.27,0,0,0,0-.23.3.3,0,0,0-.16-.17,2.18,2.18,0,0,0-.85-.16c-1.18,0-3,.66-5.46,2a33.24,33.24,0,0,0-6.29,4.35,49.85,49.85,0,0,0-4.21,4.36c3.16-6.09,5.49-9.57,6.92-10.34a.28.28,0,0,0,.13-.35.27.27,0,0,0-.33-.17,4,4,0,0,1-1.53-.08,10,10,0,0,0-1.43-.2,3.3,3.3,0,0,0-2.43.89c-.9.87-2.5,3.58-4.87,8.27a.73.73,0,0,0-.31.34c-.09.21-.35.77-.78,1.69s-.78,1.63-1,2.11l-1.28,2.32a18.63,18.63,0,0,1-2.87,3.63,4.39,4.39,0,0,1-3.23,1.72,3,3,0,0,1-2.82-1.35,24.32,24.32,0,0,0,5.57-7.89,15,15,0,0,0,1.51-6.19c0-4.3-1.75-6.49-5.2-6.49-2.27,0-4.68,1.14-7.17,3.38a23,23,0,0,0-5.77,8.12c-.08.19-.16.37-.23.56l-.1.26a37.67,37.67,0,0,1-4.75,7.61c-1.33,1.55-2.51,2.33-3.5,2.33-.27,0-1,0-1-1.61,0-2.77,2.75-9.08,8.19-18.74a.34.34,0,0,0,0-.22.27.27,0,0,0-.14-.17,1.78,1.78,0,0,0-.8-.17c-1.19,0-3,.68-5.5,2.06a35.39,35.39,0,0,0-6.42,4.45,43.5,43.5,0,0,0-4,4.09c.46-.86,1-1.91,1.72-3.17,2.09-3.81,2.33-4.86,2.33-5.33a2,2,0,0,0-1.46-1.92.93.93,0,0,0-1-.13,2.57,2.57,0,0,1-.76.15A2.34,2.34,0,0,0,174,159c-.42.26-.75.45-1,.56a6,6,0,0,0-1.1.74l-1,.85c-.25.2-.61.52-1.09.95l-1.08,1-.72.65-.32.29c-.45.41-1.14,1-2.06,1.82a32.93,32.93,0,0,0-3,3.19c3.14-6,5.45-9.51,6.89-10.28a.29.29,0,0,0,.13-.35.27.27,0,0,0-.33-.17,4.06,4.06,0,0,1-1.54-.08,9.85,9.85,0,0,0-1.43-.2,3.28,3.28,0,0,0-2.42.89c-1,.91-2.54,3.63-4.88,8.33a2.23,2.23,0,0,0-.44.64c-2.53,5.08-4.65,8.48-6.27,10.11a3.9,3.9,0,0,1-2.51,1.2c-1.24,0-1.81-.53-1.81-1.67a10.34,10.34,0,0,1,1.12-4.14l5.38-12.58c.5-.91.64-1.57.42-2.05s-.92-.73-2.08-.73l-3.71.07a.28.28,0,0,0-.25.15.27.27,0,0,0,0,.29,3.07,3.07,0,0,1,.75,1.59,3.52,3.52,0,0,1-.11,1l-3.16,8c-4.11,8.1-6.31,9.79-7.44,9.79a.84.84,0,0,1-.74-.32c-.31-.43-.48-1.55.47-4.43.3-.87.69-1.86,1.17-2.94s.89-2,1.27-2.72l1.22-2.36c.43-.84.91-1.84,1.45-3a7.09,7.09,0,0,0,.84-2.71,2.27,2.27,0,0,0-.19-1.24.29.29,0,0,0-.26-.12c-2.27.22-4.18.33-5.67.33-1.11,0-2,0-2.8,0,2.2-1.71,3.32-3.55,3.32-5.48a4.72,4.72,0,0,0-.22-1.52c-.49-1.37-1.31-2.07-2.42-2.07s-1.87.78-2.17,2.32c-.2,1.12-.44,2.26-.72,3.43a1.38,1.38,0,0,0,0-.45.72.72,0,0,0-.72-.58H130c.92-1.78,1.87-3.71,2.83-5.74a14.21,14.21,0,0,0,1.58-5.75,3.34,3.34,0,0,0-1.73-3.33,3.66,3.66,0,0,0-1.22-.15,5.6,5.6,0,0,0-2.69,1.3,16,16,0,0,0-3.93,4.91c-1.36,2.33-2.86,5.28-4.45,8.76h-3.87a.83.83,0,0,0-.76.54,1.31,1.31,0,0,0-.08.93.71.71,0,0,0,.71.58h3.09a100.17,100.17,0,0,0-4.21,12.07,44.77,44.77,0,0,1-4.77,7.63c-1.19,1.5-2.19,2.26-2.95,2.26-.36,0-.73-.12-.73-1a17.53,17.53,0,0,1,.44-3.39,28.16,28.16,0,0,1,2.63-6.33,26.33,26.33,0,0,1,3.39-5.43.29.29,0,0,0,.05-.34.28.28,0,0,0-.32-.13,4,4,0,0,1-1.53-.07,9.42,9.42,0,0,0-1.43-.21,3.25,3.25,0,0,0-2.43,1,15.66,15.66,0,0,0-2.2,3.47c-4.29,8.13-7.77,12.26-10.34,12.26-.35,0-1.41,0-1.41-2.35,0-1.69.87-4,2.59-6.88a36.87,36.87,0,0,1,4.49-6.28c2.76-3,5.09-4.5,6.94-4.5a2.83,2.83,0,0,1,3,2.23.27.27,0,0,0,.22.19,1.19,1.19,0,0,0,1.45-.71,1.6,1.6,0,0,0-.46-1.72,7.8,7.8,0,0,0-8-1.89,15.17,15.17,0,0,0-8.1,5c-3.85,4.57-5.8,9.15-5.8,13.6,0,2.38.72,4.09,2.13,5.08a3.4,3.4,0,0,0,2.13.73c2.51,0,5.34-2.43,8.64-7.41a12.52,12.52,0,0,0-.29,2.55,5.57,5.57,0,0,0,.65,2.85,3.92,3.92,0,0,0,3.41,2c2.2,0,4.7-2.31,7.6-7.05,0,.47-.06.88-.06,1.24a6,6,0,0,0,1.41,4.1,4.66,4.66,0,0,0,3.66,1.65,7.69,7.69,0,0,0,5.43-2.66l.16-.12c2.62-2.53,5.39-7.58,8.23-15l.73-2c2.3.08,4.93.48,4.93,1.94a2.45,2.45,0,0,1-.19.88c-.12.31-.75,1.45-1.87,3.36a36.64,36.64,0,0,0-2.48,5,10,10,0,0,0-.79,3.34,6.49,6.49,0,0,0,.21,1.9c.72,2.24,2,3.37,3.91,3.37,1.66,0,3.39-1.08,5.14-3.2.61-.71,1.17-1.41,1.67-2.08,0,.05,0,.1,0,.14a5.79,5.79,0,0,0,1.14,3.47,4.36,4.36,0,0,0,3.76,1.6,6.14,6.14,0,0,0,3.95-1.8c-.34.7-.62,1.27-.86,1.73a.29.29,0,0,0,.06.33.27.27,0,0,0,.33,0,4.53,4.53,0,0,1,1.83-.3,9.25,9.25,0,0,0,2.07-.25,1.79,1.79,0,0,0,1-1.05c3-5.83,6.14-10.23,9.25-13.07a18.87,18.87,0,0,1,3.64-2.92,3,3,0,0,1,.63-.24s.09.12,0,.67a12.94,12.94,0,0,1-1.26,3.37c-2.51,5.26-3.74,8.74-3.74,10.65a3.67,3.67,0,0,0,.58,1.75,2.08,2.08,0,0,0,1.93,1.09A.27.27,0,0,0,169,181c.4-1.8,1.67-4.24,3.77-7.25a46.11,46.11,0,0,1,6.07-7.24c2.33-2.17,3.36-2.62,3.82-2.62.83,0,.83.3.83.42a3.93,3.93,0,0,1-.7,1.78,36.13,36.13,0,0,0-3.74,7.08,13.17,13.17,0,0,0-.69,3.76,4.4,4.4,0,0,0,.66,2.55,4.21,4.21,0,0,0,3.5,2,6.18,6.18,0,0,0,3.6-1.1,14.94,14.94,0,0,0,2.55-2.16,23.16,23.16,0,0,0,2.31-3.28c0,4.16,1.8,6.27,5.2,6.27a10,10,0,0,0,5.69-2.2,5.83,5.83,0,0,0,4.36,1.66,6.49,6.49,0,0,0,3.31-1c.14-.08.28-.18.42-.28-.39.81-.71,1.46-.95,1.94a.28.28,0,0,0,.06.33.29.29,0,0,0,.33,0,4.64,4.64,0,0,1,1.83-.31,8.17,8.17,0,0,0,2.07-.25,2,2,0,0,0,1.07-1c3-5.88,6.12-10.34,9.31-13.27,2.61-2.45,3.72-3,4.2-3,.86,0,.86.31.86.42a3.93,3.93,0,0,1-.7,1.78,36.12,36.12,0,0,0-3.74,7.08,13.11,13.11,0,0,0-.68,3.76,4.09,4.09,0,0,0,.72,2.55,4.52,4.52,0,0,0,4,2c1.72,0,3.45-.95,5.14-2.83a24.69,24.69,0,0,0,2.53-3.51c0,.27-.08.68-.16,1.23a2.64,2.64,0,0,0,.15,1.55c.45,2.14,2,3.22,4.52,3.22,1.87,0,3.73-1,5.53-2.85a45.2,45.2,0,0,0,5.31-7.52,75.31,75.31,0,0,1-5,12.62c-1.14.32-3.55.94-7.16,1.82a50,50,0,0,0-9.16,3,12.88,12.88,0,0,0-6.48,5.67,10.07,10.07,0,0,0-1,4.09,4,4,0,0,0,1.73,3.22,7.67,7.67,0,0,0,4.76,1.31,16.81,16.81,0,0,0,10.84-4.11c3.5-3,7-7.63,10.47-13.88a49.35,49.35,0,0,0,5.87-2.51,15.27,15.27,0,0,0,4.12-3.26,26.15,26.15,0,0,0,3-4c.77-1.3,1.54-2.71,2.27-4.2,1.14-2.32,1.14-2.59,1.14-2.72A.87.87,0,0,0,266.16,167.06Zm-65.41,10.58a5.63,5.63,0,0,1-3.41,1.59c-.89,0-2.08-.29-2.08-2.82,0-2,.79-4.65,2.34-7.84A22.2,22.2,0,0,1,202,162c1.6-1.55,3-2.34,4.12-2.34,1.49,0,2.21,1,2.21,3a15,15,0,0,1-1.65,6.62c-.72,1.49-1.38,2.75-2,3.74a2.1,2.1,0,0,0-.65-1.18,2.17,2.17,0,0,0-1.65-.69c-1.14,0-2.52.55-2.64,3.16v0A5.9,5.9,0,0,0,200.75,177.64ZM125.07,155a75,75,0,0,1,4.89-9.81c1.3-1.84,1.85-2,2-2,0,0,.18.11.18,1.07,0,2-1.45,5.62-4.33,10.78Zm-3.92,9.44c1.48-3.7,2.49-6.19,3-7.39h2.48A52.3,52.3,0,0,1,121.15,164.46ZM244.7,186.23l-1.13,1.89a56.62,56.62,0,0,1-7.77,8.55c-2.9,2.61-5.66,3.94-8.18,3.94a3.74,3.74,0,0,1-2.2-.62,2,2,0,0,1-.82-1.69,6,6,0,0,1,.71-2.61,11.86,11.86,0,0,1,6.07-5.47A117.78,117.78,0,0,1,244.7,186.23ZM133.38,156.5a69.4,69.4,0,0,1-3,9c-.58,1.44-1.25,2.89-2.09,4.56-2.16,4-4.17,6.65-5.95,8a4.94,4.94,0,0,1-2.42.78,1.31,1.31,0,0,1-1.24-.73,3.34,3.34,0,0,1-.43-1.59,7.42,7.42,0,0,1,.19-1.66l1.53-6.79a49.55,49.55,0,0,0,8.88-11h3.75a.83.83,0,0,0,.76-.54Z"/><path class="cls-1" d="M372.35,155.78a3.42,3.42,0,0,0,2.27-.87,3.53,3.53,0,0,0,1.24-2.12,2.5,2.5,0,0,0-.57-2.19,2.62,2.62,0,0,0-2.06-.91,3.46,3.46,0,0,0-2.28.88,3.59,3.59,0,0,0-1.24,2.14,2.72,2.72,0,0,0,.6,2.16A2.51,2.51,0,0,0,372.35,155.78Z"/><path class="cls-1" d="M410.79,155H408c.92-1.77,1.87-3.7,2.82-5.74a14,14,0,0,0,1.58-5.75,3.34,3.34,0,0,0-1.73-3.33,3.59,3.59,0,0,0-1.21-.15,5.58,5.58,0,0,0-2.7,1.3,15.85,15.85,0,0,0-3.92,4.91A98.22,98.22,0,0,0,398.4,155h-3.86a.83.83,0,0,0-.77.54,1.36,1.36,0,0,0-.08.93.71.71,0,0,0,.71.58h3.09a99.94,99.94,0,0,0-4.22,12.16,55.06,55.06,0,0,1-4.21,7.2c-1.69,2-3.41,3.07-5.11,3.07l-.49,0a12.94,12.94,0,0,0,2.88-3.17,8.18,8.18,0,0,0,1.46-4.53,15.55,15.55,0,0,0-1.57-5.86c-.45-.94-.86-1.81-1.22-2.62a7.48,7.48,0,0,1-.51-3c0-2.28.7-3.72,2.14-4.4a2.18,2.18,0,0,1,2,.14,1.17,1.17,0,0,0,.91.1.78.78,0,0,0,.44-.45c.16-.36.15-.88-.81-1.34a4.52,4.52,0,0,0-2-.47c-2.5,0-4.69,2-6.53,5.9-1,2.23-2.26,4.75-3.64,7.47a2.22,2.22,0,0,0-.4.61c-.64,1.28-1.28,2.5-1.9,3.62a3.07,3.07,0,0,0-1.69,1.27,4.31,4.31,0,0,0-.9,2.56,3,3,0,0,0,0,.31v.09a17.34,17.34,0,0,1-1.81,2.26,3.9,3.9,0,0,1-2.51,1.2c-1.23,0-1.81-.53-1.81-1.67a10.51,10.51,0,0,1,1.12-4.14l5.39-12.58c.5-.91.63-1.57.41-2.05s-.91-.73-2.08-.73l-3.71.07a.28.28,0,0,0-.25.15.3.3,0,0,0,0,.29,3.07,3.07,0,0,1,.75,1.59,3.52,3.52,0,0,1-.11,1l-2.89,7.37a61,61,0,0,1-4.62,8c-1.69,2-3.41,3.07-5.11,3.07l-.49,0a12.94,12.94,0,0,0,2.88-3.17,8.2,8.2,0,0,0,1.47-4.53,15.41,15.41,0,0,0-1.58-5.86c-.45-.94-.86-1.81-1.21-2.62a7.29,7.29,0,0,1-.52-3c0-2.28.7-3.72,2.14-4.4a2.18,2.18,0,0,1,2,.14,1.17,1.17,0,0,0,.91.1.73.73,0,0,0,.44-.45c.16-.36.15-.88-.81-1.34a4.52,4.52,0,0,0-2-.47c-2.49,0-4.69,2-6.53,5.9-1.1,2.39-2.41,5.06-3.88,7.95-.69,1.34-1.35,2.59-2,3.72a3,3,0,0,0-1.79,1.3,4.3,4.3,0,0,0-.89,2.56c0,.21,0,.4,0,.58v.06c-.13.19-.25.36-.36.49-1.69,2-3.41,3.07-5.12,3.07l-.49,0a12.78,12.78,0,0,0,2.89-3.17,8.18,8.18,0,0,0,1.46-4.53A15.41,15.41,0,0,0,340,165.9c-.45-.94-.85-1.81-1.21-2.62a7.46,7.46,0,0,1-.52-3c0-2.28.7-3.72,2.14-4.4a2.2,2.2,0,0,1,2,.14,1.14,1.14,0,0,0,.9.1.77.77,0,0,0,.45-.45c.15-.36.14-.88-.81-1.34a4.56,4.56,0,0,0-2-.47c-2.49,0-4.69,2-6.53,5.9-1.08,2.35-2.36,5-3.81,7.83a3.24,3.24,0,0,0-.44.67c-.41.94-.92,1.95-1.6,3.17a3,3,0,0,0-1.77,1.3,4.25,4.25,0,0,0-.9,2.56c0,.1,0,.2,0,.29v.08c-.56.78-1.07,1.47-1.57,2.11-2.81,3.43-5.28,5.16-7.34,5.16a2.15,2.15,0,0,1-1.7-1,5.36,5.36,0,0,1-.78-3.27c0-4,1.26-8.52,3.74-13.49a36.92,36.92,0,0,1,5.42-8.23,6,6,0,0,0,1.76-4.11c0-1.85-1-2.23-1.83-2.23-1.39,0-2.87,1.52-4.53,4.67a63.79,63.79,0,0,1-7.29,10.4,80.34,80.34,0,0,1-10,10.21c-4.73,3.9-8.94,5.87-12.5,5.87-3.1,0-4.86-1.75-5.38-5.34a10.52,10.52,0,0,1-.07-1.32c0-2.29.86-5.58,2.54-9.78s4.78-9.48,9.23-15.79a50.06,50.06,0,0,0,14.69,1.84,46.77,46.77,0,0,0,15.5-2.31,20.05,20.05,0,0,0,6.63-3.55c3.11-2.61,4.69-5.36,4.69-8.18a7.7,7.7,0,0,0-3.25-6.39c-2.13-1.63-5-2.45-8.63-2.45-11.36,0-22.45,5.9-33,17.54a16.67,16.67,0,0,1-5.46-3.83,6.21,6.21,0,0,1-1.88-3.86,4.07,4.07,0,0,1,.35-1.57,1.79,1.79,0,0,0-.1-1.8.85.85,0,0,0-.68-.28,1.35,1.35,0,0,0-.92.61c-.74.53-1.1,1.65-1.1,3.45a6.68,6.68,0,0,0,1.69,4.57,21.26,21.26,0,0,0,6.5,4.56,50.62,50.62,0,0,0-5.73,8.33c-3.42,6.13-5.16,11.91-5.16,17.17s1.69,8.75,5,10.13a6.26,6.26,0,0,0,2.79.84,12,12,0,0,0,1.61-.07,21.06,21.06,0,0,0,9.1-3,62.73,62.73,0,0,0,12.92-11.24,19.84,19.84,0,0,0-.7,2.24,23.69,23.69,0,0,0-.72,5.8,9.49,9.49,0,0,0,1.39,5.17,4.73,4.73,0,0,0,4.25,2.26,10.47,10.47,0,0,0,5.51-1.7,15.9,15.9,0,0,0,4.6-4.22c.31-.4.6-.83.9-1.26.9,2.08,2.83,3.13,5.75,3.13a7.24,7.24,0,0,0,2.79-.66,8.45,8.45,0,0,0,4.92-.16,6.77,6.77,0,0,0,2.82-1.7l.86-.9c.84,2.27,2.81,3.42,5.88,3.42a7.19,7.19,0,0,0,2.78-.66,8.45,8.45,0,0,0,4.92-.16,6.71,6.71,0,0,0,2.82-1.7l1.4-1.46a7.29,7.29,0,0,0,1-1.18,5.71,5.71,0,0,0,1.13,3.29,4.37,4.37,0,0,0,3.77,1.6c1.67,0,3.45-1,5.29-3.1.85,2.24,2.82,3.37,5.87,3.37a7.19,7.19,0,0,0,2.78-.66,8.45,8.45,0,0,0,4.92-.16,6.77,6.77,0,0,0,2.82-1.7l1.4-1.46a8,8,0,0,0,1.4-1.75l.51-.82c0,.21,0,.42,0,.6a6,6,0,0,0,1.42,4.1,4.66,4.66,0,0,0,3.65,1.65c2.83,0,5.52-2,8-6a61.81,61.81,0,0,0,3.53-6.66,2,2,0,0,0,.22-1.14.55.55,0,0,0-.26-.37.65.65,0,0,0-.55,0,1.49,1.49,0,0,0-.79.88c-2.58,5.11-5,8.5-7,10.06a5,5,0,0,1-2.42.78,1.3,1.3,0,0,1-1.24-.73,3.38,3.38,0,0,1-.44-1.59,7.45,7.45,0,0,1,.2-1.66l1.53-6.79a49.51,49.51,0,0,0,8.87-11h3.75a.83.83,0,0,0,.77-.54,1.37,1.37,0,0,0,.08-.93A.71.71,0,0,0,410.79,155Zm-.55-10.78c0,2-1.46,5.62-4.34,10.78h-2.77a73.69,73.69,0,0,1,4.89-9.81c1.29-1.84,1.85-2,2-2C410.05,143.17,410.24,143.29,410.24,144.24Zm-5.55,12.83a53.12,53.12,0,0,1-5.49,7.39c1.49-3.71,2.5-6.19,3-7.39Zm-26,22.63a3.29,3.29,0,0,1-.73.07,2.07,2.07,0,0,1-2.22-1.58,6.26,6.26,0,0,1-.06-.84,3.11,3.11,0,0,1,.71-1.95A6.12,6.12,0,0,0,378.68,179.7Zm-.79-5.85c0-1.53-.6-2.09-1.24-2.25l0-.06.12-.25c.92-1.75,2.69-5.24,5.39-10.62,0,.13,0,.28,0,.43a46.21,46.21,0,0,0,.48,5,47.89,47.89,0,0,1,.47,5.7c0,3.23-.92,5.61-2.72,7.08C378.71,178,377.89,176.33,377.89,173.85Zm-28.21,5.85a3.29,3.29,0,0,1-.73.07,2.07,2.07,0,0,1-2.22-1.58,6.26,6.26,0,0,1-.06-.84,3.11,3.11,0,0,1,.71-1.95A6.12,6.12,0,0,0,349.68,179.7Zm-.79-5.85c0-1.42-.54-2-1.1-2.18.33-.67.58-1.21.74-1.59s.37-.85.57-1.27l.08-.18,0-.07c1-1.93,2.3-4.55,4-7.89,0,.13,0,.28,0,.43a46.21,46.21,0,0,0,.48,5,47.89,47.89,0,0,1,.47,5.7c0,3.23-.92,5.61-2.72,7.08C349.72,178,348.89,176.33,348.89,173.85Zm-16.48,5.85a3.23,3.23,0,0,1-.73.07,2.09,2.09,0,0,1-2.22-1.58,6.26,6.26,0,0,1-.06-.84,3.17,3.17,0,0,1,.71-1.95A6.15,6.15,0,0,0,332.41,179.7Zm-.78-5.85c0-1.5-.59-2-1.2-2.23.32-.63.62-1.27.9-1.87,1-2,2.58-5.06,4.59-9.08v.43a48.13,48.13,0,0,0,.47,5,45.84,45.84,0,0,1,.47,5.7c0,3.23-.91,5.61-2.72,7.08C332.45,178,331.63,176.33,331.63,173.85Zm-28.85-32.38a56.56,56.56,0,0,1,6.37-5.37,27.52,27.52,0,0,1,7.68-3.93,26.56,26.56,0,0,1,8.24-1.34,11.83,11.83,0,0,1,6.43,1.51,4.69,4.69,0,0,1,2.26,4.21c0,3.26-1.61,6-4.8,8.27-4.16,2.92-10.89,4.4-20,4.4A42,42,0,0,1,297,147.74c2-2.41,4-4.51,5.75-6.27Z"/></g></g></svg>