<svg xmlns="http://www.w3.org/2000/svg" viewBox="0 0 119.05 46.07"><defs><style>.cls-1{fill:#635ba9;}</style></defs><g id="Layer_2" data-name="Layer 2"><g id="features_icon" data-name="features icon"><path class="cls-1" d="M33.35,22.78a14.81,14.81,0,0,1-22.86-.13A13.66,13.66,0,0,0,0,35.91a8.66,8.66,0,0,0,8.65,8.66h26a8.66,8.66,0,0,0,8.66-8.66A13.67,13.67,0,0,0,33.35,22.78Z"/><path class="cls-1" d="M14.32,22.28a11.81,11.81,0,0,0,19.46-9,11.81,11.81,0,1,0-19.46,9Z"/><path class="cls-1" d="M117.55,43.07H57.85V1.5a1.5,1.5,0,0,0-3,0V44.57a1.5,1.5,0,0,0,1.5,1.5h61.2a1.5,1.5,0,0,0,0-3Z"/><path class="cls-1" d="M62.6,37.61a1.49,1.49,0,0,0,1.14-.52l17.08-19.9L98.65,27l12.83-15.71,2,3.89,4-13.71L104.92,8.19l4.23,1.23L97.91,23.19,80.13,13.38,61.46,35.14a1.49,1.49,0,0,0,.17,2.11A1.45,1.45,0,0,0,62.6,37.61Z"/></g></g></svg>