<svg xmlns="http://www.w3.org/2000/svg" viewBox="0 0 220.92 108.49"><defs><style>.cls-1{fill:#fa4943;}</style></defs><g id="Layer_2" data-name="Layer 2"><g id="logo"><path class="cls-1" d="M122.23,25.84A22.06,22.06,0,0,0,110.93,29a.17.17,0,0,0-.07.13.15.15,0,0,0,.07.13c.31.21.58.4.82.59s.7.54,1.09.88l.32.27.63.58.5.5.2.2a.14.14,0,0,0,.17,0,17.44,17.44,0,1,1,0,31.41c-.27-.13-.55-.28-.86-.45a17.53,17.53,0,0,1-3.56-2.61l-.66-.66a17.39,17.39,0,0,1,0-24,.15.15,0,0,0,0-.21c-.2-.2-.42-.39-.71-.64s-.59-.47-.9-.71l-.35-.24c-.22-.16-.44-.3-.64-.43a.81.81,0,0,0-.18-.1,6.2,6.2,0,0,0-.63-.38l-.2-.11a.17.17,0,0,0-.19,0,22.09,22.09,0,0,0,0,29.55c.22.25.44.48.67.72a22,22,0,0,0,3.61,3c.26.18.55.36.89.56a22.12,22.12,0,1,0,11.29-41.15Z"/><path class="cls-1" d="M108.56,25.46l1.51.78h.14l1.51-.78c9.17-4.74,11.75-9.94,12.3-13.47a10.61,10.61,0,0,0-3-9.22A9.14,9.14,0,0,0,114.53,0a8.51,8.51,0,0,0-4.4,1.21A8.49,8.49,0,0,0,105.75,0a9.12,9.12,0,0,0-6.46,2.77,10.61,10.61,0,0,0-3,9.22C96.8,15.52,99.38,20.72,108.56,25.46ZM101.83,5.32a5.45,5.45,0,0,1,3.92-1.73C108,3.59,110,5.11,110,6.85a.15.15,0,0,0,.15.15.15.15,0,0,0,.15-.15,3,3,0,0,1,1.24-2.26,5,5,0,0,1,3-1h0a5.43,5.43,0,0,1,3.91,1.73,7,7,0,0,1,2,6.11c-.42,2.7-2.56,6.77-10.33,10.8-7.78-4-9.92-8.1-10.34-10.8A7,7,0,0,1,101.83,5.32Z"/><path class="cls-1" d="M98.05,70.1A22,22,0,0,0,109.34,67a.14.14,0,0,0,.07-.12.16.16,0,0,0-.06-.13l-.83-.59-.07,0-.44-.35,0,0-.25-.21-.19-.15-.25-.22-.43-.39-.37-.34-.5-.5-.19-.2a.15.15,0,0,0-.18,0,17.44,17.44,0,1,1,0-31.4c.27.12.56.27.86.44A17.53,17.53,0,0,1,110,35.32c.23.22.45.43.66.66a17.39,17.39,0,0,1,0,24,.15.15,0,0,0,0,.21c.2.2.43.4.71.64s.58.47.9.71l.35.24c.22.16.43.3.64.43l.18.11c.19.12.39.24.63.37l.21.11a.15.15,0,0,0,.18,0,22.09,22.09,0,0,0,0-29.55c-.21-.24-.44-.48-.67-.71a22.1,22.1,0,0,0-3.61-3c-.28-.19-.58-.37-.88-.55A22.13,22.13,0,1,0,98.05,70.1Z"/><path class="cls-1" d="M49.4,100.29l-.59,0c-1.79,0-2.87-.7-3.28-2.13a9.88,9.88,0,0,1-.32-2.78,25.51,25.51,0,0,1,1.47-6.27,67.47,67.47,0,0,1,4-9.41,11.49,11.49,0,0,0,1.46-4.8A3.91,3.91,0,0,0,52,73.79a1.85,1.85,0,0,0-1.92-1.48A3.86,3.86,0,0,0,49,72.5c-2.31.68-5,2.89-7.93,6.57-2.64,3.27-4.89,6.34-6.74,9.14l.37-1.07c1.89-5.67,2.86-9.78,2.86-12.22a4,4,0,0,0-.78-2.59c-1-1.3-2.88-1.3-5.12-.11a8.59,8.59,0,0,0-2.57,2.1,54.68,54.68,0,0,0-5.9,8.76,2.92,2.92,0,0,1-.44.66v-.06a3.06,3.06,0,0,1,.24-.87,31,31,0,0,0,1.89-7.23c0-.45.07-.91.07-1.35a8.54,8.54,0,0,0-.63-3.45c-.93-2.22-2.8-3.35-5.55-3.35-3.2,0-6.68,1.35-10.35,4a21.41,21.41,0,0,0-7.43,9,13.79,13.79,0,0,0-1,4.48,9.26,9.26,0,0,0,.41,3A7.22,7.22,0,0,0,4.2,92.18a6.52,6.52,0,0,0,5.55.15,11.13,11.13,0,0,0,5.63-4.87,6.45,6.45,0,0,0,1-3,5.17,5.17,0,0,0-.33-2,3,3,0,0,0-3-1.9,5.22,5.22,0,0,0-.88.07c-.67.08-1,.21-1.1.43a.32.32,0,0,0,.05.34.75.75,0,0,0,.79.31,6.28,6.28,0,0,1,.78-.06c1.48,0,2.2.77,2.2,2.35a7.52,7.52,0,0,1-1.24,3.64c-1.63,2.76-3.74,4.15-6.27,4.15a4.75,4.75,0,0,1-2.14-.52c-2-1-3-3-3-6a14.62,14.62,0,0,1,.93-4.36,14.93,14.93,0,0,1,1.61-3.11,22.93,22.93,0,0,1,6.88-6.71c2.74-1.73,5-2.61,6.83-2.61,2.77,0,4.12,1.64,4.12,5,0,2.86-1.24,7.49-3.68,13.75a65.68,65.68,0,0,1-5.26,11.14.05.05,0,0,0,0,0,1.1,1.1,0,0,0,0,.31c0,.32.27.71,1.13.71a2.11,2.11,0,0,0,2.16-1.15c.07-.18.16-.38.26-.6s.2-.4.26-.55L19,93.6c1-2.18,1.88-4.08,2.63-5.65s1.86-3.5,3.27-5.78a68.25,68.25,0,0,1,5-7c1.38-1.74,2.66-2.62,3.78-2.62a1.27,1.27,0,0,1,.92.49,2,2,0,0,1,.45,1.37A12.75,12.75,0,0,1,35,75.91a50.7,50.7,0,0,1-2.34,10.45c-.48,1.36-1,2.72-1.57,4s-1.05,2.37-1.46,3.14-.81,1.5-1.19,2.2-.61,1.09-.68,1.2a.62.62,0,0,0,0,.57c.1.36.4.8,1.3.8s1.77-.69,2.34-2a63.48,63.48,0,0,1,4.4-7.7A91.91,91.91,0,0,1,41,80.92a47.14,47.14,0,0,1,3.27-3.69c1.94-1.89,3.38-2.85,4.27-2.85.37,0,.86.11.86,1a9.63,9.63,0,0,1-1,3.41c-1.84,4-3.07,6.81-3.65,8.21-.36.86-.81,2.13-1.32,3.75a14.76,14.76,0,0,0-.79,4.4c0,3.59,2,5.61,5.83,6a3.44,3.44,0,0,0,.52,0,1.73,1.73,0,0,0,.68-.16c.35-.17.37-.37.33-.51C50,100.27,49.54,100.29,49.4,100.29Z"/><path class="cls-1" d="M81.91,80.66a1.91,1.91,0,0,0-.66,1.14A1.47,1.47,0,0,0,81.57,83a1.34,1.34,0,0,0,1.09.49A1.83,1.83,0,0,0,83.88,83a1.87,1.87,0,0,0,.66-1.13,1.34,1.34,0,0,0-.3-1.18,1.4,1.4,0,0,0-1.11-.48A1.87,1.87,0,0,0,81.91,80.66Z"/><path class="cls-1" d="M142.58,89.49a.29.29,0,0,0-.24,0q-.21.06-.42.48a39,39,0,0,1-2.26,4,9.26,9.26,0,0,1-4.84,3.43c.33-.92.77-2.22,1.36-4s1.16-3.36,1.59-4.51a20.92,20.92,0,0,1,1.17-2.67,4.55,4.55,0,0,1,1.43-1.59.16.16,0,0,0,.06-.17.15.15,0,0,0-.15-.11h-1.95a1.58,1.58,0,0,0-1.54.85,46.08,46.08,0,0,1-5.65,9.39c-1,1.15-1.52,1.39-1.8,1.39a.76.76,0,0,1-.63-.27,1.68,1.68,0,0,1-.23-1,6.76,6.76,0,0,1,.78-2.43c1.29-2.75,2.38-4.9,3.24-6.38a2.88,2.88,0,0,1,.94-1c.21-.15.32-.25.38-.3a.17.17,0,0,0,0-.17.16.16,0,0,0-.14-.09h-2.2a1.56,1.56,0,0,0-1.55.85c-.53,1.09-1.21,2.42-2,4l-.16.31a1.12,1.12,0,0,0-.27.41c-2,4.09-3.66,6.17-4.82,6.17-.25,0-.53-.09-.53-.79,0-1.56,1.48-5,4.42-10.11a.2.2,0,0,0,0-.13.16.16,0,0,0-.09-.09,1.33,1.33,0,0,0-.45-.08,7.13,7.13,0,0,0-2.93,1.08,19,19,0,0,0-3.37,2.33,27.25,27.25,0,0,0-2.25,2.34c1.69-3.26,2.94-5.12,3.71-5.54a.15.15,0,0,0-.11-.28,2.19,2.19,0,0,1-.82,0,5,5,0,0,0-.77-.11,1.77,1.77,0,0,0-1.3.48,22.3,22.3,0,0,0-2.61,4.43.4.4,0,0,0-.16.18l-.42.91c-.23.5-.41.87-.55,1.12l-.65,1.17,0,.08a10.25,10.25,0,0,1-1.53,1.94,2.35,2.35,0,0,1-1.73.93,1.6,1.6,0,0,1-1.51-.73,13,13,0,0,0,3-4.23,8,8,0,0,0,.81-3.31c0-2.31-.94-3.47-2.79-3.47a5.94,5.94,0,0,0-3.84,1.8,12.46,12.46,0,0,0-3.09,4.35l-.13.31,0,.13a20.18,20.18,0,0,1-2.54,4.08c-.71.83-1.34,1.25-1.87,1.25-.15,0-.54,0-.54-.86,0-1.49,1.48-4.87,4.39-10a.14.14,0,0,0,0-.11.12.12,0,0,0-.08-.09.9.9,0,0,0-.42-.09A7.15,7.15,0,0,0,98.9,86a19.11,19.11,0,0,0-3.44,2.39,24.78,24.78,0,0,0-2.14,2.18l.93-1.69c1.11-2,1.24-2.61,1.24-2.86a1.1,1.1,0,0,0-.78-1,.49.49,0,0,0-.53-.07,1.49,1.49,0,0,1-.41.09,1.12,1.12,0,0,0-.58.24,3.83,3.83,0,0,1-.53.29,3.21,3.21,0,0,0-.59.4l-.56.46a7.17,7.17,0,0,0-.59.51l-.57.52-.37.33-.19.18-1.1,1a16.59,16.59,0,0,0-1.59,1.71c1.68-3.24,2.92-5.1,3.69-5.51a.15.15,0,0,0-.11-.28,2.19,2.19,0,0,1-.82,0,6.85,6.85,0,0,0-.77-.11,1.73,1.73,0,0,0-1.29.48,21.07,21.07,0,0,0-2.62,4.46,1.11,1.11,0,0,0-.23.35,23.37,23.37,0,0,1-3.36,5.41,2.09,2.09,0,0,1-1.35.64c-.66,0-1-.28-1-.89a5.44,5.44,0,0,1,.61-2.22l2.88-6.74A1.26,1.26,0,0,0,83,85c-.13-.26-.49-.39-1.12-.39l-2,0a.13.13,0,0,0-.13.08.15.15,0,0,0,0,.16,1.58,1.58,0,0,1,.4.85,1.76,1.76,0,0,1-.06.52l-1.69,4.31c-2.2,4.33-3.38,5.24-4,5.24a.46.46,0,0,1-.4-.17c-.17-.23-.26-.83.25-2.37.16-.47.37-1,.63-1.58s.47-1.06.68-1.46.42-.82.65-1.26.5-1,.78-1.6a3.79,3.79,0,0,0,.45-1.45c0-.46,0-.59-.1-.66a.15.15,0,0,0-.14-.07c-1.21.12-2.23.18-3,.18l-1.5,0a3.83,3.83,0,0,0,1.78-2.94,2.55,2.55,0,0,0-.12-.81c-.26-.73-.7-1.11-1.3-1.11-.42,0-1,.22-1.16,1.25-.1.6-.23,1.21-.38,1.83a1,1,0,0,0,0-.24A.37.37,0,0,0,71.1,83H69.62c.49-1,1-2,1.51-3.07A7.6,7.6,0,0,0,72,76.89a1.79,1.79,0,0,0-.93-1.79A2,2,0,0,0,70.4,75a3,3,0,0,0-1.44.7,8.48,8.48,0,0,0-2.11,2.63c-.73,1.25-1.53,2.83-2.38,4.69H62.4a.43.43,0,0,0-.41.29.72.72,0,0,0-.05.5.4.4,0,0,0,.38.31H64a52.53,52.53,0,0,0-2.25,6.46,24.34,24.34,0,0,1-2.56,4.09c-.64.81-1.17,1.21-1.58,1.21-.19,0-.39-.06-.39-.55a9.65,9.65,0,0,1,.23-1.81,14.7,14.7,0,0,1,1.42-3.4,13.81,13.81,0,0,1,1.81-2.9.14.14,0,0,0,0-.18.15.15,0,0,0-.16-.08,2.13,2.13,0,0,1-.82,0,6.33,6.33,0,0,0-.77-.12,1.72,1.72,0,0,0-1.3.54,8,8,0,0,0-1.18,1.86c-2.3,4.35-4.16,6.56-5.54,6.56-.19,0-.75,0-.75-1.25a8,8,0,0,1,1.38-3.69,20.76,20.76,0,0,1,2.4-3.37c1.49-1.59,2.74-2.4,3.72-2.4a1.51,1.51,0,0,1,1.59,1.19.16.16,0,0,0,.12.11.64.64,0,0,0,.78-.39.85.85,0,0,0-.25-.92,4.16,4.16,0,0,0-4.26-1,8.15,8.15,0,0,0-4.34,2.68A11.47,11.47,0,0,0,48.19,94a3.12,3.12,0,0,0,1.14,2.72,1.85,1.85,0,0,0,1.14.39c1.35,0,2.87-1.3,4.63-4A7.23,7.23,0,0,0,55,94.54a2.88,2.88,0,0,0,.35,1.52,2.09,2.09,0,0,0,1.82,1.08c1.19,0,2.52-1.23,4.08-3.78a5.56,5.56,0,0,0,0,.67,3.22,3.22,0,0,0,.76,2.19,2.49,2.49,0,0,0,2,.89,4.15,4.15,0,0,0,2.91-1.43l.08-.06c1.41-1.36,2.89-4.06,4.41-8l.4-1.06c1.22,0,2.63.26,2.63,1a1.17,1.17,0,0,1-.1.47c-.06.17-.4.78-1,1.81a19.21,19.21,0,0,0-1.33,2.66,5.29,5.29,0,0,0-.42,1.78,3.64,3.64,0,0,0,.11,1,2.18,2.18,0,0,0,2.1,1.81,3.85,3.85,0,0,0,2.75-1.72c.33-.38.63-.75.89-1.11v.08a3,3,0,0,0,.61,1.85,2.32,2.32,0,0,0,2,.86,3.33,3.33,0,0,0,2.12-1c-.18.37-.34.68-.46.92a.15.15,0,0,0,0,.18.17.17,0,0,0,.18,0,2.45,2.45,0,0,1,1-.16,4.72,4.72,0,0,0,1.1-.13,1,1,0,0,0,.54-.56,25.19,25.19,0,0,1,5-7,9.78,9.78,0,0,1,2-1.56,1.59,1.59,0,0,1,.34-.13s0,.06,0,.36A6.8,6.8,0,0,1,91,89.85c-1.35,2.81-2,4.68-2,5.7a2.06,2.06,0,0,0,.31.94,1.13,1.13,0,0,0,1,.58A.14.14,0,0,0,90.5,97a12.31,12.31,0,0,1,2-3.88,24.57,24.57,0,0,1,3.25-3.88c1.25-1.16,1.8-1.4,2-1.4.44,0,.44.16.44.22a2.05,2.05,0,0,1-.37,1,19,19,0,0,0-2,3.79,6.79,6.79,0,0,0-.37,2,2.42,2.42,0,0,0,.35,1.37,2.27,2.27,0,0,0,1.88,1.07,3.3,3.3,0,0,0,1.92-.58A8.23,8.23,0,0,0,101,95.47a12.93,12.93,0,0,0,1.23-1.76c0,2.23,1,3.36,2.79,3.36a5.37,5.37,0,0,0,3-1.18,3.13,3.13,0,0,0,2.33.89,3.51,3.51,0,0,0,1.78-.56l.22-.15-.51,1a.15.15,0,0,0,0,.17.12.12,0,0,0,.17,0,2.73,2.73,0,0,1,1-.16,4.92,4.92,0,0,0,1.11-.13,1.07,1.07,0,0,0,.57-.53,25.12,25.12,0,0,1,5-7.11c1.4-1.31,2-1.58,2.25-1.58.46,0,.46.16.46.22a2.05,2.05,0,0,1-.37,1,19,19,0,0,0-2,3.79,6.79,6.79,0,0,0-.37,2,2.19,2.19,0,0,0,.39,1.37,2.42,2.42,0,0,0,2.13,1.07A3.83,3.83,0,0,0,125,95.7a13.49,13.49,0,0,0,1.35-1.88c0,.14,0,.36-.08.66a1.34,1.34,0,0,0,.08.83A2.15,2.15,0,0,0,128.8,97a4.18,4.18,0,0,0,3-1.52,24.26,24.26,0,0,0,2.85-4A41.38,41.38,0,0,1,132,98.24c-.62.17-1.94.51-3.84,1a27.16,27.16,0,0,0-4.9,1.62,6.89,6.89,0,0,0-3.47,3,5.41,5.41,0,0,0-.56,2.19,2.14,2.14,0,0,0,.93,1.73,4.13,4.13,0,0,0,2.55.7,9,9,0,0,0,5.8-2.21,26.56,26.56,0,0,0,5.61-7.43,25.63,25.63,0,0,0,3.14-1.35,7.9,7.9,0,0,0,2.21-1.74A15,15,0,0,0,141,93.62c.41-.7.82-1.45,1.21-2.25.62-1.24.62-1.39.62-1.46A.47.47,0,0,0,142.58,89.49Zm-35,5.67a3.06,3.06,0,0,1-1.83.85c-.48,0-1.11-.16-1.11-1.51a10.3,10.3,0,0,1,1.25-4.2,12,12,0,0,1,2.35-3.5,3.58,3.58,0,0,1,2.21-1.25c.8,0,1.18.53,1.18,1.62a8.14,8.14,0,0,1-.88,3.54c-.39.8-.74,1.47-1.06,2a1.15,1.15,0,0,0-.34-.64,1.21,1.21,0,0,0-.89-.37c-.61,0-1.35.3-1.41,1.7h0A3.11,3.11,0,0,0,107.54,95.16ZM67,83a40,40,0,0,1,2.62-5.25c.69-1,1-1.09,1.09-1.09s.1.06.1.57c0,1.06-.78,3-2.32,5.77ZM64.9,88.1c.79-2,1.33-3.32,1.61-4h1.32A28.44,28.44,0,0,1,64.9,88.1Zm66.18,11.66-.6,1a30.4,30.4,0,0,1-4.17,4.58,6.84,6.84,0,0,1-4.38,2.11,2,2,0,0,1-1.18-.33,1.05,1.05,0,0,1-.44-.91,3.17,3.17,0,0,1,.38-1.39,6.38,6.38,0,0,1,3.25-2.93A63.43,63.43,0,0,1,131.08,99.76ZM71.45,83.83a37.44,37.44,0,0,1-1.61,4.83c-.31.77-.67,1.55-1.12,2.44a13.63,13.63,0,0,1-3.18,4.28,2.74,2.74,0,0,1-1.3.41.67.67,0,0,1-.66-.39,1.74,1.74,0,0,1-.24-.85,3.92,3.92,0,0,1,.11-.88L64.27,90A26.64,26.64,0,0,0,69,84.14h2a.43.43,0,0,0,.41-.29Z"/><path class="cls-1" d="M199.46,83.45a1.87,1.87,0,0,0,1.22-.47,1.91,1.91,0,0,0,.66-1.13,1.34,1.34,0,0,0-.31-1.18,1.4,1.4,0,0,0-1.1-.48,1.83,1.83,0,0,0-1.22.47A1.92,1.92,0,0,0,198,81.8a1.48,1.48,0,0,0,.33,1.16A1.33,1.33,0,0,0,199.46,83.45Z"/><path class="cls-1" d="M220.05,83h-1.49c.5-1,1-2,1.52-3.07a7.57,7.57,0,0,0,.84-3.08A1.8,1.8,0,0,0,220,75.1a2.06,2.06,0,0,0-.65-.08,3,3,0,0,0-1.45.7,8.63,8.63,0,0,0-2.1,2.63c-.73,1.25-1.53,2.83-2.39,4.69h-2.07a.42.42,0,0,0-.4.29.72.72,0,0,0-.05.5.38.38,0,0,0,.38.31h1.65a55.52,55.52,0,0,0-2.26,6.51,29.52,29.52,0,0,1-2.25,3.86,3.75,3.75,0,0,1-2.74,1.65l-.26,0a7,7,0,0,0,1.54-1.7,4.41,4.41,0,0,0,.79-2.43,8.32,8.32,0,0,0-.85-3.14c-.24-.5-.46-1-.65-1.4a4,4,0,0,1-.27-1.6c0-1.23.37-2,1.14-2.36a1.16,1.16,0,0,1,1.06.07.64.64,0,0,0,.49.06.41.41,0,0,0,.24-.24c.08-.2.07-.48-.44-.72a2.35,2.35,0,0,0-1.05-.25c-1.34,0-2.51,1.06-3.5,3.16-.56,1.2-1.21,2.55-1.95,4a1.26,1.26,0,0,0-.22.33c-.34.68-.68,1.33-1,1.93a1.68,1.68,0,0,0-.91.68,2.31,2.31,0,0,0-.48,1.37c0,.06,0,.12,0,.17v.05a8.76,8.76,0,0,1-1,1.21A2.07,2.07,0,0,1,197,96c-.66,0-1-.28-1-.89a5.57,5.57,0,0,1,.6-2.22l2.88-6.74a1.26,1.26,0,0,0,.22-1.1c-.12-.26-.48-.39-1.11-.39l-2,0a.15.15,0,0,0-.11.24,1.58,1.58,0,0,1,.4.85,1.76,1.76,0,0,1-.06.52l-1.55,4a33.26,33.26,0,0,1-2.47,4.28,3.77,3.77,0,0,1-2.74,1.65l-.26,0a7.21,7.21,0,0,0,1.54-1.7A4.39,4.39,0,0,0,192.2,92a8.27,8.27,0,0,0-.84-3.14c-.24-.5-.46-1-.65-1.4a4,4,0,0,1-.28-1.6,2.31,2.31,0,0,1,1.15-2.36,1.16,1.16,0,0,1,1.06.07.63.63,0,0,0,.49.06.42.42,0,0,0,.23-.24c.09-.2.08-.48-.43-.72a2.36,2.36,0,0,0-1.06-.25c-1.33,0-2.51,1.06-3.49,3.16-.61,1.3-1.32,2.75-2.11,4.32-.36.69-.7,1.34-1,1.93a1.57,1.57,0,0,0-1,.69,2.31,2.31,0,0,0-.48,1.37c0,.11,0,.21,0,.31v0c-.07.1-.13.19-.19.26a3.77,3.77,0,0,1-2.74,1.65l-.26,0a7.21,7.21,0,0,0,1.54-1.7A4.41,4.41,0,0,0,183,92a8.32,8.32,0,0,0-.85-3.14c-.24-.5-.46-1-.65-1.4a4,4,0,0,1-.28-1.6,2.31,2.31,0,0,1,1.15-2.36,1.16,1.16,0,0,1,1.06.07.64.64,0,0,0,.49.06.47.47,0,0,0,.24-.24c.08-.2.07-.48-.44-.72a2.36,2.36,0,0,0-1.06-.25c-1.33,0-2.51,1.06-3.49,3.16-.58,1.25-1.27,2.66-2,4.19a2,2,0,0,0-.23.36,17,17,0,0,1-.86,1.7,1.59,1.59,0,0,0-1,.69,2.31,2.31,0,0,0-.48,1.37.81.81,0,0,0,0,.16v0c-.29.42-.57.79-.84,1.14C172.22,97.07,170.9,98,169.8,98a1.14,1.14,0,0,1-.91-.52,2.89,2.89,0,0,1-.42-1.75,16.4,16.4,0,0,1,2-7.23,19.48,19.48,0,0,1,2.9-4.41,3.24,3.24,0,0,0,.94-2.2c0-1-.53-1.2-1-1.2-.74,0-1.54.82-2.43,2.5a34,34,0,0,1-3.9,5.58,44.28,44.28,0,0,1-5.36,5.47c-2.54,2.09-4.79,3.14-6.7,3.14-1.66,0-2.61-.93-2.88-2.86a5.14,5.14,0,0,1,0-.71,15.52,15.52,0,0,1,1.36-5.23,44.83,44.83,0,0,1,4.94-8.46,27.06,27.06,0,0,0,7.88,1,25.07,25.07,0,0,0,8.3-1.23A10.85,10.85,0,0,0,178.06,78c1.67-1.4,2.51-2.87,2.51-4.38a4.12,4.12,0,0,0-1.74-3.42,7.48,7.48,0,0,0-4.62-1.32c-6.09,0-12,3.16-17.67,9.4a8.74,8.74,0,0,1-2.92-2,3.34,3.34,0,0,1-1-2.07,2.07,2.07,0,0,1,.19-.84,1,1,0,0,0-.05-1,.44.44,0,0,0-.37-.15.74.74,0,0,0-.5.33c-.39.28-.58.88-.58,1.84a3.58,3.58,0,0,0,.9,2.45,11.38,11.38,0,0,0,3.48,2.44,27,27,0,0,0-3.06,4.47,19.05,19.05,0,0,0-2.77,9.19c0,2.86.91,4.69,2.68,5.43a3.39,3.39,0,0,0,1.5.45,5.85,5.85,0,0,0,.86,0,11.2,11.2,0,0,0,4.87-1.61,33.68,33.68,0,0,0,6.93-6,10,10,0,0,0-.38,1.2,13,13,0,0,0-.38,3.1,5.15,5.15,0,0,0,.74,2.78,2.54,2.54,0,0,0,2.28,1.2,5.65,5.65,0,0,0,3-.9,8.46,8.46,0,0,0,2.46-2.26c.17-.22.33-.45.48-.68a3,3,0,0,0,3.09,1.67,3.76,3.76,0,0,0,1.49-.35,4.39,4.39,0,0,0,2.63-.09,3.43,3.43,0,0,0,1.51-.9l.46-.48c.45,1.21,1.51,1.82,3.16,1.82a3.76,3.76,0,0,0,1.49-.35,4.39,4.39,0,0,0,2.63-.09,3.49,3.49,0,0,0,1.51-.9l.75-.79a3.54,3.54,0,0,0,.55-.63,3.08,3.08,0,0,0,.6,1.76,2.34,2.34,0,0,0,2,.86,4.08,4.08,0,0,0,2.84-1.66c.45,1.2,1.51,1.8,3.14,1.8a3.76,3.76,0,0,0,1.49-.35,4.42,4.42,0,0,0,2.64-.09,3.55,3.55,0,0,0,1.51-.9l.75-.79a4.45,4.45,0,0,0,.75-.93c.09-.16.18-.31.27-.44,0,.11,0,.22,0,.32a3.22,3.22,0,0,0,.76,2.19,2.48,2.48,0,0,0,1.95.89c1.52,0,3-1.08,4.29-3.21A36.31,36.31,0,0,0,219,90.33a1.11,1.11,0,0,0,.11-.61.27.27,0,0,0-.14-.2.36.36,0,0,0-.29,0,.84.84,0,0,0-.43.47c-1.38,2.73-2.65,4.55-3.77,5.39a2.71,2.71,0,0,1-1.29.41.7.7,0,0,1-.67-.39,1.84,1.84,0,0,1-.23-.85,3.9,3.9,0,0,1,.1-.88l.82-3.64A26.4,26.4,0,0,0,218,84.14h2a.44.44,0,0,0,.41-.29.72.72,0,0,0,0-.5A.37.37,0,0,0,220.05,83Zm-.3-5.77c0,1.06-.78,3-2.32,5.77H216a37.49,37.49,0,0,1,2.62-5.25c.69-1,1-1.09,1.08-1.09S219.75,76.76,219.75,77.27Zm-3,6.87a27.7,27.7,0,0,1-2.94,4c.8-2,1.34-3.32,1.61-4ZM202.85,96.26a1.61,1.61,0,0,1-.39,0,1.11,1.11,0,0,1-1.19-.85,3.77,3.77,0,0,1,0-.44,1.67,1.67,0,0,1,.39-1.05A3.26,3.26,0,0,0,202.85,96.26Zm-.42-3.13c0-.82-.33-1.12-.67-1.21l0,0,.06-.13c.5-1,1.47-2.87,2.89-5.69v.23A24.76,24.76,0,0,0,205,89a24.62,24.62,0,0,1,.25,3.05,4.62,4.62,0,0,1-1.46,3.79A2.71,2.71,0,0,1,202.43,93.13Zm-15.12,3.13a1.51,1.51,0,0,1-.39,0,1.09,1.09,0,0,1-1.18-.85,2.39,2.39,0,0,1,0-.44,1.72,1.72,0,0,1,.38-1.05A3.3,3.3,0,0,0,187.31,96.26Zm-.42-3.13c0-.76-.29-1.06-.59-1.17.18-.36.31-.65.4-.85s.2-.46.3-.68l.07-.15c.53-1,1.23-2.43,2.12-4.21v.23a25.68,25.68,0,0,0,.26,2.66A26.76,26.76,0,0,1,189.7,92a4.62,4.62,0,0,1-1.46,3.79A2.69,2.69,0,0,1,186.89,93.13Zm-8.82,3.13a1.64,1.64,0,0,1-.4,0,1.1,1.1,0,0,1-1.18-.85,2.39,2.39,0,0,1,0-.44,1.72,1.72,0,0,1,.38-1.05A3.27,3.27,0,0,0,178.07,96.26Zm-.43-3.13c0-.8-.31-1.1-.64-1.19.17-.33.33-.67.49-1L180,86.07a1.69,1.69,0,0,0,0,.23A25.68,25.68,0,0,0,180.2,89a24.62,24.62,0,0,1,.25,3.05A4.62,4.62,0,0,1,179,95.8,2.71,2.71,0,0,1,177.64,93.13Zm-18.53-14c1.1-1.29,2.13-2.42,3.08-3.36a30.62,30.62,0,0,1,3.42-2.87,14.44,14.44,0,0,1,4.11-2.11,14.14,14.14,0,0,1,4.41-.72,6.4,6.4,0,0,1,3.45.81,2.53,2.53,0,0,1,1.21,2.26,5.32,5.32,0,0,1-2.58,4.43c-2.22,1.56-5.83,2.35-10.71,2.35A22.39,22.39,0,0,1,159.11,79.14Z"/></g></g></svg>