<?xml version="1.0" encoding="UTF-8"?>
<svg id="Layer_2" data-name="Layer 2" xmlns="http://www.w3.org/2000/svg" viewBox="0 0 220.92 108.49">
  <defs>
    <style>
      .cls-1 {
        fill: #fff;
      }
    </style>
  </defs>
  <g id="Layer_1-2" data-name="Layer 1">
    <g id="Layer_2-2" data-name="Layer 2">
      <g id="logo">
        <path class="cls-1" d="M81.91,80.66c-.35,.29-.58,.69-.66,1.14-.08,.43,.04,.87,.32,1.2,.27,.33,.67,.51,1.09,.49,.45,0,.89-.18,1.22-.49,.35-.28,.58-.69,.66-1.13,.09-.42-.02-.86-.3-1.18-.28-.32-.69-.5-1.11-.48-.45,0-.88,.16-1.22,.45Z"/>
        <path class="cls-1" d="M199.46,83.45c.45,0,.88-.17,1.22-.47,.35-.29,.58-.69,.66-1.13,.09-.42-.02-.86-.31-1.18-.28-.32-.68-.49-1.1-.48-.45,0-.89,.17-1.22,.47-.37,.28-.62,.69-.71,1.14-.06,.42,.06,.84,.33,1.16,.27,.34,.7,.52,1.13,.49Z"/>
        <path class="cls-1" d="M51.66,99.92h-.62c-1.87,0-3-.73-3.43-2.23-.25-.95-.36-1.93-.33-2.91,.23-2.24,.75-4.44,1.54-6.55,1.14-3.38,2.54-6.67,4.18-9.84,.87-1.54,1.39-3.25,1.53-5.02,0-.39-.04-.78-.15-1.16-.19-.94-1.05-1.6-2.01-1.55-.38,.01-.76,.08-1.13,.2-2.41,.71-5.23,3.02-8.29,6.87-2.76,3.42-5.11,6.63-7.05,9.56l.39-1.12c1.98-5.93,2.99-10.22,2.99-12.77,.05-.97-.24-1.93-.82-2.71-1.05-1.36-3.01-1.36-5.35-.11-1.03,.55-1.94,1.3-2.69,2.2-2.35,2.85-4.41,5.91-6.17,9.16-.12,.25-.28,.48-.46,.69v-.06c.04-.31,.12-.62,.25-.91,.96-2.43,1.62-4.97,1.98-7.56,0-.47,.07-.95,.07-1.41,.03-1.23-.19-2.46-.66-3.61-.97-2.32-2.93-3.5-5.8-3.5-3.35,0-6.98,1.41-10.82,4.18-3.41,2.36-6.1,5.61-7.77,9.41-.61,1.49-.96,3.07-1.05,4.68-.03,1.06,.11,2.12,.43,3.14,.65,1.97,2.09,3.59,3.97,4.46,1.81,.91,3.94,.97,5.8,.16,2.49-.97,4.57-2.77,5.89-5.09,.6-.94,.96-2.02,1.05-3.14,.02-.71-.09-1.42-.34-2.09-.5-1.28-1.77-2.08-3.14-1.99-.31,0-.62,.02-.92,.07-.7,.08-1.05,.22-1.15,.45-.05,.12-.03,.26,.05,.36,.18,.27,.51,.4,.83,.32,.27-.04,.54-.06,.82-.06,1.55,0,2.3,.8,2.3,2.46-.1,1.36-.54,2.67-1.3,3.81-1.7,2.89-3.91,4.34-6.55,4.34-.78,0-1.54-.19-2.24-.54-2.09-1.05-3.14-3.14-3.14-6.27,.09-1.56,.42-3.1,.97-4.56,.43-1.15,1-2.24,1.68-3.25,1.88-2.82,4.33-5.21,7.19-7.01,2.86-1.81,5.23-2.73,7.14-2.73,2.9,0,4.31,1.71,4.31,5.23,0,2.99-1.3,7.83-3.85,14.37-1.46,4.05-3.31,7.94-5.5,11.65h0c-.02,.11-.02,.22,0,.32,0,.33,.28,.74,1.18,.74,.93,.12,1.84-.36,2.26-1.2,.07-.19,.17-.4,.27-.63s.21-.42,.27-.57l1.59-3.65c1.05-2.28,1.97-4.27,2.75-5.91s1.94-3.66,3.42-6.04c1.59-2.55,3.33-4.99,5.23-7.32,1.44-1.82,2.78-2.74,3.95-2.74,.38,.03,.73,.21,.96,.51,.33,.4,.5,.91,.47,1.43,.01,.52,0,1.05-.05,1.57-.43,3.72-1.25,7.38-2.45,10.92-.5,1.42-1.05,2.84-1.64,4.18s-1.1,2.48-1.53,3.28-.85,1.57-1.24,2.3-.64,1.14-.71,1.25c-.1,.19-.1,.41,0,.6,.1,.38,.42,.84,1.36,.84s1.85-.72,2.45-2.09c1.34-2.79,2.88-5.48,4.6-8.05,1.68-2.76,3.49-5.42,5.44-8,1.07-1.34,2.21-2.63,3.42-3.86,2.03-1.98,3.53-2.98,4.46-2.98,.39,0,.9,.11,.9,1.05-.12,1.24-.48,2.45-1.05,3.56-1.92,4.18-3.21,7.12-3.82,8.58-.38,.9-.85,2.23-1.38,3.92-.51,1.48-.79,3.03-.83,4.6,0,3.75,2.09,5.86,6.09,6.27,.18,.01,.36,.01,.54,0,.25,0,.49-.06,.71-.17,.37-.18,.39-.39,.34-.53,0-.22-.48-.2-.63-.2Zm97.41-11.29c-.08-.04-.17-.04-.25,0-.15,.04-.29,.21-.44,.5-.7,1.44-1.49,2.84-2.36,4.18-1.25,1.72-3.03,2.98-5.06,3.59,.34-.96,.8-2.32,1.42-4.18s1.21-3.51,1.66-4.71c.34-.96,.75-1.89,1.22-2.79,.36-.66,.87-1.23,1.49-1.66,.06-.04,.08-.11,.06-.18-.02-.07-.08-.12-.16-.11h-2.04c-.67-.06-1.3,.29-1.61,.89-1.57,3.5-3.55,6.79-5.91,9.82-1.05,1.2-1.59,1.45-1.88,1.45-.25,.02-.5-.09-.66-.28-.19-.31-.27-.68-.24-1.05,.11-.89,.38-1.75,.82-2.54,1.35-2.87,2.49-5.12,3.39-6.67,.24-.42,.58-.78,.98-1.05,.22-.16,.33-.26,.4-.31,.03-.05,.03-.12,0-.18-.03-.06-.08-.09-.15-.09h-2.3c-.67-.07-1.32,.29-1.62,.89-.55,1.14-1.26,2.53-2.09,4.18l-.17,.32c-.12,.12-.22,.27-.28,.43-2.09,4.28-3.83,6.45-5.04,6.45-.26,0-.55-.09-.55-.83,0-1.63,1.55-5.23,4.62-10.57,.02-.04,.02-.09,0-.14-.02-.04-.05-.08-.09-.09-.15-.05-.31-.08-.47-.08-1.09,.15-2.14,.53-3.06,1.13-1.26,.68-2.44,1.5-3.52,2.44-.83,.77-1.62,1.58-2.35,2.45,1.77-3.41,3.07-5.35,3.88-5.79,.08-.03,.12-.12,.09-.2s-.12-.12-.2-.09h0c-.28,.05-.57,.05-.86,0-.26-.06-.53-.1-.8-.11-.5-.02-.99,.16-1.36,.5-1.09,1.43-2,2.99-2.73,4.63-.07,.04-.13,.11-.17,.19l-.44,.95c-.24,.52-.43,.91-.57,1.17l-.68,1.22v.08c-.45,.74-.99,1.42-1.6,2.03-.43,.57-1.09,.93-1.81,.97-.63,.06-1.24-.23-1.58-.76,1.33-1.25,2.4-2.75,3.14-4.42,.53-1.08,.82-2.26,.85-3.46,0-2.41-.98-3.63-2.92-3.63-1.52,.11-2.95,.78-4.01,1.88-1.39,1.26-2.49,2.82-3.23,4.55l-.14,.32v.14c-.71,1.52-1.6,2.95-2.66,4.27-.74,.87-1.4,1.31-1.95,1.31-.16,0-.56,0-.56-.9,0-1.56,1.55-5.09,4.59-10.45,.02-.04,.02-.08,0-.11,0-.04-.04-.08-.08-.09-.14-.07-.29-.1-.44-.09-1.12,.11-2.21,.48-3.17,1.08-1.29,.7-2.49,1.54-3.6,2.5-.79,.71-1.54,1.47-2.24,2.28l.97-1.77c1.16-2.09,1.3-2.73,1.3-2.99-.02-.49-.35-.9-.82-1.05-.15-.13-.37-.16-.55-.07-.14,.05-.28,.08-.43,.09-.22,.02-.43,.11-.61,.25-.18,.12-.36,.22-.55,.3-.22,.12-.43,.26-.62,.42l-.59,.48c-.22,.17-.42,.34-.62,.53l-.6,.54-.39,.34-.2,.19-1.15,1.05c-.6,.56-1.15,1.15-1.66,1.79,1.76-3.39,3.05-5.33,3.86-5.76,.08-.03,.12-.12,.09-.2s-.12-.12-.2-.09c-.28,.05-.57,.05-.86,0-.27-.05-.53-.09-.8-.11-.5-.03-.99,.16-1.35,.5-1.1,1.44-2.02,3-2.74,4.66-.1,.11-.18,.23-.24,.37-.91,2.04-2.09,3.94-3.51,5.66-.37,.39-.87,.63-1.41,.67-.69,0-1.05-.29-1.05-.93,.04-.81,.26-1.6,.64-2.32l3.01-7.05c.33-.36,.44-.87,.28-1.33-.14-.27-.51-.41-1.17-.41h-2.09c-.06,0-.11,.03-.14,.08-.03,.05-.03,.12,0,.17,.23,.25,.37,.56,.42,.89,0,.18-.01,.37-.06,.54l-1.77,4.51c-2.3,4.53-3.53,5.48-4.18,5.48-.16,.01-.32-.05-.42-.18-.18-.24-.27-.87,.26-2.48,.17-.49,.39-1.05,.66-1.65s.49-1.11,.71-1.53,.44-.86,.68-1.32,.52-1.05,.82-1.67c.26-.47,.42-.98,.47-1.52,0-.48,0-.62-.1-.69-.03-.05-.09-.08-.15-.07-1.26,.13-2.33,.19-3.14,.19h-1.57c1.07-.67,1.76-1.81,1.86-3.07,0-.29-.04-.57-.13-.85-.27-.76-.73-1.16-1.36-1.16-.44,0-1.05,.23-1.21,1.31-.1,.63-.24,1.26-.4,1.91,.01-.08,.01-.17,0-.25-.03-.21-.23-.36-.44-.32h-1.55c.51-1.05,1.05-2.09,1.58-3.21,.52-.98,.83-2.07,.91-3.18,.09-.76-.29-1.51-.97-1.87-.23-.07-.46-.11-.7-.1-.56,.1-1.08,.36-1.51,.73-.91,.76-1.66,1.69-2.21,2.75-.76,1.31-1.6,2.96-2.49,4.9h-2.16c-.19,0-.37,.12-.43,.3-.08,.16-.1,.35-.05,.52,.04,.19,.21,.32,.4,.32h1.76c-.93,2.2-1.72,4.45-2.35,6.75-.75,1.51-1.64,2.94-2.68,4.28-.67,.85-1.22,1.26-1.65,1.26-.2,0-.41-.06-.41-.57,.02-.64,.1-1.27,.24-1.89,.34-1.24,.84-2.44,1.48-3.55,.5-1.09,1.14-2.1,1.89-3.03,.05-.05,.05-.13,0-.19-.03-.06-.1-.1-.17-.08-.28,.06-.57,.06-.86,0-.27-.06-.53-.1-.8-.13-.51-.01-1.01,.19-1.36,.56-.5,.59-.91,1.24-1.23,1.94-2.4,4.55-4.35,6.86-5.79,6.86-.2,0-.78,0-.78-1.31,.15-1.39,.65-2.71,1.44-3.86,.72-1.25,1.56-2.44,2.51-3.52,1.56-1.66,2.86-2.51,3.89-2.51,.79-.06,1.5,.47,1.66,1.24,.02,.06,.07,.1,.13,.11,.34,.1,.69-.08,.82-.41,.12-.34,.01-.72-.26-.96-1.17-1.16-2.89-1.57-4.45-1.05-1.77,.42-3.36,1.41-4.54,2.8-1.94,2.06-3.1,4.74-3.25,7.57-.1,1.09,.34,2.16,1.19,2.84,.34,.27,.76,.41,1.19,.41,1.41,0,3-1.36,4.84-4.18-.08,.49-.12,.99-.1,1.49-.03,.55,.1,1.1,.37,1.59,.38,.69,1.11,1.13,1.9,1.13,1.24,0,2.63-1.29,4.27-3.95-.01,.23-.01,.47,0,.7-.03,.84,.25,1.65,.79,2.29,.52,.62,1.29,.96,2.09,.93,1.17-.07,2.27-.6,3.04-1.49l.08-.06c1.47-1.42,3.02-4.24,4.61-8.36l.42-1.11c1.28,0,2.75,.27,2.75,1.05,0,.17-.04,.34-.1,.49-.06,.18-.42,.82-1.05,1.89-.53,.89-1,1.82-1.39,2.78-.25,.59-.4,1.22-.44,1.86-.01,.35,.03,.7,.11,1.05,.18,1.07,1.11,1.87,2.2,1.89,1.18-.15,2.23-.8,2.87-1.8,.34-.4,.66-.78,.93-1.16v.08c0,.7,.22,1.38,.64,1.93,.5,.63,1.29,.97,2.09,.9,.84-.07,1.63-.44,2.22-1.05-.19,.39-.36,.71-.48,.96-.04,.06-.04,.13,0,.19,.06,.04,.13,.04,.19,0,.33-.13,.69-.18,1.05-.17,.39,0,.77-.05,1.15-.14,.26-.11,.46-.32,.56-.59,1.31-2.72,3.08-5.2,5.23-7.32,.62-.63,1.33-1.18,2.09-1.63,.11-.06,.23-.1,.36-.14v.38c-.2,.7-.51,1.36-.91,1.97-1.41,2.94-2.09,4.89-2.09,5.96,.03,.35,.14,.69,.32,.98,.21,.38,.61,.61,1.05,.61,.07,.04,.16,0,.2-.07,0,0,0,0,0,0,.45-1.47,1.16-2.84,2.09-4.06,.99-1.47,2.13-2.82,3.4-4.06,1.31-1.21,1.88-1.46,2.09-1.46,.46,0,.46,.17,.46,.23-.03,.38-.17,.74-.39,1.05-.84,1.24-1.55,2.57-2.09,3.96-.23,.67-.36,1.38-.39,2.09-.02,.5,.1,1,.37,1.43,.42,.68,1.16,1.1,1.97,1.12,.72,.01,1.42-.2,2.01-.61,.54-.38,1.03-.81,1.46-1.3,.48-.58,.91-1.19,1.29-1.84,0,2.33,1.05,3.51,2.92,3.51,1.15-.08,2.24-.51,3.14-1.23,.65,.63,1.53,.97,2.44,.93,.66-.02,1.3-.23,1.86-.59l.23-.16-.53,1.05c-.04,.05-.04,.12,0,.18,.05,.05,.13,.05,.18,0h0c.33-.12,.69-.18,1.05-.17,.39,0,.78-.05,1.16-.14,.26-.1,.47-.3,.6-.55,1.3-2.76,3.07-5.28,5.23-7.43,1.46-1.37,2.09-1.65,2.35-1.65,.48,0,.48,.17,.48,.23-.03,.38-.17,.74-.39,1.05-.84,1.24-1.55,2.57-2.09,3.96-.23,.67-.36,1.38-.39,2.09-.03,.51,.12,1.01,.41,1.43,.49,.74,1.34,1.16,2.23,1.12,1.16-.06,2.24-.63,2.95-1.55,.53-.61,1-1.27,1.41-1.97,0,.15,0,.38-.08,.69-.07,.29-.04,.59,.08,.87,.24,1.18,1.37,1.96,2.56,1.77,1.22-.07,2.36-.64,3.14-1.59,1.13-1.29,2.13-2.69,2.98-4.18-.71,2.43-1.64,4.8-2.77,7.07-.65,.18-2.03,.53-4.01,1.05-1.76,.4-3.47,.97-5.12,1.69-1.53,.6-2.81,1.71-3.63,3.14-.35,.71-.55,1.49-.59,2.29,.01,.72,.37,1.4,.97,1.81,.78,.53,1.72,.79,2.67,.73,2.23-.03,4.38-.85,6.06-2.31,2.4-2.22,4.38-4.85,5.86-7.77,1.12-.4,2.22-.87,3.28-1.41,.87-.46,1.66-1.08,2.31-1.82,.6-.69,1.13-1.44,1.6-2.23,.43-.73,.86-1.52,1.26-2.35,.65-1.3,.65-1.45,.65-1.53,0-.18-.1-.35-.26-.44Zm-36.59,5.93c-.52,.5-1.19,.82-1.91,.89-.5,0-1.16-.17-1.16-1.58,.12-1.54,.56-3.04,1.31-4.39,.6-1.36,1.43-2.59,2.46-3.66,.58-.7,1.41-1.17,2.31-1.31,.84,0,1.23,.55,1.23,1.69-.02,1.29-.34,2.55-.92,3.7-.41,.84-.77,1.54-1.11,2.09-.04-.26-.17-.49-.36-.67-.24-.25-.58-.39-.93-.39-.64,0-1.41,.31-1.47,1.78h0c-.02,.65,.16,1.29,.51,1.84h.04Zm-42.42-12.71c.78-1.89,1.69-3.73,2.74-5.49,.72-1.05,1.05-1.14,1.14-1.14s.1,.06,.1,.6c0,1.11-.82,3.14-2.43,6.03h-1.56Zm-2.2,5.33c.83-2.09,1.39-3.47,1.68-4.18h1.38c-.9,1.48-1.92,2.88-3.06,4.18Zm69.18,12.19l-.63,1.05c-1.29,1.74-2.75,3.34-4.36,4.79-1.2,1.27-2.83,2.06-4.58,2.21-.44,.02-.87-.1-1.23-.34-.31-.22-.48-.58-.46-.95,.02-.51,.16-1.01,.4-1.45,.74-1.39,1.94-2.47,3.4-3.06,2.44-.89,4.93-1.63,7.46-2.23Zm-62.34-16.65c-.45,1.72-1.01,3.41-1.68,5.05-.32,.8-.7,1.62-1.17,2.55-.8,1.7-1.93,3.22-3.32,4.47-.41,.26-.88,.4-1.36,.43-.29,.02-.57-.14-.69-.41-.16-.27-.25-.58-.25-.89,0-.31,.04-.62,.11-.92l.86-3.84c1.93-1.8,3.59-3.86,4.94-6.13h2.09c.19,0,.37-.12,.43-.3l.04-.02Zm145.29-.87h-1.56c.52-1.05,1.05-2.09,1.59-3.21,.52-1,.82-2.1,.88-3.22,.07-.75-.3-1.47-.96-1.83-.22-.06-.45-.09-.68-.08-.56,.1-1.09,.35-1.52,.73-.91,.76-1.65,1.7-2.2,2.75-.76,1.31-1.6,2.96-2.5,4.9h-2.16c-.19,0-.36,.12-.42,.3-.08,.16-.1,.35-.05,.52,.04,.19,.2,.33,.4,.32h1.72c-.93,2.22-1.72,4.49-2.36,6.81-.68,1.4-1.47,2.75-2.35,4.04-.65,.97-1.7,1.61-2.86,1.72h-.27c.63-.5,1.17-1.1,1.61-1.78,.52-.75,.81-1.63,.83-2.54-.08-1.14-.38-2.26-.89-3.28-.25-.52-.48-1.05-.68-1.46-.21-.53-.3-1.1-.28-1.67,0-1.29,.39-2.09,1.19-2.47,.36-.16,.77-.13,1.11,.07,.16,.09,.34,.11,.51,.06,.12-.04,.21-.13,.25-.25,.08-.21,.07-.5-.46-.75-.34-.17-.72-.26-1.1-.26-1.4,0-2.62,1.11-3.66,3.3-.59,1.25-1.26,2.67-2.04,4.18-.09,.1-.17,.22-.23,.34-.36,.71-.71,1.39-1.05,2.02-.39,.12-.73,.37-.95,.71-.32,.41-.49,.91-.5,1.43v.23c-.31,.45-.66,.88-1.05,1.26-.37,.39-.87,.64-1.41,.68-.69,0-1.05-.29-1.05-.93,.05-.81,.26-1.6,.63-2.32l3.01-7.05c.25-.33,.34-.75,.23-1.15-.13-.27-.5-.41-1.16-.41h-2.09c-.09,0-.15,.08-.15,.17,0,.03,.01,.06,.03,.08,.23,.25,.37,.56,.42,.89,0,.18-.01,.37-.06,.54l-1.62,4.18c-.75,1.55-1.61,3.05-2.58,4.47-.65,.97-1.7,1.6-2.86,1.72h-.27c.63-.5,1.17-1.1,1.61-1.78,.56-.76,.88-1.67,.9-2.61-.07-1.14-.37-2.26-.88-3.28-.25-.52-.48-1.05-.68-1.46-.21-.53-.31-1.1-.29-1.67-.15-.99,.33-1.97,1.2-2.47,.36-.16,.77-.13,1.11,.07,.16,.09,.34,.11,.51,.06,.11-.05,.2-.14,.24-.25,.09-.21,.08-.5-.45-.75-.34-.17-.72-.26-1.11-.26-1.39,0-2.62,1.11-3.65,3.3-.64,1.36-1.38,2.87-2.21,4.52-.38,.72-.73,1.4-1.05,2.02-.43,.09-.81,.35-1.05,.72-.32,.41-.49,.91-.5,1.43v.32h0c-.07,.1-.14,.2-.2,.27-.65,.97-1.7,1.6-2.86,1.72h-.27c.63-.5,1.17-1.1,1.61-1.78,.54-.73,.85-1.61,.9-2.52-.08-1.14-.38-2.26-.89-3.28-.25-.52-.48-1.05-.68-1.46-.21-.53-.31-1.1-.29-1.67-.15-.99,.33-1.97,1.2-2.47,.36-.16,.77-.13,1.11,.07,.16,.09,.34,.11,.51,.06,.11-.05,.2-.14,.25-.25,.08-.21,.07-.5-.46-.75-.34-.17-.72-.26-1.11-.26-1.39,0-2.62,1.11-3.65,3.3-.61,1.31-1.33,2.78-2.09,4.38-.09,.12-.17,.24-.24,.38-.27,.61-.57,1.2-.9,1.78-.43,.09-.81,.35-1.05,.72-.32,.41-.49,.91-.5,1.43,0,.06,0,.11,0,.17h0c-.3,.44-.6,.83-.88,1.19-1.61,1.97-2.99,2.94-4.14,2.94-.39-.02-.74-.22-.95-.54-.34-.55-.49-1.19-.44-1.83,.1-2.65,.82-5.23,2.09-7.56,.8-1.67,1.82-3.22,3.03-4.61,.61-.61,.96-1.44,.98-2.3,0-1.05-.55-1.25-1.05-1.25-.77,0-1.61,.86-2.54,2.61-1.16,2.08-2.53,4.03-4.08,5.83-1.7,2.06-3.57,3.98-5.6,5.72-2.66,2.18-5.01,3.28-7,3.28-1.74,0-2.73-.97-3.01-2.99-.02-.25-.02-.5,0-.74,.15-1.89,.63-3.74,1.42-5.47,1.39-3.13,3.12-6.09,5.16-8.84,2.68,.75,5.46,1.1,8.24,1.05,2.94,.06,5.88-.37,8.68-1.29,1.35-.42,2.6-1.09,3.7-1.98,1.75-1.46,2.62-3,2.62-4.58,.02-1.42-.66-2.76-1.82-3.58-1.41-.98-3.11-1.46-4.83-1.38-6.37,0-12.54,3.3-18.47,9.83-1.15-.48-2.19-1.19-3.05-2.09-.59-.57-.96-1.34-1.05-2.16,0-.3,.07-.6,.2-.88,.17-.33,.15-.73-.05-1.05-.1-.11-.24-.17-.39-.16-.22,.04-.4,.16-.52,.34-.41,.29-.61,.92-.61,1.92-.02,.94,.32,1.86,.94,2.56,1.04,1.07,2.28,1.94,3.64,2.55-1.22,1.45-2.29,3.01-3.2,4.67-1.77,2.9-2.77,6.21-2.9,9.61,0,2.99,.95,4.9,2.8,5.68,.48,.28,1.02,.44,1.57,.47,.3,.02,.6,.02,.9,0,1.8-.16,3.55-.74,5.09-1.68,2.69-1.75,5.13-3.86,7.24-6.27-.16,.41-.29,.83-.4,1.25-.26,1.06-.4,2.15-.4,3.24-.02,1.02,.24,2.03,.77,2.91,.51,.82,1.42,1.3,2.38,1.25,1.11-.01,2.2-.34,3.14-.94,1.01-.61,1.88-1.41,2.57-2.36,.18-.23,.34-.47,.5-.71,.59,1.22,1.89,1.92,3.23,1.75,.54-.01,1.07-.14,1.56-.37,.9,.25,1.86,.22,2.75-.09,.6-.17,1.14-.5,1.58-.94l.48-.5c.47,1.26,1.58,1.9,3.3,1.9,.54-.01,1.07-.14,1.56-.37,.9,.25,1.86,.22,2.75-.09,.6-.17,1.14-.5,1.58-.94l.78-.83c.22-.2,.41-.42,.57-.66,.01,.66,.23,1.31,.63,1.84,.51,.63,1.29,.96,2.09,.9,1.19-.14,2.27-.77,2.97-1.74,.47,1.25,1.58,1.88,3.28,1.88,.54-.01,1.07-.14,1.56-.37,.91,.25,1.87,.22,2.76-.09,.6-.18,1.14-.5,1.58-.94l.78-.83c.3-.29,.57-.61,.78-.97,.09-.17,.19-.32,.28-.46v.33c-.03,.84,.25,1.65,.79,2.29,.5,.6,1.25,.95,2.04,.93,1.59,0,3.14-1.13,4.48-3.36,.71-1.24,1.36-2.53,1.92-3.85,.1-.2,.14-.42,.11-.64-.01-.09-.07-.17-.15-.21-.1-.04-.21-.04-.3,0-.21,.1-.37,.27-.45,.49-1.44,2.85-2.77,4.76-3.94,5.63-.41,.25-.87,.4-1.35,.43-.29,.02-.57-.14-.7-.41-.15-.27-.23-.58-.24-.89,0-.31,.03-.62,.1-.92l.86-3.81c1.96-1.8,3.64-3.87,5.01-6.16h2.09c.19,0,.36-.12,.43-.3,.06-.17,.06-.35,0-.52-.01-.2-.17-.36-.38-.37Zm-.31-6.03c0,1.11-.82,3.14-2.43,6.03h-1.49c.77-1.9,1.68-3.73,2.74-5.49,.72-1.05,1.05-1.14,1.13-1.14s.05,.1,.05,.64v-.04Zm-3.14,7.18c-.9,1.48-1.93,2.88-3.07,4.18,.84-2.09,1.4-3.47,1.68-4.18h1.39Zm-14.53,12.71c-.14,.02-.27,.02-.41,0-.58,.06-1.11-.32-1.24-.89,0-.15,0-.31,0-.46,0-.4,.15-.79,.41-1.1,.05,.95,.5,1.84,1.24,2.45Zm-.44-3.27c0-.86-.34-1.17-.7-1.26h0l.06-.14c.52-1.05,1.54-3,3.02-5.95v.24c.05,.94,.15,1.87,.3,2.79,.15,1.06,.24,2.12,.26,3.19,.13,1.49-.43,2.95-1.53,3.96-1.01-.57-1.57-1.69-1.42-2.83h0Zm-15.81,3.27c-.14,.02-.27,.02-.41,0-.58,.06-1.11-.32-1.23-.89-.01-.15-.01-.31,0-.46,0-.4,.15-.79,.4-1.1,.06,.95,.51,1.84,1.24,2.45h0Zm-.44-3.27c0-.79-.3-1.11-.62-1.22,.19-.38,.32-.68,.42-.89s.21-.48,.31-.71l.07-.16c.55-1.05,1.29-2.54,2.22-4.4v.24c.04,.93,.13,1.86,.27,2.78,.15,1.05,.23,2.11,.26,3.18,.13,1.49-.43,2.95-1.53,3.96-.99-.56-1.54-1.65-1.41-2.78h0Zm-9.22,3.27c-.14,.02-.28,.02-.42,0-.58,.06-1.1-.32-1.23-.89-.01-.15-.01-.31,0-.46,0-.4,.15-.79,.4-1.1,.06,.96,.51,1.84,1.25,2.45Zm-.45-3.27c0-.84-.32-1.15-.67-1.24,.18-.34,.34-.7,.51-1.05l2.62-5.09c0,.08,0,.16,0,.24,.02,.94,.09,1.89,.21,2.82,.15,1.06,.24,2.12,.26,3.19,.12,1.47-.44,2.91-1.52,3.92-.99-.56-1.55-1.66-1.42-2.79h0Zm-19.37-14.64c1.15-1.35,2.23-2.53,3.22-3.51,1.12-1.09,2.31-2.09,3.58-3,1.3-.96,2.76-1.71,4.3-2.21,1.49-.49,3.04-.75,4.61-.75,1.26-.06,2.51,.23,3.61,.85,.82,.5,1.3,1.4,1.26,2.36-.05,1.9-1.06,3.65-2.7,4.63-2.32,1.63-6.09,2.46-11.2,2.46-2.25,.05-4.5-.22-6.68-.82h0Z"/>
        <path class="cls-1" d="M122.62,22.92c-3.98,.01-7.89,1.11-11.3,3.16-.04,.03-.07,.08-.07,.13,0,.05,.03,.1,.07,.13,.31,.21,.58,.4,.82,.59s.7,.54,1.09,.88l.32,.27,.63,.58,.5,.5,.2,.2c.05,.04,.12,.04,.17,0,8.67-4.19,19.1-.55,23.29,8.12,4.19,8.67,.55,19.1-8.12,23.29-4.79,2.31-10.38,2.31-15.17,0-.27-.13-.55-.28-.86-.45-1.29-.72-2.49-1.59-3.56-2.61l-.66-.66c-6.41-6.72-6.41-17.28,0-24,.06-.06,.06-.15,0-.21-.2-.2-.42-.39-.71-.64s-.59-.47-.9-.71l-.35-.24c-.22-.16-.44-.3-.64-.43-.06-.04-.12-.07-.18-.1-.2-.14-.41-.27-.63-.38l-.2-.11c-.06-.04-.13-.04-.19,0-7.56,8.4-7.56,21.15,0,29.55,.22,.25,.44,.48,.67,.72,1.09,1.13,2.3,2.13,3.61,3,.26,.18,.55,.36,.89,.56,10.51,6.23,24.08,2.76,30.31-7.75s2.76-24.08-7.75-30.31c-3.41-2.02-7.3-3.09-11.26-3.09h0Zm-24.18,44.27c3.97,0,7.88-1.07,11.29-3.1,.04-.02,.07-.07,.07-.12,0-.05-.02-.1-.06-.13l-.83-.59h-.07l-.44-.35h0l-.25-.21-.19-.15-.25-.22-.43-.39-.37-.34-.5-.5-.19-.2c-.05-.04-.13-.04-.18,0-8.67,4.19-19.1,.56-23.29-8.11s-.56-19.1,8.11-23.29c4.8-2.32,10.39-2.32,15.19,0,.27,.12,.56,.27,.86,.44,1.26,.68,2.43,1.51,3.49,2.48,.23,.22,.45,.43,.66,.66,6.41,6.72,6.41,17.28,0,24-.06,.06-.06,.15,0,.21,.2,.2,.43,.4,.71,.64s.58,.47,.9,.71l.35,.24c.22,.16,.43,.3,.64,.43l.18,.11c.19,.12,.39,.24,.63,.37l.21,.11c.05,.04,.13,.04,.18,0,7.56-8.4,7.56-21.15,0-29.55-.21-.24-.44-.48-.67-.71-1.09-1.13-2.3-2.13-3.61-3-.28-.19-.58-.37-.88-.55-10.48-6.28-24.07-2.88-30.36,7.6-6.28,10.48-2.88,24.07,7.6,30.36,3.48,2.08,7.46,3.17,11.51,3.15Zm12.13-43.36l-1.09-.61c-8.98-4.99-13.16-9.68-13.16-14.75,0-4.75,3.62-8.46,8.25-8.46,2.67,0,4.72,.83,6,1.54,1.28-.72,3.33-1.54,6-1.54,4.63,0,8.25,3.72,8.25,8.46,0,5.07-4.18,9.76-13.16,14.75l-1.09,.61Zm-6-19.32c-2.44,0-3.75,2.04-3.75,3.96,0,3.01,3.28,6.44,9.75,10.2,6.47-3.76,9.75-7.19,9.75-10.2,0-1.92-1.31-3.96-3.75-3.96-3.21,0-4.69,1.59-6,2.74-1.24-1.09-2.71-2.74-6-2.74Z"/>
      </g>
    </g>
  </g>
</svg>