<?xml version="1.0" encoding="utf-8"?>
<!-- Generator: Adobe Illustrator 24.3.0, SVG Export Plug-In . SVG Version: 6.00 Build 0)  -->
<svg version="1.1" id="Layer_1" xmlns="http://www.w3.org/2000/svg" xmlns:xlink="http://www.w3.org/1999/xlink" x="0px" y="0px"
	 viewBox="0 0 220.9 108.5" style="enable-background:new 0 0 220.9 108.5;" xml:space="preserve">
<style type="text/css">
	.st0{fill:#ED1E79;}
	.st1{fill:#29ABE2;}
	.st2{fill:#8CC63F;}
	.st3{clip-path:url(#SVGID_2_);}
	.st4{clip-path:url(#SVGID_6_);}
	.st5{fill:#93278F;}
</style>
<path class="st0" d="M38.2,30.4l1.7,0.9h0.2l1.7-0.9c10.1-5.2,13-11,13.6-14.9c0.6-3.7-0.6-7.5-3.3-10.2c-1.9-1.9-4.5-3-7.2-3.1
	c-1.7,0-3.4,0.5-4.9,1.3c-1.5-0.9-3.1-1.3-4.8-1.3c-2.7,0-5.3,1.1-7.1,3.1c-2.7,2.7-3.9,6.4-3.3,10.2C25.3,19.5,28.1,25.2,38.2,30.4
	z M30.8,8.2c1.1-1.2,2.7-1.9,4.3-1.9c2.5,0,4.7,1.7,4.7,3.6c0,0.1,0.1,0.2,0.2,0.2l0,0c0.1,0,0.2-0.1,0.2-0.2c0,0,0,0,0,0
	c0.1-1,0.6-1.9,1.4-2.5c1-0.7,2.1-1.1,3.3-1.1l0,0c1.6,0,3.2,0.7,4.3,1.9c1.8,1.8,2.6,4.3,2.2,6.7c-0.5,3-2.8,7.5-11.4,11.9
	c-8.6-4.4-10.9-8.9-11.4-11.9C28.2,12.5,29,10,30.8,8.2z"/>
<path class="st1" d="M51.8,28.8c-4,0-7.9,1.1-11.3,3.2c0,0-0.1,0.1-0.1,0.1c0,0.1,0,0.1,0.1,0.1c0.3,0.2,0.6,0.4,0.8,0.6
	c0.2,0.2,0.7,0.5,1.1,0.9l0.3,0.3l0.6,0.6l0.5,0.5l0.2,0.2c0.1,0,0.1,0,0.2,0c8.7-4.2,19.1-0.6,23.3,8.1c4.2,8.7,0.6,19.1-8.1,23.3
	C54.6,69,49,69,44.2,66.7c-0.3-0.1-0.6-0.3-0.9-0.5c-1.3-0.7-2.5-1.6-3.6-2.6L39.1,63c-6.4-6.7-6.4-17.3,0-24c0.1-0.1,0.1-0.2,0-0.2
	c-0.2-0.2-0.4-0.4-0.7-0.6s-0.6-0.5-0.9-0.7l-0.3-0.2c-0.2-0.2-0.4-0.3-0.6-0.4c-0.1,0-0.1-0.1-0.2-0.1c-0.2-0.1-0.4-0.3-0.6-0.4
	l-0.2-0.1c-0.1,0-0.1,0-0.2,0c-7.6,8.4-7.6,21.1,0,29.5c0.2,0.3,0.4,0.5,0.7,0.7c1.1,1.1,2.3,2.1,3.6,3c0.3,0.2,0.6,0.4,0.9,0.6
	c10.5,6.2,24.1,2.8,30.3-7.8s2.8-24.1-7.8-30.3C59.6,29.9,55.7,28.8,51.8,28.8L51.8,28.8z"/>
<path class="st2" d="M27.6,73.1c4,0,7.9-1.1,11.3-3.1c0,0,0.1-0.1,0.1-0.1c0-0.1,0-0.1-0.1-0.1l-0.8-0.6H38l-0.4-0.3l0,0l-0.3-0.2
	l-0.2-0.2l-0.3-0.2l-0.4-0.4l-0.4-0.3L35.6,67l-0.2-0.2c-0.1,0-0.1,0-0.2,0c-8.7,4.2-19.1,0.6-23.3-8.1S11.3,39.6,20,35.4
	c4.8-2.3,10.4-2.3,15.2,0c0.3,0.1,0.6,0.3,0.9,0.4c1.3,0.7,2.4,1.5,3.5,2.5c0.2,0.2,0.4,0.4,0.7,0.7c6.4,6.7,6.4,17.3,0,24
	c-0.1,0.1-0.1,0.2,0,0.2c0.2,0.2,0.4,0.4,0.7,0.6c0.3,0.2,0.6,0.5,0.9,0.7l0.3,0.2c0.2,0.2,0.4,0.3,0.6,0.4l0.2,0.1
	c0.2,0.1,0.4,0.2,0.6,0.4l0.2,0.1c0.1,0,0.1,0,0.2,0c7.6-8.4,7.6-21.1,0-29.6c-0.2-0.2-0.4-0.5-0.7-0.7c-1.1-1.1-2.3-2.1-3.6-3
	c-0.3-0.2-0.6-0.4-0.9-0.5c-10.5-6.3-24.1-2.9-30.4,7.6C2.2,50.1,5.6,63.7,16.1,70C19.5,72,23.5,73.1,27.6,73.1z"/>
<g>
	<g>
		<defs>
			<path id="SVGID_1_" d="M169.7,48.5c0,10.5-8.5,19-19,19c-3.7,0-7.2-1.1-10.1-2.9c1.2-0.8,2.4-1.7,3.4-2.7c2,1,4.3,1.6,6.7,1.6
				c8.3,0,15-6.7,15-15s-6.7-15-15-15c-2.4,0-4.7,0.6-6.7,1.6v0c0,0,0,0,0,0c-0.3,0.2-0.6,0.3-0.9,0.5c0,0-0.1,0-0.1,0.1
				c-0.8,0.5-1.6,1.1-2.3,1.8c-3,2.7-4.9,6.7-4.9,11.1s1.9,8.3,4.9,11c-1,0.9-2.1,1.7-3.4,2.3c-3.4-3.4-5.5-8.1-5.5-13.3
				c0-5.2,2.1-9.9,5.5-13.4h0c1-1,2.1-1.9,3.3-2.7c0,0,0.1,0,0.1,0c0.6-0.3,1.2-0.7,1.8-1c0,0,0,0,0,0c7-4.1,9-8.1,9.5-10.8
				c0.4-2.5-0.4-5-2.2-6.7c-1.1-1.2-2.7-1.9-4.3-1.9c-1.2,0-2.4,0.4-3.3,1.1c-0.8,0.6-1.3,1.5-1.4,2.5c0,0.1-0.1,0.2-0.2,0.2
				c0,0,0,0,0,0V9.3c1.5-0.9,3.1-1.3,4.8-1.3c2.7,0,5.3,1.1,7.2,3c2.7,2.7,3.9,6.4,3.3,10.2c-0.4,2.3-1.5,5.3-4.5,8.4
				C161.5,30,169.7,38.3,169.7,48.5z"/>
		</defs>
		<clipPath id="SVGID_2_">
			<use xlink:href="#SVGID_1_"  style="overflow:visible;"/>
		</clipPath>
		<g class="st3">
			<g>
				<defs>
					<rect id="SVGID_3_" x="126.7" y="3" width="47.9" height="69.5"/>
				</defs>
				<clipPath id="SVGID_4_">
					<use xlink:href="#SVGID_3_"  style="overflow:visible;"/>
				</clipPath>
				<g transform="matrix(1 0 0 1 7.629395e-06 0)" style="clip-path:url(#SVGID_4_);">
					
						<image style="overflow:visible;" width="100" height="145" xlink:href="EC31DE7C.jpg"  transform="matrix(0.48 0 0 0.48 126.72 2.89)">
					</image>
				</g>
			</g>
		</g>
	</g>
</g>
<g>
	<g>
		<defs>
			<path id="SVGID_5_" d="M144,35.2C144,35.2,143.9,35.2,144,35.2c-0.3,0.2-0.6,0.3-0.9,0.5c0,0-0.1,0-0.1,0.1
				c-0.8,0.5-1.6,1.1-2.3,1.8c3,2.8,4.9,6.7,4.9,11.1c0,4.4-1.9,8.3-4.9,11c-1,0.9-2.1,1.7-3.4,2.3c-2,1-4.3,1.6-6.7,1.6
				c-8.3,0-15-6.7-15-15s6.7-15,15-15c2.3,0,4.5,0.5,6.5,1.5c0.1,0,0.1,0.1,0.2,0.1h0c1-1,2.1-1.9,3.3-2.7c0,0,0,0,0,0c0,0,0,0,0,0
				c-0.8-0.4-1.5-0.8-2.2-1.2c-6.8-4-8.8-8-9.2-10.7c-0.4-2.5,0.5-5,2.3-6.7c1.1-1.2,2.7-1.9,4.3-1.9c2.5,0,4.7,1.7,4.7,3.6
				c0,0.1,0.1,0.2,0.1,0.2V9.3c-1.5-0.9-3.1-1.3-4.8-1.3c-2.7,0-5.3,1.1-7.1,3c-2.7,2.7-3.9,6.4-3.3,10.2c0.3,2.3,1.5,5.3,4.5,8.4
				c-10.1,0.4-18.2,8.7-18.2,19c0,10.5,8.5,19,19,19c3.7,0,7.2-1.1,10.1-2.9c1.2-0.8,2.4-1.7,3.4-2.7c3.4-3.4,5.5-8.1,5.5-13.3
				C149.5,43.3,147.4,38.6,144,35.2z"/>
		</defs>
		<clipPath id="SVGID_6_">
			<use xlink:href="#SVGID_5_"  style="overflow:visible;"/>
		</clipPath>
		<g class="st4">
			<g>
				<defs>
					<rect id="SVGID_7_" x="106.5" y="3" width="47.9" height="69.5"/>
				</defs>
				<clipPath id="SVGID_8_">
					<use xlink:href="#SVGID_7_"  style="overflow:visible;"/>
				</clipPath>
				<g style="clip-path:url(#SVGID_8_);">
					
						<image style="overflow:visible;" width="101" height="145" xlink:href="EC31DE7D.jpg"  transform="matrix(0.48 0 0 0.48 106.08 2.89)">
					</image>
				</g>
			</g>
		</g>
	</g>
</g>
<circle class="st0" cx="136.9" cy="15.6" r="3.7"/>
<circle class="st5" cx="144.3" cy="15.6" r="3.7"/>
</svg>
