<svg xmlns="http://www.w3.org/2000/svg" viewBox="0 0 144.1 144.51"><defs><style>.cls-1{isolation:isolate;}.cls-2{mix-blend-mode:multiply;}.cls-3{fill:#8d87c0;}</style></defs><g class="cls-1"><g id="Layer_2" data-name="Layer 2"><g id="bg_ornaments" data-name="bg ornaments"><g id="Layer_17" data-name="Layer 17"><g class="cls-2"><path class="cls-3" d="M53,3.59A28,28,0,0,1,73.46,16l63.7,95.38c8.64,13.2,1.17,29.3-13.1,29.76-.39,0-.79,0-1.18,0l-96.13-3.27C12.27,137.29,0,119.49,4.21,105.13L36.49,12.84C39.27,6,45.8,3,53,3.59M52.36.08c-9-.72-16.21,3.29-19.25,10.78L1,103.28C-1.35,111.14.57,120.6,6,128.52s13.35,12.71,21.26,13l95.87,3h1.37a19.7,19.7,0,0,0,17.63-11.92c3.24-7.1,2.4-15.58-2.32-22.77L76.31,14.6C70.66,6.28,61.7.83,52.36.08Z"/></g></g></g></g></g></svg>