<svg xmlns="http://www.w3.org/2000/svg" viewBox="0 0 94.42 89.4"><defs><style>.cls-1{fill:#8d87c0;}</style></defs><g id="Layer_2" data-name="Layer 2"><g id="bg_ornaments" data-name="bg ornaments"><g id="Layer_17" data-name="Layer 17"><path class="cls-1" d="M77.39,2.15C87,2.91,94.78,12.93,91.46,21L70.79,79.7a10.14,10.14,0,0,1-9.6,7.51c-3.86.13-8.09-1.78-11.19-5.86L6.08,24.1C-.88,15.11,2,4,11.51,3.68L76,2.11c.46,0,.91,0,1.37,0M77.1.06A14.09,14.09,0,0,0,75.51,0L10.84,1.4C5.61,1.56,1.71,4.57.43,9.48S.72,20.33,4.52,25.24l44,57.33c3.38,4.45,8.25,7,13.05,6.82a11.89,11.89,0,0,0,11.17-8.78L93.51,22c1.8-4.35.9-9.58-2.44-14A19.84,19.84,0,0,0,77.1.06Z"/></g></g></g></svg>