<?xml version="1.0" encoding="UTF-8"?>
<svg id="Layer_2" data-name="Layer 2" xmlns="http://www.w3.org/2000/svg" viewBox="0 0 24 24">
  <defs>
    <style>
      .cls-1 {
        fill: #fff;
      }

      .cls-2 {
        fill: #fa4943;
      }
    </style>
  </defs>
  <g id="Layer_1-2" data-name="Layer 1">
    <g>
      <circle class="cls-2" cx="12" cy="12" r="12"/>
      <path class="cls-1" d="M13.6,12l2.59-2.59c.44-.44,.44-1.16,0-1.6-.44-.44-1.16-.44-1.6,0l-2.59,2.59-2.59-2.59c-.44-.44-1.16-.44-1.6,0-.44,.44-.44,1.16,0,1.6l2.59,2.59-2.59,2.59c-.44,.44-.44,1.16,0,1.6s1.16,.44,1.6,0l2.59-2.59,2.59,2.59c.44,.44,1.16,.44,1.6,0s.44-1.16,0-1.6l-2.59-2.59Z"/>
    </g>
  </g>
</svg>