<?xml version="1.0" encoding="utf-8"?>
<!-- Generator: Adobe Illustrator 26.4.1, SVG Export Plug-In . SVG Version: 6.00 Build 0)  -->
<svg version="1.1" id="Layer_2_00000075127942115888921270000009003758433643798926_"
	 xmlns="http://www.w3.org/2000/svg" xmlns:xlink="http://www.w3.org/1999/xlink" x="0px" y="0px" viewBox="0 0 17.7 17.7"
	 style="enable-background:new 0 0 17.7 17.7;" xml:space="preserve">
<style type="text/css">
	.st0{fill:#6159A7;}
</style>
<g id="middle">
	<g>
		<path class="st0" d="M11.1,2.3c-0.2-0.2-0.5-0.2-0.7,0l-8.5,8.5l0.2,0.2c0,0-0.1,0-0.1,0c-0.3,0.1-0.5,0.3-0.5,0.6l-1.3,5.4
			c-0.1,0.4,0.2,0.7,0.6,0.6l5.5-1.3c0.3-0.1,0.4-0.2,0.5-0.5c0,0,0-0.1,0-0.1l0.1,0.1l8.5-8.5c0.2-0.2,0.2-0.5,0-0.7L11.1,2.3z
			 M0.8,16.9l0.3-1.4c0.5,0.2,0.8,0.6,1.1,1.1C2.2,16.5,0.8,16.9,0.8,16.9z M6.2,15.5C6.2,15.5,6.2,15.6,6.2,15.5l-3,0.8
			c-0.2,0.1-0.4-0.1-0.5-0.2c-0.3-0.4-0.6-0.8-1-1c-0.2-0.1-0.3-0.3-0.2-0.5L2,11.6c0-0.1,0.1-0.1,0.1-0.1h0c0,0,0.1,0,0.1,0
			l3.9,3.9C6.2,15.5,6.2,15.5,6.2,15.5z"/>
		<path class="st0" d="M11.5,1.2l0.8-0.8c0.2-0.2,0.5-0.2,0.7,0l4.3,4.3c0.2,0.2,0.2,0.5,0,0.7l-0.8,0.8c-0.2,0.2-0.5,0.2-0.7,0
			l-4.3-4.3C11.4,1.6,11.4,1.3,11.5,1.2z"/>
	</g>
</g>
</svg>
