<svg xmlns="http://www.w3.org/2000/svg" viewBox="0 0 340.81 377.22"><defs><style>.cls-1{fill:#fff;}</style></defs><g id="Layer_2" data-name="Layer 2"><g id="Layer_1-2" data-name="Layer 1"><path class="cls-1" d="M225.26,78.89a14.53,14.53,0,1,0-.6,29.06l76.85,1.59h.32c.43,0,.87,0,1.31-.07l.3,0c.34,0,.68-.08,1-.14l.33-.07c.34-.07.68-.16,1-.25l.26-.07a14.62,14.62,0,0,0,2.47-1,1.18,1.18,0,0,0,.19-.11c.31-.17.62-.34.92-.54L310,107c.14-.1.29-.19.43-.3s.14-.11.22-.17l.58-.48.54-.48a1.29,1.29,0,0,0,.17-.16c.1-.09.19-.2.29-.3s.39-.41.57-.62.23-.29.35-.44.37-.47.54-.71l.29-.44c.16-.25.32-.51.47-.77s.17-.32.25-.48.26-.52.37-.78.15-.36.22-.54.2-.51.28-.77a6.13,6.13,0,0,0,.18-.61c.07-.24.14-.49.19-.74s.09-.43.13-.65.08-.5.12-.75l.06-.66c0-.26,0-.52,0-.78,0-.11,0-.22,0-.34V14.86a14.54,14.54,0,0,0-29.07,0v43C261.49,33.76,218.22,2.8,164.15.18c-53.49-2.59-105,23-153,76.07a14.53,14.53,0,1,0,21.55,19.5C74.57,49.5,118.27,27.11,162.56,29.2,208,31.34,245.63,58.81,268,79.78Z"/><path class="cls-1" d="M25,133.12A14.54,14.54,0,0,0,0,143.25V362.68a14.53,14.53,0,0,0,25,10.13L131.5,263.09a14.55,14.55,0,0,0,0-20.25Zm4.1,193.74V179.07L100.81,253Z"/><path class="cls-1" d="M331.74,129.78a14.55,14.55,0,0,0-15.89,3.34L209.31,242.84a14.53,14.53,0,0,0,0,20.25L315.85,372.81a14.54,14.54,0,0,0,25-10.13V143.25A14.53,14.53,0,0,0,331.74,129.78Z"/></g></g></svg>