<?xml version="1.0" encoding="utf-8"?>
<!-- Generator: Adobe Illustrator 26.4.1, SVG Export Plug-In . SVG Version: 6.00 Build 0)  -->
<svg version="1.1" id="Layer_1" xmlns="http://www.w3.org/2000/svg" xmlns:xlink="http://www.w3.org/1999/xlink" x="0px" y="0px"
	 viewBox="0 0 41.4 37" style="enable-background:new 0 0 41.4 37;" xml:space="preserve">
<style type="text/css">
	.st0{fill:#6159A8;}
</style>
<g>
	<path class="st0" d="M34.5,0H6.9C5.6,0,4.5,1,4.5,2.3v32.4c0,1.3,1,2.3,2.3,2.3h27.7c1.3,0,2.3-1,2.3-2.3V2.3C36.9,1,35.8,0,34.5,0
		z M32.9,33.5c-0.3,0.3-0.7,0.5-1.2,0.5h-22C8.8,34,8,33.2,8,32.3c0-0.5,0.2-0.9,0.5-1.2c0.3-0.3,0.7-0.5,1.2-0.5h22
		c1,0,1.7,0.8,1.7,1.7C33.4,32.8,33.2,33.2,32.9,33.5z M34.4,25.6H7V3.7C7,3,7.6,2.5,8.2,2.5h24.9c0.7,0,1.2,0.5,1.2,1.2V25.6z
		 M28.2,19.4c0,0.4-0.2,0.8-0.4,1.1c-0.3,0.3-0.6,0.4-1.1,0.4l-12,0c-0.8,0-1.5-0.6-1.5-1.5c0-1.7,0.7-3.3,1.8-4.4
		c0.3-0.3,0.6-0.6,1-0.8c0.4-0.2,0.8-0.2,1.2,0.1c1,0.8,2.3,1.4,3.6,1.4c1.4,0,2.6-0.5,3.6-1.3c0.3-0.3,0.8-0.3,1.2,0
		C27.1,15.4,28.2,17.3,28.2,19.4z M25.4,10.1c0,1.4-0.6,2.6-1.5,3.4c-0.8,0.7-1.9,1.2-3.1,1.2c-1.2,0-2.3-0.5-3.2-1.2
		c-0.9-0.8-1.5-2-1.5-3.4c0-2.5,2.1-4.6,4.6-4.6C23.4,5.4,25.4,7.5,25.4,10.1z"/>
</g>
</svg>
