<svg xmlns="http://www.w3.org/2000/svg" viewBox="0 0 30.84 31.04"><defs><style>.cls-1{fill:#6159a8;}</style></defs><g id="Layer_2" data-name="Layer 2"><g id="top"><rect class="cls-1" width="8.98" height="8.98" rx="1"/><rect class="cls-1" y="11.03" width="8.98" height="8.98" rx="1"/><rect class="cls-1" y="22.05" width="8.98" height="8.98" rx="1"/><path class="cls-1" d="M11.2,1.81H30.26a.59.59,0,0,0,0-1.17H11.2a.59.59,0,1,0,0,1.17Z"/><path class="cls-1" d="M30.26,3.81H11.2a.59.59,0,0,0-.59.59A.58.58,0,0,0,11.2,5H30.26a.58.58,0,0,0,.58-.59A.59.59,0,0,0,30.26,3.81Z"/><path class="cls-1" d="M30.26,7H11.2a.59.59,0,0,0,0,1.18H30.26a.59.59,0,0,0,0-1.18Z"/><path class="cls-1" d="M30.26,14.93H11.2a.58.58,0,0,0-.59.59.59.59,0,0,0,.59.59H30.26a.59.59,0,0,0,.58-.59A.58.58,0,0,0,30.26,14.93Z"/><path class="cls-1" d="M30.26,11.75H11.2a.59.59,0,0,0,0,1.18H30.26a.59.59,0,0,0,0-1.18Z"/><path class="cls-1" d="M30.26,18.11H11.2a.59.59,0,1,0,0,1.17H30.26a.59.59,0,0,0,0-1.17Z"/><path class="cls-1" d="M30.26,26H11.2a.59.59,0,0,0-.59.59.58.58,0,0,0,.59.59H30.26a.58.58,0,0,0,.58-.59A.59.59,0,0,0,30.26,26Z"/><path class="cls-1" d="M30.26,22.78H11.2a.59.59,0,1,0,0,1.17H30.26a.59.59,0,0,0,0-1.17Z"/><path class="cls-1" d="M30.26,29.13H11.2a.59.59,0,0,0,0,1.18H30.26a.59.59,0,0,0,0-1.18Z"/></g></g></svg>