<?xml version="1.0" encoding="utf-8"?>
<!-- Generator: Adobe Illustrator 26.4.1, SVG Export Plug-In . SVG Version: 6.00 Build 0)  -->
<svg version="1.1" id="Layer_1" xmlns="http://www.w3.org/2000/svg" xmlns:xlink="http://www.w3.org/1999/xlink" x="0px" y="0px"
	 viewBox="0 0 42 31.2" style="enable-background:new 0 0 42 31.2;" xml:space="preserve">
<style type="text/css">
	.st0{fill:#F2F2F2;}
	.st1{fill:#522e8e;}
	.st2{fill:#522e8e;}
</style>
<g>
	<circle class="st0" cx="179.1" cy="-37.1" r="100"/>
</g>
<path class="st1" d="M217.4-96h-76.6c-7.2,0-13.1,5.9-13.1,13.1V8.6c0,7.2,5.9,13.1,13.1,13.1h76.6c7.2,0,13.1-5.9,13.1-13.1v-91.5
	C230.5-90.2,224.6-96,217.4-96z"/>
<path class="st2" d="M34.7,28.9c0-0.3-0.1-0.7-0.1-1c-0.2-1.3-0.6-2.7-1.1-3.9c-0.6-1.4-1.5-2.7-2.6-3.8c-0.4-0.4-0.8-0.8-1.2-1.1
	c-0.1-0.1-0.2-0.2-0.3-0.3c0,0,0,0,0,0c-0.5-0.4-1-0.4-1.6-0.2c-0.2,0.1-0.4,0.1-0.7,0.2c-1.7,0.6-3.3,1.2-5.1,1.3
	c-0.4,0-0.8,0.1-1.1,0.1c-0.4,0-0.8,0-1.1-0.1c-1.8-0.2-3.4-0.8-5.1-1.3c-0.2-0.1-0.5-0.2-0.7-0.2c-0.5-0.2-1.1-0.1-1.6,0.2
	c-0.1,0.1-0.2,0.2-0.3,0.3c-0.4,0.3-0.8,0.7-1.2,1.1C9.9,21.3,9,22.6,8.4,24c-0.6,1.2-1,2.6-1.2,3.9c0,0.3-0.1,0.7-0.1,1
	c0,0.3,0,0.7,0,1v1.2h27.6v-1.2C34.7,29.6,34.7,29.2,34.7,28.9z M37.1,19.1c-0.6-0.5-1.4-0.5-2,0c-0.7,0.5-1.6,1-2.4,1.3
	c1.1,1.1,1.9,2.4,2.6,3.8c0.6,1.2,1,2.5,1.2,3.9c0,0.3,0.1,0.7,0.1,1c0,0.3,0,0.7,0,1v1.1h3.5c0.5,0,1.1-0.2,1.4-0.6
	c0.4-0.4,0.6-0.9,0.6-1.4C42.1,25.1,40.1,21.5,37.1,19.1z M29.4,5.5C28,2.3,24.7,0,20.9,0c-2.7,0-5.2,1.2-6.9,3.1
	c-0.7,0.8-1.2,1.6-1.7,2.6c-0.5,1.1-0.7,2.3-0.7,3.6c0,2.1,0.7,4.1,2,5.7c0.5,0.6,1,1.2,1.7,1.7c0.9,0.7,1.9,1.2,3,1.5
	c0.8,0.3,1.8,0.4,2.7,0.4c2.1,0,4.1-0.7,5.6-1.9c0.6-0.4,1.1-1,1.6-1.5c1.3-1.6,2-3.6,2-5.8C30.2,7.9,29.9,6.7,29.4,5.5z M29.3,3.1
	C30,3.9,30.6,4.7,31,5.7c0.5,1.1,0.8,2.3,0.9,3.6c0.1,2.1-0.6,4.1-1.8,5.7c-0.5,0.6-1,1.2-1.6,1.7c-0.3,0.3-0.7,0.6-1.1,0.8
	c0.6-0.2,0.9-0.3,0.9-0.3c0.4-0.2,0.9-0.1,1.3,0.2c0.3,0.2,0.6,0.4,0.9,0.6c0.1,0.1,0.2,0.2,0.3,0.3c0.3,0.2,0.6,0.5,0.9,0.8
	c1.1-0.3,2.1-0.8,2.9-1.5c1.9-1.5,3-3.9,2.9-6.5C37.4,6.5,33.7,3.1,29.3,3.1z M13.5,16.7c-0.6-0.5-1.1-1.1-1.6-1.7
	c-1.2-1.6-1.8-3.6-1.8-5.7c0-1.3,0.3-2.5,0.9-3.6c0.4-0.9,1-1.8,1.7-2.5c-4.4-0.1-8.1,3.4-8.2,7.8c-0.1,2.6,1.1,5,2.9,6.5
	c0.9,0.7,1.8,1.2,2.9,1.5c0.3-0.3,0.6-0.5,0.8-0.8c0.1-0.1,0.2-0.2,0.3-0.3c0.3-0.2,0.6-0.4,0.9-0.6c0.4-0.2,0.9-0.3,1.3-0.2
	c0,0,0.4,0.1,0.9,0.3C14.2,17.3,13.8,17,13.5,16.7z M6.9,19.1c-0.6-0.4-1.4-0.4-2,0c-3,2.3-4.9,6-4.9,10c0,0.6,0.2,1.1,0.6,1.4
	C0.9,31,1.4,31.2,2,31.2h3.5v-1.1c0-0.4,0-0.7,0-1c0-0.3,0.1-0.7,0.1-1c0.2-1.3,0.6-2.7,1.2-3.9c0.6-1.4,1.5-2.7,2.6-3.8
	C8.5,20.1,7.7,19.6,6.9,19.1z"/>
<text transform="matrix(1 0 0 1 153.5264 4.3906)" style="fill:#FFFFFF; font-family:'Poppins-Bold'; font-size:10px;">My team 1</text>
</svg>
