<svg xmlns="http://www.w3.org/2000/svg" viewBox="0 0 330.14 384.68"><defs><style>.cls-1{fill:none;stroke:#fff;stroke-miterlimit:10;stroke-width:10px;}.cls-2{fill:#fbb03b;}.cls-3{fill:#fff;}</style></defs><g id="Layer_2" data-name="Layer 2"><g id="Layer_1-2" data-name="Layer 1"><path class="cls-1" d="M301.84,57.74S198,11.37,175.4,6.18a45.94,45.94,0,0,0-20.67,0C132.17,11.37,28.3,57.74,28.3,57.74A46,46,0,0,0,7.66,91.68C-14.57,306.27,108.78,364.1,151.16,377.53a46,46,0,0,0,27.81,0C221.35,364.1,344.7,306.27,322.48,91.68A46,46,0,0,0,301.84,57.74Z"/><path class="cls-2" d="M301.84,57.74S198,11.37,175.4,6.18a45.94,45.94,0,0,0-20.67,0C132.17,11.37,28.3,57.74,28.3,57.74A46,46,0,0,0,7.66,91.68C-14.57,306.27,108.78,364.1,151.16,377.53a46,46,0,0,0,27.81,0C221.35,364.1,344.7,306.27,322.48,91.68A46,46,0,0,0,301.84,57.74Z"/><path class="cls-3" d="M165.07,282.36a25,25,0,0,1-25-25V187.83a25,25,0,1,1,50,0v69.53A25,25,0,0,1,165.07,282.36Z"/><circle class="cls-3" cx="165.07" cy="122.81" r="28.5"/></g></g></svg>