<?xml version="1.0" encoding="utf-8"?>
<!-- Generator: Adobe Illustrator 26.4.1, SVG Export Plug-In . SVG Version: 6.00 Build 0)  -->
<svg version="1.1" id="Layer_1" xmlns="http://www.w3.org/2000/svg" xmlns:xlink="http://www.w3.org/1999/xlink" x="0px" y="0px"
	 viewBox="0 0 40.2 40.7" style="enable-background:new 0 0 40.2 40.7;" xml:space="preserve">
<style type="text/css">
	.st0{fill:#522e8e;}
</style>
<g id="Layer_2_00000155122836436698233200000013505693519155435427_">
	<g id="text">
		<path class="st0" d="M75.1,93.4c0,2.2-1.8,4-4,4H38.9c-2.2,0-4-1.8-4-4c0-7.1,4.6-13.4,11.3-15.7c5,4.9,12.9,5,18,0.1
			C70.7,80.2,75.1,86.4,75.1,93.4z M55.3,56.7c-6.5,0-11.7,5.3-11.7,11.7c0,6.5,5.3,11.7,11.7,11.7c6.5,0,11.7-5.2,11.7-11.7
			C67.1,61.9,61.8,56.7,55.3,56.7z"/>
	</g>
</g>
<path class="st0" d="M32.7,11.9c0.2,3.8-1.4,7.3-4,9.7c-2.2,2-5.1,3.2-8.3,3.2c-3.3,0-6.2-1.3-8.4-3.3C9.5,19.2,8,16,8,12.4
	C8,5.4,13.9-0.2,21,0.1C27.3,0.4,32.5,5.6,32.7,11.9z M35.3,25.6c-0.9-0.9-1.9-1.7-3-2.4c-0.8-0.5-1.8-0.4-2.5,0.3
	c-2.6,2.3-5.9,3.7-9.6,3.8c-3.7-0.1-7.1-1.5-9.6-3.8c-0.7-0.6-1.7-0.8-2.5-0.3c-1.1,0.7-2.1,1.5-3,2.4c-3,3-4.9,6.6-4.9,11.2
	c0,2.2,1.8,3.9,4,3.9h16.1h16.1c2.2,0,4-1.7,4-3.9C40.2,32.2,38.3,28.7,35.3,25.6z"/>
</svg>
