<?xml version="1.0" encoding="utf-8"?>
<!-- Generator: Adobe Illustrator 24.3.0, SVG Export Plug-In . SVG Version: 6.00 Build 0)  -->
<svg version="1.1" id="Layer_1" xmlns="http://www.w3.org/2000/svg" xmlns:xlink="http://www.w3.org/1999/xlink" x="0px" y="0px"
	 viewBox="0 0 42 40.8" style="enable-background:new 0 0 42 40.8;" xml:space="preserve">
<style type="text/css">
	.st0{fill:#FFFFFF;}
</style>
<g id="Layer_2_1_">
	<g id="left_side">
		<path class="st0" d="M41.7,35.9c0.5-0.5,0.5-1.4-0.1-1.9c0,0,0,0,0,0L30.3,23.8c-0.5-0.5-1.4-0.4-1.9,0.1l-4,4.4
			c-0.5,0.5-0.4,1.4,0.1,1.9l11.2,10.2c0.5,0.5,1.4,0.5,1.9-0.1c0,0,0,0,0,0L41.7,35.9z"/>
		<path class="st0" d="M14.7,0c8.1,0,14.7,6.6,14.7,14.7s-6.6,14.7-14.7,14.7S0,22.9,0,14.7C0,8.5,4,2.9,9.9,0.8
			C11.5,0.3,13.1,0,14.7,0 M14.7,4c-1.2,0-2.4,0.2-3.5,0.6l0,0c-5.6,1.9-8.6,8-6.6,13.6s8,8.6,13.6,6.6s8.6-8,6.6-13.6
			C23.4,6.9,19.3,4,14.7,4z"/>
		<path class="st0" d="M14.7,21.4c7.7-4,7.4-8.5,5.2-10.6s-5.2-0.7-5.2,1c0-1.7-3-3.2-5.2-1S7,17.4,14.7,21.4z"/>
	</g>
</g>
</svg>
