<?xml version="1.0" encoding="utf-8"?>
<!-- Generator: Adobe Illustrator 26.4.1, SVG Export Plug-In . SVG Version: 6.00 Build 0)  -->
<svg version="1.1" id="Layer_1" xmlns="http://www.w3.org/2000/svg" xmlns:xlink="http://www.w3.org/1999/xlink" x="0px" y="0px"
	 viewBox="0 0 42 36.3" style="enable-background:new 0 0 42 36.3;" xml:space="preserve">
<style type="text/css">
	.st0{fill:#522e8e;}
</style>
<path class="st0" d="M26.2,10.3c0,1.4-0.5,2.7-1.5,3.7v-1.4c0-0.9-0.4-1.8-1-2.4c-0.6-0.6-1.4-1-2.3-1c-0.9,0-1.8,0.3-2.4,0.9
	c-0.7,0.7-1,1.6-1,2.5v1.8c-2.3-1.7-2.8-4.9-1.1-7.2s4.9-2.8,7.2-1.1C25.5,7.1,26.3,8.6,26.2,10.3L26.2,10.3z"/>
<polygon class="st0" points="20.1,23.4 19.9,23.4 20.2,23.8 20.2,23.3 "/>
<path class="st0" d="M39.8,0H2.3C1,0,0,1,0,2.3v23.4C0,27,1,28,2.3,28H16c-0.1-0.3-0.2-0.5-0.3-0.8c-0.4-1.3-1-2.6-1.7-3.8
	c-1.1-1.4-0.9-3.5,0.4-4.6c1-0.8,2.3-1,3.5-0.5V16c-3.2-1.7-4.4-5.7-2.7-8.8s5.7-4.4,8.8-2.7s4.4,5.7,2.7,8.8
	c-0.5,0.9-1.2,1.7-2.1,2.3v1.2c0.5,0.2,1,0.4,1.4,0.8c0.2,0.2,0.4,0.5,0.6,0.7c0.7,0.1,1.3,0.4,1.8,0.9l0,0c1.9-0.1,3.5,1.2,3.6,3.1
	c0,0.1,0,0.2,0,0.3l0,0V28h7.8c1.3,0,2.3-1,2.3-2.3V2.3C42.1,1,41,0,39.8,0C39.8,0,39.8,0,39.8,0z"/>
<polygon class="st0" points="20.2,23.4 20.2,23.8 19.9,23.5 20.1,23.5 "/>
<polygon class="st0" points="20.2,23.4 20.2,23.8 19.9,23.5 20.1,23.5 "/>
<polygon class="st0" points="20.2,23.4 20.2,23.8 19.9,23.5 20.1,23.5 "/>
<polygon class="st0" points="20.2,23.4 20.2,23.8 19.9,23.5 20.1,23.5 "/>
<path class="st0" d="M17.9,26.5c0.1,0.5,0.3,1,0.5,1.4c0.6,1.4,1.3,2.8,2.2,4c0.3,0.4,0.5,1,0.5,1.5v0.9c0,0.3,0.3,0.6,0.6,0.6h5
	c0.5,0,1-0.3,1.3-0.8l1.7-3.6c0.1-0.3,0.2-0.7,0.2-1V28v-5.2c0-0.3-0.1-0.6-0.3-0.8c-0.4-0.4-0.9-0.4-1.4-0.1l-0.8,0.5L27,21.5
	c-0.1-0.2-0.1-0.4-0.3-0.5c-0.3-0.3-0.7-0.4-1.1-0.3l-0.8,0.2v-0.9c0-0.3-0.1-0.6-0.3-0.8c-0.3-0.3-0.7-0.4-1.1-0.3l-0.9,0.3v-6.8
	c0-0.3-0.1-0.6-0.3-0.8c-0.2-0.2-0.5-0.3-0.8-0.3c-0.3,0-0.6,0.1-0.8,0.3c-0.2,0.2-0.4,0.6-0.4,0.9v10.7l-0.1,0.1h-0.1l-2.4-2.8
	c-0.2-0.2-0.5-0.4-0.9-0.4c-0.3,0-0.5,0.1-0.7,0.3c-0.4,0.4-0.5,1.1-0.1,1.5C16.7,23.4,17.4,24.9,17.9,26.5z"/>
<path class="st0" d="M30,21.4c-0.4-0.4-0.8-0.6-1.3-0.6c-0.3,0-0.6,0.1-0.9,0.2c-0.1-0.3-0.2-0.5-0.4-0.7c-0.4-0.4-0.8-0.6-1.3-0.6
	c-0.1,0-0.3,0-0.4,0c0-0.4-0.2-0.8-0.5-1.1c-0.4-0.4-0.8-0.6-1.4-0.6c-0.2,0-0.3,0-0.4,0.1v-5.7c0-0.5-0.2-1-0.6-1.3
	c-0.3-0.3-0.8-0.5-1.4-0.6c-0.5,0-1,0.2-1.3,0.5c-0.4,0.4-0.6,0.9-0.6,1.5v8.9l-1.3-1.5c-0.4-0.4-0.9-0.7-1.5-0.7
	c-0.4,0-0.9,0.2-1.2,0.5c-0.7,0.7-0.8,1.8-0.3,2.6c0.9,1.3,1.6,2.8,2,4.4c0.2,0.5,0.3,1.1,0.5,1.5c0.6,1.5,1.3,2.9,2.3,4.2
	c0.2,0.3,0.3,0.7,0.3,1v0.9c0,0.7,0.6,1.4,1.4,1.4h5h0c0.9,0,1.6-0.5,2-1.3l1.7-3.7c0.2-0.4,0.3-0.9,0.3-1.3v-6.7
	C30.6,22.3,30.4,21.8,30,21.4z"/>
</svg>
