<svg xmlns="http://www.w3.org/2000/svg" viewBox="0 0 19.94 12.59"><defs><style>.cls-1{fill:#fff;}</style></defs><g id="Layer_2" data-name="Layer 2"><g id="profiles"><path class="cls-1" d="M6.18.59a.44.44,0,0,0-.79,0L4.18,3.41,7,3A.12.12,0,0,0,7,2.92l.16-.36Zm-.85,8L2,5.56a1.08,1.08,0,0,1-.32-1.12.78.78,0,0,1,.05-.14L.37,4.51a.43.43,0,0,0-.22.76L2.68,7.5a.46.46,0,0,1,.15.4L2.3,11.24a.43.43,0,0,0,.65.44l2.12-1.25.29-1.82A.09.09,0,0,0,5.33,8.54Zm9-8.3a.44.44,0,0,0-.79,0l-.9,2.06.21.41a.1.1,0,0,0,.07,0l2.84.27Zm5.52,4.32a.44.44,0,0,0-.27-.75l-1.38-.13a.9.9,0,0,1,.12.24A1.05,1.05,0,0,1,18,5.05L14.84,8.24a.08.08,0,0,0,0,.08L15.2,10l2.21,1.13a.44.44,0,0,0,.62-.49l-.73-3.3a.41.41,0,0,1,.11-.4Zm-6.21,4,.73,3.28a.37.37,0,0,1-.52.41l-3-1.5a1.31,1.31,0,0,0-1.34,0L6.61,12.54a.37.37,0,0,1-.55-.37L6.59,8.8a1.3,1.3,0,0,0-.43-1.2L3.63,5.37a.37.37,0,0,1,.18-.64L7.14,4.2a1.33,1.33,0,0,0,1-.77L9.51.32a.36.36,0,0,1,.65,0l1.5,2.92.05.11a1.34,1.34,0,0,0,1,.71l3.37.31a.36.36,0,0,1,.22.62L14,7.36A1.36,1.36,0,0,0,13.6,8.6Z"/></g></g></svg>