<svg xmlns="http://www.w3.org/2000/svg" viewBox="0 0 42 31.17"><defs><style>.cls-1{fill:#522e8e;}</style></defs><g id="Layer_2" data-name="Layer 2"><g id="Layer_1-2" data-name="Layer 1"><g id="Layer_2-2" data-name="Layer 2"><g id="middle"><path class="cls-1" d="M9.37,20.31A13.64,13.64,0,0,0,6.8,24.07,14.57,14.57,0,0,0,5.64,28c0,.34-.07.68-.09,1s0,.67,0,1v1.08H2A2,2,0,0,1,.59,30.5,2,2,0,0,1,0,29.09,12.63,12.63,0,0,1,6,18.34,9.71,9.71,0,0,0,9.37,20.31Zm4.13-3.68a8.66,8.66,0,0,1-1.61-1.7,9.22,9.22,0,0,1-1.74-5.72A8.83,8.83,0,0,1,11,5.64a9.23,9.23,0,0,1,1.72-2.52A8.06,8.06,0,0,0,7.47,17.38a8.17,8.17,0,0,0,2.93,1.54c.28-.28.56-.52.84-.75l.34-.28c.3-.23.58-.44.86-.63a1.43,1.43,0,0,1,1.27-.16l.93.34A9.06,9.06,0,0,1,13.5,16.63Zm19.15,3.68a13.64,13.64,0,0,1,2.57,3.76A14.57,14.57,0,0,1,36.38,28c0,.34.07.68.09,1s0,.67,0,1v1.08H40a2,2,0,0,0,2-2,12.63,12.63,0,0,0-6-10.75A9.54,9.54,0,0,1,32.65,20.31Zm-5.27-2.87.93-.34a1.43,1.43,0,0,1,1.27.16c.28.19.56.4.86.63l.34.28c.28.23.56.47.84.75a8.06,8.06,0,0,0-2.33-15.8A9,9,0,0,1,31,5.64a9,9,0,0,1,.86,3.57,9.22,9.22,0,0,1-1.74,5.72,8.66,8.66,0,0,1-1.61,1.7A8.29,8.29,0,0,1,27.38,17.44Zm2-11.93a9.23,9.23,0,1,0-15.74,9.37,8.6,8.6,0,0,0,1.65,1.65,9.23,9.23,0,0,0,14.07-11Zm-.45,13.11h0l-.36-.26-.14-.09A16,16,0,0,1,25,19.8a17,17,0,0,1-4.08.58c-1.2.11-3.87-.67-5.72-1.28l-.48-.16-1.5-.52c-.26.17-.51.36-.75.55l-.32.27A14.56,14.56,0,0,0,11,20.31a13.64,13.64,0,0,0-2.57,3.76A14.24,14.24,0,0,0,7.26,28c0,.34-.07.68-.1,1s0,.67,0,1v1.17L34.7,31V29.8a13.67,13.67,0,0,0-1.77-6.73,14.12,14.12,0,0,0-3.38-4Zm-.37-.26.36.26m-.36-.26.36.26"/></g></g></g></g></svg>