<svg xmlns="http://www.w3.org/2000/svg" viewBox="0 0 42.82 42.82"><defs><style>.cls-1{fill:#6159a8;}.cls-2{fill:#eba352;}.cls-3{fill:#fff;}.cls-4{fill:#ccc;}</style></defs><g id="Layer_2" data-name="Layer 2"><g id="right_side" data-name="right side"><rect class="cls-1" width="42.82" height="42.82" rx="5.04"/><path class="cls-2" d="M22.29,22.47H21v0h.59c1.6,0,2.29,1.58,2.09,3l-.06.24a2,2,0,0,1-.09.33.52.52,0,0,1-.07.15,1.63,1.63,0,0,1-.25.45,1.45,1.45,0,0,1-.39.39,1.76,1.76,0,0,1-1,.41c.61,0,2.4,0,2.08,1.92-.56,3.37-1.34,4.8,0,6.7a4.25,4.25,0,0,0,4.73,1.78h0A1.14,1.14,0,0,0,29,37c0-8.43-.08-4.84,1.6-9.1,1.56-3.93,1.43-7.8.63-12.64-.52-3-1.54-6.78-6.27-6.78H21.43l.23.3a3.05,3.05,0,0,1,.26,1.84.65.65,0,0,1-.06.26,2.72,2.72,0,0,1-.15.43,1.06,1.06,0,0,1-.22.36,1.71,1.71,0,0,1-.47.5l0,0a2.23,2.23,0,0,1-1.26.41h2A1.9,1.9,0,0,1,23,13a2.78,2.78,0,0,1,.78,2.61,3.62,3.62,0,0,1-.17.56,2.22,2.22,0,0,1-.28.5.06.06,0,0,0,0,0,1.93,1.93,0,0,1-.35.35l0,0a2,2,0,0,1-1.25.41h.6A2.41,2.41,0,0,1,24.82,20a2.35,2.35,0,0,1-.07.6,3,3,0,0,1-.17.5.34.34,0,0,1-.06.15,1.81,1.81,0,0,1-.22.32,1.91,1.91,0,0,1-.5.48l0,0v0A2.55,2.55,0,0,1,22.29,22.47Z"/><path class="cls-2" d="M13.45,27.46h8.09a.68.68,0,0,0,.21,0,1.76,1.76,0,0,0,1-.41c.64-1.43.06-3.59-1.73-3.69a.3.3,0,0,0-.13,0h-8.1a1.9,1.9,0,0,0-1.23.41C10.91,25.21,11.55,27.46,13.45,27.46Z"/><path class="cls-2" d="M11.58,23.73a1.9,1.9,0,0,1,1.23-.41h8.1a.3.3,0,0,1,.13,0c1.79.1,2.37,2.26,1.73,3.69a1.45,1.45,0,0,0,.39-.39,1.63,1.63,0,0,0,.25-.45.52.52,0,0,0,.07-.15,2,2,0,0,0,.09-.33l.06-.24c.2-1.4-.49-3-2.09-3H13.45a2.34,2.34,0,0,0-.47.05,2.05,2.05,0,0,0-1.1.69l-.05.09a.77.77,0,0,0-.17.27C11.64,23.64,11.6,23.68,11.58,23.73Z"/><path class="cls-2" d="M12.57,22.47h9.72a2.55,2.55,0,0,0,1.47-.41v0a2.47,2.47,0,0,0-2.24-3.7H11.81a2.58,2.58,0,0,0-1.47.41A2.48,2.48,0,0,0,12.57,22.47Z"/><path class="cls-2" d="M10.34,18.75a2.58,2.58,0,0,1,1.47-.41h9.71A2.47,2.47,0,0,1,23.76,22l0,0a1.91,1.91,0,0,0,.5-.48,1.81,1.81,0,0,0,.22-.32.34.34,0,0,0,.06-.15,3,3,0,0,0,.17-.5,2.35,2.35,0,0,0,.07-.6,2.41,2.41,0,0,0-2.53-2.47H12.57a3.24,3.24,0,0,0-.56.05c-.18,0-.37.1-.52.15s-.18.1-.26.13,0,0-.05,0l-.25.17a1.65,1.65,0,0,0-.24.22c0,.08-.13.15-.19.23S10.39,18.65,10.34,18.75Z"/><path class="cls-2" d="M23.76,22v0a0,0,0,0,0,0,0Z"/><path class="cls-2" d="M13.48,17.5h8.21a2,2,0,0,0,1.25-.41c.67-1.47.06-3.72-1.88-3.72H12.83a2,2,0,0,0-1.23.41C10.91,15.23,11.55,17.5,13.48,17.5Z"/><path class="cls-2" d="M11.6,13.78a2,2,0,0,1,1.23-.41h8.23c1.94,0,2.55,2.25,1.88,3.72l0,0a1.93,1.93,0,0,0,.35-.35.06.06,0,0,1,0,0,2.22,2.22,0,0,0,.28-.5,3.62,3.62,0,0,0,.17-.56A2.78,2.78,0,0,0,23,13a1.9,1.9,0,0,0-1.31-.46H13.48a2.31,2.31,0,0,0-.46,0,1.45,1.45,0,0,0-.54.21,1,1,0,0,0-.3.2,1.48,1.48,0,0,0-.28.28s0,0,0,0a3.37,3.37,0,0,0-.24.37S11.62,13.76,11.6,13.78Z"/><path class="cls-2" d="M14.36,12.55h5.38A2.23,2.23,0,0,0,21,12.14l0,0c.67-1.42.08-3.52-1.78-3.69H13.67a2.14,2.14,0,0,0-1.32.4C11.6,10.28,12.27,12.55,14.36,12.55Z"/><path class="cls-2" d="M12.35,8.82a2.14,2.14,0,0,1,1.32-.4h5.57c1.86.17,2.45,2.27,1.78,3.69a1.71,1.71,0,0,0,.47-.5,1.06,1.06,0,0,0,.22-.36,2.72,2.72,0,0,0,.15-.43.65.65,0,0,0,.06-.26,3.05,3.05,0,0,0-.26-1.84l-.23-.3H25c4.73,0,5.75,3.75,6.27,6.78.8,4.84.93,8.71-.63,12.64-1.68,4.26-1.6.67-1.6,9.1a1.14,1.14,0,0,1-.43.88,2.05,2.05,0,0,0,.52-.23,1.56,1.56,0,0,0,.37-.35.92.92,0,0,0,.23-.36,1,1,0,0,0,.11-.46c0-6-.09-4.36,1.36-7.35.09-.17.18-.38.28-.58,1.75-3.83,1.54-9.29.74-14.15-.5-3-1.79-6.75-6.51-6.75H14.36a1.88,1.88,0,0,0-.5.05,1.37,1.37,0,0,0-.47.15,1.11,1.11,0,0,0-.19.09A2.18,2.18,0,0,0,12.35,8.82Z"/><path class="cls-2" d="M21.43,8.43l.23.3-.21-.3Z"/><path class="cls-3" d="M22.29,22.47H21v0h.59c1.6,0,2.29,1.58,2.09,3l-.06.24a2,2,0,0,1-.09.33.52.52,0,0,1-.07.15,1.63,1.63,0,0,1-.25.45,1.45,1.45,0,0,1-.39.39,1.76,1.76,0,0,1-1,.41c.61,0,2.4,0,2.08,1.92-.56,3.37-1.34,4.8,0,6.7a4.25,4.25,0,0,0,4.73,1.78h0A1.14,1.14,0,0,0,29,37c0-8.43-.08-4.84,1.6-9.1,1.56-3.93,1.43-7.8.63-12.64-.52-3-1.54-6.78-6.27-6.78H21.43l.23.3a3.05,3.05,0,0,1,.26,1.84.65.65,0,0,1-.06.26,2.72,2.72,0,0,1-.15.43,1.06,1.06,0,0,1-.22.36,1.71,1.71,0,0,1-.47.5l0,0a2.23,2.23,0,0,1-1.26.41h2A1.9,1.9,0,0,1,23,13a2.78,2.78,0,0,1,.78,2.61,3.62,3.62,0,0,1-.17.56,2.22,2.22,0,0,1-.28.5.06.06,0,0,0,0,0,1.93,1.93,0,0,1-.35.35l0,0a2,2,0,0,1-1.25.41h.6A2.41,2.41,0,0,1,24.82,20a2.35,2.35,0,0,1-.07.6,3,3,0,0,1-.17.5.34.34,0,0,1-.06.15,1.81,1.81,0,0,1-.22.32,1.91,1.91,0,0,1-.5.48l0,0v0A2.55,2.55,0,0,1,22.29,22.47Z"/><path class="cls-3" d="M13.45,27.46h8.09a.68.68,0,0,0,.21,0,1.76,1.76,0,0,0,1-.41c.64-1.43.06-3.59-1.73-3.69a.3.3,0,0,0-.13,0h-8.1a1.9,1.9,0,0,0-1.23.41C10.91,25.21,11.55,27.46,13.45,27.46Z"/><path class="cls-4" d="M11.58,23.73a1.9,1.9,0,0,1,1.23-.41h8.1a.3.3,0,0,1,.13,0c1.79.1,2.37,2.26,1.73,3.69a1.45,1.45,0,0,0,.39-.39,1.63,1.63,0,0,0,.25-.45.52.52,0,0,0,.07-.15,2,2,0,0,0,.09-.33l.06-.24c.2-1.4-.49-3-2.09-3H13.45a2.34,2.34,0,0,0-.47.05,2.05,2.05,0,0,0-1.1.69l-.05.09a.77.77,0,0,0-.17.27C11.64,23.64,11.6,23.68,11.58,23.73Z"/><path class="cls-3" d="M12.57,22.47h9.72a2.55,2.55,0,0,0,1.47-.41v0a2.47,2.47,0,0,0-2.24-3.7H11.81a2.58,2.58,0,0,0-1.47.41A2.48,2.48,0,0,0,12.57,22.47Z"/><path class="cls-4" d="M10.34,18.75a2.58,2.58,0,0,1,1.47-.41h9.71A2.47,2.47,0,0,1,23.76,22l0,0a1.91,1.91,0,0,0,.5-.48,1.81,1.81,0,0,0,.22-.32.34.34,0,0,0,.06-.15,3,3,0,0,0,.17-.5,2.35,2.35,0,0,0,.07-.6,2.41,2.41,0,0,0-2.53-2.47H12.57a3.24,3.24,0,0,0-.56.05c-.18,0-.37.1-.52.15s-.18.1-.26.13,0,0-.05,0l-.25.17a1.65,1.65,0,0,0-.24.22c0,.08-.13.15-.19.23S10.39,18.65,10.34,18.75Z"/><path class="cls-2" d="M23.76,22v0a0,0,0,0,0,0,0Z"/><path class="cls-3" d="M13.48,17.5h8.21a2,2,0,0,0,1.25-.41c.67-1.47.06-3.72-1.88-3.72H12.83a2,2,0,0,0-1.23.41C10.91,15.23,11.55,17.5,13.48,17.5Z"/><path class="cls-4" d="M11.6,13.78a2,2,0,0,1,1.23-.41h8.23c1.94,0,2.55,2.25,1.88,3.72l0,0a1.93,1.93,0,0,0,.35-.35.06.06,0,0,1,0,0,2.22,2.22,0,0,0,.28-.5,3.62,3.62,0,0,0,.17-.56A2.78,2.78,0,0,0,23,13a1.9,1.9,0,0,0-1.31-.46H13.48a2.31,2.31,0,0,0-.46,0,1.45,1.45,0,0,0-.54.21,1,1,0,0,0-.3.2,1.48,1.48,0,0,0-.28.28s0,0,0,0a3.37,3.37,0,0,0-.24.37S11.62,13.76,11.6,13.78Z"/><path class="cls-3" d="M14.36,12.55h5.38A2.23,2.23,0,0,0,21,12.14l0,0c.67-1.42.08-3.52-1.78-3.69H13.67a2.14,2.14,0,0,0-1.32.4C11.6,10.28,12.27,12.55,14.36,12.55Z"/><path class="cls-4" d="M12.35,8.82a2.14,2.14,0,0,1,1.32-.4h5.57c1.86.17,2.45,2.27,1.78,3.69a1.71,1.71,0,0,0,.47-.5,1.06,1.06,0,0,0,.22-.36,2.72,2.72,0,0,0,.15-.43.65.65,0,0,0,.06-.26,3.05,3.05,0,0,0-.26-1.84l-.23-.3H25c4.73,0,5.75,3.75,6.27,6.78.8,4.84.93,8.71-.63,12.64-1.68,4.26-1.6.67-1.6,9.1a1.14,1.14,0,0,1-.43.88,2.05,2.05,0,0,0,.52-.23,1.56,1.56,0,0,0,.37-.35.92.92,0,0,0,.23-.36,1,1,0,0,0,.11-.46c0-6-.09-4.36,1.36-7.35.09-.17.18-.38.28-.58,1.75-3.83,1.54-9.29.74-14.15-.5-3-1.79-6.75-6.51-6.75H14.36a1.88,1.88,0,0,0-.5.05,1.37,1.37,0,0,0-.47.15,1.11,1.11,0,0,0-.19.09A2.18,2.18,0,0,0,12.35,8.82Z"/><path class="cls-2" d="M21.43,8.43l.23.3-.21-.3Z"/></g></g></svg>