<?xml version="1.0" encoding="UTF-8"?>
<svg id="Layer_2" data-name="Layer 2" xmlns="http://www.w3.org/2000/svg" viewBox="0 0 330.17 384.69">
  <defs>
    <style>
      .cls-1 {
        fill: #fff;
      }

      .cls-2 {
        fill: #fff;
      }
    </style>
  </defs>
  <g id="Layer_1-2" data-name="Layer 1">
    <g>
      <path class="cls-2" d="M200.27,252.26h-11.73V123.78h11.73c10.83,0,18.29,4.63,22.39,13.88,4.1,9.24,6.15,26.01,6.15,50.3s-2.07,41.08-6.21,50.37c-4.14,9.29-11.58,13.93-22.33,13.93Z"/>
      <path class="cls-2" d="M322.49,91.67c-1.39-13.85-8.98-26.33-20.64-33.94,0,0-103.84-46.37-126.44-51.56-6.8-1.57-13.87-1.57-20.67,0C132.18,11.36,28.31,57.73,28.31,57.73c-11.66,7.61-19.25,20.09-20.64,33.94C-14.56,306.26,108.79,364.09,151.17,377.52c9.05,2.87,18.76,2.87,27.81,0,42.38-13.43,165.73-71.26,143.51-285.85Zm-250.03,19.36h44.67v153.98h-44.67V111.03Zm71.41,0h63.84c45.35,0,68.02,25.72,68.02,77.16s-23.5,76.82-70.5,76.82h-61.36V111.03Z"/>
      <path class="cls-1" d="M327.47,91.17c-1.55-15.44-9.89-29.15-22.89-37.63l-.33-.21-.36-.17c-4.26-1.9-104.55-46.62-127.35-51.86-7.5-1.73-15.43-1.73-22.92,0C130.85,6.54,30.53,51.26,26.27,53.16l-.36,.17-.33,.21C12.58,62.02,4.24,75.73,2.7,91.16c-9.67,93.33,6.66,168,48.54,221.94,34.05,43.85,76.28,62.17,98.42,69.19,5.04,1.6,10.23,2.4,15.42,2.4s10.37-.8,15.41-2.4c22.14-7.02,64.37-25.34,98.42-69.19,41.88-53.94,58.22-128.61,48.56-221.93ZM152.68,372.75c-21.03-6.66-61.15-24.07-93.54-65.79C18.89,255.13,3.25,182.87,12.65,92.17c1.23-12.28,7.81-23.21,18.07-30.04,6.83-3.04,103.97-46.22,125.14-51.09,6.03-1.39,12.4-1.39,18.43,0,21.21,4.87,118.32,48.05,125.15,51.09,10.26,6.83,16.84,17.76,18.08,30.06,9.39,90.68-6.26,162.94-46.51,214.77-32.39,41.72-72.51,59.13-93.54,65.79-8.11,2.57-16.68,2.58-24.79,0Z"/>
    </g>
  </g>
</svg>