<?xml version="1.0" encoding="UTF-8"?>
<svg id="Layer_2" data-name="Layer 2" xmlns="http://www.w3.org/2000/svg" viewBox="0 0 330.13 384.68">
  <defs>
    <style>
      .cls-1 {
        fill: #fff;
      }

      .cls-2 {
        fill: none;
        stroke: #fff;
        stroke-miterlimit: 10;
        stroke-width: 10px;
      }

      .cls-3 {
        fill: #fa4943;
      }
    </style>
  </defs>
  <g id="page_name" data-name="page name">
    <path class="cls-2" d="M301.84,57.74S198,11.37,175.4,6.18c-6.8-1.57-13.87-1.57-20.67,0C132.17,11.37,28.3,57.74,28.3,57.74c-11.66,7.61-19.25,20.09-20.64,33.94C-14.57,306.27,108.78,364.1,151.16,377.53c9.05,2.87,18.76,2.87,27.81,0,42.38-13.43,165.73-71.26,143.51-285.85-1.39-13.85-8.98-26.33-20.64-33.94Z"/>
    <path class="cls-3" d="M301.84,57.74S198,11.37,175.4,6.18c-6.8-1.57-13.87-1.57-20.67,0C132.17,11.37,28.3,57.74,28.3,57.74c-11.66,7.61-19.25,20.09-20.64,33.94C-14.57,306.27,108.78,364.1,151.16,377.53c9.05,2.87,18.76,2.87,27.81,0,42.38-13.43,165.73-71.26,143.51-285.85-1.39-13.85-8.98-26.33-20.64-33.94Z"/>
    <path class="cls-1" d="M202.3,254.82l-33.24-33.24-33.24,33.24c-9.18,9.18-24.06,9.18-33.24,0h0c-9.18-9.18-9.18-24.06,0-33.24l33.24-33.24-33.24-33.24c-9.18-9.18-9.18-24.06,0-33.24h0c9.18-9.18,24.06-9.18,33.24,0l33.24,33.24,33.24-33.24c9.18-9.18,24.06-9.18,33.24,0h0c9.18,9.18,9.18,24.06,0,33.24l-33.24,33.24,33.24,33.24c9.18,9.18,9.18,24.06,0,33.24h0c-9.18,9.18-24.06,9.18-33.24,0Z"/>
  </g>
</svg>