<?xml version="1.0" encoding="UTF-8"?>
<svg id="Layer_2" data-name="Layer 2" xmlns="http://www.w3.org/2000/svg" viewBox="0 0 283.08 283.08">
  <defs>
    <style>
      .cls-1 {
        fill: #fff;
      }

      .cls-2 {
        fill: none;
        stroke: #fff;
        stroke-linecap: round;
        stroke-linejoin: round;
        stroke-width: 24.01px;
      }

      .cls-3 {
        fill: #fa4943;
      }
    </style>
  </defs>
  <g id="page_name" data-name="page name">
    <path class="cls-3" d="M141.54,283.08C63.49,283.08,0,219.59,0,141.54S63.49,0,141.54,0s141.54,63.49,141.54,141.54-63.49,141.54-141.54,141.54Z"/>
    <g>
      <line class="cls-2" x1="98.31" y1="178.68" x2="184.77" y2="104.4"/>
      <line class="cls-2" x1="184.77" y1="178.68" x2="98.31" y2="104.4"/>
    </g>
    <path class="cls-1" d="M168.06,194.59l-26.52-26.52-26.52,26.52c-7.32,7.32-19.2,7.32-26.52,0h0c-7.32-7.32-7.32-19.2,0-26.52l26.52-26.52-26.52-26.52c-7.32-7.32-7.32-19.2,0-26.52h0c7.32-7.32,19.2-7.32,26.52,0l26.52,26.52,26.52-26.52c7.32-7.32,19.2-7.32,26.52,0h0c7.32,7.32,7.32,19.2,0,26.52l-26.52,26.52,26.52,26.52c7.32,7.32,7.32,19.2,0,26.52h0c-7.32,7.32-19.2,7.32-26.52,0Z"/>
  </g>
</svg>