<?xml version="1.0" encoding="UTF-8"?>
<svg id="Layer_2" data-name="Layer 2" xmlns="http://www.w3.org/2000/svg" viewBox="0 0 279.68 279.68">
  <defs>
    <style>
      .cls-1 {
        stroke-miterlimit: 10;
        stroke-width: 2.27px;
      }

      .cls-1, .cls-2 {
        fill: none;
        stroke: #6159a8;
      }

      .cls-3 {
        fill: #fff;
      }

      .cls-2 {
        stroke-linecap: round;
        stroke-linejoin: round;
        stroke-width: 1.13px;
      }

      .cls-4 {
        fill: #6159a8;
      }

      .cls-5 {
        fill: #f2f2f2;
      }
    </style>
  </defs>
  <g id="middle">
    <path class="cls-4" d="M139.84,279.68C62.73,279.68,0,216.95,0,139.84S62.73,0,139.84,0s139.84,62.73,139.84,139.84-62.73,139.84-139.84,139.84Z"/>
  </g>
  <g id="page_name" data-name="page name">
    <g>
      <g>
        <rect class="cls-3" x="81.67" y="76.8" width="116.34" height="133.72" rx="6.2" ry="6.2" transform="translate(.66 -.64) rotate(.26)"/>
        <rect class="cls-4" x="103.09" y="141.52" width="51.82" height="5.01" rx="2.5" ry="2.5"/>
        <rect class="cls-4" x="103.09" y="187.32" width="78.52" height="5.01" rx="2.5" ry="2.5"/>
        <rect class="cls-4" x="103.09" y="175.87" width="78.52" height="5.01" rx="2.5" ry="2.5"/>
        <rect class="cls-4" x="103.09" y="164.42" width="78.52" height="5.01" rx="2.5" ry="2.5"/>
        <rect class="cls-4" x="103.09" y="152.97" width="78.52" height="5.01" rx="2.5" ry="2.5"/>
        <g>
          <path class="cls-4" d="M136.72,110.2h6.23c8.3,0,15.09,6.79,15.09,15.09h0c0,2.01-1.63,3.64-3.64,3.64h-29.15c-2.01,0-3.64-1.63-3.64-3.64h0c0-8.3,6.79-15.09,15.09-15.09Z"/>
          <g>
            <path class="cls-4" d="M140.1,115.54c-7.1,0-12.88-5.78-12.88-12.88s5.78-12.88,12.88-12.88,12.89,5.78,12.89,12.88-5.78,12.88-12.89,12.88Z"/>
            <path class="cls-3" d="M140.1,91.47c6.18,0,11.19,5.01,11.19,11.19s-5.01,11.19-11.19,11.19-11.19-5.01-11.19-11.19,5.01-11.19,11.19-11.19m0-3.4c-8.04,0-14.58,6.54-14.58,14.58s6.54,14.58,14.58,14.58,14.58-6.54,14.58-14.58-6.54-14.58-14.58-14.58h0Z"/>
          </g>
        </g>
      </g>
      <g>
        <path class="cls-4" d="M93.56,83.52v16.43h-4v-16.43h4Z"/>
        <path class="cls-4" d="M107.16,84.55c1.3,.69,2.3,1.65,3.01,2.89,.71,1.24,1.07,2.67,1.07,4.3s-.36,3.04-1.07,4.28c-.71,1.25-1.72,2.22-3.02,2.9-1.3,.69-2.81,1.03-4.53,1.03h-6.16v-16.43h6.16c1.73,0,3.25,.34,4.54,1.03Zm-1.26,10.7c.84-.83,1.26-2,1.26-3.51s-.42-2.69-1.26-3.54c-.84-.84-2.02-1.26-3.54-1.26h-1.9v9.55h1.9c1.51,0,2.69-.41,3.54-1.24Z"/>
      </g>
      <g>
        <rect class="cls-2" x="128.06" y="79.71" width="23.7" height="5.01" rx="2.51" ry="2.51"/>
        <g>
          <rect class="cls-1" x="132.08" y="70.05" width="15.48" height="11.11" rx=".65" ry=".65"/>
          <rect class="cls-5" x="132.08" y="70.05" width="15.48" height="11.11" rx=".65" ry=".65"/>
        </g>
        <circle class="cls-4" cx="139.82" cy="72.78" r="1.59"/>
      </g>
    </g>
  </g>
</svg>