<?xml version="1.0" encoding="UTF-8"?>
<svg id="Layer_2" data-name="Layer 2" xmlns="http://www.w3.org/2000/svg" viewBox="0 0 200 200">
  <defs>
    <style>
      .cls-1 {
        fill: #39b54a;
      }

      .cls-2 {
        fill: #635ba9;
      }

      .cls-3 {
        fill: none;
        stroke: #f2f2f2;
        stroke-linecap: round;
        stroke-linejoin: round;
        stroke-width: 3px;
      }

      .cls-4 {
        fill: #fff;
        font-family: Poppins-Bold, Poppins;
        font-size: 10px;
      }

      .cls-5 {
        fill: #f2f2f2;
      }
    </style>
  </defs>
  <g id="Layer_1-2" data-name="Layer 1">
    <g>
      <path class="cls-5" d="M100.02,0C44.86,0,0,44.86,0,100.02s44.86,99.98,100.02,99.98,99.98-44.86,99.98-99.98S155.14,0,100.02,0Z"/>
      <path class="cls-2" d="M138.3,41.11H61.74c-7.24,0-13.12,5.88-13.12,13.12v91.54c0,7.24,5.88,13.12,13.12,13.12h76.56c7.2,0,13.08-5.88,13.08-13.12V54.23c0-7.24-5.88-13.12-13.08-13.12Z"/>
      <text class="cls-4" transform="translate(83.56 144.82)"><tspan x="0" y="0">HELLO!</tspan></text>
      <g>
        <path class="cls-5" d="M126.66,78.85c-.47-2.26-1.21-4.44-2.19-6.49-.61-1.28-1.33-2.52-2.14-3.72-.82-1.24-1.74-2.42-2.76-3.5-3.51-3.85-8.04-6.87-13.22-8.7-3.62-1.29-7.55-2-11.66-2-17.97,0-32.55,13.49-32.55,30.13,0,5.32,1.49,10.32,4.11,14.65l-5.9,10.64c-.63,1.12,.4,2.43,1.65,2.09l11.44-3.13,1.38-.39c.16,.12,.31,.22,.48,.34h.01c1.23,.84,2.48,1.59,3.83,2.29,4.61,2.32,9.91,3.66,15.54,3.66,17.98,0,32.56-13.49,32.56-30.14,0-1.96-.2-3.87-.59-5.72Zm-43.67,9.87c-2.6,0-4.71-2.1-4.71-4.7s2.12-4.71,4.71-4.71,4.71,2.1,4.71,4.71-2.12,4.7-4.71,4.7Zm13.09,0c-2.61,0-4.71-2.1-4.71-4.7s2.1-4.71,4.71-4.71,4.71,2.1,4.71,4.71-2.12,4.7-4.71,4.7Zm11.91,0c-2.6,0-4.71-2.1-4.71-4.7s2.12-4.71,4.71-4.71,4.71,2.1,4.71,4.71-2.12,4.7-4.71,4.7Z"/>
        <g>
          <path class="cls-3" d="M138.24,119.5c.52,.97-.17,2.17-1.25,2.17-.93,0-13.1-3.66-13.22-3.5,.47-.58-9.32,6.15-22.57,6.15-14.72,0-25.07-8.55-23.89-9.37,.68-.47,5.9,4.47,17.07,4.47,24.24,0,37.29-17.04,37.29-34.41,0-6.57-2.12-10.73-2.12-11.25,0-3.66,14.1,16.52,3.09,35.11,1.87,3.54,3.73,7.08,5.6,10.63h0Z"/>
          <path class="cls-1" d="M138.24,119.5c.52,.97-.17,2.17-1.25,2.17-.93,0-13.1-3.66-13.22-3.5,.47-.58-9.32,6.15-22.57,6.15-14.72,0-25.07-8.55-23.89-9.37,.68-.47,5.9,4.47,17.07,4.47,24.24,0,37.29-17.04,37.29-34.41,0-6.57-2.12-10.73-2.12-11.25,0-3.66,14.1,16.52,3.09,35.11,1.87,3.54,3.73,7.08,5.6,10.63h0Z"/>
        </g>
      </g>
    </g>
  </g>
</svg>