<?xml version="1.0" encoding="UTF-8"?>
<svg id="Layer_2" data-name="Layer 2" xmlns="http://www.w3.org/2000/svg" viewBox="0 0 200 200">
  <defs>
    <style>
      .cls-1 {
        font-family: Poppins-Bold, Poppins;
        font-size: 13px;
        letter-spacing: .05em;
      }

      .cls-1, .cls-2 {
        fill: #f2f2f2;
      }

      .cls-3 {
        fill: #39b54a;
      }

      .cls-4 {
        fill: #635ba9;
      }

      .cls-5 {
        fill: #6159a8;
      }
    </style>
  </defs>
  <g id="Layer_1-2" data-name="Layer 1">
    <g>
      <path class="cls-2" d="M100.02,0C44.86,0,0,44.86,0,100.02s44.86,99.98,100.02,99.98,99.98-44.86,99.98-99.98S155.14,0,100.02,0Z"/>
      <path class="cls-4" d="M138.3,41.11H61.74c-7.24,0-13.12,5.88-13.12,13.12v91.54c0,7.24,5.88,13.12,13.12,13.12h76.56c7.2,0,13.08-5.88,13.08-13.12V54.23c0-7.24-5.88-13.12-13.08-13.12Z"/>
      <path class="cls-5" d="M97.4,114.42c-.14,.05-.25,.08-.38,.11l.74,.87v-1.14c-.11,.05-.22,.11-.35,.16Z"/>
      <g>
        <path class="cls-3" d="M144.67,73.04c0,4.91-2.01,9.37-5.24,12.61-3.24,3.23-7.7,5.24-12.61,5.24h-23v-6.08c0-.79-.32-1.55-.89-2.15-.55-.55-1.28-.85-2.05-.87-.73-.08-1.5,.27-2.09,.84-.66,.66-1.04,1.53-1.04,2.43v5.83h-24.7c-9.81,0-17.85-8.03-17.85-17.85,0-4.91,2.01-9.37,5.25-12.6,3.23-3.24,7.69-5.25,12.6-5.25h53.77c9.82,0,17.85,8.04,17.85,17.85Z"/>
        <path class="cls-2" d="M126.83,53.69h-53.78c-10.67,0-19.35,8.68-19.35,19.35s8.68,19.35,19.35,19.35h24.7v-3h-24.7c-9.01,0-16.35-7.33-16.35-16.35s7.34-16.35,16.35-16.35h53.78c9.01,0,16.34,7.34,16.34,16.35s-7.33,16.35-16.34,16.35h-23.01v3h23.01c10.66,0,19.34-8.68,19.34-19.35s-8.68-19.35-19.34-19.35Z"/>
      </g>
      <text class="cls-1" transform="translate(79.4 77.78)"><tspan x="0" y="0">Plan 1</tspan></text>
      <path class="cls-2" d="M125.5,107.88c-1.66-1.66-4.19-2.34-6.42-1.74-.25-.36-.55-.71-.85-1.04-1.25-1.25-2.91-1.96-4.68-1.96-.33-.95-.87-1.82-1.61-2.56-1.2-1.2-2.75-1.88-4.44-1.96v-13.81c0-1.77-.71-3.46-1.96-4.74-1.23-1.22-2.86-1.91-4.58-1.96-1.74-.03-3.43,.63-4.73,1.88-1.37,1.33-2.16,3.19-2.16,5.07v20.34l-.92-1.12c-2.32-2.69-6.78-3.05-9.45-.76-1.37,1.17-2.21,2.78-2.35,4.58-.13,1.8,.41,3.51,1.45,4.71,.02,.05,3.16,4.66,5.15,11.17,.29,.95,.62,1.88,.98,2.83,1.68,4.52,4.05,9.02,6.86,12.91,.38,.57,.6,1.23,.6,1.96v2.51c0,2.88,2.34,5.23,5.23,5.23h13.51c2.91,0,5.58-1.72,6.78-4.36l4.52-9.97c.6-1.36,.93-2.81,.93-4.3l.02-3.98,.11-14.19c0-1.8-.7-3.46-1.99-4.74Zm-1.79,18.93l-.03,3.95c0,.98-.19,1.93-.6,2.83l-4.52,9.94c-.6,1.34-1.96,2.24-3.43,2.24h-13.51c-.85,0-1.55-.71-1.55-1.58v-2.51c0-1.5-.44-2.91-1.28-4.08-2.35-3.27-4.39-7-5.91-10.79-.55-1.31-1.01-2.61-1.42-3.92-2.18-7.06-5.48-11.93-5.75-12.29-.52-.62-.76-1.41-.68-2.2,.06-.82,.44-1.56,1.04-2.07,.7-.6,1.44-.71,1.96-.71,.9,0,1.74,.38,2.31,1.06l6.67,7.85c.14-.03,.25-.06,.39-.11,.13-.06,.24-.11,.35-.17v-29.19c0-.9,.38-1.77,1.04-2.43,.59-.57,1.36-.92,2.09-.84,.77,.02,1.5,.32,2.05,.87,.57,.6,.89,1.36,.89,2.15v18.47l2.43-.82c1.09-.38,2.29-.08,3.1,.74l.96,4.43,2.28-.68c1.09-.35,2.24-.05,3.03,.74,.35,.38,.62,.84,.76,1.33l.65,2.43,2.13-1.36c1.17-.77,2.78-.58,3.76,.4,.57,.58,.87,1.31,.9,2.13l-.11,14.19Z"/>
    </g>
  </g>
</svg>