<?xml version="1.0" encoding="UTF-8"?>
<svg id="Layer_2" data-name="Layer 2" xmlns="http://www.w3.org/2000/svg" viewBox="0 0 200 200">
  <defs>
    <style>
      .cls-1 {
        fill: #39b54a;
      }

      .cls-2 {
        fill: #635ba9;
      }

      .cls-3 {
        fill: #6159a8;
      }

      .cls-4 {
        fill: #f2f2f2;
      }
    </style>
  </defs>
  <g id="Layer_1-2" data-name="Layer 1">
    <g>
      <g>
        <g>
          <g>
            <path class="cls-4" d="M151.38,54.23v91.54c0,7.24-5.88,13.12-13.08,13.12H61.74c-7.24,0-13.12-5.88-13.12-13.12V54.23c0-7.24,5.88-13.12,13.12-13.12h76.56c7.2,0,13.08,5.88,13.08,13.12Z"/>
            <path class="cls-4" d="M100.02,0C44.86,0,0,44.86,0,100.02s44.86,99.98,100.02,99.98,99.98-44.86,99.98-99.98S155.14,0,100.02,0Zm51.36,145.77c0,7.24-5.88,13.12-13.08,13.12H61.74c-7.24,0-13.12-5.88-13.12-13.12V54.23c0-7.24,5.88-13.12,13.12-13.12h76.56c7.2,0,13.08,5.88,13.08,13.12v91.54Z"/>
          </g>
          <path class="cls-3" d="M138.3,41.11H61.74c-7.24,0-13.12,5.88-13.12,13.12v91.54c0,7.24,5.88,13.12,13.12,13.12h76.56c7.2,0,13.08-5.88,13.08-13.12V54.23c0-7.24-5.88-13.12-13.08-13.12Zm5.34,104.66c0,2.98-2.4,5.38-5.34,5.38H61.74c-2.94,0-5.38-2.4-5.38-5.38V54.23c0-2.94,2.44-5.38,5.38-5.38h76.56c2.94,0,5.34,2.44,5.34,5.38v91.54Z"/>
          <path class="cls-3" d="M133.83,85.64H66.12c-1.82,0-3.29-1.47-3.29-3.29s1.47-3.29,3.29-3.29h67.71c1.82,0,3.29,1.47,3.29,3.29s-1.47,3.29-3.29,3.29Z"/>
          <rect class="cls-2" x="89.57" y="60.74" width="47.38" height="6.58" rx="3.29" ry="3.29"/>
          <path class="cls-3" d="M133.83,101.05H66.12c-1.82,0-3.29-1.47-3.29-3.29s1.47-3.29,3.29-3.29h67.71c1.82,0,3.29,1.47,3.29,3.29s-1.47,3.29-3.29,3.29Z"/>
          <path class="cls-3" d="M133.83,116.46H66.12c-1.82,0-3.29-1.47-3.29-3.29s1.47-3.29,3.29-3.29h67.71c1.82,0,3.29,1.47,3.29,3.29s-1.47,3.29-3.29,3.29Z"/>
          <path class="cls-3" d="M133.83,131.87H66.12c-1.82,0-3.29-1.47-3.29-3.29s1.47-3.29,3.29-3.29h67.71c1.82,0,3.29,1.47,3.29,3.29s-1.47,3.29-3.29,3.29Z"/>
        </g>
        <g>
          <g>
            <circle class="cls-1" cx="138.24" cy="142.29" r="17.83"/>
            <path class="cls-4" d="M138.24,162.06c-10.9,0-19.77-8.87-19.77-19.77s8.87-19.77,19.77-19.77,19.77,8.87,19.77,19.77-8.87,19.77-19.77,19.77Zm0-35.66c-8.77,0-15.89,7.13-15.89,15.89s7.13,15.89,15.89,15.89,15.89-7.13,15.89-15.89-7.13-15.89-15.89-15.89Z"/>
          </g>
          <g>
            <path class="cls-4" d="M136.5,150.53c-.48,0-.93-.19-1.27-.52l-5.39-5.4c-.86-.86-.87-2.27,0-3.13,.42-.42,.98-.65,1.57-.65s1.15,.23,1.57,.65l3.53,3.53,8.62-8.62c.42-.42,.98-.65,1.57-.65s1.15,.23,1.57,.65c.42,.42,.65,.98,.65,1.57s-.23,1.15-.65,1.57l-10.49,10.49c-.34,.34-.79,.53-1.27,.53Z"/>
            <path class="cls-4" d="M136.95,149.18c-.25,.25-.65,.25-.89,0l-5.39-5.39c-.41-.41-.41-1.08,0-1.49,.41-.41,1.08-.41,1.49,0l3.9,3.9c.25,.25,.65,.25,.89,0l9-9c.41-.41,1.08-.41,1.49,0,.41,.41,.41,1.08,0,1.49l-10.49,10.49Z"/>
          </g>
        </g>
      </g>
      <rect class="cls-4" x="70.7" y="77.52" width="2.56" height="55.59"/>
      <rect class="cls-3" x="62.49" y="54.53" width="18.99" height="18.99" rx="9.49" ry="9.49"/>
    </g>
  </g>
</svg>