<?xml version="1.0" encoding="UTF-8"?>
<svg id="Layer_2" data-name="Layer 2" xmlns="http://www.w3.org/2000/svg" viewBox="0 0 200 200">
  <defs>
    <style>
      .cls-1 {
        fill: #39b54a;
      }

      .cls-2 {
        fill: #635ba9;
      }

      .cls-3 {
        fill: #2c246e;
      }

      .cls-4 {
        fill: #9cdaa4;
      }

      .cls-5 {
        fill: #fff;
        font-family: Poppins-Bold, Poppins;
        font-size: 10px;
      }

      .cls-6 {
        fill: #f2f2f2;
      }
    </style>
  </defs>
  <g id="Layer_1-2" data-name="Layer 1">
    <g>
      <path class="cls-6" d="M100.02,0C44.86,0,0,44.86,0,100.02s44.86,99.98,100.02,99.98,99.98-44.86,99.98-99.98S155.14,0,100.02,0Z"/>
      <path class="cls-2" d="M138.3,41.11H61.74c-7.24,0-13.12,5.88-13.12,13.12v91.54c0,7.24,5.88,13.12,13.12,13.12h76.56c7.2,0,13.08-5.88,13.08-13.12V54.23c0-7.24-5.88-13.12-13.08-13.12Z"/>
      <text class="cls-5" transform="translate(57.59 145.23)"><tspan x="0" y="0">Congratulations</tspan></text>
      <g>
        <polygon class="cls-1" points="139.6 128.28 128.31 124.33 136.85 120.36 139.6 128.28"/>
        <polygon class="cls-6" points="106.68 95.8 122.73 79.67 125.31 87.12 106.68 95.8"/>
        <polygon class="cls-1" points="125.31 87.12 128.2 95.43 92.81 111.92 91.21 111.36 106.68 95.8 125.31 87.12"/>
        <polygon class="cls-6" points="131.08 103.74 104.64 116.06 92.81 111.92 128.2 95.43 131.08 103.74"/>
        <polygon class="cls-1" points="133.97 112.05 116.48 120.2 104.64 116.06 131.08 103.74 133.97 112.05"/>
        <polygon class="cls-6" points="133.97 112.05 136.85 120.36 128.31 124.33 116.48 120.2 133.97 112.05"/>
        <path class="cls-3" d="M100.15,88.95c-8.91,8.76-13.5,18.45-10.27,21.63,3.24,3.18,13.08-1.34,21.99-10.1,8.91-8.76,13.5-18.45,10.27-21.63-3.23-3.18-13.08,1.34-21.98,10.1Z"/>
        <path class="cls-1" d="M111.23,66.87c2.15-2.99-.18-4.32-3.05-3.79,2.72-3.35,1.04-5.67-3.25-4.76-1.34,.29,.53,2.55,1.73,2.47-3.61,2.7-1.63,5.56,2.19,4.89-3.38,4.64,2.43,3.5,4.97,3.69,.66,3.47-3.3,7.43-1.98,7.43,2.96,0,7.66-10.96-.61-9.93Z"/>
        <path class="cls-6" d="M83.44,73.28c1.95,.88,7.53-7.85,.69-7.92,3.93-3.57,3.42-5.29-1.85-5.4,6.04-6.05-3.5-8.24-4.51-5-.3,.97,2.92-.86,3.97,.88,1.21,2.01-7.43,7.08,1.49,6.78-3.28,3.34-3.48,4.9,1.75,5.46-.68,.95-2.79,4.64-1.55,5.2Z"/>
        <path class="cls-4" d="M81.22,93.87l-2.01-1.7s-1.9,2.74-3.23,3.78c-1.02-4.7-.75-7.56-6.23-4.3,3.1-8.18-2.01-5.09-6.83-2.87,.28-2.08-.04-1.86-2.13-2.44-1.85,6.95,3.13,4.94,7.19,2.66-2.33,6.27,.11,5.99,5.19,3.84,.09,2.66,.96,5.68,2.55,5.93,1.82,.29,5.49-4.89,5.49-4.89Z"/>
        <path class="cls-6" d="M96.02,74.23c2.44,3.17,6.15,4.94,8.97,7.72,2.93,2.89,4.68,10.84,4.68,10.84,0,0-1.05-8.29-3.85-11.48-2.53-2.88-6.16-4.99-8.12-8.34-3.51-6-.38-14.03,4.1-18.62-.94-.84-2.19-1.9-2.94-2.63-4.21,5.41-7.96,15.85-2.84,22.51Z"/>
        <path class="cls-6" d="M91.97,81c3.49,2.51,5.89,6.15,8.32,9.62,2.15,3.06,8.86,6.82,8.86,6.82,0,0-6.38-4.3-8.27-7.52-2.33-3.97-4.72-8.06-8.42-10.93-7.4-5.74-18.06-5.09-26.43-2.08,.48,1.21,1.46,3.71,1.46,3.71,0,0,17.42-4.69,24.47,.37Z"/>
        <path class="cls-1" d="M77.23,80.39c2.22,2.94,3.36,6.5,5.06,9.73,1.58,3.01,3.67,5.93,6.77,7.53,3.37,1.74,10.99,1.15,10.99,1.15,0,0-7.58-.09-10.7-2.19-3.18-2.15-4.85-5.77-6.09-9.27-2.33-6.54-5.25-13.69-12.14-16.6-.46,1.25-1.38,3.74-1.38,3.74,0,0,3.79,1.01,7.49,5.92Z"/>
        <rect class="cls-1" x="131.62" y="63.95" width="5.28" height="5.28" transform="translate(-7.77 114.42) rotate(-44.99)"/>
        <rect class="cls-6" x="126.41" y="75.74" width="5.28" height="5.28" transform="translate(-17.62 114.21) rotate(-45)"/>
        <rect class="cls-4" x="116.87" y="58.09" width="5.28" height="5.28" transform="translate(-7.94 102.28) rotate(-44.99)"/>
        <rect class="cls-6" x="76.22" y="102.75" width="5.28" height="5.28" transform="translate(-51.42 86.63) rotate(-45)"/>
        <rect class="cls-4" x="84.55" y="115.55" width="5.28" height="5.28" transform="translate(-58.04 96.27) rotate(-45)"/>
        <rect class="cls-6" x="68.17" y="118.5" width="5.28" height="5.28" transform="translate(-64.92 85.56) rotate(-45)"/>
        <rect class="cls-1" x="64.44" y="101.49" width="5.28" height="5.28" transform="translate(-53.99 77.93) rotate(-45)"/>
        <rect class="cls-1" x="70.67" y="62.05" width="5.28" height="5.28" transform="translate(-24.27 70.78) rotate(-45)"/>
        <rect class="cls-4" x="110.72" y="84.49" width="5.28" height="5.28" transform="translate(-28.41 105.68) rotate(-45)"/>
      </g>
    </g>
  </g>
</svg>