<?xml version="1.0" encoding="UTF-8"?>
<svg id="Layer_2" data-name="Layer 2" xmlns="http://www.w3.org/2000/svg" viewBox="0 0 200 200">
  <defs>
    <style>
      .cls-1 {
        fill: none;
        stroke: #fff;
        stroke-linecap: round;
        stroke-miterlimit: 10;
        stroke-width: 3.89px;
      }

      .cls-2 {
        fill: #635ba9;
      }

      .cls-3 {
        fill: #fff;
        font-family: Poppins-Bold, Poppins;
        font-size: 10px;
      }

      .cls-4 {
        fill: #6159a8;
      }

      .cls-5 {
        fill: #61c46e;
      }

      .cls-6 {
        fill: #f2f2f2;
      }
    </style>
  </defs>
  <g id="Layer_1-2" data-name="Layer 1">
    <g>
      <circle class="cls-6" cx="100" cy="100" r="100"/>
      <path class="cls-2" d="M138.3,41.11H61.74c-7.24,0-13.12,5.88-13.12,13.12v91.54c0,7.24,5.88,13.12,13.12,13.12h76.56c7.2,0,13.08-5.88,13.08-13.12V54.23c0-7.24-5.88-13.12-13.08-13.12Z"/>
      <g>
        <path class="cls-6" d="M77.77,97.58c-1.83,1.89-3.35,4.09-4.45,6.49-.98,2.13-1.66,4.4-1.99,6.72-.05,.59-.12,1.17-.17,1.75,0,.59-.04,1.16-.04,1.78v1.86l-6.08,.02c-.95,0-1.83-.39-2.45-1.02s-1.02-1.49-1.02-2.44c0-7.01,3.35-13.27,8.53-17.27,1.02-.79,2.43-.81,3.48-.07,1.27,.9,2.68,1.64,4.19,2.16Z"/>
        <path class="cls-6" d="M84.9,91.21c-1.05-.85-1.98-1.84-2.77-2.94-2.02-2.77-3.14-6.21-3.02-9.89,.07-2.2,.59-4.29,1.49-6.16,.75-1.62,1.75-3.11,2.99-4.36-7.58-.12-13.88,5.86-14.13,13.45-.16,4.48,1.84,8.55,5.04,11.19,1.47,1.21,3.17,2.13,5.05,2.67,.5-.48,.98-.91,1.46-1.29,.19-.18,.39-.34,.58-.5,.52-.4,1-.75,1.49-1.09,.64-.43,1.46-.53,2.19-.27,.01,.01,.64,.24,1.62,.58-.7-.41-1.37-.88-1.98-1.4Z"/>
        <path class="cls-6" d="M108.89,92.62c.98-.34,1.61-.57,1.62-.58,.73-.27,1.55-.17,2.19,.27,.48,.34,.97,.69,1.49,1.09,.19,.16,.39,.31,.58,.5,.48,.39,.97,.81,1.46,1.29,1.89-.54,3.58-1.46,5.05-2.67,3.2-2.65,5.2-6.71,5.04-11.19-.25-7.59-6.55-13.57-14.13-13.45,1.23,1.26,2.24,2.74,2.99,4.36,.89,1.87,1.41,3.96,1.49,6.16,.12,3.67-1,7.12-3.02,9.89-.79,1.1-1.72,2.09-2.77,2.94-.62,.52-1.28,.99-1.98,1.4Z"/>
        <path class="cls-6" d="M112.31,72c-2.47-5.61-8.06-9.52-14.58-9.52-4.7,0-8.92,2.03-11.83,5.27-1.18,1.31-2.14,2.82-2.84,4.46-.82,1.91-1.27,4.01-1.27,6.21,0,3.69,1.25,7.08,3.35,9.78,.82,1.08,1.79,2.03,2.86,2.85,1.52,1.17,3.25,2.08,5.12,2.65,1.46,.45,3.01,.68,4.61,.68,3.67,0,7.03-1.23,9.72-3.32,.99-.76,1.9-1.64,2.68-2.63,2.22-2.73,3.53-6.2,3.53-10,0-2.28-.48-4.45-1.35-6.42Z"/>
        <path class="cls-6" d="M118,97.58c1.83,1.89,3.35,4.09,4.45,6.49,.98,2.13,1.66,4.4,1.99,6.72,.05,.59,.12,1.17,.17,1.75,0,.59,.04,1.16,.04,1.78v1.86s6.08,.02,6.08,.02c.95,0,1.83-.39,2.45-1.02s1.02-1.49,1.02-2.44c0-7.01-3.35-13.27-8.53-17.27-1.02-.79-2.43-.81-3.48-.07-1.27,.9-2.68,1.64-4.19,2.16Z"/>
        <path class="cls-6" d="M121.51,112.29c-.05-.58-.12-1.16-.17-1.75-.34-2.32-1.02-4.59-1.99-6.72-1.1-2.41-2.62-4.61-4.45-6.49-.64-.66-1.31-1.29-2.02-1.86-.18-.17-.36-.31-.54-.46,0,0,0,0-.01,0-.78-.6-1.81-.76-2.73-.43-.34,.12-.72,.25-1.15,.39-2.88,.97-5.7,2-8.75,2.3-.65,.07-1.31,.1-1.97,.11-.66-.01-1.31-.05-1.97-.11-3.05-.31-5.87-1.33-8.75-2.3-.42-.14-.81-.28-1.15-.39-.93-.32-1.96-.17-2.73,.43,0,0,0,0-.01,0-.18,.15-.36,.29-.54,.46-.71,.57-1.38,1.2-2.02,1.86-1.83,1.89-3.35,4.09-4.45,6.49-.98,2.13-1.66,4.4-1.99,6.72-.05,.59-.12,1.17-.17,1.75,0,.59-.04,1.16-.04,1.78v2.02l23.82-.11,23.82,.11v-2.02c0-.62-.04-1.18-.04-1.78Z"/>
        <g>
          <g>
            <path class="cls-5" d="M132.49,123.53c-3.72,0-7.23-1.45-9.86-4.08-5.44-5.44-5.44-14.28,0-19.72,2.63-2.63,6.13-4.08,9.86-4.08s7.23,1.45,9.86,4.08c2.63,2.63,4.08,6.13,4.08,9.86s-1.45,7.23-4.08,9.86c-2.63,2.63-6.13,4.08-9.86,4.08Z"/>
            <path class="cls-4" d="M132.49,97.64c3.06,0,6.11,1.17,8.44,3.5,4.66,4.66,4.66,12.23,0,16.89-2.33,2.33-5.39,3.5-8.44,3.5s-6.11-1.17-8.44-3.5c-4.66-4.66-4.66-12.23,0-16.89,2.33-2.33,5.39-3.5,8.44-3.5m0-4c-4.26,0-8.26,1.66-11.27,4.67-6.22,6.22-6.22,16.33,0,22.55,3.01,3.01,7.01,4.67,11.27,4.67s8.26-1.66,11.27-4.67c6.22-6.22,6.22-16.33,0-22.55-3.01-3.01-7.01-4.67-11.27-4.67h0Z"/>
          </g>
          <g>
            <line class="cls-1" x1="138.97" y1="109.59" x2="126" y2="109.59"/>
            <line class="cls-1" x1="132.49" y1="103.1" x2="132.49" y2="116.07"/>
          </g>
        </g>
      </g>
      <text class="cls-3" transform="translate(74.45 141.53)"><tspan x="0" y="0">My team 1</tspan></text>
    </g>
  </g>
</svg>