<?xml version="1.0" encoding="UTF-8"?>
<svg id="Layer_2" data-name="Layer 2" xmlns="http://www.w3.org/2000/svg" xmlns:xlink="http://www.w3.org/1999/xlink" viewBox="0 0 200 200">
  <defs>
    <style>
      .cls-1 {
        fill: #39b54a;
      }

      .cls-2 {
        fill: #635ba9;
      }

      .cls-3 {
        opacity: .1;
      }

      .cls-4 {
        clip-path: url(#clippath);
      }

      .cls-5, .cls-6, .cls-7 {
        fill: none;
      }

      .cls-6 {
        stroke: #39b54a;
        stroke-width: 6px;
      }

      .cls-6, .cls-7 {
        stroke-miterlimit: 10;
      }

      .cls-8 {
        fill: #6159a8;
        font-family: Poppins-Bold, Poppins;
        font-size: 16.98px;
      }

      .cls-9 {
        fill: #f2f2f2;
      }

      .cls-7 {
        stroke: #f2f2f2;
        stroke-width: 10px;
      }
    </style>
    <clipPath id="clippath">
      <circle id="SVGID" class="cls-5" cx="99.26" cy="96.87" r="25.72"/>
    </clipPath>
  </defs>
  <g id="Layer_1-2" data-name="Layer 1">
    <g>
      <g>
        <g>
          <path class="cls-9" d="M151.38,54.23v91.54c0,7.24-5.88,13.12-13.08,13.12H61.74c-7.24,0-13.12-5.88-13.12-13.12V54.23c0-7.24,5.88-13.12,13.12-13.12h76.56c7.2,0,13.08,5.88,13.08,13.12Z"/>
          <path class="cls-9" d="M100.02,0C44.86,0,0,44.86,0,100.02s44.86,99.98,100.02,99.98,99.98-44.86,99.98-99.98S155.14,0,100.02,0Zm51.36,145.77c0,7.24-5.88,13.12-13.08,13.12H61.74c-7.24,0-13.12-5.88-13.12-13.12V54.23c0-7.24,5.88-13.12,13.12-13.12h76.56c7.2,0,13.08,5.88,13.08,13.12v91.54Z"/>
        </g>
        <path class="cls-2" d="M138.3,41.11H61.74c-7.24,0-13.12,5.88-13.12,13.12v91.54c0,7.24,5.88,13.12,13.12,13.12h76.56c7.2,0,13.08-5.88,13.08-13.12V54.23c0-7.24-5.88-13.12-13.08-13.12Zm5.34,104.66c0,2.98-2.4,5.38-5.34,5.38H61.74c-2.94,0-5.38-2.4-5.38-5.38V54.23c0-2.94,2.44-5.38,5.38-5.38h76.56c2.94,0,5.34,2.44,5.34,5.38v91.54Z"/>
        <path class="cls-2" d="M133.83,85.64H66.12c-1.82,0-3.29-1.47-3.29-3.29s1.47-3.29,3.29-3.29h67.71c1.82,0,3.29,1.47,3.29,3.29s-1.47,3.29-3.29,3.29Z"/>
        <rect class="cls-2" x="89.57" y="60.74" width="47.38" height="6.58" rx="3.29" ry="3.29"/>
        <path class="cls-2" d="M133.83,101.05H66.12c-1.82,0-3.29-1.47-3.29-3.29s1.47-3.29,3.29-3.29h67.71c1.82,0,3.29,1.47,3.29,3.29s-1.47,3.29-3.29,3.29Z"/>
        <path class="cls-2" d="M133.83,116.46H66.12c-1.82,0-3.29-1.47-3.29-3.29s1.47-3.29,3.29-3.29h67.71c1.82,0,3.29,1.47,3.29,3.29s-1.47,3.29-3.29,3.29Z"/>
        <path class="cls-2" d="M133.83,131.87H66.12c-1.82,0-3.29-1.47-3.29-3.29s1.47-3.29,3.29-3.29h67.71c1.82,0,3.29,1.47,3.29,3.29s-1.47,3.29-3.29,3.29Z"/>
      </g>
      <rect class="cls-2" x="62.49" y="54.53" width="18.99" height="18.99" rx="9.49" ry="9.49"/>
      <path class="cls-3" d="M132.53,48.85H67.5c-11.05,0-11.14,.88-11.14,11.4v79.51c0,10.77,.31,11.4,11.14,11.4h65.03c9.94,0,11.11,.34,11.11-11.4V60.24c0-11.36-.88-11.4-11.11-11.4Z"/>
      <g>
        <g>
          <circle class="cls-9" cx="99.26" cy="96.87" r="28.71"/>
          <circle class="cls-7" cx="99.26" cy="97.57" r="28.71"/>
          <circle class="cls-6" cx="99.26" cy="96.87" r="28.71"/>
        </g>
        <g>
          <path class="cls-9" d="M131.42,144.21c-1.82,0-3.52-.81-4.66-2.22l-12.82-15.79,1.55-1.26,12.82,15.79c.76,.94,1.9,1.48,3.11,1.48,.93,0,1.8-.31,2.52-.9,1.71-1.39,1.97-3.92,.58-5.63l-12.69-15.62,1.55-1.26,12.69,15.62c2.09,2.57,1.69,6.35-.87,8.44-1.07,.87-2.41,1.34-3.78,1.34Z"/>
          <path class="cls-9" d="M122.6,119.44l12.69,15.62c1.74,2.14,1.42,5.29-.73,7.03-.93,.75-2.04,1.12-3.15,1.12-1.45,0-2.9-.63-3.88-1.85l-12.82-15.79"/>
        </g>
        <path class="cls-1" d="M119.18,117.61l14.95,18.4c.59,.73,.86,1.64,.76,2.57-.1,.93-.55,1.77-1.28,2.36-.62,.5-1.4,.78-2.2,.78-1.06,0-2.05-.47-2.72-1.29l-14.95-18.4"/>
        <g class="cls-4">
          <path class="cls-9" d="M159.07,103.43H40.88c-3.17,0-5.74-2.57-5.74-5.74s2.57-5.74,5.74-5.74h118.19c3.17,0,5.74,2.57,5.74,5.74s-2.57,5.74-5.74,5.74Z"/>
          <text class="cls-8" transform="translate(30.92 102.81)"><tspan x="0" y="0">ReviReview</tspan></text>
          <text class="cls-8" transform="translate(72.92 79.65)"><tspan x="0" y="0">Name</tspan></text>
          <text class="cls-8" transform="translate(72.92 129.66)"><tspan x="0" y="0">Address</tspan></text>
        </g>
      </g>
    </g>
  </g>
</svg>