<?xml version="1.0" encoding="UTF-8"?>
<svg xmlns="http://www.w3.org/2000/svg" viewBox="0 0 200 200">
  <defs>
    <style>
      .cls-1 {
        opacity: .92;
      }

      .cls-1, .cls-2, .cls-3, .cls-4, .cls-5, .cls-6, .cls-7, .cls-8, .cls-9, .cls-10, .cls-11, .cls-12, .cls-13, .cls-14, .cls-15, .cls-16, .cls-17, .cls-18, .cls-19, .cls-20, .cls-21, .cls-22, .cls-23, .cls-24, .cls-25, .cls-26 {
        fill: #fff;
      }

      .cls-2 {
        opacity: .72;
      }

      .cls-4 {
        opacity: .72;
      }

      .cls-5 {
        opacity: .63;
      }

      .cls-6 {
        opacity: .68;
      }

      .cls-27, .cls-28 {
        stroke: #fff;
        stroke-miterlimit: 10;
      }

      .cls-27, .cls-29 {
        fill: #39b54a;
      }

      .cls-28 {
        fill: none;
      }

      .cls-30 {
        mix-blend-mode: overlay;
        opacity: .2;
      }

      .cls-31 {
        fill: #e51f76;
      }

      .cls-32 {
        isolation: isolate;
      }

      .cls-7 {
        opacity: .96;
      }

      .cls-8 {
        opacity: .8;
      }

      .cls-9 {
        opacity: .73;
      }

      .cls-10 {
        opacity: .96;
      }

      .cls-33 {
        fill: #635ba9;
      }

      .cls-11 {
        opacity: .73;
      }

      .cls-12 {
        opacity: .93;
      }

      .cls-13 {
        opacity: .76;
      }

      .cls-14 {
        opacity: .69;
      }

      .cls-15 {
        opacity: .77;
      }

      .cls-16 {
        opacity: .65;
      }

      .cls-17 {
        opacity: .69;
      }

      .cls-34 {
        fill: #6159a8;
      }

      .cls-18 {
        opacity: .8;
      }

      .cls-19 {
        opacity: .81;
      }

      .cls-20 {
        opacity: .91;
      }

      .cls-21 {
        opacity: .75;
      }

      .cls-22 {
        opacity: .99;
      }

      .cls-23 {
        opacity: .72;
      }

      .cls-35 {
        fill: #f2f2f2;
      }

      .cls-24 {
        opacity: .89;
      }

      .cls-25 {
        opacity: .94;
      }

      .cls-26 {
        opacity: .79;
      }
    </style>
  </defs>
  <g class="cls-32">
    <g id="Layer_2" data-name="Layer 2">
      <g id="Layer_1-2" data-name="Layer 1">
        <g>
          <path class="cls-35" d="M100.02,0C44.86,0,0,44.86,0,100.02s44.86,99.98,100.02,99.98,99.98-44.86,99.98-99.98S155.14,0,100.02,0Z"/>
          <g>
            <path class="cls-33" d="M138.3,41.11H61.74c-7.24,0-13.12,5.88-13.12,13.12v91.54c0,7.24,5.88,13.12,13.12,13.12h76.56c7.2,0,13.08-5.88,13.08-13.12V54.23c0-7.24-5.88-13.12-13.08-13.12Z"/>
            <g>
              <path class="cls-24" d="M59.55,117.92c.01,.24-.09,.46-.25,.61-.14,.13-.32,.2-.52,.2s-.39-.08-.53-.21c-.15-.14-.25-.34-.25-.57,0-.44,.37-.8,.82-.78,.4,.02,.72,.35,.74,.74Zm0,.73s-.11-.03-.16,.01c-.16,.14-.38,.23-.61,.23s-.46-.09-.63-.24c-.04-.04-.11-.05-.16-.02-.07,.04-.13,.09-.19,.15-.19,.19-.31,.46-.31,.75,0,.14,.12,.25,.25,.25h2.03c.07,0,.13-.03,.18-.07,.05-.05,.07-.11,.07-.18,0-.37-.19-.69-.48-.88Zm.55,1.62s-.03-.07-.07-.07h-2.53s-.07,.03-.07,.07,.03,.07,.07,.07h2.53s.07-.03,.07-.07Zm0,1.18s-.03-.07-.07-.07h-2.53s-.07,.03-.07,.07,.03,.07,.07,.07h2.53s.07-.03,.07-.07Zm0-.78s-.03-.07-.07-.07h-.98s-.07,.03-.07,.07,.03,.07,.07,.07h.98s.07-.03,.07-.07Zm-1.6,0s-.03-.07-.07-.07h-.94s-.07,.03-.07,.07,.03,.07,.07,.07h.94s.07-.03,.07-.07Zm1.6,.39s-.03-.07-.07-.07h-.98s-.07,.03-.07,.07,.03,.07,.07,.07h.98s.07-.03,.07-.07Zm-1.6,0s-.03-.07-.07-.07h-.94s-.07,.03-.07,.07,.03,.07,.07,.07h.94s.07-.03,.07-.07Zm2.82,.65v-4.49c0-.38-.31-.69-.69-.69h-3.75c-.38,0-.69,.31-.69,.69v4.49c0,.38,.31,.69,.69,.69h3.75c.38,0,.69-.31,.69-.69Zm-.69-5.03c.3,0,.54,.24,.54,.54v4.49c0,.3-.24,.54-.54,.54h-3.75c-.3,0-.54-.24-.54-.54v-4.49c0-.3,.24-.54,.54-.54h3.75Z"/>
              <path class="cls-2" d="M65.83,72.33c.03,.72-.27,1.37-.76,1.81-.41,.37-.95,.6-1.55,.6s-1.16-.24-1.57-.62c-.45-.42-.73-1.02-.73-1.68,0-1.31,1.09-2.36,2.41-2.3,1.18,.05,2.14,1.03,2.19,2.2Zm-.02,2.16c-.15-.1-.34-.07-.47,.04-.49,.42-1.12,.67-1.81,.67s-1.36-.27-1.85-.71c-.13-.12-.32-.14-.47-.05-.21,.13-.4,.28-.57,.45-.57,.57-.92,1.36-.91,2.22,0,.4,.34,.73,.75,.73h6.01c.21,0,.39-.08,.53-.22,.14-.14,.22-.32,.22-.53,0-1.09-.56-2.05-1.41-2.6Zm1.63,4.8c0-.12-.1-.22-.22-.22h-7.51c-.12,0-.22,.1-.22,.22s.1,.22,.22,.22h7.51c.12,0,.22-.1,.22-.22Zm0,3.5c0-.12-.1-.22-.22-.22h-7.51c-.12,0-.22,.1-.22,.22s.1,.22,.22,.22h7.51c.12,0,.22-.1,.22-.22Zm0-2.3c0-.12-.1-.22-.22-.22h-2.92c-.12,0-.22,.1-.22,.22s.1,.22,.22,.22h2.92c.12,0,.22-.1,.22-.22Zm-4.73,0c0-.12-.1-.22-.22-.22h-2.77c-.12,0-.22,.1-.22,.22s.1,.22,.22,.22h2.77c.12,0,.22-.1,.22-.22Zm4.73,1.15c0-.12-.1-.22-.22-.22h-2.92c-.12,0-.22,.1-.22,.22s.1,.22,.22,.22h2.92c.12,0,.22-.1,.22-.22Zm-4.73,0c0-.12-.1-.22-.22-.22h-2.77c-.12,0-.22,.1-.22,.22s.1,.22,.22,.22h2.77c.12,0,.22-.1,.22-.22Zm8.36,1.92v-13.3c0-1.13-.92-2.05-2.05-2.05h-11.1c-1.13,0-2.05,.92-2.05,2.05v13.3c0,1.13,.92,2.05,2.05,2.05h11.1c1.13,0,2.05-.92,2.05-2.05Zm-2.05-14.9c.89,0,1.61,.72,1.61,1.61v13.3c0,.89-.72,1.61-1.61,1.61h-11.1c-.89,0-1.61-.72-1.61-1.61v-13.3c0-.89,.72-1.61,1.61-1.61h11.1Z"/>
              <path class="cls-15" d="M119.16,85.63c.01,.27-.1,.5-.28,.67-.15,.14-.35,.22-.57,.22s-.43-.09-.58-.23c-.17-.16-.27-.38-.27-.62,0-.48,.4-.87,.89-.85,.44,.02,.79,.38,.81,.81Zm0,.8c-.05-.04-.13-.03-.18,.02-.18,.16-.41,.25-.67,.25s-.5-.1-.69-.26c-.05-.04-.12-.05-.17-.02-.08,.05-.15,.1-.21,.17-.21,.21-.34,.5-.34,.82,0,.15,.13,.27,.28,.27h2.22c.08,0,.15-.03,.2-.08,.05-.05,.08-.12,.08-.2,0-.4-.21-.76-.52-.96Zm.6,1.78s-.04-.08-.08-.08h-2.78s-.08,.04-.08,.08,.04,.08,.08,.08h2.78s.08-.04,.08-.08Zm0,1.3s-.04-.08-.08-.08h-2.78s-.08,.04-.08,.08,.04,.08,.08,.08h2.78s.08-.04,.08-.08Zm0-.85s-.04-.08-.08-.08h-1.08s-.08,.04-.08,.08,.04,.08,.08,.08h1.08s.08-.04,.08-.08Zm-1.75,0s-.04-.08-.08-.08h-1.03s-.08,.04-.08,.08,.04,.08,.08,.08h1.03s.08-.04,.08-.08Zm1.75,.43s-.04-.08-.08-.08h-1.08s-.08,.04-.08,.08,.04,.08,.08,.08h1.08s.08-.04,.08-.08Zm-1.75,0s-.04-.08-.08-.08h-1.03s-.08,.04-.08,.08,.04,.08,.08,.08h1.03s.08-.04,.08-.08Zm3.09,.71v-4.92c0-.42-.34-.76-.76-.76h-4.11c-.42,0-.76,.34-.76,.76v4.92c0,.42,.34,.76,.76,.76h4.11c.42,0,.76-.34,.76-.76Zm-.76-5.51c.33,0,.6,.27,.6,.6v4.92c0,.33-.27,.6-.6,.6h-4.11c-.33,0-.6-.27-.6-.6v-4.92c0-.33,.27-.6,.6-.6h4.11Z"/>
              <path class="cls-19" d="M140.8,100.41c.03,.63-.23,1.2-.66,1.58-.36,.33-.83,.52-1.36,.52s-1.02-.21-1.38-.55c-.39-.37-.64-.89-.64-1.47,0-1.15,.96-2.07,2.12-2.02,1.03,.05,1.88,.9,1.92,1.93Zm-.02,1.9c-.13-.08-.3-.07-.42,.04-.43,.37-.98,.59-1.59,.59s-1.19-.24-1.62-.62c-.11-.1-.28-.12-.41-.04-.18,.11-.35,.25-.5,.4-.5,.5-.81,1.19-.8,1.94,0,.35,.3,.64,.66,.64h5.27c.18,0,.35-.07,.46-.19,.12-.12,.19-.28,.19-.46,0-.95-.49-1.79-1.24-2.28Zm1.43,4.21c0-.11-.09-.19-.19-.19h-6.58c-.11,0-.19,.09-.19,.19s.09,.19,.19,.19h6.58c.11,0,.19-.09,.19-.19Zm0,3.07c0-.11-.09-.19-.19-.19h-6.58c-.11,0-.19,.09-.19,.19s.09,.19,.19,.19h6.58c.11,0,.19-.09,.19-.19Zm0-2.02c0-.11-.09-.19-.19-.19h-2.56c-.11,0-.19,.09-.19,.19s.09,.19,.19,.19h2.56c.11,0,.19-.09,.19-.19Zm-4.15,0c0-.11-.09-.19-.19-.19h-2.43c-.11,0-.19,.09-.19,.19s.09,.19,.19,.19h2.43c.11,0,.19-.09,.19-.19Zm4.15,1.01c0-.11-.09-.19-.19-.19h-2.56c-.11,0-.19,.09-.19,.19s.09,.19,.19,.19h2.56c.11,0,.19-.09,.19-.19Zm-4.15,0c0-.11-.09-.19-.19-.19h-2.43c-.11,0-.19,.09-.19,.19s.09,.19,.19,.19h2.43c.11,0,.19-.09,.19-.19Zm7.33,1.68v-11.65c0-.99-.8-1.79-1.79-1.79h-9.73c-.99,0-1.79,.8-1.79,1.79v11.65c0,.99,.8,1.79,1.79,1.79h9.73c.99,0,1.79-.8,1.79-1.79Zm-1.79-13.06c.78,0,1.41,.63,1.41,1.41v11.65c0,.78-.63,1.41-1.41,1.41h-9.73c-.78,0-1.41-.63-1.41-1.41v-11.65c0-.78,.63-1.41,1.41-1.41h9.73Z"/>
              <path class="cls-10" d="M66.69,49.77c.02,.53-.2,1.02-.56,1.35-.31,.28-.71,.45-1.15,.45s-.87-.18-1.17-.46c-.33-.31-.54-.76-.54-1.25,0-.98,.81-1.76,1.8-1.71,.88,.04,1.6,.76,1.63,1.64Zm-.01,1.61c-.11-.07-.25-.06-.35,.03-.36,.31-.84,.5-1.35,.5s-1.01-.2-1.38-.53c-.1-.09-.24-.11-.35-.04-.15,.1-.3,.21-.42,.34-.42,.42-.69,1.01-.68,1.65,0,.3,.26,.54,.56,.54h4.47c.15,0,.29-.06,.39-.16,.1-.1,.16-.24,.16-.39,0-.81-.42-1.52-1.05-1.94Zm1.22,3.58c0-.09-.07-.16-.16-.16h-5.59c-.09,0-.16,.07-.16,.16s.07,.16,.16,.16h5.59c.09,0,.16-.07,.16-.16Zm0,2.61c0-.09-.07-.16-.16-.16h-5.59c-.09,0-.16,.07-.16,.16s.07,.16,.16,.16h5.59c.09,0,.16-.07,.16-.16Zm0-1.72c0-.09-.07-.16-.16-.16h-2.17c-.09,0-.16,.07-.16,.16s.07,.16,.16,.16h2.17c.09,0,.16-.07,.16-.16Zm-3.52,0c0-.09-.07-.16-.16-.16h-2.07c-.09,0-.16,.07-.16,.16s.07,.16,.16,.16h2.07c.09,0,.16-.07,.16-.16Zm3.52,.86c0-.09-.07-.16-.16-.16h-2.17c-.09,0-.16,.07-.16,.16s.07,.16,.16,.16h2.17c.09,0,.16-.07,.16-.16Zm-3.52,0c0-.09-.07-.16-.16-.16h-2.07c-.09,0-.16,.07-.16,.16s.07,.16,.16,.16h2.07c.09,0,.16-.07,.16-.16Zm6.23,1.43v-9.9c0-.84-.68-1.52-1.52-1.52h-8.27c-.84,0-1.52,.68-1.52,1.52v9.9c0,.84,.68,1.52,1.52,1.52h8.27c.84,0,1.52-.68,1.52-1.52Zm-1.52-11.1c.66,0,1.2,.54,1.2,1.2v9.9c0,.66-.54,1.2-1.2,1.2h-8.27c-.66,0-1.2-.54-1.2-1.2v-9.9c0-.66,.54-1.2,1.2-1.2h8.27Z"/>
              <path class="cls-7" d="M87.63,147.73c.01,.29-.11,.56-.31,.74-.17,.15-.39,.24-.63,.24s-.48-.1-.64-.26c-.18-.17-.3-.42-.3-.69,0-.54,.45-.97,.99-.94,.48,.02,.88,.42,.9,.9Zm0,.88c-.06-.04-.14-.03-.19,.02-.2,.17-.46,.28-.74,.28s-.56-.11-.76-.29c-.05-.05-.13-.06-.19-.02-.08,.05-.16,.11-.23,.18-.23,.23-.38,.55-.37,.91,0,.17,.14,.3,.31,.3h2.46c.08,0,.16-.03,.22-.09,.06-.06,.09-.13,.09-.22,0-.44-.23-.84-.58-1.06Zm.67,1.97s-.04-.09-.09-.09h-3.07s-.09,.04-.09,.09,.04,.09,.09,.09h3.07s.09-.04,.09-.09Zm0,1.43s-.04-.09-.09-.09h-3.07s-.09,.04-.09,.09,.04,.09,.09,.09h3.07s.09-.04,.09-.09Zm0-.94s-.04-.09-.09-.09h-1.19s-.09,.04-.09,.09,.04,.09,.09,.09h1.19s.09-.04,.09-.09Zm-1.94,0s-.04-.09-.09-.09h-1.14s-.09,.04-.09,.09,.04,.09,.09,.09h1.14s.09-.04,.09-.09Zm1.94,.47s-.04-.09-.09-.09h-1.19s-.09,.04-.09,.09,.04,.09,.09,.09h1.19s.09-.04,.09-.09Zm-1.94,0s-.04-.09-.09-.09h-1.14s-.09,.04-.09,.09,.04,.09,.09,.09h1.14s.09-.04,.09-.09Zm3.42,.78v-5.44c0-.46-.38-.84-.84-.84h-4.54c-.46,0-.84,.38-.84,.84v5.44c0,.46,.38,.84,.84,.84h4.54c.46,0,.84-.38,.84-.84Zm-.84-6.1c.36,0,.66,.3,.66,.66v5.44c0,.36-.3,.66-.66,.66h-4.54c-.36,0-.66-.3-.66-.66v-5.44c0-.36,.3-.66,.66-.66h4.54Z"/>
              <path class="cls-11" d="M97.47,100.94c.02,.47-.18,.9-.5,1.19-.27,.25-.63,.4-1.02,.4s-.77-.16-1.04-.41c-.3-.28-.48-.67-.48-1.11,0-.86,.72-1.56,1.6-1.52,.78,.04,1.42,.68,1.45,1.46Zm-.01,1.43c-.1-.06-.22-.05-.31,.03-.32,.28-.74,.44-1.2,.44s-.9-.18-1.22-.47c-.09-.08-.21-.09-.31-.03-.14,.08-.26,.18-.38,.3-.38,.37-.61,.9-.6,1.47,0,.27,.23,.48,.5,.48h3.97c.14,0,.26-.06,.35-.15,.09-.09,.15-.21,.15-.35,0-.72-.37-1.35-.93-1.72Zm1.08,3.17c0-.08-.06-.14-.14-.14h-4.96c-.08,0-.14,.06-.14,.14s.06,.14,.14,.14h4.96c.08,0,.14-.06,.14-.14Zm0,2.31c0-.08-.06-.14-.14-.14h-4.96c-.08,0-.14,.06-.14,.14s.06,.14,.14,.14h4.96c.08,0,.14-.06,.14-.14Zm0-1.52c0-.08-.06-.14-.14-.14h-1.93c-.08,0-.14,.06-.14,.14s.06,.14,.14,.14h1.93c.08,0,.14-.06,.14-.14Zm-3.13,0c0-.08-.06-.14-.14-.14h-1.83c-.08,0-.14,.06-.14,.14s.06,.14,.14,.14h1.83c.08,0,.14-.06,.14-.14Zm3.13,.76c0-.08-.06-.14-.14-.14h-1.93c-.08,0-.14,.06-.14,.14s.06,.14,.14,.14h1.93c.08,0,.14-.06,.14-.14Zm-3.13,0c0-.08-.06-.14-.14-.14h-1.83c-.08,0-.14,.06-.14,.14s.06,.14,.14,.14h1.83c.08,0,.14-.06,.14-.14Zm5.52,1.27v-8.78c0-.75-.61-1.35-1.35-1.35h-7.34c-.75,0-1.35,.61-1.35,1.35v8.78c0,.75,.61,1.35,1.35,1.35h7.34c.75,0,1.35-.61,1.35-1.35Zm-1.35-9.85c.59,0,1.06,.48,1.06,1.06v8.78c0,.59-.48,1.06-1.06,1.06h-7.34c-.59,0-1.06-.48-1.06-1.06v-8.78c0-.59,.48-1.06,1.06-1.06h7.34Z"/>
              <path class="cls-22" d="M138,50.45c.03,.66-.25,1.25-.69,1.66-.38,.34-.87,.55-1.42,.55s-1.07-.22-1.44-.57c-.41-.39-.67-.94-.67-1.54,0-1.2,1-2.17,2.22-2.11,1.08,.05,1.97,.94,2.01,2.02Zm-.02,1.99c-.14-.09-.31-.07-.43,.04-.45,.38-1.03,.62-1.66,.62s-1.25-.25-1.7-.65c-.12-.11-.3-.13-.43-.05-.19,.12-.36,.26-.52,.41-.52,.52-.84,1.24-.84,2.04,0,.37,.32,.67,.69,.67h5.51c.19,0,.36-.08,.49-.2,.13-.12,.2-.3,.2-.49,0-1-.52-1.88-1.3-2.39Zm1.5,4.41c0-.11-.09-.2-.2-.2h-6.89c-.11,0-.2,.09-.2,.2s.09,.2,.2,.2h6.89c.11,0,.2-.09,.2-.2Zm0,3.21c0-.11-.09-.2-.2-.2h-6.89c-.11,0-.2,.09-.2,.2s.09,.2,.2,.2h6.89c.11,0,.2-.09,.2-.2Zm0-2.12c0-.11-.09-.2-.2-.2h-2.68c-.11,0-.2,.09-.2,.2s.09,.2,.2,.2h2.68c.11,0,.2-.09,.2-.2Zm-4.34,0c0-.11-.09-.2-.2-.2h-2.55c-.11,0-.2,.09-.2,.2s.09,.2,.2,.2h2.55c.11,0,.2-.09,.2-.2Zm4.34,1.06c0-.11-.09-.2-.2-.2h-2.68c-.11,0-.2,.09-.2,.2s.09,.2,.2,.2h2.68c.11,0,.2-.09,.2-.2Zm-4.34,0c0-.11-.09-.2-.2-.2h-2.55c-.11,0-.2,.09-.2,.2s.09,.2,.2,.2h2.55c.11,0,.2-.09,.2-.2Zm7.67,1.76v-12.2c0-1.04-.84-1.88-1.88-1.88h-10.19c-1.04,0-1.88,.84-1.88,1.88v12.2c0,1.04,.84,1.88,1.88,1.88h10.19c1.04,0,1.88-.84,1.88-1.88Zm-1.88-13.68c.81,0,1.48,.66,1.48,1.48v12.2c0,.81-.66,1.48-1.48,1.48h-10.19c-.81,0-1.48-.66-1.48-1.48v-12.2c0-.81,.66-1.48,1.48-1.48h10.19Z"/>
              <path class="cls-16" d="M101.94,84.82c.01,.25-.09,.48-.27,.64-.14,.13-.34,.21-.55,.21s-.41-.08-.55-.22c-.16-.15-.26-.36-.26-.59,0-.46,.38-.83,.85-.81,.41,.02,.76,.36,.77,.78Zm0,.76c-.05-.03-.12-.03-.17,.01-.17,.15-.39,.24-.64,.24s-.48-.09-.65-.25c-.05-.04-.11-.05-.17-.02-.07,.05-.14,.1-.2,.16-.2,.2-.32,.48-.32,.78,0,.14,.12,.26,.26,.26h2.12c.07,0,.14-.03,.19-.08,.05-.05,.08-.11,.08-.19,0-.38-.2-.72-.5-.92Zm.57,1.69s-.03-.08-.08-.08h-2.64s-.08,.03-.08,.08,.03,.08,.08,.08h2.64s.08-.03,.08-.08Zm0,1.23s-.03-.08-.08-.08h-2.64s-.08,.03-.08,.08,.03,.08,.08,.08h2.64s.08-.03,.08-.08Zm0-.81s-.03-.08-.08-.08h-1.03s-.08,.03-.08,.08,.03,.08,.08,.08h1.03s.08-.03,.08-.08Zm-1.67,0s-.03-.08-.08-.08h-.98s-.08,.03-.08,.08,.03,.08,.08,.08h.98s.08-.03,.08-.08Zm1.67,.41s-.03-.08-.08-.08h-1.03s-.08,.03-.08,.08,.03,.08,.08,.08h1.03s.08-.03,.08-.08Zm-1.67,0s-.03-.08-.08-.08h-.98s-.08,.03-.08,.08,.03,.08,.08,.08h.98s.08-.03,.08-.08Zm2.94,.68v-4.68c0-.4-.32-.72-.72-.72h-3.91c-.4,0-.72,.32-.72,.72v4.68c0,.4,.32,.72,.72,.72h3.91c.4,0,.72-.32,.72-.72Zm-.72-5.25c.31,0,.57,.25,.57,.57v4.68c0,.31-.25,.57-.57,.57h-3.91c-.31,0-.57-.25-.57-.57v-4.68c0-.31,.25-.57,.57-.57h3.91Z"/>
              <path class="cls-18" d="M95.38,122.02c.03,.73-.27,1.39-.77,1.84-.42,.38-.97,.61-1.58,.61s-1.18-.24-1.6-.64c-.46-.43-.74-1.04-.74-1.71,0-1.33,1.11-2.41,2.46-2.35,1.2,.06,2.19,1.05,2.24,2.25Zm-.02,2.2c-.15-.1-.35-.08-.48,.04-.5,.43-1.14,.69-1.85,.69s-1.39-.27-1.89-.72c-.13-.12-.33-.15-.48-.05-.21,.13-.41,.29-.58,.46-.58,.58-.94,1.38-.93,2.26,0,.41,.35,.74,.76,.74h6.12c.21,0,.4-.08,.54-.22,.14-.14,.22-.33,.22-.54,0-1.11-.58-2.09-1.44-2.65Zm1.66,4.9c0-.12-.1-.22-.22-.22h-7.65c-.12,0-.22,.1-.22,.22s.1,.22,.22,.22h7.65c.12,0,.22-.1,.22-.22Zm0,3.57c0-.12-.1-.22-.22-.22h-7.65c-.12,0-.22,.1-.22,.22s.1,.22,.22,.22h7.65c.12,0,.22-.1,.22-.22Zm0-2.35c0-.12-.1-.22-.22-.22h-2.97c-.12,0-.22,.1-.22,.22s.1,.22,.22,.22h2.97c.12,0,.22-.1,.22-.22Zm-4.82,0c0-.12-.1-.22-.22-.22h-2.83c-.12,0-.22,.1-.22,.22s.1,.22,.22,.22h2.83c.12,0,.22-.1,.22-.22Zm4.82,1.17c0-.12-.1-.22-.22-.22h-2.97c-.12,0-.22,.1-.22,.22s.1,.22,.22,.22h2.97c.12,0,.22-.1,.22-.22Zm-4.82,0c0-.12-.1-.22-.22-.22h-2.83c-.12,0-.22,.1-.22,.22s.1,.22,.22,.22h2.83c.12,0,.22-.1,.22-.22Zm8.52,1.95v-13.55c0-1.15-.94-2.09-2.09-2.09h-11.32c-1.15,0-2.09,.94-2.09,2.09v13.55c0,1.15,.94,2.09,2.09,2.09h11.32c1.15,0,2.09-.94,2.09-2.09Zm-2.09-15.19c.9,0,1.64,.74,1.64,1.64v13.55c0,.9-.74,1.64-1.64,1.64h-11.32c-.9,0-1.64-.74-1.64-1.64v-13.55c0-.9,.74-1.64,1.64-1.64h11.32Z"/>
              <path class="cls-17" d="M88.74,47.7c.01,.24-.09,.46-.25,.61-.14,.12-.32,.2-.52,.2s-.39-.08-.53-.21c-.15-.14-.25-.34-.25-.56,0-.44,.37-.79,.81-.77,.39,.02,.72,.34,.74,.74Zm0,.73s-.11-.02-.16,.01c-.16,.14-.38,.23-.61,.23s-.46-.09-.62-.24c-.04-.04-.11-.05-.16-.02-.07,.04-.13,.09-.19,.15-.19,.19-.31,.45-.31,.74,0,.14,.12,.24,.25,.24h2.02c.07,0,.13-.03,.18-.07,.05-.05,.07-.11,.07-.18,0-.36-.19-.69-.47-.87Zm.55,1.61s-.03-.07-.07-.07h-2.52s-.07,.03-.07,.07,.03,.07,.07,.07h2.52s.07-.03,.07-.07Zm0,1.17s-.03-.07-.07-.07h-2.52s-.07,.03-.07,.07,.03,.07,.07,.07h2.52s.07-.03,.07-.07Zm0-.77s-.03-.07-.07-.07h-.98s-.07,.03-.07,.07,.03,.07,.07,.07h.98s.07-.03,.07-.07Zm-1.59,0s-.03-.07-.07-.07h-.93s-.07,.03-.07,.07,.03,.07,.07,.07h.93s.07-.03,.07-.07Zm1.59,.39s-.03-.07-.07-.07h-.98s-.07,.03-.07,.07,.03,.07,.07,.07h.98s.07-.03,.07-.07Zm-1.59,0s-.03-.07-.07-.07h-.93s-.07,.03-.07,.07,.03,.07,.07,.07h.93s.07-.03,.07-.07Zm2.8,.64v-4.46c0-.38-.31-.69-.69-.69h-3.73c-.38,0-.69,.31-.69,.69v4.46c0,.38,.31,.69,.69,.69h3.73c.38,0,.69-.31,.69-.69Zm-.69-5c.3,0,.54,.24,.54,.54v4.46c0,.3-.24,.54-.54,.54h-3.73c-.3,0-.54-.24-.54-.54v-4.46c0-.3,.24-.54,.54-.54h3.73Z"/>
              <path class="cls-21" d="M66.3,137.67c.03,.62-.23,1.19-.66,1.57-.36,.32-.83,.52-1.35,.52s-1.01-.21-1.37-.54c-.39-.37-.64-.89-.64-1.47,0-1.14,.95-2.06,2.1-2.01,1.03,.05,1.87,.89,1.91,1.92Zm-.02,1.88c-.13-.08-.3-.06-.41,.04-.42,.37-.98,.59-1.58,.59s-1.19-.23-1.61-.62c-.11-.1-.28-.12-.41-.04-.18,.11-.35,.24-.5,.39-.5,.49-.8,1.18-.8,1.93,0,.35,.3,.63,.65,.63h5.23c.18,0,.34-.07,.46-.19,.12-.12,.19-.28,.19-.46,0-.95-.49-1.78-1.23-2.27Zm1.42,4.19c0-.11-.09-.19-.19-.19h-6.54c-.11,0-.19,.09-.19,.19s.09,.19,.19,.19h6.54c.11,0,.19-.09,.19-.19Zm0,3.05c0-.11-.09-.19-.19-.19h-6.54c-.11,0-.19,.09-.19,.19s.09,.19,.19,.19h6.54c.11,0,.19-.09,.19-.19Zm0-2.01c0-.11-.09-.19-.19-.19h-2.54c-.11,0-.19,.09-.19,.19s.09,.19,.19,.19h2.54c.11,0,.19-.09,.19-.19Zm-4.12,0c0-.11-.09-.19-.19-.19h-2.42c-.11,0-.19,.09-.19,.19s.09,.19,.19,.19h2.42c.11,0,.19-.09,.19-.19Zm4.12,1c0-.11-.09-.19-.19-.19h-2.54c-.11,0-.19,.09-.19,.19s.09,.19,.19,.19h2.54c.11,0,.19-.09,.19-.19Zm-4.12,0c0-.11-.09-.19-.19-.19h-2.42c-.11,0-.19,.09-.19,.19s.09,.19,.19,.19h2.42c.11,0,.19-.09,.19-.19Zm7.28,1.67v-11.59c0-.98-.8-1.78-1.78-1.78h-9.68c-.98,0-1.78,.8-1.78,1.78v11.59c0,.98,.8,1.78,1.78,1.78h9.68c.98,0,1.78-.8,1.78-1.78Zm-1.78-12.99c.77,0,1.4,.63,1.4,1.4v11.59c0,.77-.63,1.4-1.4,1.4h-9.68c-.77,0-1.4-.63-1.4-1.4v-11.59c0-.77,.63-1.4,1.4-1.4h9.68Z"/>
              <path class="cls-5" d="M140.16,73.42c.03,.71-.27,1.35-.75,1.79-.41,.37-.94,.59-1.54,.59s-1.15-.23-1.56-.62c-.45-.42-.72-1.01-.72-1.67,0-1.3,1.08-2.34,2.39-2.28,1.17,.05,2.13,1.02,2.17,2.18Zm-.02,2.14c-.15-.1-.34-.07-.47,.04-.48,.42-1.11,.67-1.8,.67s-1.35-.27-1.84-.7c-.13-.12-.32-.14-.47-.05-.2,.13-.39,.28-.56,.45-.56,.56-.91,1.34-.91,2.2,0,.4,.34,.72,.74,.72h5.95c.21,0,.39-.08,.52-.22,.14-.13,.22-.32,.22-.52,0-1.08-.56-2.03-1.4-2.58Zm1.62,4.76c0-.12-.1-.22-.22-.22h-7.44c-.12,0-.22,.1-.22,.22s.1,.22,.22,.22h7.44c.12,0,.22-.1,.22-.22Zm0,3.47c0-.12-.1-.22-.22-.22h-7.44c-.12,0-.22,.1-.22,.22s.1,.22,.22,.22h7.44c.12,0,.22-.1,.22-.22Zm0-2.28c0-.12-.1-.22-.22-.22h-2.89c-.12,0-.22,.1-.22,.22s.1,.22,.22,.22h2.89c.12,0,.22-.1,.22-.22Zm-4.69,0c0-.12-.1-.22-.22-.22h-2.75c-.12,0-.22,.1-.22,.22s.1,.22,.22,.22h2.75c.12,0,.22-.1,.22-.22Zm4.69,1.14c0-.12-.1-.22-.22-.22h-2.89c-.12,0-.22,.1-.22,.22s.1,.22,.22,.22h2.89c.12,0,.22-.1,.22-.22Zm-4.69,0c0-.12-.1-.22-.22-.22h-2.75c-.12,0-.22,.1-.22,.22s.1,.22,.22,.22h2.75c.12,0,.22-.1,.22-.22Zm8.28,1.9v-13.18c0-1.12-.91-2.03-2.03-2.03h-11c-1.12,0-2.03,.91-2.03,2.03v13.18c0,1.12,.91,2.03,2.03,2.03h11c1.12,0,2.03-.91,2.03-2.03Zm-2.03-14.77c.88,0,1.59,.72,1.59,1.59v13.18c0,.88-.72,1.59-1.59,1.59h-11c-.88,0-1.59-.72-1.59-1.59v-13.18c0-.88,.72-1.59,1.59-1.59h11Z"/>
              <path class="cls-6" d="M123.31,123.13c.02,.38-.14,.73-.4,.97-.22,.2-.51,.32-.83,.32s-.62-.13-.84-.33c-.24-.23-.39-.55-.39-.9,0-.7,.59-1.27,1.29-1.23,.63,.03,1.15,.55,1.18,1.18Zm0,1.16c-.08-.05-.18-.04-.25,.02-.26,.22-.6,.36-.97,.36s-.73-.14-.99-.38c-.07-.06-.17-.08-.25-.03-.11,.07-.21,.15-.3,.24-.3,.3-.49,.73-.49,1.19,0,.22,.18,.39,.4,.39h3.22c.11,0,.21-.04,.28-.12,.07-.07,.12-.17,.12-.28,0-.58-.3-1.1-.76-1.39Zm.87,2.57c0-.06-.05-.12-.12-.12h-4.02c-.06,0-.12,.05-.12,.12s.05,.12,.12,.12h4.02c.06,0,.12-.05,.12-.12Zm0,1.88c0-.06-.05-.12-.12-.12h-4.02c-.06,0-.12,.05-.12,.12s.05,.12,.12,.12h4.02c.06,0,.12-.05,.12-.12Zm0-1.23c0-.06-.05-.12-.12-.12h-1.56c-.06,0-.12,.05-.12,.12s.05,.12,.12,.12h1.56c.06,0,.12-.05,.12-.12Zm-2.53,0c0-.06-.05-.12-.12-.12h-1.49c-.06,0-.12,.05-.12,.12s.05,.12,.12,.12h1.49c.06,0,.12-.05,.12-.12Zm2.53,.62c0-.06-.05-.12-.12-.12h-1.56c-.06,0-.12,.05-.12,.12s.05,.12,.12,.12h1.56c.06,0,.12-.05,.12-.12Zm-2.53,0c0-.06-.05-.12-.12-.12h-1.49c-.06,0-.12,.05-.12,.12s.05,.12,.12,.12h1.49c.06,0,.12-.05,.12-.12Zm4.48,1.03v-7.12c0-.6-.49-1.1-1.1-1.1h-5.95c-.6,0-1.1,.49-1.1,1.1v7.12c0,.6,.49,1.1,1.1,1.1h5.95c.6,0,1.1-.49,1.1-1.1Zm-1.1-7.98c.48,0,.86,.39,.86,.86v7.12c0,.48-.39,.86-.86,.86h-5.95c-.48,0-.86-.39-.86-.86v-7.12c0-.48,.39-.86,.86-.86h5.95Z"/>
              <path class="cls-20" d="M61.53,98.74c.01,.31-.12,.6-.33,.79-.18,.16-.42,.26-.68,.26s-.51-.1-.69-.27c-.2-.18-.32-.45-.32-.74,0-.58,.48-1.04,1.06-1.01,.52,.02,.94,.45,.96,.97Zm0,.95c-.06-.04-.15-.03-.21,.02-.21,.18-.49,.3-.8,.3s-.6-.12-.81-.31c-.06-.05-.14-.06-.21-.02-.09,.06-.17,.12-.25,.2-.25,.25-.4,.6-.4,.97,0,.18,.15,.32,.33,.32h2.64c.09,0,.17-.04,.23-.1,.06-.06,.1-.14,.1-.23,0-.48-.25-.9-.62-1.14Zm.72,2.11c0-.05-.04-.1-.1-.1h-3.3c-.05,0-.1,.04-.1,.1s.04,.1,.1,.1h3.3c.05,0,.1-.04,.1-.1Zm0,1.54c0-.05-.04-.1-.1-.1h-3.3c-.05,0-.1,.04-.1,.1s.04,.1,.1,.1h3.3c.05,0,.1-.04,.1-.1Zm0-1.01c0-.05-.04-.1-.1-.1h-1.28c-.05,0-.1,.04-.1,.1s.04,.1,.1,.1h1.28c.05,0,.1-.04,.1-.1Zm-2.08,0c0-.05-.04-.1-.1-.1h-1.22c-.05,0-.1,.04-.1,.1s.04,.1,.1,.1h1.22c.05,0,.1-.04,.1-.1Zm2.08,.51c0-.05-.04-.1-.1-.1h-1.28c-.05,0-.1,.04-.1,.1s.04,.1,.1,.1h1.28c.05,0,.1-.04,.1-.1Zm-2.08,0c0-.05-.04-.1-.1-.1h-1.22c-.05,0-.1,.04-.1,.1s.04,.1,.1,.1h1.22c.05,0,.1-.04,.1-.1Zm3.67,.84v-5.84c0-.5-.4-.9-.9-.9h-4.88c-.5,0-.9,.4-.9,.9v5.84c0,.5,.4,.9,.9,.9h4.88c.5,0,.9-.4,.9-.9Zm-.9-6.55c.39,0,.71,.32,.71,.71v5.84c0,.39-.32,.71-.71,.71h-4.88c-.39,0-.71-.32-.71-.71v-5.84c0-.39,.32-.71,.71-.71h4.88Z"/>
              <path class="cls-4" d="M130.83,144.86c.02,.49-.18,.94-.52,1.25-.28,.26-.66,.41-1.07,.41s-.8-.16-1.09-.43c-.31-.29-.5-.7-.5-1.16,0-.9,.75-1.63,1.66-1.59,.81,.04,1.48,.71,1.51,1.52Zm-.01,1.49c-.1-.07-.23-.05-.33,.03-.34,.29-.77,.46-1.25,.46s-.94-.18-1.28-.49c-.09-.08-.22-.1-.32-.03-.14,.09-.27,.19-.39,.31-.39,.39-.63,.93-.63,1.53,0,.28,.24,.5,.52,.5h4.14c.14,0,.27-.06,.36-.15,.09-.09,.15-.22,.15-.36,0-.75-.39-1.41-.97-1.79Zm1.13,3.31c0-.08-.07-.15-.15-.15h-5.17c-.08,0-.15,.07-.15,.15s.07,.15,.15,.15h5.17c.08,0,.15-.07,.15-.15Zm0,2.41c0-.08-.07-.15-.15-.15h-5.17c-.08,0-.15,.07-.15,.15s.07,.15,.15,.15h5.17c.08,0,.15-.07,.15-.15Zm0-1.59c0-.08-.07-.15-.15-.15h-2.01c-.08,0-.15,.07-.15,.15s.07,.15,.15,.15h2.01c.08,0,.15-.07,.15-.15Zm-3.26,0c0-.08-.07-.15-.15-.15h-1.91c-.08,0-.15,.07-.15,.15s.07,.15,.15,.15h1.91c.08,0,.15-.07,.15-.15Zm3.26,.79c0-.08-.07-.15-.15-.15h-2.01c-.08,0-.15,.07-.15,.15s.07,.15,.15,.15h2.01c.08,0,.15-.07,.15-.15Zm-3.26,0c0-.08-.07-.15-.15-.15h-1.91c-.08,0-.15,.07-.15,.15s.07,.15,.15,.15h1.91c.08,0,.15-.07,.15-.15Zm5.76,1.32v-9.17c0-.78-.63-1.41-1.41-1.41h-7.65c-.78,0-1.41,.63-1.41,1.41v9.17c0,.78,.63,1.41,1.41,1.41h7.65c.78,0,1.41-.63,1.41-1.41Zm-1.41-10.27c.61,0,1.11,.5,1.11,1.11v9.17c0,.61-.5,1.11-1.11,1.11h-7.65c-.61,0-1.11-.5-1.11-1.11v-9.17c0-.61,.5-1.11,1.11-1.11h7.65Z"/>
              <path class="cls-26" d="M110.7,141.68c.02,.59-.22,1.13-.62,1.49-.34,.31-.79,.49-1.28,.49s-.96-.19-1.3-.51c-.37-.35-.6-.84-.6-1.39,0-1.08,.9-1.95,1.99-1.9,.97,.05,1.77,.85,1.81,1.82Zm-.02,1.78c-.12-.08-.28-.06-.39,.03-.4,.35-.92,.56-1.49,.56s-1.12-.22-1.53-.58c-.11-.1-.27-.12-.39-.04-.17,.11-.33,.23-.47,.37-.47,.47-.76,1.12-.75,1.83,0,.33,.28,.6,.62,.6h4.95c.17,0,.33-.07,.44-.18,.11-.11,.18-.27,.18-.44,0-.89-.47-1.69-1.17-2.15Zm1.35,3.96c0-.1-.08-.18-.18-.18h-6.19c-.1,0-.18,.08-.18,.18s.08,.18,.18,.18h6.19c.1,0,.18-.08,.18-.18Zm0,2.89c0-.1-.08-.18-.18-.18h-6.19c-.1,0-.18,.08-.18,.18s.08,.18,.18,.18h6.19c.1,0,.18-.08,.18-.18Zm0-1.9c0-.1-.08-.18-.18-.18h-2.4c-.1,0-.18,.08-.18,.18s.08,.18,.18,.18h2.4c.1,0,.18-.08,.18-.18Zm-3.9,0c0-.1-.08-.18-.18-.18h-2.29c-.1,0-.18,.08-.18,.18s.08,.18,.18,.18h2.29c.1,0,.18-.08,.18-.18Zm3.9,.95c0-.1-.08-.18-.18-.18h-2.4c-.1,0-.18,.08-.18,.18s.08,.18,.18,.18h2.4c.1,0,.18-.08,.18-.18Zm-3.9,0c0-.1-.08-.18-.18-.18h-2.29c-.1,0-.18,.08-.18,.18s.08,.18,.18,.18h2.29c.1,0,.18-.08,.18-.18Zm6.89,1.58v-10.96c0-.93-.76-1.69-1.69-1.69h-9.16c-.93,0-1.69,.76-1.69,1.69v10.96c0,.93,.76,1.69,1.69,1.69h9.16c.93,0,1.69-.76,1.69-1.69Zm-1.69-12.29c.73,0,1.33,.6,1.33,1.33v10.96c0,.73-.6,1.33-1.33,1.33h-9.16c-.73,0-1.33-.6-1.33-1.33v-10.96c0-.73,.6-1.33,1.33-1.33h9.16Z"/>
              <path class="cls-9" d="M142.66,121.96c.01,.29-.11,.55-.3,.73-.17,.15-.38,.24-.62,.24s-.47-.1-.63-.25c-.18-.17-.29-.41-.29-.68,0-.53,.44-.95,.97-.93,.47,.02,.86,.41,.88,.89Zm0,.87c-.06-.04-.14-.03-.19,.02-.2,.17-.45,.27-.73,.27s-.55-.11-.75-.29c-.05-.05-.13-.06-.19-.02-.08,.05-.16,.11-.23,.18-.23,.23-.37,.55-.37,.89,0,.16,.14,.29,.3,.29h2.42c.08,0,.16-.03,.21-.09,.06-.05,.09-.13,.09-.21,0-.44-.23-.83-.57-1.05Zm.66,1.94s-.04-.09-.09-.09h-3.03s-.09,.04-.09,.09,.04,.09,.09,.09h3.03s.09-.04,.09-.09Zm0,1.41s-.04-.09-.09-.09h-3.03s-.09,.04-.09,.09,.04,.09,.09,.09h3.03s.09-.04,.09-.09Zm0-.93s-.04-.09-.09-.09h-1.18s-.09,.04-.09,.09,.04,.09,.09,.09h1.18s.09-.04,.09-.09Zm-1.91,0s-.04-.09-.09-.09h-1.12s-.09,.04-.09,.09,.04,.09,.09,.09h1.12s.09-.04,.09-.09Zm1.91,.46s-.04-.09-.09-.09h-1.18s-.09,.04-.09,.09,.04,.09,.09,.09h1.18s.09-.04,.09-.09Zm-1.91,0s-.04-.09-.09-.09h-1.12s-.09,.04-.09,.09,.04,.09,.09,.09h1.12s.09-.04,.09-.09Zm3.37,.77v-5.36c0-.45-.37-.83-.83-.83h-4.48c-.45,0-.83,.37-.83,.83v5.36c0,.45,.37,.83,.83,.83h4.48c.45,0,.83-.37,.83-.83Zm-.83-6.01c.36,0,.65,.29,.65,.65v5.36c0,.36-.29,.65-.65,.65h-4.48c-.36,0-.65-.29-.65-.65v-5.36c0-.36,.29-.65,.65-.65h4.48Z"/>
              <path class="cls-23" d="M113.09,49.3c.02,.58-.22,1.11-.61,1.46-.33,.3-.77,.48-1.25,.48s-.94-.19-1.27-.51c-.36-.34-.59-.83-.59-1.36,0-1.06,.88-1.91,1.96-1.86,.95,.04,1.74,.83,1.78,1.78Zm-.01,1.75c-.12-.08-.28-.06-.38,.03-.39,.34-.91,.55-1.47,.55s-1.1-.22-1.5-.57c-.11-.09-.26-.12-.38-.04-.17,.1-.32,.23-.46,.37-.46,.46-.75,1.1-.74,1.8,0,.33,.28,.59,.61,.59h4.87c.17,0,.32-.07,.43-.18,.11-.11,.18-.26,.18-.43,0-.88-.46-1.66-1.15-2.11Zm1.32,3.89c0-.1-.08-.18-.18-.18h-6.08c-.1,0-.18,.08-.18,.18s.08,.18,.18,.18h6.08c.1,0,.18-.08,.18-.18Zm0,2.84c0-.1-.08-.18-.18-.18h-6.08c-.1,0-.18,.08-.18,.18s.08,.18,.18,.18h6.08c.1,0,.18-.08,.18-.18Zm0-1.87c0-.1-.08-.18-.18-.18h-2.36c-.1,0-.18,.08-.18,.18s.08,.18,.18,.18h2.36c.1,0,.18-.08,.18-.18Zm-3.83,0c0-.1-.08-.18-.18-.18h-2.25c-.1,0-.18,.08-.18,.18s.08,.18,.18,.18h2.25c.1,0,.18-.08,.18-.18Zm3.83,.93c0-.1-.08-.18-.18-.18h-2.36c-.1,0-.18,.08-.18,.18s.08,.18,.18,.18h2.36c.1,0,.18-.08,.18-.18Zm-3.83,0c0-.1-.08-.18-.18-.18h-2.25c-.1,0-.18,.08-.18,.18s.08,.18,.18,.18h2.25c.1,0,.18-.08,.18-.18Zm6.77,1.55v-10.77c0-.91-.74-1.66-1.66-1.66h-8.99c-.91,0-1.66,.74-1.66,1.66v10.77c0,.91,.74,1.66,1.66,1.66h8.99c.91,0,1.66-.74,1.66-1.66Zm-1.66-12.07c.72,0,1.3,.58,1.3,1.3v10.77c0,.72-.58,1.3-1.3,1.3h-8.99c-.72,0-1.3-.58-1.3-1.3v-10.77c0-.72,.58-1.3,1.3-1.3h8.99Z"/>
              <path class="cls-25" d="M92.42,64.9c.02,.58-.22,1.1-.61,1.46-.33,.3-.77,.48-1.25,.48s-.94-.19-1.27-.5c-.36-.34-.59-.82-.59-1.36,0-1.06,.88-1.91,1.95-1.86,.95,.04,1.73,.83,1.77,1.78Zm-.01,1.75c-.12-.08-.27-.06-.38,.03-.39,.34-.91,.54-1.46,.54s-1.1-.22-1.5-.57c-.11-.09-.26-.12-.38-.04-.17,.1-.32,.23-.46,.36-.46,.46-.74,1.09-.74,1.79,0,.33,.28,.59,.61,.59h4.85c.17,0,.32-.07,.43-.18,.11-.11,.18-.26,.18-.43,0-.88-.46-1.65-1.14-2.1Zm1.32,3.88c0-.1-.08-.18-.18-.18h-6.06c-.1,0-.18,.08-.18,.18s.08,.18,.18,.18h6.06c.1,0,.18-.08,.18-.18Zm0,2.83c0-.1-.08-.18-.18-.18h-6.06c-.1,0-.18,.08-.18,.18s.08,.18,.18,.18h6.06c.1,0,.18-.08,.18-.18Zm0-1.86c0-.1-.08-.18-.18-.18h-2.36c-.1,0-.18,.08-.18,.18s.08,.18,.18,.18h2.36c.1,0,.18-.08,.18-.18Zm-3.82,0c0-.1-.08-.18-.18-.18h-2.24c-.1,0-.18,.08-.18,.18s.08,.18,.18,.18h2.24c.1,0,.18-.08,.18-.18Zm3.82,.93c0-.1-.08-.18-.18-.18h-2.36c-.1,0-.18,.08-.18,.18s.08,.18,.18,.18h2.36c.1,0,.18-.08,.18-.18Zm-3.82,0c0-.1-.08-.18-.18-.18h-2.24c-.1,0-.18,.08-.18,.18s.08,.18,.18,.18h2.24c.1,0,.18-.08,.18-.18Zm6.75,1.55v-10.74c0-.91-.74-1.65-1.65-1.65h-8.97c-.91,0-1.65,.74-1.65,1.65v10.74c0,.91,.74,1.65,1.65,1.65h8.97c.91,0,1.65-.74,1.65-1.65Zm-1.65-12.04c.72,0,1.3,.58,1.3,1.3v10.74c0,.72-.58,1.3-1.3,1.3h-8.97c-.72,0-1.3-.58-1.3-1.3v-10.74c0-.72,.58-1.3,1.3-1.3h8.97Z"/>
              <path class="cls-14" d="M117.19,103.25c.02,.43-.16,.81-.45,1.07-.24,.22-.57,.36-.92,.36s-.69-.14-.94-.37c-.27-.25-.43-.61-.43-1,0-.78,.65-1.4,1.44-1.37,.7,.03,1.27,.61,1.3,1.31Zm-.01,1.29c-.09-.06-.2-.04-.28,.02-.29,.25-.67,.4-1.08,.4s-.81-.16-1.1-.42c-.08-.07-.19-.08-.28-.03-.12,.08-.24,.17-.34,.27-.34,.34-.55,.81-.54,1.32,0,.24,.2,.43,.45,.43h3.57c.12,0,.23-.05,.31-.13,.08-.08,.13-.19,.13-.31,0-.65-.34-1.22-.84-1.55Zm.97,2.86c0-.07-.06-.13-.13-.13h-4.46c-.07,0-.13,.06-.13,.13s.06,.13,.13,.13h4.46c.07,0,.13-.06,.13-.13Zm0,2.08c0-.07-.06-.13-.13-.13h-4.46c-.07,0-.13,.06-.13,.13s.06,.13,.13,.13h4.46c.07,0,.13-.06,.13-.13Zm0-1.37c0-.07-.06-.13-.13-.13h-1.73c-.07,0-.13,.06-.13,.13s.06,.13,.13,.13h1.73c.07,0,.13-.06,.13-.13Zm-2.81,0c0-.07-.06-.13-.13-.13h-1.65c-.07,0-.13,.06-.13,.13s.06,.13,.13,.13h1.65c.07,0,.13-.06,.13-.13Zm2.81,.68c0-.07-.06-.13-.13-.13h-1.73c-.07,0-.13,.06-.13,.13s.06,.13,.13,.13h1.73c.07,0,.13-.06,.13-.13Zm-2.81,0c0-.07-.06-.13-.13-.13h-1.65c-.07,0-.13,.06-.13,.13s.06,.13,.13,.13h1.65c.07,0,.13-.06,.13-.13Zm4.97,1.14v-7.9c0-.67-.55-1.22-1.22-1.22h-6.6c-.67,0-1.22,.55-1.22,1.22v7.9c0,.67,.55,1.22,1.22,1.22h6.6c.67,0,1.22-.55,1.22-1.22Zm-1.22-8.86c.53,0,.96,.43,.96,.96v7.9c0,.53-.43,.96-.96,.96h-6.6c-.53,0-.96-.43-.96-.96v-7.9c0-.53,.43-.96,.96-.96h6.6Z"/>
              <path class="cls-1" d="M76.32,112.65c.01,.26-.1,.49-.27,.65-.15,.13-.34,.21-.56,.21s-.42-.08-.57-.22c-.16-.15-.26-.37-.26-.6,0-.47,.39-.85,.87-.83,.42,.02,.77,.37,.79,.79Zm0,.78c-.05-.03-.12-.03-.17,.01-.17,.15-.4,.24-.65,.24s-.49-.1-.67-.25c-.05-.04-.12-.05-.17-.02-.07,.05-.14,.1-.2,.16-.2,.2-.33,.49-.33,.8,0,.15,.12,.26,.27,.26h2.16c.07,0,.14-.03,.19-.08,.05-.05,.08-.12,.08-.19,0-.39-.2-.73-.51-.93Zm.59,1.73s-.04-.08-.08-.08h-2.7s-.08,.04-.08,.08,.04,.08,.08,.08h2.7s.08-.04,.08-.08Zm0,1.26s-.04-.08-.08-.08h-2.7s-.08,.04-.08,.08,.04,.08,.08,.08h2.7s.08-.04,.08-.08Zm0-.83s-.04-.08-.08-.08h-1.05s-.08,.04-.08,.08,.04,.08,.08,.08h1.05s.08-.04,.08-.08Zm-1.7,0s-.04-.08-.08-.08h-1s-.08,.04-.08,.08,.04,.08,.08,.08h1s.08-.04,.08-.08Zm1.7,.41s-.04-.08-.08-.08h-1.05s-.08,.04-.08,.08,.04,.08,.08,.08h1.05s.08-.04,.08-.08Zm-1.7,0s-.04-.08-.08-.08h-1s-.08,.04-.08,.08,.04,.08,.08,.08h1s.08-.04,.08-.08Zm3,.69v-4.77c0-.41-.33-.73-.73-.73h-3.99c-.41,0-.73,.33-.73,.73v4.77c0,.41,.33,.73,.73,.73h3.99c.41,0,.73-.33,.73-.73Zm-.73-5.35c.32,0,.58,.26,.58,.58v4.77c0,.32-.26,.58-.58,.58h-3.99c-.32,0-.58-.26-.58-.58v-4.77c0-.32,.26-.58,.58-.58h3.99Z"/>
              <path class="cls-8" d="M115.24,70.21c.01,.25-.09,.47-.26,.62-.14,.13-.33,.2-.53,.2s-.4-.08-.54-.21c-.15-.14-.25-.35-.25-.58,0-.45,.37-.81,.83-.79,.4,.02,.73,.35,.75,.75Zm0,.74c-.05-.03-.12-.03-.16,.01-.17,.14-.38,.23-.62,.23s-.47-.09-.63-.24c-.04-.04-.11-.05-.16-.02-.07,.04-.14,.1-.19,.15-.19,.19-.32,.46-.31,.76,0,.14,.12,.25,.26,.25h2.06c.07,0,.14-.03,.18-.08,.05-.05,.08-.11,.08-.18,0-.37-.19-.7-.48-.89Zm.56,1.65s-.03-.07-.07-.07h-2.57s-.07,.03-.07,.07,.03,.07,.07,.07h2.57s.07-.03,.07-.07Zm0,1.2s-.03-.07-.07-.07h-2.57s-.07,.03-.07,.07,.03,.07,.07,.07h2.57s.07-.03,.07-.07Zm0-.79s-.03-.07-.07-.07h-1s-.07,.03-.07,.07,.03,.07,.07,.07h1s.07-.03,.07-.07Zm-1.62,0s-.03-.07-.07-.07h-.95s-.07,.03-.07,.07,.03,.07,.07,.07h.95s.07-.03,.07-.07Zm1.62,.39s-.03-.07-.07-.07h-1s-.07,.03-.07,.07,.03,.07,.07,.07h1s.07-.03,.07-.07Zm-1.62,0s-.03-.07-.07-.07h-.95s-.07,.03-.07,.07,.03,.07,.07,.07h.95s.07-.03,.07-.07Zm2.86,.66v-4.55c0-.39-.31-.7-.7-.7h-3.8c-.39,0-.7,.31-.7,.7v4.55c0,.39,.31,.7,.7,.7h3.8c.39,0,.7-.31,.7-.7Zm-.7-5.1c.3,0,.55,.25,.55,.55v4.55c0,.3-.25,.55-.55,.55h-3.8c-.3,0-.55-.25-.55-.55v-4.55c0-.3,.25-.55,.55-.55h3.8Z"/>
              <path class="cls-13" d="M82.33,91.17c.01,.29-.11,.55-.3,.73-.16,.15-.38,.24-.62,.24s-.47-.09-.63-.25c-.18-.17-.29-.41-.29-.68,0-.53,.44-.95,.97-.93,.47,.02,.86,.41,.88,.89Zm0,.87c-.06-.04-.14-.03-.19,.02-.2,.17-.45,.27-.73,.27s-.55-.11-.75-.29c-.05-.05-.13-.06-.19-.02-.08,.05-.16,.11-.23,.18-.23,.23-.37,.55-.37,.89,0,.16,.14,.29,.3,.29h2.42c.08,0,.16-.03,.21-.09,.05-.05,.09-.13,.09-.21,0-.44-.23-.82-.57-1.05Zm.66,1.93s-.04-.09-.09-.09h-3.02s-.09,.04-.09,.09,.04,.09,.09,.09h3.02s.09-.04,.09-.09Zm0,1.41s-.04-.09-.09-.09h-3.02s-.09,.04-.09,.09,.04,.09,.09,.09h3.02s.09-.04,.09-.09Zm0-.93s-.04-.09-.09-.09h-1.17s-.09,.04-.09,.09,.04,.09,.09,.09h1.17s.09-.04,.09-.09Zm-1.9,0s-.04-.09-.09-.09h-1.12s-.09,.04-.09,.09,.04,.09,.09,.09h1.12s.09-.04,.09-.09Zm1.9,.46s-.04-.09-.09-.09h-1.17s-.09,.04-.09,.09,.04,.09,.09,.09h1.17s.09-.04,.09-.09Zm-1.9,0s-.04-.09-.09-.09h-1.12s-.09,.04-.09,.09,.04,.09,.09,.09h1.12s.09-.04,.09-.09Zm3.36,.77v-5.35c0-.45-.37-.82-.82-.82h-4.47c-.45,0-.82,.37-.82,.82v5.35c0,.45,.37,.82,.82,.82h4.47c.45,0,.82-.37,.82-.82Zm-.82-6c.36,0,.65,.29,.65,.65v5.35c0,.36-.29,.65-.65,.65h-4.47c-.36,0-.65-.29-.65-.65v-5.35c0-.36,.29-.65,.65-.65h4.47Z"/>
              <path class="cls-12" d="M144.07,137.69c.02,.4-.15,.77-.42,1.02-.23,.21-.54,.34-.87,.34s-.65-.13-.89-.35c-.25-.24-.41-.57-.41-.95,0-.74,.61-1.33,1.36-1.29,.66,.03,1.21,.58,1.23,1.24Zm-.01,1.22c-.08-.05-.19-.04-.27,.02-.27,.24-.63,.38-1.02,.38s-.76-.15-1.04-.4c-.07-.07-.18-.08-.26-.03-.12,.07-.22,.16-.32,.25-.32,.32-.52,.76-.51,1.25,0,.23,.19,.41,.42,.41h3.38c.12,0,.22-.05,.3-.12,.08-.08,.12-.18,.12-.3,0-.61-.32-1.15-.79-1.46Zm.92,2.7c0-.07-.06-.12-.12-.12h-4.22c-.07,0-.12,.06-.12,.12s.06,.12,.12,.12h4.22c.07,0,.12-.06,.12-.12Zm0,1.97c0-.07-.06-.12-.12-.12h-4.22c-.07,0-.12,.06-.12,.12s.06,.12,.12,.12h4.22c.07,0,.12-.06,.12-.12Zm0-1.3c0-.07-.06-.12-.12-.12h-1.64c-.07,0-.12,.06-.12,.12s.06,.12,.12,.12h1.64c.07,0,.12-.06,.12-.12Zm-2.66,0c0-.07-.06-.12-.12-.12h-1.56c-.07,0-.12,.06-.12,.12s.06,.12,.12,.12h1.56c.07,0,.12-.06,.12-.12Zm2.66,.65c0-.07-.06-.12-.12-.12h-1.64c-.07,0-.12,.06-.12,.12s.06,.12,.12,.12h1.64c.07,0,.12-.06,.12-.12Zm-2.66,0c0-.07-.06-.12-.12-.12h-1.56c-.07,0-.12,.06-.12,.12s.06,.12,.12,.12h1.56c.07,0,.12-.06,.12-.12Zm4.7,1.08v-7.48c0-.63-.52-1.15-1.15-1.15h-6.24c-.63,0-1.15,.52-1.15,1.15v7.48c0,.63,.52,1.15,1.15,1.15h6.24c.63,0,1.15-.52,1.15-1.15Zm-1.15-8.38c.5,0,.9,.41,.9,.9v7.48c0,.5-.41,.9-.9,.9h-6.24c-.5,0-.9-.41-.9-.9v-7.48c0-.5,.41-.9,.9-.9h6.24Z"/>
            </g>
          </g>
          <path class="cls-30" d="M138.3,41.11H61.74c-7.24,0-13.12,5.88-13.12,13.12v91.54c0,7.24,5.88,13.12,13.12,13.12h76.56c7.2,0,13.08-5.88,13.08-13.12V54.23c0-7.24-5.88-13.12-13.08-13.12Z"/>
          <path class="cls-34" d="M89.09,68.57c-2.36,0-4.71,.4-6.96,1.18h0c-5.38,1.86-9.71,5.71-12.2,10.82-2.49,5.12-2.83,10.9-.97,16.27,2.97,8.58,11.06,14.35,20.13,14.35,2.36,0,4.71-.4,6.97-1.18,5.38-1.86,9.71-5.7,12.2-10.82,2.49-5.12,2.83-10.9,.97-16.28-2.97-8.58-11.06-14.34-20.13-14.34h0Z"/>
          <g>
            <g>
              <path class="cls-3" d="M94.71,81.72c.07,1.65-.65,3.14-1.81,4.15-.98,.85-2.27,1.37-3.69,1.37-1.45,0-2.77-.54-3.75-1.42-1.07-.96-1.75-2.33-1.75-3.86,0-3.01,2.6-5.52,5.76-5.37,2.81,.13,5.12,2.43,5.23,5.15Z"/>
              <path class="cls-3" d="M98.05,92.64c0,.47-.19,.9-.52,1.2-.32,.31-.77,.5-1.27,.5-4.79-.01-9.55-.01-14.35,0-.97,0-1.78-.73-1.79-1.65,0-1.96,.84-3.76,2.2-5.07,.41-.39,.86-.74,1.36-1.04,.36-.21,.81-.16,1.12,.11,1.17,1.01,2.72,1.62,4.41,1.62,1.64,0,3.15-.58,4.31-1.53,.32-.26,.78-.31,1.13-.09,2.03,1.29,3.38,3.49,3.39,5.95Z"/>
            </g>
            <path class="cls-35" d="M98.1,98.13c-6.02,0-12,0-18.02,0-.29,0-.52-.22-.52-.49,0-.27,.24-.5,.53-.5,6.01-.01,11.98-.01,17.99,0,.29,0,.53,.22,.53,.5,0,.27-.23,.5-.52,.49Z"/>
            <path class="cls-35" d="M98.14,100.84c-2.35,0-4.69,0-7.03,0-.29,0-.53-.22-.53-.5,0-.27,.23-.5,.52-.5,2.34,0,4.68,0,7.02,0,.29,0,.53,.22,.54,.5,0,.27-.23,.49-.52,.49Z"/>
            <path class="cls-35" d="M86.73,100.84c-2.23,0-4.46,0-6.69,0-.29,0-.52-.22-.52-.49,0-.27,.25-.5,.54-.5,2.23,0,4.46,0,6.68,0,.29,0,.53,.22,.52,.5,0,.27-.24,.5-.53,.5Z"/>
            <path class="cls-31" d="M98.2,103.45c-2.36,0-4.72,0-7.08,0-.29,0-.53-.22-.53-.5,0-.27,.24-.5,.53-.5,2.35,0,4.7,0,7.06,0,.29,0,.54,.22,.54,.49,0,.27-.23,.49-.52,.49Z"/>
            <path class="cls-29" d="M86.71,103.45c-2.24,0-4.49,0-6.74,0-.29,0-.53-.22-.52-.49,0-.27,.25-.49,.54-.49,2.24,0,4.48,0,6.72,0,.29,0,.53,.22,.53,.5,0,.27-.24,.49-.53,.5Z"/>
            <path class="cls-35" d="M102.89,109.91h-27.6c-2.82,0-4.91-2.08-4.76-4.62,.55-10,.16-19.97,.25-29.95,.03-2.53,2.29-4.78,4.99-4.94,8.88-.51,17.77-.51,26.65,0,2.7,.17,4.95,2.42,4.99,4.94,.09,9.98-.3,19.94,.25,29.95,.15,2.55-1.94,4.62-4.76,4.62Zm-27.13-38.5c-2.13,.12-3.9,1.88-3.91,3.88-.06,10.02,.28,20-.25,30-.11,2,1.55,3.63,3.75,3.63,9.16,0,18.32,0,27.48,0,2.2,0,3.86-1.63,3.75-3.63-.53-10.01-.19-19.98-.25-30-.02-2-1.79-3.76-3.91-3.88-8.9-.48-17.76-.48-26.66,0Z"/>
          </g>
          <g>
            <g>
              <path class="cls-29" d="M132.64,126.22c.44-.44,.44-1.16,0-1.6l-15.96-16.04c-.44-.44-1.15-.44-1.59,0l-6.93,6.92c-.44,.44-.44,1.16,0,1.6l15.96,16.04c.44,.44,1.15,.44,1.59,0l6.93-6.92Z"/>
              <path class="cls-28" d="M132.64,126.22c.44-.44,.44-1.16,0-1.6l-15.96-16.04c-.44-.44-1.15-.44-1.59,0l-6.93,6.92c-.44,.44-.44,1.16,0,1.6l15.96,16.04c.44,.44,1.15,.44,1.59,0l6.93-6.92Z"/>
            </g>
            <path class="cls-27" d="M89.09,60.64c12.11,0,23.44,7.59,27.62,19.68,5.28,15.25-2.81,31.9-18.06,37.18-3.16,1.09-6.39,1.62-9.56,1.62-12.11,0-23.44-7.59-27.62-19.68-5.28-15.25,2.81-31.9,18.06-37.18,3.16-1.09,6.39-1.61,9.56-1.61m0,7.92c-2.36,0-4.71,.4-6.96,1.18h0c-5.38,1.86-9.71,5.71-12.2,10.82-2.49,5.12-2.83,10.9-.97,16.27,2.97,8.58,11.06,14.35,20.13,14.35,2.36,0,4.71-.4,6.97-1.18,5.38-1.86,9.71-5.7,12.2-10.82,2.49-5.12,2.83-10.9,.97-16.28-2.97-8.58-11.06-14.34-20.13-14.34h0Z"/>
          </g>
        </g>
      </g>
    </g>
  </g>
</svg>