<?xml version="1.0" encoding="UTF-8"?>
<svg id="Layer_2" data-name="Layer 2" xmlns="http://www.w3.org/2000/svg" viewBox="0 0 200 200">
  <defs>
    <style>
      .cls-1, .cls-2 {
        fill: #fff;
      }

      .cls-3 {
        stroke-miterlimit: 10;
        stroke-width: 2px;
      }

      .cls-3, .cls-4 {
        stroke: #f2f2f2;
      }

      .cls-3, .cls-5 {
        fill: #39b54a;
      }

      .cls-4 {
        fill: none;
        stroke-linecap: round;
        stroke-linejoin: round;
      }

      .cls-2 {
        font-family: Poppins-Regular, Poppins;
        font-size: 10px;
      }

      .cls-6 {
        fill: #635ba9;
      }

      .cls-7 {
        fill: #f2f2f2;
      }
    </style>
  </defs>
  <g id="Layer_1-2" data-name="Layer 1">
    <g>
      <path class="cls-7" d="M100.02,0C44.86,0,0,44.86,0,100.02s44.86,99.98,100.02,99.98,99.98-44.86,99.98-99.98S155.14,0,100.02,0Z"/>
      <path class="cls-6" d="M138.3,41.11H61.74c-7.24,0-13.12,5.88-13.12,13.12v91.54c0,7.24,5.88,13.12,13.12,13.12h76.56c7.2,0,13.08-5.88,13.08-13.12V54.23c0-7.24-5.88-13.12-13.08-13.12Z"/>
      <g>
        <g>
          <path class="cls-1" d="M112.87,74.97c.16,3.91-1.46,7.45-4.12,9.86-2.24,2.03-5.2,3.27-8.45,3.27s-6.35-1.29-8.59-3.4c-2.45-2.3-3.99-5.56-3.99-9.18,0-7.14,5.96-12.9,13.18-12.56,6.43,.3,11.71,5.6,11.97,12.03Z"/>
          <path class="cls-1" d="M120.48,100.98c0,1.13-.45,2.15-1.2,2.89-.74,.75-1.76,1.2-2.89,1.2h-32.79c-2.21,0-4.07-1.76-4.09-3.97-.03-4.71,1.88-9.01,4.99-12.11,.93-.93,1.98-1.76,3.1-2.46,.81-.5,1.86-.37,2.57,.27,2.69,2.41,6.23,3.87,10.11,3.87s7.23-1.39,9.89-3.67c.73-.63,1.78-.75,2.59-.22,4.64,3.03,7.72,8.28,7.72,14.2Z"/>
        </g>
        <path class="cls-7" d="M130.3,147.45h-60.6c-6.16,0-11.17-5.01-11.17-11.17V63.71c0-6.16,5.01-11.17,11.17-11.17h60.6c6.16,0,11.17,5.01,11.17,11.17v72.57c0,6.16-5.01,11.17-11.17,11.17ZM69.7,54.93c-4.84,0-8.78,3.94-8.78,8.78v72.57c0,4.84,3.94,8.78,8.78,8.78h60.6c4.84,0,8.78-3.94,8.78-8.78V63.71c0-4.84-3.94-8.78-8.78-8.78h-60.6Z"/>
        <g>
          <polygon class="cls-5" points="76.34 71.89 72.19 69.66 68.05 71.91 68.89 67.27 65.47 64.03 70.14 63.39 72.16 59.14 74.21 63.38 78.88 63.99 75.48 67.25 76.34 71.89"/>
          <polygon class="cls-4" points="76.34 71.89 72.19 69.66 68.05 71.91 68.89 67.27 65.47 64.03 70.14 63.39 72.16 59.14 74.21 63.38 78.88 63.99 75.48 67.25 76.34 71.89"/>
        </g>
      </g>
      <rect class="cls-3" x="69.61" y="115.89" width="60.78" height="18" rx="9" ry="9"/>
      <text class="cls-2" transform="translate(78.59 128.53)"><tspan x="0" y="0">Connect</tspan></text>
    </g>
  </g>
</svg>