<?xml version="1.0" encoding="UTF-8"?>
<svg id="Layer_2" data-name="Layer 2" xmlns="http://www.w3.org/2000/svg" viewBox="0 0 200 200">
  <defs>
    <style>
      .cls-1 {
        fill: #39b54a;
      }

      .cls-2 {
        fill: #6159a8;
      }

      .cls-3 {
        fill: #f2f2f2;
      }
    </style>
  </defs>
  <g id="Layer_1-2" data-name="Layer 1">
    <g>
      <g>
        <circle class="cls-3" cx="100" cy="100" r="100"/>
        <g>
          <path class="cls-2" d="M143.47,150.89H56.53V52.88c0-2.08,1.69-3.77,3.77-3.77h79.39c2.08,0,3.77,1.69,3.77,3.77v98.01Zm.62-109.78H55.91c-4.06,0-7.38,3.32-7.38,7.38v103.03c0,4.06,3.32,7.38,7.38,7.38h88.18c4.06,0,7.38-3.32,7.38-7.38V48.49c0-4.06-3.32-7.38-7.38-7.38h0Z"/>
          <path class="cls-2" d="M144.33,158.5H55.67c-3.68,0-6.67-2.99-6.67-6.67v-29.33h102v29.33c0,3.68-2.99,6.67-6.67,6.67Z"/>
          <g>
            <path class="cls-2" d="M95.91,83.02h8.18c10.89,0,19.8,8.91,19.8,19.8h0c0,2.64-2.14,4.77-4.77,4.77h-38.24c-2.64,0-4.77-2.14-4.77-4.77h0c0-10.89,8.91-19.8,19.8-19.8Z"/>
            <g>
              <path class="cls-2" d="M100.34,89.3c-8.92,0-16.17-7.26-16.17-16.18s7.26-16.17,16.17-16.17,16.18,7.26,16.18,16.17-7.26,16.18-16.18,16.18Z"/>
              <path class="cls-3" d="M100.34,58.45c8.1,0,14.68,6.57,14.68,14.68s-6.57,14.68-14.68,14.68-14.68-6.57-14.68-14.68,6.57-14.68,14.68-14.68m0-3c-9.75,0-17.68,7.93-17.68,17.68s7.93,17.68,17.68,17.68,17.68-7.93,17.68-17.68-7.93-17.68-17.68-17.68h0Z"/>
            </g>
          </g>
        </g>
      </g>
      <g>
        <path class="cls-3" d="M114.98,136.37h-.36c-1.62-6.16-7.86-10.75-15.33-10.75s-13.89,4.72-15.4,11c-4.28,.97-7.5,4.81-7.5,9.38h0c0,5.29,4.33,9.62,9.62,9.62h28.97c5.29,0,9.62-4.33,9.62-9.62h0c0-5.29-4.33-9.62-9.62-9.62Z"/>
        <path class="cls-1" d="M104.19,140.77v8.53c0,.41-.33,.74-.74,.74h-6.07c-.41,0-.74-.33-.74-.74v-8.53h-5.89c-.23,0-.34-.27-.18-.44l9.56-9.79c.21-.22,.56-.22,.77,0l9.43,9.65c.21,.21,.06,.58-.24,.58h-5.89Z"/>
      </g>
    </g>
  </g>
</svg>