<?xml version="1.0" encoding="UTF-8"?>
<svg id="Layer_2" data-name="Layer 2" xmlns="http://www.w3.org/2000/svg" viewBox="0 0 200 200">
  <defs>
    <style>
      .cls-1 {
        stroke-miterlimit: 10;
        stroke-width: 2px;
      }

      .cls-1, .cls-2 {
        fill: none;
        stroke: #f2f2f2;
      }

      .cls-2 {
        stroke-linecap: round;
        stroke-linejoin: round;
      }

      .cls-3 {
        fill: #39b54a;
      }

      .cls-4 {
        fill: #6159a8;
      }

      .cls-5 {
        fill: #f2f2f2;
      }
    </style>
  </defs>
  <g id="Layer_1-2" data-name="Layer 1">
    <g>
      <circle class="cls-5" cx="100" cy="100" r="100"/>
      <g>
        <rect class="cls-4" x="48.57" y="40.83" width="102.73" height="118.08" rx="5.47" ry="5.47" transform="translate(.46 -.46) rotate(.26)"/>
        <rect class="cls-5" x="67.49" y="97.97" width="45.76" height="4.42" rx="2.21" ry="2.21"/>
        <rect class="cls-5" x="67.49" y="138.41" width="69.33" height="4.42" rx="2.21" ry="2.21"/>
        <rect class="cls-5" x="67.49" y="128.3" width="69.33" height="4.42" rx="2.21" ry="2.21"/>
        <rect class="cls-5" x="67.49" y="118.19" width="69.33" height="4.42" rx="2.21" ry="2.21"/>
        <rect class="cls-5" x="67.49" y="108.08" width="69.33" height="4.42" rx="2.21" ry="2.21"/>
        <g>
          <path class="cls-5" d="M97.19,70.32h5.5c7.33,0,13.33,6,13.33,13.33h0c0,1.77-1.44,3.21-3.21,3.21h-25.74c-1.77,0-3.21-1.44-3.21-3.21h0c0-7.33,6-13.33,13.33-13.33Z"/>
          <g>
            <path class="cls-5" d="M100.17,75.03c-6.27,0-11.38-5.1-11.38-11.38s5.1-11.38,11.38-11.38,11.38,5.1,11.38,11.38-5.1,11.38-11.38,11.38Z"/>
            <path class="cls-4" d="M100.17,53.78c5.46,0,9.88,4.42,9.88,9.88s-4.42,9.88-9.88,9.88-9.88-4.42-9.88-9.88,4.42-9.88,9.88-9.88m0-3c-7.1,0-12.88,5.78-12.88,12.88s5.78,12.88,12.88,12.88,12.88-5.78,12.88-12.88-5.78-12.88-12.88-12.88h0Z"/>
          </g>
        </g>
      </g>
      <g>
        <path class="cls-5" d="M59.08,46.76v14.51h-3.53v-14.51h3.53Z"/>
        <path class="cls-5" d="M71.09,47.67c1.14,.61,2.03,1.46,2.66,2.55,.63,1.1,.94,2.36,.94,3.79s-.31,2.68-.94,3.78c-.63,1.1-1.52,1.96-2.67,2.56-1.15,.61-2.48,.91-4,.91h-5.44v-14.51h5.44c1.53,0,2.87,.3,4.01,.91Zm-1.12,9.45c.74-.73,1.12-1.76,1.12-3.1s-.37-2.38-1.12-3.12c-.74-.74-1.78-1.12-3.12-1.12h-1.67v8.43h1.67c1.34,0,2.38-.36,3.12-1.1Z"/>
      </g>
      <g>
        <g>
          <circle class="cls-3" cx="134.96" cy="144.2" r="17.83"/>
          <path class="cls-5" d="M134.96,163.97c-10.9,0-19.77-8.87-19.77-19.77s8.87-19.77,19.77-19.77,19.77,8.87,19.77,19.77-8.87,19.77-19.77,19.77Zm0-35.66c-8.77,0-15.89,7.13-15.89,15.89s7.13,15.89,15.89,15.89,15.89-7.13,15.89-15.89-7.13-15.89-15.89-15.89Z"/>
        </g>
        <g>
          <path class="cls-5" d="M133.22,152.44c-.48,0-.93-.19-1.27-.52l-5.39-5.4c-.86-.86-.87-2.27,0-3.13,.42-.42,.98-.65,1.57-.65s1.15,.23,1.57,.65l3.53,3.53,8.62-8.62c.42-.42,.98-.65,1.57-.65s1.15,.23,1.57,.65c.42,.42,.65,.98,.65,1.57s-.23,1.15-.65,1.57l-10.49,10.49c-.34,.34-.79,.53-1.27,.53Z"/>
          <path class="cls-5" d="M133.67,151.09c-.25,.25-.65,.25-.89,0l-5.39-5.39c-.41-.41-.41-1.08,0-1.49,.41-.41,1.08-.41,1.49,0l3.9,3.9c.25,.25,.65,.25,.89,0l9-9c.41-.41,1.08-.41,1.49,0,.41,.41,.41,1.08,0,1.49l-10.49,10.49Z"/>
        </g>
      </g>
      <g>
        <rect class="cls-2" x="89.54" y="43.39" width="20.92" height="4.43" rx="2.21" ry="2.21"/>
        <g>
          <rect class="cls-1" x="93.09" y="34.86" width="13.67" height="9.81" rx=".57" ry=".57"/>
          <rect class="cls-4" x="93.09" y="34.86" width="13.67" height="9.81" rx=".57" ry=".57"/>
        </g>
        <circle class="cls-5" cx="99.92" cy="37.27" r="1.41"/>
      </g>
    </g>
  </g>
</svg>