<?xml version="1.0" encoding="UTF-8"?>
<svg id="Layer_2" data-name="Layer 2" xmlns="http://www.w3.org/2000/svg" viewBox="0 0 200 200">
  <defs>
    <style>
      .cls-1 {
        fill: none;
        stroke: #39b54a;
        stroke-miterlimit: 10;
        stroke-width: 5px;
      }

      .cls-2 {
        fill: #6159a8;
      }

      .cls-3 {
        fill: #f2f2f2;
      }
    </style>
  </defs>
  <g id="Layer_1-2" data-name="Layer 1">
    <g>
      <circle class="cls-3" cx="100" cy="100" r="100"/>
      <path class="cls-2" d="M163.93,100c0,4.12-4.22,7.5-5.47,11.29s-1.99,7.83-3.5,11.47-3.44,7.23-5.23,10.79-3.99,6.49-6.84,9.33-5.33,5.74-8.97,7.57-7.07,3.89-10.78,5.43-7.49,2.83-11.35,4.11-7.68,1.96-11.79,1.96-7.86-1.14-11.65-2.39-8.28-1.15-11.92-2.66-6.82-4.59-10.39-6.38-7.67-3.2-10.51-6.05-2.5-7.74-4.33-11.38-4.83-6.53-6.37-10.24-4.05-7.03-5.32-10.89-1.16-7.85-1.16-11.96,1.47-7.66,2.72-11.45,1.15-8.22,2.66-11.87,3.49-7.32,5.29-10.89,5.07-6.04,7.92-8.88,6.27-4.05,9.91-5.89,6.22-5.63,9.93-7.16,7.99-1.38,11.86-2.65,7.28-3.44,11.4-3.44,7.5,2.51,11.29,3.76,7.31,3.25,10.95,4.77,8.37,.94,11.94,2.73,7.34,3.75,10.19,6.59,6.53,5.66,8.36,9.3-.14,8.95,1.4,12.65,4.09,6.93,5.36,10.79,4.44,7.51,4.44,11.63Z"/>
      <g>
        <path class="cls-1" d="M115.33,68.31c3.83,3.32,5.74,8.01,5.74,14.06,0,5.58-1.82,9.92-5.47,13.03-3.65,3.11-8.47,4.7-14.46,4.76v.15c-.25,3.67-3.3,9-6.98,9h0c-3.79,0-6.89-5.49-6.99-9.27l-.12-4.41c-.08-2.92,2.27-5.34,5.19-5.34h0c4.57,0,8.05-.56,10.45-1.69,2.4-1.13,3.6-3.17,3.6-6.14,0-2.08-.56-3.71-1.69-4.89-1.13-1.19-2.7-1.78-4.72-1.78-2.14,0-3.8,.61-4.98,1.82-.51,.52-.91,1.12-1.2,1.8-.79,1.84-2.46,3.14-4.46,3.14h-4.54c-3.57,0-6.08-3.52-4.92-6.9,.34-1,.77-1.96,1.29-2.88,1.63-2.91,4.06-5.2,7.3-6.89,3.23-1.69,7.13-2.54,11.7-2.54,6.35,0,11.43,1.66,15.26,4.98Zm-27.67,63c-1.73-1.61-2.65-3.98-2.52-6.34,.11-2.15,.95-3.96,2.52-5.45,1.69-1.6,3.87-2.4,6.54-2.4s4.76,.8,6.45,2.4c1.59,1.51,2.43,3.36,2.53,5.54,.1,2.33-.82,4.66-2.53,6.25s-3.84,2.36-6.45,2.36-4.85-.79-6.54-2.36Z"/>
        <path class="cls-3" d="M115.33,68.31c3.83,3.32,5.74,8.01,5.74,14.06,0,5.58-1.82,9.92-5.47,13.03-3.65,3.11-8.47,4.7-14.46,4.76v.15c-.25,3.67-3.3,9-6.98,9h0c-3.79,0-6.89-5.49-6.99-9.27l-.12-4.41c-.08-2.92,2.27-5.34,5.19-5.34h0c4.57,0,8.05-.56,10.45-1.69,2.4-1.13,3.6-3.17,3.6-6.14,0-2.08-.56-3.71-1.69-4.89-1.13-1.19-2.7-1.78-4.72-1.78-2.14,0-3.8,.61-4.98,1.82-.51,.52-.91,1.12-1.2,1.8-.79,1.84-2.46,3.14-4.46,3.14h-4.54c-3.57,0-6.08-3.52-4.92-6.9,.34-1,.77-1.96,1.29-2.88,1.63-2.91,4.06-5.2,7.3-6.89,3.23-1.69,7.13-2.54,11.7-2.54,6.35,0,11.43,1.66,15.26,4.98Zm-27.67,63c-1.73-1.61-2.65-3.98-2.52-6.34,.11-2.15,.95-3.96,2.52-5.45,1.69-1.6,3.87-2.4,6.54-2.4s4.76,.8,6.45,2.4c1.59,1.51,2.43,3.36,2.53,5.54,.1,2.33-.82,4.66-2.53,6.25s-3.84,2.36-6.45,2.36-4.85-.79-6.54-2.36Z"/>
      </g>
    </g>
  </g>
</svg>