<svg width="45" height="51" viewBox="0 0 45 51" fill="none" xmlns="http://www.w3.org/2000/svg">
<g clip-path="url(#clip0_13_8)">
<path d="M25.865 44.3361L23.635 46.5475C22.6909 47.4838 21.1641 47.4838 20.2299 46.5475L0.703127 27.1934C-0.241069 26.257 -0.241069 24.743 0.703127 23.8166L20.2299 4.45254C21.1741 3.51621 22.7009 3.51621 23.635 4.45254L25.865 6.66386C26.8192 7.61015 26.7991 9.1541 25.8248 10.0805L13.721 21.5156H42.5893C43.9252 21.5156 45 22.5814 45 23.9062V27.0937C45 28.4186 43.9252 29.4844 42.5893 29.4844H13.721L25.8248 40.9195C26.8092 41.8459 26.8292 43.3898 25.865 44.3361Z" fill="#6158a7"/>
</g>
<defs>
<clipPath id="clip0_13_8">
<rect width="45" height="51" fill="white"/>
</clipPath>
</defs>
</svg>
