<svg width="106" height="106" viewBox="0 0 106 106" fill="none" xmlns="http://www.w3.org/2000/svg">
<path d="M53 1.65625C24.6436 1.65625 1.65625 24.6436 1.65625 53C1.65625 81.3564 24.6436 104.344 53 104.344C81.3564 104.344 104.344 81.3564 104.344 53C104.344 24.6436 81.3564 1.65625 53 1.65625ZM53 11.5938C75.8836 11.5938 94.4062 30.1129 94.4062 53C94.4062 75.8836 75.8871 94.4062 53 94.4062C30.1164 94.4062 11.5938 75.8871 11.5938 53C11.5938 30.1164 30.1129 11.5938 53 11.5938ZM82.0266 38.5631L77.361 33.8598C76.3947 32.8857 74.8217 32.8793 73.8476 33.8457L44.5834 62.8748L32.2045 50.3955C31.2383 49.4215 29.6653 49.415 28.6912 50.3813L23.9877 55.0469C23.0136 56.0131 23.0072 57.5862 23.9736 58.5604L42.7681 77.5071C43.7343 78.4812 45.3073 78.4876 46.2814 77.5212L82.0127 42.0766C82.9866 41.1102 82.9928 39.5372 82.0266 38.5631V38.5631Z" fill="#522E8E"/>
</svg>
