<svg xmlns="http://www.w3.org/2000/svg" viewBox="0 0 16.67 16.8"><defs><style>.cls-1{fill:#fff;}</style></defs><g id="Layer_2" data-name="Layer 2"><g id="profiles"><path class="cls-1" d="M4.6,10.41A2.67,2.67,0,0,0,6.09,8a2.69,2.69,0,1,0-3.9,2.39A3,3,0,0,0,0,12.91a.77.77,0,0,0,.19.6.81.81,0,0,0,.61.27H6a.8.8,0,0,0,.59-.27.73.73,0,0,0,.19-.6A3,3,0,0,0,4.6,10.41ZM1.22,8A2.18,2.18,0,1,1,3.4,10.2,2.18,2.18,0,0,1,1.22,8ZM6,13.28H.8A.28.28,0,0,1,.5,13,2.49,2.49,0,0,1,3,10.81h.87A2.48,2.48,0,0,1,6.29,13,.28.28,0,0,1,6,13.28Z"/><path class="cls-1" d="M14.48,7.33a2.69,2.69,0,1,0-2.41,0,3,3,0,0,0-2.19,2.5.73.73,0,0,0,.19.6.8.8,0,0,0,.59.27h5.21a.81.81,0,0,0,.61-.27.77.77,0,0,0,.19-.6A3,3,0,0,0,14.48,7.33ZM11.1,4.94a2.18,2.18,0,1,1,2.17,2.18A2.18,2.18,0,0,1,11.1,4.94Zm4.77,5.26H10.66a.28.28,0,0,1-.28-.31,2.48,2.48,0,0,1,2.46-2.16h.87a2.5,2.5,0,0,1,2.46,2.16A.29.29,0,0,1,15.87,10.2Z"/><path class="cls-1" d="M10,2,7.83,0,7.6,1A5.12,5.12,0,0,0,3,3.49a.5.5,0,0,0,.21.67.53.53,0,0,0,.24.06A.49.49,0,0,0,3.84,4,4.11,4.11,0,0,1,7.37,2l-.22.92Z"/><path class="cls-1" d="M14.18,12.63a.51.51,0,0,0-.68.21A4.1,4.1,0,0,1,10,14.79l.21-.91-2.86.87L9.51,16.8l.23-1H10a5.08,5.08,0,0,0,4.43-2.51A.51.51,0,0,0,14.18,12.63Z"/></g></g></svg>