<?xml version="1.0" encoding="utf-8"?>
<!-- Generator: Adobe Illustrator 26.4.1, SVG Export Plug-In . SVG Version: 6.00 Build 0)  -->
<svg version="1.1" id="Layer_1" xmlns="http://www.w3.org/2000/svg" xmlns:xlink="http://www.w3.org/1999/xlink" x="0px" y="0px"
	 viewBox="0 0 42 38.7" style="enable-background:new 0 0 42 38.7;" xml:space="preserve">
<style type="text/css">
	.st0{fill:#3ab549;}
</style>
<path class="st0" d="M122.6,51.6h-34c-2.2,0-4-1.8-4-4V16.9c0-2.2,1.8-4,4-4h34c2.2,0,4,1.8,4,4v30.7
	C126.6,49.8,124.8,51.6,122.6,51.6z"/>
<path class="st0" d="M25.1,13.8c1.7,1.7,2,5.3-4.1,8.5c-6.1-3.1-5.9-6.7-4.1-8.5s4.1-0.6,4.1,0.8C21,13.2,23.4,12,25.1,13.8z"/>
<path class="st0" d="M11.1,7.3c0.2,0.2,0.4,0.3,0.6,0.4c0.5,0.2,1.1,0.1,1.5-0.3c3.2-2.8,7.6-3.6,11.6-2.3l-1.5,2.4l8.8,0.2L27.9,0
	l-1.5,2.5c-5.2-2-11.1-1-15.2,2.7C10.5,5.8,10.5,6.7,11.1,7.3C11.1,7.3,11.1,7.3,11.1,7.3z"/>
<path class="st0" d="M31.7,31.4c-0.2-0.2-0.4-0.3-0.6-0.4c-0.5-0.2-1.1-0.1-1.5,0.3C26.4,34.1,22,35,18,33.6l1.5-2.4L10.7,31
	l4.3,7.7l1.5-2.5c5.2,2,11.1,1,15.2-2.7C32.3,32.9,32.3,32,31.7,31.4C31.8,31.4,31.8,31.4,31.7,31.4z"/>
<path class="st0" d="M15.8,25.1c0,0.9-0.7,1.6-1.6,1.6H1.6C0.7,26.7,0,26,0,25.1c0-2,0.9-3.8,2.4-5c0.4-0.3,0.9-0.3,1.3,0
	c1.1,1,2.7,1.7,4.3,1.6c1.6,0,3.1-0.6,4.2-1.6c0.4-0.3,0.9-0.3,1.3,0C14.9,21.4,15.7,23.2,15.8,25.1z M12.6,15.3
	c0,2.5-2.1,4.6-4.6,4.6c-2.5,0-4.6-2.1-4.6-4.6s2.1-4.6,4.6-4.6C10.5,10.7,12.6,12.8,12.6,15.3z"/>
<path class="st0" d="M42,25.1c0,0.9-0.7,1.6-1.6,1.6H27.8c-0.9,0-1.6-0.7-1.6-1.6c0-2,0.9-3.8,2.4-5c0.4-0.3,0.9-0.3,1.3,0
	c1.1,1,2.7,1.7,4.3,1.6c1.6,0,3.1-0.6,4.2-1.6c0.4-0.3,0.9-0.3,1.3,0C41.2,21.4,42,23.2,42,25.1z M38.9,15.3c0,2.5-2.1,4.6-4.6,4.6
	c-2.5,0-4.6-2.1-4.6-4.6s2.1-4.6,4.6-4.6C36.8,10.7,38.9,12.8,38.9,15.3z"/>
</svg>
