<?xml version="1.0" encoding="utf-8"?>
<!-- Generator: Adobe Illustrator 24.3.0, SVG Export Plug-In . SVG Version: 6.00 Build 0)  -->
<svg version="1.1" id="Layer_1" xmlns="http://www.w3.org/2000/svg" xmlns:xlink="http://www.w3.org/1999/xlink" x="0px" y="0px"
	 viewBox="0 0 49.2 51.7" style="enable-background:new 0 0 49.2 51.7;" xml:space="preserve">
<style type="text/css">
	.st0{fill:#3ab549;}
	.st1{fill:#3ab549;}
</style>
<path class="st0" d="M20.9,9l0.7-2.9c-4.4,0-8.6,2.3-10.9,6.1C10.4,12.7,9.9,13,9.3,13c-0.2,0-0.5-0.1-0.7-0.2
	c-0.7-0.4-1-1.3-0.6-2.1c3-5,8.4-8,14.3-7.7L23,0l6.7,6.3L20.9,9z"/>
<path class="st0" d="M42.2,41c-2.8,4.8-8,7.8-13.6,7.7h-0.7l-0.7,3l-6.7-6.3l8.8-2.7l-0.7,2.8c4.4,0,8.5-2.3,10.9-6
	c0.4-0.8,1.3-1,2.1-0.6C42.3,39.3,42.6,40.2,42.2,41L42.2,41z"/>
<path class="st1" d="M16.4,31.1c3.6-2.6,4.3-7.7,1.6-11.3c-1.1-1.5-2.8-2.6-4.7-3.1c-4.4-1-8.7,2-9.7,6.4c-0.2,0.5-0.2,1-0.2,1.5
	c0,2.6,1.1,4.9,3.3,6.4c-2.9,1.3-5.2,3.8-6.5,6.7c-0.7,1.8,0.2,3.8,2,4.4c0.3,0.2,0.8,0.3,1.3,0.3h16.4c2,0,3.4-1.5,3.4-3.4
	c0-0.5-0.2-0.8-0.3-1.3C21.8,34.7,19.4,32.2,16.4,31.1z"/>
<path class="st1" d="M42.3,21.6c3.6-2.6,4.3-7.7,1.6-11.3c-1.1-1.5-2.8-2.6-4.7-3.1c-4.4-1-8.7,2-9.7,6.4c-0.2,0.5-0.2,1-0.2,1.5
	c0,2.6,1.1,4.9,3.3,6.4c-2.9,1.3-5.2,3.8-6.5,6.7c-0.7,1.8,0.2,3.8,2,4.4c0.3,0.2,0.8,0.3,1.3,0.3h16.4c2,0,3.4-1.5,3.4-3.4
	c0-0.5-0.2-0.8-0.3-1.3C47.7,25.2,45.3,22.7,42.3,21.6z"/>
</svg>
