<svg width="118" height="118" viewBox="0 0 118 118" fill="none" xmlns="http://www.w3.org/2000/svg">
<path d="M106.938 0C113.047 0 118 4.95277 118 11.0625V77.4375C118 83.5472 113.047 88.5 106.938 88.5H40.5625C34.4528 88.5 29.5 83.5472 29.5 77.4375V11.0625C29.5 4.95277 34.4528 0 40.5625 0H106.938ZM40.5625 95.875C30.3961 95.875 22.125 87.6039 22.125 77.4375V29.5H11.0625C4.95277 29.5 0 34.4528 0 40.5625V106.938C0 113.047 4.95277 118 11.0625 118H77.4375C83.5472 118 88.5 113.047 88.5 106.938V95.875H40.5625Z" fill="#522E8E"/>
</svg>
