<svg width="148" height="104" viewBox="0 0 148 104" fill="none" xmlns="http://www.w3.org/2000/svg">
<path d="M124.32 45.2242C125.268 42.7582 125.8 40.0617 125.8 37.25C125.8 25.0352 115.856 15.125 103.6 15.125C99.0444 15.125 94.7894 16.5078 91.2744 18.8586C84.8688 7.79609 72.9131 0.375 59.2 0.375C38.7575 0.375 22.2 16.8766 22.2 37.25C22.2 37.8723 22.2231 38.4945 22.2462 39.1168C9.29625 43.657 0 55.9641 0 70.4375C0 88.7598 14.9156 103.625 33.3 103.625H118.4C134.749 103.625 148 90.4191 148 74.125C148 59.859 137.825 47.9438 124.32 45.2242ZM93.5869 65.6668L69.2131 89.9582C67.7794 91.3871 65.4206 91.3871 63.9869 89.9582L39.6131 65.6668C37.2775 63.3391 38.9425 59.375 42.2263 59.375H57.35V33.5625C57.35 31.5344 59.015 29.875 61.05 29.875H72.15C74.185 29.875 75.85 31.5344 75.85 33.5625V59.375H90.9737C94.2575 59.375 95.9225 63.3391 93.5869 65.6668V65.6668Z" fill="#522E8E"/>
</svg>
