<svg xmlns="http://www.w3.org/2000/svg" xmlns:xlink="http://www.w3.org/1999/xlink" viewBox="0 0 29.85 26.25"><defs><style>.cls-1{fill:none;stroke:#b0acd3;stroke-miterlimit:10;}.cls-2{fill:#6159a8;}</style><symbol id="Edit" data-name="Edit" viewBox="0 0 29.85 26.25"><rect class="cls-1" x="0.5" y="0.5" width="28.85" height="25.25" rx="2.2"/><path class="cls-2" d="M17.54,5.46,8.7,14.3l.16.16a.21.21,0,0,0-.11,0,.72.72,0,0,0-.53.55L6.76,21.23,13,19.76a.74.74,0,0,0,.53-.51.14.14,0,0,0,0-.09l.13.13,8.84-8.84Zm-10,15L7.9,19A2.35,2.35,0,0,1,9,20.09ZM13,19.08a.12.12,0,0,1-.09.09L9.58,20A3,3,0,0,0,8,18.41l.77-3.26a.16.16,0,0,1,.1-.11H9a.19.19,0,0,1,.11,0L12.94,19A.12.12,0,0,1,13,19.08Z"/><polygon class="cls-2" points="24.44 8.54 22.95 10.03 17.96 5.04 19.45 3.55 24.44 8.54"/></symbol></defs><g id="Layer_2" data-name="Layer 2"><g id="draw_1" data-name="draw 1"><use width="29.85" height="26.25" xlink:href="#Edit"/></g></g></svg>