<svg xmlns="http://www.w3.org/2000/svg" viewBox="0 0 20.65 23.62"><defs><style>.cls-1{fill:#fff;}.cls-2{fill:#6159a8;}</style></defs><g id="Layer_2" data-name="Layer 2"><g id="Isolation_Mode" data-name="Isolation Mode"><polygon class="cls-1" points="2.16 21.6 2.2 18.5 18.71 18.5 18.71 21.6 2.16 21.6"/><path class="cls-2" d="M18.41,18.81V21.3H2.51V18.81h15.9M19,18.2H1.9v3.45a.26.26,0,0,0,.26.26h16.6a.26.26,0,0,0,.26-.26V18.2Z"/><path class="cls-2" d="M19.19,0H1.47A1.47,1.47,0,0,0,0,1.46v20.7a1.47,1.47,0,0,0,1.47,1.46H19.19a1.47,1.47,0,0,0,1.46-1.46V1.46A1.47,1.47,0,0,0,19.19,0ZM20,21.65a1.27,1.27,0,0,1-1.26,1.26H1.87A1.26,1.26,0,0,1,.61,21.65V17.2H20ZM.61,1.46A.86.86,0,0,1,1.47.61H19.19a.86.86,0,0,1,.85.85V16.59H.61Z"/><path class="cls-2" d="M19,18.2v3.45a.26.26,0,0,1-.26.26H2.16a.26.26,0,0,1-.26-.26V18.2Z"/><path class="cls-2" d="M17.28,12.9v2.78H3.38V12.9A4.38,4.38,0,0,1,7,8.59a4.48,4.48,0,0,0,6.75,0A4.39,4.39,0,0,1,17.28,12.9Z"/><path class="cls-2" d="M14.48,5.65A4.06,4.06,0,1,1,10.43,1.6,4.07,4.07,0,0,1,14.48,5.65Z"/></g></g></svg>