<svg width="138" height="123" viewBox="0 0 138 123" fill="none" xmlns="http://www.w3.org/2000/svg">
<path d="M115 99.9375V103.781C115 110.15 109.851 115.312 103.5 115.312H11.5C5.14865 115.312 0 110.15 0 103.781V42.2812C0 35.9126 5.14865 30.75 11.5 30.75H15.3333V42.2812H12.9375C12.5563 42.2812 12.1906 42.4331 11.921 42.7034C11.6515 42.9737 11.5 43.3404 11.5 43.7227V102.34C11.5 102.722 11.6515 103.089 11.921 103.359C12.1906 103.629 12.5563 103.781 12.9375 103.781H102.062C102.444 103.781 102.809 103.629 103.079 103.359C103.349 103.089 103.5 102.722 103.5 102.34V99.9375H115ZM125.062 19.2188H35.9375C35.5563 19.2188 35.1906 19.3706 34.921 19.6409C34.6514 19.9112 34.5 20.2779 34.5 20.6602V79.2773C34.5 79.6596 34.6514 80.0263 34.921 80.2966C35.1906 80.5669 35.5563 80.7188 35.9375 80.7188H125.062C125.444 80.7188 125.809 80.5669 126.079 80.2966C126.349 80.0263 126.5 79.6596 126.5 79.2773V20.6602C126.5 20.2779 126.349 19.9112 126.079 19.6409C125.809 19.3706 125.444 19.2188 125.062 19.2188ZM126.5 7.6875C132.851 7.6875 138 12.8501 138 19.2188V80.7188C138 87.0874 132.851 92.25 126.5 92.25H34.5C28.1486 92.25 23 87.0874 23 80.7188V19.2188C23 12.8501 28.1486 7.6875 34.5 7.6875H126.5ZM63.25 34.5938C63.25 39.9008 58.9593 44.2031 53.6667 44.2031C48.374 44.2031 44.0833 39.9008 44.0833 34.5938C44.0833 29.2867 48.374 24.9844 53.6667 24.9844C58.9593 24.9844 63.25 29.2867 63.25 34.5938ZM46 57.6562L55.4671 48.1634C56.5898 47.0377 58.4102 47.0377 59.5331 48.1634L69 57.6562L93.8005 32.7884C94.9232 31.6627 96.7435 31.6627 97.8664 32.7884L115 49.9688V69.1875H46V57.6562Z" fill="#522E8E"/>
</svg>
