<svg width="125" height="111" viewBox="0 0 125 111" fill="none" xmlns="http://www.w3.org/2000/svg">
<path d="M62.5 0.8125C27.9785 0.8125 0 23.542 0 51.5938C0 63.7031 5.22461 74.7871 13.916 83.5029C10.8643 95.8076 0.65918 106.77 0.537109 106.892C0 107.453 -0.146484 108.283 0.170898 109.016C0.488281 109.748 1.17187 110.188 1.95312 110.188C18.1396 110.188 30.2734 102.424 36.2793 97.6387C44.2627 100.642 53.125 102.375 62.5 102.375C97.0215 102.375 125 79.6455 125 51.5938C125 23.542 97.0215 0.8125 62.5 0.8125ZM31.25 59.4062C26.9287 59.4062 23.4375 55.915 23.4375 51.5938C23.4375 47.2725 26.9287 43.7812 31.25 43.7812C35.5713 43.7812 39.0625 47.2725 39.0625 51.5938C39.0625 55.915 35.5713 59.4062 31.25 59.4062ZM62.5 59.4062C58.1787 59.4062 54.6875 55.915 54.6875 51.5938C54.6875 47.2725 58.1787 43.7812 62.5 43.7812C66.8213 43.7812 70.3125 47.2725 70.3125 51.5938C70.3125 55.915 66.8213 59.4062 62.5 59.4062ZM93.75 59.4062C89.4287 59.4062 85.9375 55.915 85.9375 51.5938C85.9375 47.2725 89.4287 43.7812 93.75 43.7812C98.0713 43.7812 101.562 47.2725 101.562 51.5938C101.562 55.915 98.0713 59.4062 93.75 59.4062Z" fill="#522E8E"/>
</svg>
