<svg width="120" height="120" viewBox="0 0 120 120" fill="none" xmlns="http://www.w3.org/2000/svg">
<path d="M60 1.875C27.8906 1.875 1.875 27.8906 1.875 60C1.875 92.1094 27.8906 118.125 60 118.125C92.1094 118.125 118.125 92.1094 118.125 60C118.125 27.8906 92.1094 1.875 60 1.875ZM60 106.875C34.1016 106.875 13.125 85.8984 13.125 60C13.125 34.1016 34.1016 13.125 60 13.125C85.8984 13.125 106.875 34.1016 106.875 60C106.875 85.8984 85.8984 106.875 60 106.875Z" fill="#6158A8"/>
<path d="M60 12.5312C33.7773 12.5312 12.5312 33.7773 12.5312 60C12.5312 86.2227 33.7773 107.469 60 107.469C86.2227 107.469 107.469 86.2227 107.469 60C107.469 33.7773 86.2227 12.5312 60 12.5312Z" fill="#FEFCFC"/>
<path d="M58.0302 61.469L35.4725 39.8331C34.3845 38.7896 34.3845 37.0978 35.4725 36.0545L38.1035 33.531C39.1896 32.4893 40.9498 32.4873 42.0384 33.5265L60 50.6734L77.9615 33.5265C79.0501 32.4873 80.8103 32.4893 81.8964 33.531L84.5274 36.0545C85.6153 37.0979 85.6153 38.7897 84.5274 39.8331L61.9698 61.469C60.8819 62.5124 59.1181 62.5124 58.0302 61.469Z" fill="#6158A8"/>
<path d="M57.4241 89.8803L27.9256 61.4119C26.5029 60.0389 26.5029 57.8129 27.9256 56.4401L31.3661 53.1197C32.7863 51.7491 35.0882 51.7464 36.5118 53.1139L60 75.6755L83.4881 53.1139C84.9117 51.7464 87.2135 51.7491 88.6338 53.1197L92.0743 56.4401C93.497 57.8131 93.497 60.0391 92.0743 61.4119L62.576 89.8803C61.1533 91.2531 58.8467 91.2531 57.4241 89.8803Z" fill="#6158A8"/>
</svg>
