<svg xmlns="http://www.w3.org/2000/svg" viewBox="0 0 292.69 289.67"><defs><style>.cls-1{opacity:0.8;}.cls-2{fill:#fff;}</style></defs><g id="Layer_2" data-name="Layer 2"><g id="page_name" data-name="page name"><g class="cls-1"><path class="cls-2" d="M292.69,144.88c0,80.1-65.58,144.82-146.7,144.79-80.65,0-146-65-146-145.2C0,64.66,65.74,0,146.71,0,227.26.05,292.69,65,292.69,144.88Zm-274.6-.09c0,69.86,57.32,126.88,127.81,127.12,70.87.24,128.81-57,128.7-127.18s-57.74-127.07-128.29-127S18.11,74.83,18.09,144.79Z"/><path class="cls-2" d="M28.51,144.72C28.6,80.16,81.58,28.15,147.16,28.23c64.36.07,117.08,52.74,117,116.88-.08,64.35-53.16,116.47-118.48,116.34C81.22,261.31,28.43,208.72,28.51,144.72Zm158.7-33.17c-1.34-9.26-4.58-17.27-11.06-23.76-8.34-8.37-18.78-10-30-9.09-21.74,1.79-36.16,17.25-35.91,39,.06,5.06,1.61,10.1,2.52,15.39H100.62v18.75h17.63c.51,14.71-6.44,25.16-17.63,33.64,3,6.79,5.87,13.5,8.93,20.54,6.4-6.21,13.68-7.89,21.59-5.28,15.21,5,30.63,5.12,46.21,2.66,4.94-.78,9.81-2,15-3.14-2.78-6.12-5.38-11.55-7.7-17.09-.9-2.15-2-2.44-4.19-2.21-8.25.84-16.53,1.68-24.8,1.8a42.2,42.2,0,0,1-20.87-5.21c4.89-8.07,7.92-16.56,7.68-26.25h20.94c0-5.71,0-11.1,0-16.49,0-.71-.14-1.41-.25-2.48h-3.44c-6.34,0-12.68.07-19-.06-1,0-2.64-.87-2.76-1.54-.88-5.07-2-10.19-2-15.31,0-4.5,2.67-8,7-9.92a13.45,13.45,0,0,1,17.73,7c.44,1,1.74,2.37,2.48,2.29C171.06,113.89,179,112.71,187.21,111.55Z"/></g></g></g></svg>