<?xml version="1.0" encoding="utf-8"?>
<!-- Generator: Adobe Illustrator 24.3.0, SVG Export Plug-In . SVG Version: 6.00 Build 0)  -->
<svg version="1.1" id="Layer_1" xmlns="http://www.w3.org/2000/svg" xmlns:xlink="http://www.w3.org/1999/xlink" x="0px" y="0px"
	 viewBox="0 0 42 38.7" style="enable-background:new 0 0 42 38.7;" xml:space="preserve">
<style type="text/css">
	.st0{fill:#FFFFFF;}
</style>
<g id="Layer_2_1_">
	<g id="left_side">
		<path class="st0" d="M24.2,14.5c1.4,1.4,1.6,4.3-3.4,6.9c-5-2.6-4.8-5.5-3.4-6.9s3.4-0.4,3.4,0.7C20.8,14,22.8,13.1,24.2,14.5z
			 M8.5,24.8c3.5,0,6.4-2.9,6.4-6.4c0-3.5-2.9-6.4-6.4-6.4c-3.5,0-6.4,2.9-6.4,6.4c0,0,0,0,0,0C2.1,21.9,5,24.8,8.5,24.8z M9.8,24.9
			H7.2c-3.7,0-6.7,2.7-7.2,6.4c0,0.5,0.3,0.9,0.8,0.9c0,0,0.1,0,0.1,0h15.3c0.5,0,0.8-0.4,0.8-0.8c0,0,0-0.1,0-0.1
			C16.5,27.6,13.4,24.9,9.8,24.9z M33.5,17.5c3.5,0,6.4-2.9,6.4-6.4s-2.9-6.4-6.4-6.4c-3.5,0-6.4,2.9-6.4,6.4v0
			C27.1,14.6,30,17.5,33.5,17.5C33.5,17.5,33.5,17.5,33.5,17.5z M34.8,17.5h-2.6c-3.7,0-6.7,2.7-7.2,6.4c0,0.5,0.3,0.9,0.8,0.9
			c0,0,0.1,0,0.1,0h15.3c0.5,0,0.8-0.4,0.8-0.8c0,0,0-0.1,0-0.1C41.5,20.3,38.5,17.6,34.8,17.5L34.8,17.5z M6.9,10.9
			c0.2,0.1,0.4,0.2,0.7,0.2c0.6,0.1,1.1-0.2,1.4-0.6c2.5-3.4,6.6-5.2,10.9-4.8L19,8.3l8.6-1.7L21.7,0l-0.9,2.8
			c-5.5-0.8-11,1.5-14.3,6C6.1,9.5,6.2,10.4,6.9,10.9C6.9,10.9,6.9,10.9,6.9,10.9z M36.6,25.7c-0.7-0.3-1.6,0-1.9,0.7
			c-2,3.8-5.8,6.2-10,6.4l0.5-2.8l-8.2,3.1l6.8,5.6l0.5-2.9h0.6c5.3-0.3,10.1-3.4,12.5-8.2C37.7,26.9,37.3,26,36.6,25.7
			C36.6,25.7,36.6,25.7,36.6,25.7z"/>
	</g>
</g>
</svg>
