<?xml version="1.0" encoding="utf-8"?>
<!-- Generator: Adobe Illustrator 24.3.0, SVG Export Plug-In . SVG Version: 6.00 Build 0)  -->
<svg version="1.1" id="Layer_1" xmlns="http://www.w3.org/2000/svg" xmlns:xlink="http://www.w3.org/1999/xlink" x="0px" y="0px"
	 viewBox="0 0 41.4 37" style="enable-background:new 0 0 41.4 37;" xml:space="preserve">
<style type="text/css">
	.st0{fill:#FFFFFF;}
</style>
<g id="Layer_2_1_">
	<g id="left_side">
		<path class="st0" d="M5.9,16c0,8.8,7.7,16,17.2,16c2.9,0,5.7-0.7,8.2-2c0.7-0.4,1.4-0.8,2-1.2l0,0c0.1-0.1,0.2-0.1,0.3-0.2
			l0.7,0.2l6.1,1.7c0.4,0.1,0.8-0.1,0.9-0.5c0.1-0.2,0-0.4-0.1-0.6l-3.1-5.6c1.4-2.3,2.2-5,2.2-7.7c0-8.9-7.7-16-17.2-16
			C21.1,0,19,0.4,17,1.1c-2.7,0.9-5.1,2.5-7,4.6C9.5,6.2,9,6.9,8.5,7.5c-0.4,0.6-0.8,1.3-1.1,2c-0.5,1.1-0.9,2.2-1.2,3.4
			C6,14,5.9,15,5.9,16z M26.9,15.7c0-1.4,1.1-2.5,2.5-2.5s2.5,1.1,2.5,2.5s-1.1,2.5-2.5,2.5c0,0,0,0,0,0
			C28,18.2,26.8,17.1,26.9,15.7C26.8,15.7,26.8,15.7,26.9,15.7L26.9,15.7z M19.9,15.7c0-1.4,1.1-2.5,2.5-2.5c1.4,0,2.5,1.1,2.5,2.5
			c0,1.4-1.1,2.5-2.5,2.5c0,0,0,0,0,0C21,18.2,19.9,17.1,19.9,15.7C19.9,15.7,19.9,15.7,19.9,15.7L19.9,15.7z M13.6,15.7
			c0-1.4,1.1-2.5,2.5-2.5s2.5,1.1,2.5,2.5s-1.1,2.5-2.5,2.5c0,0,0,0,0,0C14.7,18.2,13.6,17.1,13.6,15.7
			C13.6,15.7,13.6,15.7,13.6,15.7L13.6,15.7z"/>
		<path class="st0" d="M1,35.5l6.8-1.9c3.1,2.2,6.7,3.3,10.5,3.3c5,0,9.7-2,13.1-5.6c-0.8,0.4-1.5,0.7-2.3,1
			c-2.1,0.7-4.2,1.1-6.4,1.1c-10,0-18.1-7.5-18.1-16.8c0-1.7,0.3-3.3,0.8-4.9c0.2-0.7,0.5-1.5,0.9-2.1C2.9,12.5,1.1,16.7,1,21
			c0,2.7,0.7,5.4,2.2,7.8l-3.1,5.6c-0.2,0.4-0.1,0.8,0.3,1C0.6,35.6,0.8,35.6,1,35.5z"/>
	</g>
</g>
</svg>
