<?xml version="1.0" encoding="utf-8"?>
<!-- Generator: Adobe Illustrator 24.3.0, SVG Export Plug-In . SVG Version: 6.00 Build 0)  -->
<svg version="1.1" id="Layer_1" xmlns="http://www.w3.org/2000/svg" xmlns:xlink="http://www.w3.org/1999/xlink" x="0px" y="0px"
	 viewBox="0 0 40.2 40.2" style="enable-background:new 0 0 40.2 40.2;" xml:space="preserve">
<style type="text/css">
	.st0{fill:#FFFFFF;}
</style>
<g id="Layer_2_1_">
	<g id="left_side">
		<path class="st0" d="M20.1,0C9,0,0,9,0,20.1s9,20.1,20.1,20.1s20.1-9,20.1-20.1c0,0,0,0,0,0C40.2,9,31.2,0,20.1,0z M20.1,4
			c3.8,0,7.5,1.4,10.4,3.8L6,27.9C1.7,20.1,4.5,10.3,12.3,6C14.7,4.7,17.4,4,20.1,4z M20.1,36.2c-3.7,0-7.4-1.3-10.3-3.7l24.4-20
			c1.3,2.3,1.9,4.9,1.9,7.6C36.2,29,29,36.2,20.1,36.2C20.1,36.2,20.1,36.2,20.1,36.2L20.1,36.2z"/>
	</g>
</g>
</svg>
