<svg width="108" height="115" viewBox="0 0 108 115" fill="none" xmlns="http://www.w3.org/2000/svg">
<path d="M104.729 64.3933C106.698 61.0578 107.812 57.5 107.812 53.1987C107.812 43.3126 99.453 33.9767 88.5365 33.9767H80.3428C81.4479 31.0994 82.3306 27.6584 82.3306 23.5233C82.3306 7.17313 73.865 0 60.932 0C47.0945 0 47.8838 21.3228 44.8141 24.3926C39.7049 29.5018 33.6701 39.3172 29.3699 43.125H7.1875C3.21798 43.125 0 46.343 0 50.3125V104.219C0 108.188 3.21798 111.406 7.1875 111.406H21.5625C24.9076 111.406 27.7186 109.121 28.5204 106.027C38.5176 106.252 45.3796 114.998 68.4564 114.998C70.0781 114.998 71.875 115 73.4473 115C90.7685 115 98.6004 106.145 98.8146 93.588C101.806 89.4496 103.374 83.9024 102.709 78.5414C104.923 74.3969 105.778 69.48 104.729 64.3933ZM90.859 76.484C93.6801 81.23 91.142 87.5819 87.7279 89.4147C89.4574 100.371 83.773 104.217 75.7967 104.217H67.302C51.2112 104.217 40.7915 95.7218 28.75 95.7218V53.9062H31.2027C37.5727 53.9062 46.4717 37.9837 52.4373 32.0158C58.8072 25.6459 56.6847 15.0286 60.932 10.7812C71.5493 10.7812 71.5493 18.1889 71.5493 23.5233C71.5493 32.3213 65.1794 36.2632 65.1794 44.7579H88.5365C93.278 44.7579 97.011 49.0053 97.0312 53.2526C97.0515 57.4978 94.1518 61.7451 92.0292 61.7451C95.059 65.0143 95.7063 71.9055 90.859 76.484V76.484ZM19.7656 97.0312C19.7656 100.008 17.3522 102.422 14.375 102.422C11.3978 102.422 8.98438 100.008 8.98438 97.0312C8.98438 94.0541 11.3978 91.6406 14.375 91.6406C17.3522 91.6406 19.7656 94.0541 19.7656 97.0312Z" fill="white"/>
</svg>
