<svg width="131" height="131" viewBox="0 0 131 131" fill="none" xmlns="http://www.w3.org/2000/svg">
<path d="M119.3 57.6477C120.495 51.8532 119.521 46.2522 116.999 41.5311C117.756 35.4242 115.971 29.1053 112.563 24.3911C112.319 10.0867 103.397 0 83.666 0C81.875 0 79.8281 0.00255859 77.9808 0.00255859C51.4776 0.00255859 43.2395 10.2344 32.75 10.2344H29.9752C28.5322 8.96147 26.6383 8.1875 24.5625 8.1875H8.1875C3.6657 8.1875 0 11.8532 0 16.375V77.7812C0 82.3031 3.6657 85.9688 8.1875 85.9688H24.5625C27.5924 85.9688 30.2362 84.3215 31.6519 81.875H33.4562C38.3549 86.2126 45.229 97.3936 51.0491 103.214C54.5459 106.711 53.6468 131 69.4095 131C84.1419 131 93.7853 122.829 93.7853 104.204C93.7853 99.4935 92.7797 95.5737 91.5209 92.2962H100.855C113.29 92.2962 122.812 81.6614 122.812 70.3997C122.812 65.5 121.543 61.4472 119.3 57.6477V57.6477ZM16.375 75.7344C12.9836 75.7344 10.2344 72.9852 10.2344 69.5938C10.2344 66.2023 12.9836 63.4531 16.375 63.4531C19.7664 63.4531 22.5156 66.2023 22.5156 69.5938C22.5156 72.9852 19.7664 75.7344 16.375 75.7344ZM100.855 80.0149H74.2478C74.2478 89.6915 81.504 94.1818 81.504 104.204C81.504 110.281 81.504 118.719 69.4095 118.719C64.5712 113.88 66.9891 101.786 59.7329 94.5298C52.9373 87.7316 42.8002 69.5938 35.544 69.5938H32.75V21.9604C46.4669 21.9604 58.3362 12.2838 76.6657 12.2838H86.3423C95.4284 12.2838 101.904 16.6641 99.9336 29.1449C103.823 31.2328 106.714 38.4685 103.5 43.8748C109.022 49.0902 108.285 56.9402 104.833 60.6643C107.251 60.6643 110.554 65.5026 110.531 70.3383C110.508 75.1766 106.256 80.0149 100.855 80.0149V80.0149Z" fill="white"/>
</svg>
