<svg xmlns="http://www.w3.org/2000/svg" viewBox="0 0 42.82 42.82"><defs><style>.cls-1{fill:#ea4c91;}.cls-2{fill:#eba352;}.cls-3{fill:#fff;}.cls-4{fill:#ccc;}</style></defs><g id="Layer_2" data-name="Layer 2"><g id="right_side" data-name="right side"><rect class="cls-1" width="42.82" height="42.82" rx="5.04"/><path class="cls-2" d="M20.52,22.47h1.34v0h-.59c-1.6,0-2.29,1.58-2.09,3l.06.24c0,.11.06.22.09.33a.36.36,0,0,0,.08.15,1.61,1.61,0,0,0,.24.45A1.45,1.45,0,0,0,20,27a1.76,1.76,0,0,0,1,.41c-.61,0-2.4,0-2.08,1.92.56,3.37,1.34,4.8,0,6.7a4.25,4.25,0,0,1-4.73,1.78h0A1.14,1.14,0,0,1,13.8,37c0-8.43.08-4.84-1.6-9.1-1.56-3.93-1.43-7.8-.63-12.64.52-3,1.55-6.78,6.27-6.78h3.54c-.07.1-.15.19-.22.3a2.91,2.91,0,0,0-.26,1.84.85.85,0,0,0,.05.26,4.31,4.31,0,0,0,.15.43,1.25,1.25,0,0,0,.22.36,1.86,1.86,0,0,0,.47.5l0,0a2.23,2.23,0,0,0,1.26.41H21.12a1.86,1.86,0,0,0-1.3.46A2.73,2.73,0,0,0,19,15.62a2.75,2.75,0,0,0,.16.56,2.69,2.69,0,0,0,.28.5.06.06,0,0,1,0,0,1.93,1.93,0,0,0,.35.35l0,0a2,2,0,0,0,1.25.41h-.6A2.41,2.41,0,0,0,18,20a2,2,0,0,0,.08.6,2.24,2.24,0,0,0,.16.5.34.34,0,0,0,.06.15A2.56,2.56,0,0,0,19,22l0,0v0A2.58,2.58,0,0,0,20.52,22.47Z"/><path class="cls-2" d="M29.37,27.46h-8.1a.68.68,0,0,1-.21,0A1.76,1.76,0,0,1,20,27c-.63-1.43-.06-3.59,1.73-3.69a.3.3,0,0,1,.13,0H30a1.9,1.9,0,0,1,1.23.41C31.9,25.21,31.26,27.46,29.37,27.46Z"/><path class="cls-2" d="M31.23,23.73A1.9,1.9,0,0,0,30,23.32H21.9a.3.3,0,0,0-.13,0C20,23.44,19.41,25.6,20,27a1.45,1.45,0,0,1-.39-.39,1.61,1.61,0,0,1-.24-.45.36.36,0,0,1-.08-.15c0-.11-.07-.22-.09-.33l-.06-.24c-.2-1.4.49-3,2.09-3h8.1a2.31,2.31,0,0,1,.46.05,1.77,1.77,0,0,1,.82.41,1.48,1.48,0,0,1,.28.28l.06.09a.74.74,0,0,1,.16.27C31.17,23.64,31.21,23.68,31.23,23.73Z"/><path class="cls-2" d="M30.24,22.47H20.52a2.58,2.58,0,0,1-1.47-.41v0a2.47,2.47,0,0,1,2.24-3.7H31a2.58,2.58,0,0,1,1.47.41A2.47,2.47,0,0,1,30.24,22.47Z"/><path class="cls-2" d="M32.47,18.75A2.58,2.58,0,0,0,31,18.34H21.29A2.47,2.47,0,0,0,19.05,22l0,0a2.56,2.56,0,0,1-.73-.8.34.34,0,0,1-.06-.15,2.24,2.24,0,0,1-.16-.5A2,2,0,0,1,18,20a2.41,2.41,0,0,1,2.53-2.47h9.72a3.15,3.15,0,0,1,.56.05,4.71,4.71,0,0,1,.52.15l.26.13.06,0,.24.17a1.26,1.26,0,0,1,.24.22l.19.23C32.36,18.58,32.42,18.65,32.47,18.75Z"/><path class="cls-2" d="M19.05,22v0a0,0,0,0,1,0,0Z"/><path class="cls-2" d="M29.33,17.5H21.12a2,2,0,0,1-1.25-.41c-.67-1.47-.05-3.72,1.88-3.72H30a2,2,0,0,1,1.23.41C31.9,15.23,31.26,17.5,29.33,17.5Z"/><path class="cls-2" d="M31.21,13.78A2,2,0,0,0,30,13.37H21.75c-1.93,0-2.55,2.25-1.88,3.72l0,0a1.93,1.93,0,0,1-.35-.35.06.06,0,0,0,0,0,2.69,2.69,0,0,1-.28-.5,2.75,2.75,0,0,1-.16-.56A2.73,2.73,0,0,1,19.82,13a1.86,1.86,0,0,1,1.3-.46h8.21a2.16,2.16,0,0,1,.46,0,1.39,1.39,0,0,1,.54.21.88.88,0,0,1,.3.2,1.48,1.48,0,0,1,.28.28s0,0,0,0a2.35,2.35,0,0,1,.24.37S31.19,13.76,31.21,13.78Z"/><path class="cls-2" d="M28.45,12.55H23.07a2.23,2.23,0,0,1-1.26-.41l0,0c-.67-1.42-.07-3.52,1.79-3.69h5.56a2.14,2.14,0,0,1,1.32.4C31.21,10.28,30.54,12.55,28.45,12.55Z"/><path class="cls-2" d="M30.46,8.82a2.14,2.14,0,0,0-1.32-.4H23.58c-1.86.17-2.46,2.27-1.79,3.69a1.86,1.86,0,0,1-.47-.5,1.25,1.25,0,0,1-.22-.36,4.31,4.31,0,0,1-.15-.43.85.85,0,0,1-.05-.26,2.91,2.91,0,0,1,.26-1.84c.07-.11.15-.2.22-.3H17.84c-4.72,0-5.75,3.75-6.27,6.78-.8,4.84-.93,8.71.63,12.64,1.68,4.26,1.6.67,1.6,9.1a1.14,1.14,0,0,0,.43.88,2.22,2.22,0,0,1-.52-.23,1.56,1.56,0,0,1-.37-.35.9.9,0,0,1-.22-.36.88.88,0,0,1-.12-.46c0-6,.1-4.36-1.35-7.35a6.27,6.27,0,0,1-.28-.58c-1.75-3.83-1.55-9.29-.75-14.15.5-3,1.79-6.75,6.52-6.75H28.45a2,2,0,0,1,.51.05,1.38,1.38,0,0,1,.46.15.84.84,0,0,1,.19.09A2.18,2.18,0,0,1,30.46,8.82Z"/><path class="cls-2" d="M21.38,8.43c-.07.1-.15.19-.22.3.05-.09.13-.2.2-.3Z"/><path class="cls-3" d="M20.52,22.47h1.34v0h-.59c-1.6,0-2.29,1.58-2.09,3l.06.24c0,.11.06.22.09.33a.36.36,0,0,0,.08.15,1.61,1.61,0,0,0,.24.45A1.45,1.45,0,0,0,20,27a1.76,1.76,0,0,0,1,.41c-.61,0-2.4,0-2.08,1.92.56,3.37,1.34,4.8,0,6.7a4.25,4.25,0,0,1-4.73,1.78h0A1.14,1.14,0,0,1,13.8,37c0-8.43.08-4.84-1.6-9.1-1.56-3.93-1.43-7.8-.63-12.64.52-3,1.55-6.78,6.27-6.78h3.54c-.07.1-.15.19-.22.3a2.91,2.91,0,0,0-.26,1.84.85.85,0,0,0,.05.26,4.31,4.31,0,0,0,.15.43,1.25,1.25,0,0,0,.22.36,1.86,1.86,0,0,0,.47.5l0,0a2.23,2.23,0,0,0,1.26.41H21.12a1.86,1.86,0,0,0-1.3.46A2.73,2.73,0,0,0,19,15.62a2.75,2.75,0,0,0,.16.56,2.69,2.69,0,0,0,.28.5.06.06,0,0,1,0,0,1.93,1.93,0,0,0,.35.35l0,0a2,2,0,0,0,1.25.41h-.6A2.41,2.41,0,0,0,18,20a2,2,0,0,0,.08.6,2.24,2.24,0,0,0,.16.5.34.34,0,0,0,.06.15A2.56,2.56,0,0,0,19,22l0,0v0A2.58,2.58,0,0,0,20.52,22.47Z"/><path class="cls-3" d="M29.37,27.46h-8.1a.68.68,0,0,1-.21,0A1.76,1.76,0,0,1,20,27c-.63-1.43-.06-3.59,1.73-3.69a.3.3,0,0,1,.13,0H30a1.9,1.9,0,0,1,1.23.41C31.9,25.21,31.26,27.46,29.37,27.46Z"/><path class="cls-4" d="M31.23,23.73A1.9,1.9,0,0,0,30,23.32H21.9a.3.3,0,0,0-.13,0C20,23.44,19.41,25.6,20,27a1.45,1.45,0,0,1-.39-.39,1.61,1.61,0,0,1-.24-.45.36.36,0,0,1-.08-.15c0-.11-.07-.22-.09-.33l-.06-.24c-.2-1.4.49-3,2.09-3h8.1a2.31,2.31,0,0,1,.46.05,1.77,1.77,0,0,1,.82.41,1.48,1.48,0,0,1,.28.28l.06.09a.74.74,0,0,1,.16.27C31.17,23.64,31.21,23.68,31.23,23.73Z"/><path class="cls-3" d="M30.24,22.47H20.52a2.58,2.58,0,0,1-1.47-.41v0a2.47,2.47,0,0,1,2.24-3.7H31a2.58,2.58,0,0,1,1.47.41A2.47,2.47,0,0,1,30.24,22.47Z"/><path class="cls-4" d="M32.47,18.75A2.58,2.58,0,0,0,31,18.34H21.29A2.47,2.47,0,0,0,19.05,22l0,0a2.56,2.56,0,0,1-.73-.8.34.34,0,0,1-.06-.15,2.24,2.24,0,0,1-.16-.5A2,2,0,0,1,18,20a2.41,2.41,0,0,1,2.53-2.47h9.72a3.15,3.15,0,0,1,.56.05,4.71,4.71,0,0,1,.52.15l.26.13.06,0,.24.17a1.26,1.26,0,0,1,.24.22l.19.23C32.36,18.58,32.42,18.65,32.47,18.75Z"/><path class="cls-2" d="M19.05,22v0a0,0,0,0,1,0,0Z"/><path class="cls-3" d="M29.33,17.5H21.12a2,2,0,0,1-1.25-.41c-.67-1.47-.05-3.72,1.88-3.72H30a2,2,0,0,1,1.23.41C31.9,15.23,31.26,17.5,29.33,17.5Z"/><path class="cls-4" d="M31.21,13.78A2,2,0,0,0,30,13.37H21.75c-1.93,0-2.55,2.25-1.88,3.72l0,0a1.93,1.93,0,0,1-.35-.35.06.06,0,0,0,0,0,2.69,2.69,0,0,1-.28-.5,2.75,2.75,0,0,1-.16-.56A2.73,2.73,0,0,1,19.82,13a1.86,1.86,0,0,1,1.3-.46h8.21a2.16,2.16,0,0,1,.46,0,1.39,1.39,0,0,1,.54.21.88.88,0,0,1,.3.2,1.48,1.48,0,0,1,.28.28s0,0,0,0a2.35,2.35,0,0,1,.24.37S31.19,13.76,31.21,13.78Z"/><path class="cls-3" d="M28.45,12.55H23.07a2.23,2.23,0,0,1-1.26-.41l0,0c-.67-1.42-.07-3.52,1.79-3.69h5.56a2.14,2.14,0,0,1,1.32.4C31.21,10.28,30.54,12.55,28.45,12.55Z"/><path class="cls-4" d="M30.46,8.82a2.14,2.14,0,0,0-1.32-.4H23.58c-1.86.17-2.46,2.27-1.79,3.69a1.86,1.86,0,0,1-.47-.5,1.25,1.25,0,0,1-.22-.36,4.31,4.31,0,0,1-.15-.43.85.85,0,0,1-.05-.26,2.91,2.91,0,0,1,.26-1.84c.07-.11.15-.2.22-.3H17.84c-4.72,0-5.75,3.75-6.27,6.78-.8,4.84-.93,8.71.63,12.64,1.68,4.26,1.6.67,1.6,9.1a1.14,1.14,0,0,0,.43.88,2.22,2.22,0,0,1-.52-.23,1.56,1.56,0,0,1-.37-.35.9.9,0,0,1-.22-.36.88.88,0,0,1-.12-.46c0-6,.1-4.36-1.35-7.35a6.27,6.27,0,0,1-.28-.58c-1.75-3.83-1.55-9.29-.75-14.15.5-3,1.79-6.75,6.52-6.75H28.45a2,2,0,0,1,.51.05,1.38,1.38,0,0,1,.46.15.84.84,0,0,1,.19.09A2.18,2.18,0,0,1,30.46,8.82Z"/><path class="cls-2" d="M21.38,8.43c-.07.1-.15.19-.22.3.05-.09.13-.2.2-.3Z"/></g></g></svg>