<svg xmlns="http://www.w3.org/2000/svg" viewBox="0 0 1920 2834.38"><defs><style>.cls-1{isolation:isolate;}.cls-2,.cls-7{fill:#9c97c9;}.cls-3,.cls-7{mix-blend-mode:multiply;}.cls-4{fill:#8d87c0;}.cls-5{fill:#b0acd3;}.cls-6{fill:#635ba9;}</style></defs><g class="cls-1"><g id="Layer_2" data-name="Layer 2"><g id="bg_ornaments" data-name="bg ornaments"><g id="Layer_17" data-name="Layer 17"><path class="cls-2" d="M75,2598.85l-49.14,33.61a12,12,0,0,0,1.85,20.85L85,2679.07a12,12,0,0,0,16.81-12.58l-8.16-59.37A12,12,0,0,0,75,2598.85Z"/><g class="cls-3"><path class="cls-4" d="M79.61,2594.74c6.28.53,12.76,5.28,14.54,11.93l16.1,61.82c2,7.76-3.3,14.24-10.16,14.48a11.91,11.91,0,0,1-5.07-1l-62.74-27.58c-9.69-4.5-13.48-18.08-6.51-23.91l46.72-34.14a11.32,11.32,0,0,1,7.12-1.63Zm-.29-2.12A13.19,13.19,0,0,0,71,2594.5L24.2,2628.57c-3.83,3.18-5.11,8.63-3.46,14.56a21,21,0,0,0,11.09,13.38L94.47,2684a14,14,0,0,0,5.89,1.11,12.55,12.55,0,0,0,9.9-5.41,13.68,13.68,0,0,0,2-11.48l-16-61.64c-1.93-7.26-9.23-13.25-17-13.92Z"/></g><path class="cls-2" d="M1803.35,407.07l58.06,13.18a12,12,0,0,0,14-15.54l-20.07-59.54a12,12,0,0,0-20.66-3.77l-38,46.36A12,12,0,0,0,1803.35,407.07Z"/><path class="cls-4" d="M1840.62,333.92a17.37,17.37,0,0,1,13.83,9.72l29.27,63c3.69,8.17-1.45,16.46-9.31,16.73a12,12,0,0,1-2.75-.24L1811,410.08c-9.26-2.16-15.33-14.21-11.07-22.12l31.28-50.08c2.18-3.05,5.7-4.27,9.43-4Zm-.32-2.16c-4.63-.4-8.66,1.27-11,4.6L1798,386.48c-2.35,4.32-2.11,10.12.59,15.47s7.29,9.2,12.35,10.36l60.53,12.9a14,14,0,0,0,3.2.26,12.52,12.52,0,0,0,10.52-6.47,14.19,14.19,0,0,0,.36-13l-29.14-62.85a20.48,20.48,0,0,0-16.13-11.36Z"/><path class="cls-2" d="M198.63,1474.37l31.74,50.38a12,12,0,0,0,20.9-1.07l27.91-56.29a12,12,0,0,0-11.94-17.28L207.6,1456A12,12,0,0,0,198.63,1474.37Z"/><g class="cls-3"><path class="cls-4" d="M267.28,1448.9c9.63.75,17.39,10.78,14.08,18.82l-20.68,58.73a10.14,10.14,0,0,1-9.59,7.51c-3.87.12-8.1-1.78-11.2-5.87L196,1470.84c-6.95-9-4.09-20.09,5.43-20.42l64.52-1.57c.45,0,.91,0,1.36.05Zm-.29-2.1c-.53,0-1.06-.06-1.59,0l-64.67,1.39a10.54,10.54,0,0,0-10.41,8.09c-1.26,4.93.29,10.84,4.09,15.76l44,57.32c3.39,4.46,8.26,7,13,6.83a11.93,11.93,0,0,0,11.18-8.78l20.78-58.62c1.79-4.36.89-9.59-2.45-14a19.85,19.85,0,0,0-14-7.9Z"/></g><path class="cls-5" d="M1176,2695.06l.18-46.18a6,6,0,0,0-9.11-5.15L1125.42,2669a6,6,0,0,0,.41,10.49l41.5,20.93A6,6,0,0,0,1176,2695.06Z"/><g class="cls-3"><path class="cls-6" d="M1169.58,2642.16c3.47.3,7,3.17,7.34,6.8l5.14,47.61a5.57,5.57,0,0,1-5.28,6.38,5.93,5.93,0,0,1-2.78-.58l-45.75-22.56c-4.83-2.51-6.35-9.36-2.63-12l40.66-25a5.89,5.89,0,0,1,3.3-.62Zm-.19-1.57a7.55,7.55,0,0,0-4.14.76l-40.72,24.92c-2.2,1.56-3.07,4.41-2.35,7.61a11.17,11.17,0,0,0,5.65,7.46l45.68,22.46a7.33,7.33,0,0,0,3.46.72,7,7,0,0,0,6.6-8l-5-47.45a9.17,9.17,0,0,0-3-5.66,10.74,10.74,0,0,0-6.18-2.84Z"/></g><path class="cls-5" d="M136.41,794.4l.18-46.18a6,6,0,0,0-9.11-5.15L85.8,768.31a6,6,0,0,0,.4,10.49l41.51,20.93A6,6,0,0,0,136.41,794.4Z"/><g class="cls-3"><path class="cls-6" d="M130,741.5c3.47.31,6.95,3.18,7.34,6.8l5.14,47.61a5.58,5.58,0,0,1-5.28,6.39,6,6,0,0,1-2.78-.59L88.62,779.15c-4.82-2.51-6.35-9.36-2.62-12l40.66-25a5.89,5.89,0,0,1,3.3-.62Zm-.19-1.57a7.46,7.46,0,0,0-4.14.77L84.91,765.61c-2.2,1.56-3.07,4.41-2.36,7.62a11.22,11.22,0,0,0,5.66,7.45l45.68,22.46a7.33,7.33,0,0,0,3.46.72,7,7,0,0,0,6.6-8l-5-47.44a9.11,9.11,0,0,0-3-5.66,10.72,10.72,0,0,0-6.18-2.85Z"/></g><path class="cls-2" d="M1692.46,1686.21l95.27,5.55a19.24,19.24,0,0,0,18.09-28.26l-47.42-88.86a19.24,19.24,0,0,0-33.65-.52l-47.86,83.3A19.24,19.24,0,0,0,1692.46,1686.21Z"/><g class="cls-3"><path class="cls-4" d="M1734.53,1558.53A28.07,28.07,0,0,1,1755,1571l63.69,95.38c8.65,13.2,1.18,29.3-13.1,29.75-.39,0-.78,0-1.18,0l-96.13-3.27c-14.48-.58-26.76-18.38-22.54-32.75l32.28-92.28c2.78-6.83,9.31-9.81,16.47-9.26Zm-.6-3.5c-9-.72-16.21,3.29-19.24,10.78l-32.15,92.42c-2.32,7.86-.4,17.32,5.06,25.23s13.36,12.71,21.26,13l95.87,3c.46,0,.92,0,1.37,0a19.67,19.67,0,0,0,17.63-11.91c3.24-7.1,2.4-15.58-2.31-22.77l-63.54-95.21c-5.64-8.32-14.61-13.77-24-14.52Z"/></g><path class="cls-2" d="M1422,978.13l31.74,50.38a12,12,0,0,0,20.9-1.07l27.91-56.29a12,12,0,0,0-11.94-17.27L1431,959.8A12,12,0,0,0,1422,978.13Z"/><path class="cls-4" d="M1490.63,952.66c9.63.75,17.39,10.78,14.08,18.82L1484,1030.21a10.14,10.14,0,0,1-9.59,7.51c-3.87.12-8.1-1.78-11.2-5.86l-43.92-57.26c-7-9-4.09-20.09,5.43-20.41l64.52-1.57a12.36,12.36,0,0,1,1.36,0Zm-.29-2.1c-.53,0-1.06-.06-1.58,0l-64.68,1.39a10.54,10.54,0,0,0-10.41,8.09c-1.26,4.93.29,10.84,4.09,15.76l44,57.33c3.39,4.45,8.26,7,13,6.82a11.92,11.92,0,0,0,11.18-8.78l20.78-58.62c1.79-4.35.89-9.59-2.45-14a19.89,19.89,0,0,0-14-7.9Z"/><path class="cls-2" d="M1920,2626.4v199H1567.2c21.1-123.16,128.39-216.88,257.57-216.88A260.52,260.52,0,0,1,1920,2626.4Z"/><path class="cls-2" d="M1502.28,2834.38l1.45-10.26A324.53,324.53,0,0,1,1920,2559.82v9.43a314.74,314.74,0,0,0-95.23-14.65c-159,0-290.53,117.73-312.13,270.78l-1.15,9Z"/><path class="cls-7" d="M344.64,324.23c0,144.34-117,261.35-261.34,261.35A260.88,260.88,0,0,1,0,572V76.45A260.88,260.88,0,0,1,83.3,62.89C227.64,62.89,344.64,179.9,344.64,324.23Z"/><g class="cls-3"><path class="cls-2" d="M382.06,198A324,324,0,0,0,83.3,0,324.93,324.93,0,0,0,0,10.81v9.32A315.18,315.18,0,0,1,83.3,9C257.4,9,398.54,150.14,398.54,324.23S257.4,639.47,83.3,639.47A315.18,315.18,0,0,1,0,628.34v9.32a324.55,324.55,0,0,0,83.3,10.81,324.59,324.59,0,0,0,298.76-198,325.29,325.29,0,0,0,0-252.41Z"/></g></g></g></g></g></svg>