<svg xmlns="http://www.w3.org/2000/svg" xmlns:xlink="http://www.w3.org/1999/xlink" viewBox="0 0 439.98 656.12"><defs><style>.cls-1,.cls-16,.cls-26,.cls-33,.cls-35,.cls-9{fill:none;}.cls-2,.cls-7{fill:#c6dd7f;}.cls-2,.cls-3,.cls-4{mix-blend-mode:multiply;}.cls-3,.cls-5{fill:#e9ddb7;}.cls-4,.cls-6{fill:#a6d0e4;}.cls-8{fill:#39b54a;}.cls-9{stroke:#fff;stroke-linecap:round;stroke-width:2px;}.cls-16,.cls-26,.cls-33,.cls-35,.cls-9{stroke-miterlimit:10;}.cls-10,.cls-20,.cls-21,.cls-23,.cls-27{fill:#fff;}.cls-11{opacity:0.5;fill:url(#linear-gradient);}.cls-12{fill:url(#Unnamed_Pattern_5);}.cls-13{font-size:14px;}.cls-13,.cls-14{fill:#e51f76;}.cls-13,.cls-27,.cls-29,.cls-30,.cls-32{font-family:OpenSans-SemiBold, Open Sans;font-weight:600;}.cls-15,.cls-18,.cls-19,.cls-20,.cls-23,.cls-28{font-size:15px;}.cls-15,.cls-24,.cls-25,.cls-29{fill:#4d4d4d;}.cls-15,.cls-19,.cls-20,.cls-25,.cls-31{font-family:OpenSans-Light, Open Sans;font-weight:300;}.cls-16{stroke:#e51f76;}.cls-17,.cls-18,.cls-36{fill:#6159a8;}.cls-18,.cls-23{font-family:OpenSans-Bold, Open Sans;font-weight:700;}.cls-19,.cls-22{fill:gray;}.cls-21,.cls-24,.cls-29,.cls-32{font-size:20px;}.cls-21,.cls-24,.cls-28,.cls-36{font-family:OpenSans-Regular, Open Sans;}.cls-25,.cls-27,.cls-31{font-size:12px;}.cls-26{stroke:#8983be;}.cls-28{fill:#333;}.cls-32{fill:#999;}.cls-33{stroke:#b3b3b3;stroke-width:0.5px;}.cls-34{fill:#b0acd3;}.cls-35{stroke:#3a3092;}.cls-36{font-size:15.45px;}</style><linearGradient id="linear-gradient" x1="12.84" y1="132.55" x2="104.29" y2="132.55" gradientUnits="userSpaceOnUse"><stop offset="0" stop-color="#cce0f4"/><stop offset="0.06" stop-color="#c3dcf2"/><stop offset="0.17" stop-color="#a9d2ee"/><stop offset="0.31" stop-color="#80c2e7"/><stop offset="0.46" stop-color="#47acde"/><stop offset="0.57" stop-color="#1e9cd7"/><stop offset="0.87" stop-color="#0075be"/><stop offset="0.99" stop-color="#005b97"/></linearGradient><pattern id="Unnamed_Pattern_5" data-name="Unnamed Pattern 5" width="144.13" height="138.36" patternTransform="translate(-499.81 -2469.16)" patternUnits="userSpaceOnUse" viewBox="0 0 144.13 138.36"><rect class="cls-1" width="144.13" height="138.36"/><path class="cls-2" d="M211.07,158.52c-11.76-1.38-19.37.35-22.65,3.11-3,2.55-5,5.41-2.25,11.94,2.94,7.09,1.53,14.73-5.53,15.91-6.23,1-10.9-4.85-11.24-12.28-.24-5.18-1.91-8.3-5.54-7.61s-4.63,5.9-3.63,11.76c1.38,8.13,5.53,11.76,6.23,20.23.49,6.06-2.94,13.66-12.46,15-9.3,1.35-15.91-4.33-16.6-10.55-.73-6.59,3.63-10.9,3.11-17.64s-4-10.17-5.87-17.29c-2.77-10.55,1.21-19,7.78-22.66,14.74-8.15,22.83,3.64,36,1.56,10.89-1.73,23.35-18.16,33-19.54,8.23-1.18,13.83,4.66,15,14S221.72,159.78,211.07,158.52Zm-42.19.52a4.15,4.15,0,1,0-4.15,4.15A4.15,4.15,0,0,0,168.88,159Zm49.46-15.39a1.73,1.73,0,1,0-1.73,1.73A1.73,1.73,0,0,0,218.34,143.65Z"/><path class="cls-3" d="M48.83,139.33c0,7.17,4.59,13.82-1,16.34-8.5,3.83-28-14.34-28-36.17,0-12,8.67-19,17.84-19,12.33,0,18,8.17,18,17.5S48.83,131.14,48.83,139.33ZM43.42,134A2.08,2.08,0,1,0,41.35,136,2.07,2.07,0,0,0,43.42,134Z"/><path class="cls-4" d="M123.53,162.83c-7.87,2.74-19.44-15.3-17.67-27,1.24-8.23,7.12-13.19,13.09-14.22,7.52-1.29,12.9,2.6,13.3,7.25.54,6.3-3.63,7.51-4.22,14.95C127.46,150.93,131.72,160,123.53,162.83Zm-3.79-27.51a2.6,2.6,0,1,0-2.59,2.59A2.59,2.59,0,0,0,119.74,135.32Z"/><path class="cls-3" d="M19.39,140.36a2.6,2.6,0,1,1-2.6-2.59A2.59,2.59,0,0,1,19.39,140.36Z"/><path class="cls-4" d="M84.61,132.64c.74,8.1,12.67,7,17.9,14.21,10.52,14.48-1.22,46.37-21.63,46.37-11.74,0-24.21-9.72-24.21-29.22,0-15.83,10.16-21.5,8.25-42.17-1-10.83-12.5-20.34-12.5-34.75C52.42,81.16,56,73.64,64,73.64c7,0,10.82,6,10.82,12.9,0,6.79-5.38,15.74,1.38,19,5.24,2.57,13.21-4.77,19.5-6.75,5.19-1.63,12.38.23,14.75,8.5,2.53,8.88-3.26,14.75-11.6,16.7C92.51,125.5,84,126.2,84.61,132.64Zm-16-30.56a3.29,3.29,0,1,0-3.28,3.29A3.29,3.29,0,0,0,68.62,102.08Zm26,9.7a2.33,2.33,0,1,0-2.33-2.33A2.34,2.34,0,0,0,94.61,111.78Zm-20,59.67a3.29,3.29,0,1,0-3.28,3.28A3.28,3.28,0,0,0,74.62,171.45Z"/><path class="cls-2" d="M66.94,158.52c-11.76-1.38-19.37.35-22.65,3.11-3,2.55-5,5.41-2.25,11.94,2.94,7.09,1.53,14.73-5.53,15.91-6.23,1-10.9-4.85-11.24-12.28-.24-5.18-1.91-8.3-5.54-7.61s-4.63,5.9-3.63,11.76c1.38,8.13,5.54,11.76,6.23,20.23.49,6.06-2.94,13.66-12.45,15C.57,218-6,212.3-6.73,206.08c-.73-6.59,3.63-10.9,3.12-17.64s-4-10.17-5.88-17.29c-2.77-10.55,1.21-19,7.78-22.66,14.74-8.15,22.83,3.64,36,1.56,10.89-1.73,23.35-18.16,33-19.54,8.23-1.18,13.83,4.66,15,14S77.59,159.78,66.94,158.52ZM24.75,159a4.15,4.15,0,1,0-4.15,4.15A4.15,4.15,0,0,0,24.75,159Zm49.46-15.39a1.73,1.73,0,1,0-1.73,1.73A1.73,1.73,0,0,0,74.21,143.65Z"/><path class="cls-4" d="M190.32,112c0,6.22-4.15,10.72-8.65,11.58s-8.31-1.28-13,1.21c-4.84,2.6-7.09,11.07-16.77,11.07-8,0-15.22-7.95-15.22-18.85,0-20.23,13.14-29.22,25.6-29.22C178.91,87.78,190.32,100.4,190.32,112ZM170.61,97.63a3.81,3.81,0,1,0-3.81,3.81A3.81,3.81,0,0,0,170.61,97.63Z"/><path class="cls-2" d="M211.07,20.16c-11.76-1.38-19.37.34-22.65,3.11-3,2.55-5,5.41-2.25,11.93,2.94,7.09,1.53,14.74-5.53,15.91-6.23,1-10.9-4.84-11.24-12.27-.24-5.19-1.91-8.3-5.54-7.61s-4.63,5.9-3.63,11.76c1.38,8.12,5.53,11.76,6.23,20.23.49,6-2.94,13.66-12.46,15-9.3,1.36-15.91-4.32-16.6-10.54-.73-6.59,3.63-10.9,3.11-17.64s-4-10.17-5.87-17.3c-2.77-10.55,1.21-19,7.78-22.65,14.74-8.15,22.83,3.64,36,1.55,10.89-1.72,23.35-18.15,33-19.54,8.23-1.17,13.83,4.67,15,14S221.72,21.41,211.07,20.16Zm-42.19.52a4.15,4.15,0,1,0-4.15,4.15A4.15,4.15,0,0,0,168.88,20.68ZM218.34,5.29A1.73,1.73,0,1,0,216.61,7,1.73,1.73,0,0,0,218.34,5.29Z"/><path class="cls-4" d="M31.83,83.64c-13.95,2-21.16-13.33-17.66-20.33,3.66-7.34,12.12-4.17,19.5-4.17,9.66,0,16.36-7.57,20.41-2.25C58.33,62.47,49.07,81.18,31.83,83.64Zm.53-17.48a2.25,2.25,0,1,0-2.25,2.25A2.25,2.25,0,0,0,32.36,66.16Z"/><path class="cls-3" d="M48.83,1c0,7.17,4.59,13.82-1,16.33-8.5,3.84-28-14.33-28-36.16,0-12,8.67-19,17.84-19,12.33,0,18,8.16,18,17.5S48.83-7.22,48.83,1ZM43.42-4.4a2.07,2.07,0,0,0-2.07-2.07A2.08,2.08,0,0,0,39.27-4.4a2.08,2.08,0,0,0,2.08,2.08A2.08,2.08,0,0,0,43.42-4.4Z"/><path class="cls-4" d="M46.19,112c0,6.22-4.15,10.72-8.65,11.58s-8.31-1.28-13,1.21c-4.84,2.6-7.09,11.07-16.77,11.07-8,0-15.22-7.95-15.22-18.85,0-20.23,13.15-29.22,25.6-29.22C34.78,87.78,46.19,100.4,46.19,112ZM26.48,97.63a3.81,3.81,0,1,0-3.81,3.81A3.81,3.81,0,0,0,26.48,97.63Z"/><path class="cls-2" d="M45.5,88.3a2.42,2.42,0,1,1-2.42-2.43A2.42,2.42,0,0,1,45.5,88.3Z"/><path class="cls-4" d="M129.2,69.79c-3.19,4.68,1,10.72-1.38,15.22s-6.75,5-9.86,2.59c-3.64-2.82-3.41-6.64-8.3-8.82-5.53-2.46-18,2.25-19.72-7.26-.87-4.81,2.38-8.57,7.27-9.68,6.05-1.39,9.35-.18,15.39-3.12s11.24-9,22.13-12.1c10.41-3,16.08,1.55,16.61,5.88C152.37,61,134.21,62.45,129.2,69.79ZM127,62.35a2.25,2.25,0,1,0-2.25,2.25A2.24,2.24,0,0,0,127,62.35Z"/><path class="cls-3" d="M156.17,109c0,17.17-14.5,25.5-27,22.83-10.27-2.19-12.84-17.33-16.67-26.16-3.71-8.56-8.83-22.5-20.17-22.5S79.5,97.64,68.67,97.64c-11,0-24.5-15.67-24.5-39.67C44.17,43.3,54,26.52,65,27.3,76.67,28.14,69.5,47,80.33,47c9.5,0,7.86-16.26,9.17-23.33,1.67-9,6.83-14.17,18.5-13.17,14.44,1.24,22.33,13.5,18.87,23.35-4,11.45-23.87,17.32-21.54,30.49,1.35,7.59,13,12,26,16.16C145.86,85.13,156.17,91.8,156.17,109Zm-45-75.84a3.29,3.29,0,1,0,3.29-3.29A3.29,3.29,0,0,0,111.21,33.13ZM64.52,58a1.73,1.73,0,1,0-1.73,1.73A1.73,1.73,0,0,0,64.52,58ZM82,68.75a3.81,3.81,0,1,0-3.81,3.81A3.8,3.8,0,0,0,82,68.75Zm19.89-15.56a1.56,1.56,0,1,0-1.56,1.56A1.56,1.56,0,0,0,101.88,53.19Zm29.64,54.69a3.18,3.18,0,1,0-3.17,3.18A3.17,3.17,0,0,0,131.52,107.88Z"/><path class="cls-4" d="M123.53,24.47c-7.87,2.73-19.44-15.3-17.67-27C107.1-10.78,113-15.74,119-16.77c7.52-1.3,12.9,2.6,13.3,7.24.54,6.31-3.63,7.52-4.22,15C127.46,12.57,131.72,21.62,123.53,24.47ZM119.74-3a2.59,2.59,0,0,0-2.59-2.6,2.59,2.59,0,0,0-2.6,2.6,2.59,2.59,0,0,0,2.6,2.59A2.59,2.59,0,0,0,119.74-3Z"/><path class="cls-3" d="M19.39,2a2.6,2.6,0,1,1-2.6-2.59A2.59,2.59,0,0,1,19.39,2Z"/><path class="cls-3" d="M153.38,88.74c0-8.41-5.07-15.23-11.34-15.23s-11.33,6.82-11.33,15.23,5.07,12.44,11.33,12.44S153.38,97.15,153.38,88.74Z"/><path class="cls-4" d="M84.61-5.72c.74,8.1,12.67,7,17.9,14.21C113,23,101.29,54.86,80.88,54.86c-11.74,0-24.21-9.72-24.21-29.22,0-15.84,10.16-21.5,8.25-42.17-1-10.83-12.5-20.34-12.5-34.75C52.42-57.2,56-64.73,64-64.73c7,0,10.82,6,10.82,12.9s-5.38,15.75,1.38,19c5.24,2.57,13.21-4.77,19.5-6.75,5.19-1.63,12.38.23,14.75,8.5,2.53,8.88-3.26,14.75-11.6,16.7C92.51-12.86,84-12.16,84.61-5.72Zm-16-30.56a3.28,3.28,0,0,0-3.28-3.29,3.29,3.29,0,0,0-3.29,3.29A3.29,3.29,0,0,0,65.34-33,3.28,3.28,0,0,0,68.62-36.28Zm26,9.69a2.33,2.33,0,0,0,2.33-2.33,2.33,2.33,0,0,0-2.33-2.32,2.32,2.32,0,0,0-2.33,2.32A2.33,2.33,0,0,0,94.61-26.59Zm-20,59.68a3.29,3.29,0,1,0-3.28,3.28A3.28,3.28,0,0,0,74.62,33.09Z"/><path class="cls-2" d="M66.94,20.16c-11.76-1.38-19.37.34-22.65,3.11-3,2.55-5,5.41-2.25,11.93,2.94,7.09,1.53,14.74-5.53,15.91-6.23,1-10.9-4.84-11.24-12.27-.24-5.19-1.91-8.3-5.54-7.61S15.1,37.13,16.1,43c1.38,8.12,5.54,11.76,6.23,20.23.49,6-2.94,13.66-12.45,15C.57,79.62-6,73.94-6.73,67.72c-.73-6.59,3.63-10.9,3.12-17.64s-4-10.17-5.88-17.3c-2.77-10.55,1.21-19,7.78-22.65C13,2,21.12,13.77,34.26,11.68,45.15,10,57.61-6.47,67.29-7.86c8.23-1.17,13.83,4.67,15,14S77.59,21.41,66.94,20.16Zm-42.19.52a4.15,4.15,0,1,0-4.15,4.15A4.15,4.15,0,0,0,24.75,20.68ZM74.21,5.29A1.73,1.73,0,1,0,72.48,7,1.73,1.73,0,0,0,74.21,5.29Z"/><path class="cls-2" d="M130.24,42.47a1.39,1.39,0,1,1-1.39-1.39A1.38,1.38,0,0,1,130.24,42.47Z"/><path class="cls-5" d="M135.77,4.08a2.25,2.25,0,1,1-2.25-2.25A2.25,2.25,0,0,1,135.77,4.08Z"/><path class="cls-6" d="M52.24,27.25A1.21,1.21,0,1,1,51,26,1.21,1.21,0,0,1,52.24,27.25Z"/><path class="cls-6" d="M48.61,95.73a1.38,1.38,0,1,1-1.38-1.38A1.38,1.38,0,0,1,48.61,95.73Z"/><path class="cls-3" d="M133.18,73.77A1.21,1.21,0,1,1,132,72.56,1.21,1.21,0,0,1,133.18,73.77Z"/><path class="cls-7" d="M95.89,91.69a3.41,3.41,0,1,1-3.41-3.4A3.41,3.41,0,0,1,95.89,91.69Z"/><path class="cls-3" d="M100.87,131.55a2.1,2.1,0,1,1-2.1-2.1A2.1,2.1,0,0,1,100.87,131.55Z"/><path class="cls-3" d="M62.07,125.25a1.58,1.58,0,1,1-3.15,0,1.58,1.58,0,0,1,3.15,0Z"/><circle class="cls-7" cx="133.12" cy="11.21" r="2.62"/><circle class="cls-4" cx="123.15" cy="46.07" r="2.36"/><path class="cls-5" d="M27.72,52.63A2.62,2.62,0,1,1,25.1,50,2.62,2.62,0,0,1,27.72,52.63Z"/><path class="cls-4" d="M22.74,45.55a1.31,1.31,0,1,1-1.31-1.31A1.31,1.31,0,0,1,22.74,45.55Z"/><path class="cls-3" d="M87,97.46a1.57,1.57,0,1,1-1.57-1.57A1.57,1.57,0,0,1,87,97.46Z"/><path class="cls-4" d="M-14.93,69.79c-3.19,4.68,1,10.72-1.38,15.22s-6.75,5-9.86,2.59c-3.64-2.82-3.41-6.64-8.3-8.82-5.53-2.46-18,2.25-19.72-7.26-.87-4.81,2.38-8.57,7.27-9.68,6.05-1.39,9.35-.18,15.39-3.12s11.24-9,22.14-12.1c10.4-3,16.07,1.55,16.6,5.88C8.24,61-9.92,62.45-14.93,69.79Zm-2.25-7.44a2.24,2.24,0,0,0-2.25-2.24,2.24,2.24,0,0,0-2.24,2.24,2.24,2.24,0,0,0,2.24,2.25A2.24,2.24,0,0,0-17.18,62.35Z"/><path class="cls-3" d="M12,109c0,17.17-14.5,25.5-27,22.83-10.27-2.19-12.84-17.33-16.67-26.16-3.71-8.56-8.83-22.5-20.17-22.5s-12.83,14.5-23.66,14.5C-86.46,97.64-100,82-100,58c0-14.67,9.8-31.45,20.83-30.67C-67.46,28.14-74.63,47-63.8,47c9.5,0,7.86-16.26,9.17-23.33,1.67-9,6.83-14.17,18.5-13.17C-21.69,11.71-13.8,24-17.26,33.82c-4,11.45-23.87,17.32-21.54,30.49,1.35,7.59,13,12,26,16.16C1.73,85.13,12,91.8,12,109ZM-32.91,33.13a3.28,3.28,0,0,0,3.28,3.28,3.28,3.28,0,0,0,3.29-3.28,3.29,3.29,0,0,0-3.29-3.29A3.28,3.28,0,0,0-32.91,33.13ZM-79.61,58a1.73,1.73,0,0,0-1.73-1.73A1.74,1.74,0,0,0-83.07,58a1.73,1.73,0,0,0,1.73,1.73A1.72,1.72,0,0,0-79.61,58Zm17.47,10.72A3.8,3.8,0,0,0-65.95,65a3.8,3.8,0,0,0-3.8,3.8,3.81,3.81,0,0,0,3.8,3.81A3.81,3.81,0,0,0-62.14,68.75Zm19.89-15.56a1.56,1.56,0,0,0-1.56-1.56,1.56,1.56,0,0,0-1.56,1.56,1.56,1.56,0,0,0,1.56,1.56A1.56,1.56,0,0,0-42.25,53.19Zm29.64,54.69a3.17,3.17,0,0,0-3.17-3.17A3.17,3.17,0,0,0-19,107.88a3.18,3.18,0,0,0,3.18,3.18A3.17,3.17,0,0,0-12.61,107.88Z"/><path class="cls-3" d="M9.26,88.74c0-8.41-5.08-15.23-11.34-15.23s-11.34,6.82-11.34,15.23,5.07,12.44,11.34,12.44S9.26,97.15,9.26,88.74Z"/></pattern><symbol id="active" data-name="active" viewBox="0 0 20.87 20.87"><circle class="cls-8" cx="10.44" cy="10.44" r="10.44"/><polyline class="cls-9" points="4.31 11.97 7.95 15.73 16.66 5.94"/></symbol><symbol id="edit_white" data-name="edit white" viewBox="0 0 17.87 17.87"><path class="cls-10" d="M10,2.82l-8,8,.16.16A.21.21,0,0,0,2,11a.72.72,0,0,0-.53.55L0,17.87l6.33-1.48a.75.75,0,0,0,.53-.52.14.14,0,0,0,0-.09l.14.13,8-8ZM.82,17.05l.33-1.42a2.31,2.31,0,0,1,1.09,1.09ZM6.28,15.7a.12.12,0,0,1-.09.09l-3.34.79A3,3,0,0,0,1.29,15l.78-3.29a.16.16,0,0,1,.1-.11h0a.24.24,0,0,1,.12,0l3.92,3.92A.12.12,0,0,1,6.28,15.7Z"/><polygon class="cls-10" points="17.87 5.04 16.37 6.55 11.32 1.51 12.83 0 17.87 5.04"/></symbol></defs><g id="Layer_2" data-name="Layer 2"><g id="page_name" data-name="page name"><rect class="cls-10" width="439.98" height="656.12" rx="12.24"/><circle class="cls-11" cx="58.56" cy="132.55" r="45.72"/><circle class="cls-12" cx="58.56" cy="132.55" r="45.72"/><text class="cls-13" transform="translate(274.82 618.94)">Renew Subscription</text><path class="cls-14" d="M341,592.24v.29l-.19-.22.1,0Z"/><path class="cls-14" d="M344.17,585.64v-1a2.33,2.33,0,0,0-.69-1.66,2.33,2.33,0,0,0-3.28,0,2.51,2.51,0,0,0-.74,1.75V586a3.63,3.63,0,1,1,4.71-.33Z"/><path class="cls-14" d="M354.73,575.87H328.51a1.62,1.62,0,0,0-1.61,1.61v16.38a1.61,1.61,0,0,0,1.61,1.6h9.58c-.06-.18-.12-.36-.17-.54a11.15,11.15,0,0,0-1.22-2.66A2.36,2.36,0,0,1,337,589a2.43,2.43,0,0,1,2.45-.37v-1.55a4.58,4.58,0,1,1,4.71-.23v.85a2.26,2.26,0,0,1,1,.58,2.1,2.1,0,0,1,.39.51,2.34,2.34,0,0,1,1.23.65l0,0a2.37,2.37,0,0,1,1.84.69,2.31,2.31,0,0,1,.69,1.66h0l0,3.64h5.44a1.61,1.61,0,0,0,1.61-1.6V577.48A1.62,1.62,0,0,0,354.73,575.87Z"/><path class="cls-10" d="M341,592.28l-.1,0,.19.22v-.29Z"/><path class="cls-14" d="M341,592.28l-.1,0,.19.22v-.29Z"/><path class="cls-14" d="M348.17,590.6a1.71,1.71,0,0,0-1.65-.44,1.44,1.44,0,0,0-.22-.27,1.71,1.71,0,0,0-1.2-.51,2,2,0,0,0-.41-.66,1.78,1.78,0,0,0-1.15-.5v-3.55a1.71,1.71,0,0,0-1.68-1.72,1.59,1.59,0,0,0-1.21.49,1.8,1.8,0,0,0-.56,1.29V590l-.24-.29a1.76,1.76,0,0,0-2.42-.18,1.7,1.7,0,0,0-.24,2.38,10.86,10.86,0,0,1,1.33,2.87c.07.24.16.48.25.72a14.14,14.14,0,0,0,1.76,3.33.85.85,0,0,1,.16.5v.65a1.35,1.35,0,0,0,1.34,1.34h3.47a1.92,1.92,0,0,0,1.75-1.13l1.16-2.55a2.84,2.84,0,0,0,.24-1.11v-1l0-3.64A1.71,1.71,0,0,0,348.17,590.6Zm-.45,4.86v1a2,2,0,0,1-.16.73l-1.16,2.55a1,1,0,0,1-.89.58H342a.41.41,0,0,1-.4-.4v-.65a1.75,1.75,0,0,0-.33-1,13.84,13.84,0,0,1-1.52-2.78c-.14-.33-.25-.67-.36-1a11.68,11.68,0,0,0-1.48-3.16.8.8,0,0,1,.09-1.1.78.78,0,0,1,.51-.18.77.77,0,0,1,.59.27l1.72,2,.1,0,.09,0v-7.51a.91.91,0,0,1,.26-.62.76.76,0,0,1,.54-.22.8.8,0,0,1,.53.23.83.83,0,0,1,.23.55v4.75l.62-.21a.76.76,0,0,1,.8.18.8.8,0,0,1,.23.53v.62l.59-.18a.77.77,0,0,1,.78.2.75.75,0,0,1,.2.33l.16.63.55-.35a.78.78,0,0,1,1,.1.81.81,0,0,1,.23.55Z"/><text class="cls-15" transform="translate(12.95 620.58)">Subscription Expire</text><text class="cls-15" transform="translate(155.73 620.58)">12/11/2020</text><text class="cls-15" transform="translate(115.88 620.58)">:</text><text class="cls-15" transform="translate(12.95 595.09)">Team creation Date</text><text class="cls-15" transform="translate(155.73 595.09)">12/11/2020</text><text class="cls-15" transform="translate(115.88 595.09)">:</text><line class="cls-16" x1="275.53" y1="623.46" x2="408.67" y2="623.46"/><rect class="cls-17" x="17.48" y="287.17" width="403.51" height="29.36" rx="14.68"/><path class="cls-10" d="M32.74,312.22a10.43,10.43,0,0,1-10.43-10.63,10.65,10.65,0,0,1,10.78-10.24h9.75a10.43,10.43,0,0,1,10.44,10.43h0a10.43,10.43,0,0,1-10.44,10.44Z"/><text class="cls-18" transform="translate(26.6 307.18)">OA</text><path class="cls-10" d="M222.66,301.86a8.44,8.44,0,0,0,8.44,8.44h43.09a8.45,8.45,0,0,0,0-16.89H231.1a8.44,8.44,0,0,0-8.44,8.45Z"/><text class="cls-19" transform="translate(233.35 306.19)">Cand.</text><text class="cls-20" transform="translate(335.24 306.19)">Candidate</text><circle class="cls-8" cx="311.18" cy="300.78" r="10.44"/><polyline class="cls-9" points="305.05 302.31 308.69 306.08 317.4 296.28"/><text class="cls-21" transform="translate(67.27 307.64)">Ms. Example</text><path class="cls-22" d="M222.66,346.64a8.44,8.44,0,0,0,8.44,8.44h43.09a8.45,8.45,0,0,0,0-16.89H231.1a8.44,8.44,0,0,0-8.44,8.45Z"/><circle class="cls-17" cx="32.74" cy="345.82" r="10.44"/><text class="cls-23" transform="translate(27.57 350.21)">A</text><circle class="cls-8" cx="311.18" cy="346.64" r="10.44"/><polyline class="cls-9" points="305.05 348.17 308.69 351.94 317.4 342.14"/><text class="cls-24" transform="translate(67.27 352.68)">Mr. Example</text><text class="cls-25" transform="translate(335.24 351.23)">Friend</text><text class="cls-20" transform="translate(237.83 351.05)">Rep.</text><path class="cls-26" d="M398.63,200.65H230.31a5,5,0,0,0-5,5V225a5,5,0,0,0,5,5H398.63a14.73,14.73,0,0,0,14.69-14.68h0A14.72,14.72,0,0,0,398.63,200.65Z"/><circle class="cls-14" cx="264.48" cy="215.33" r="9.74"/><text class="cls-27" transform="translate(261.57 219.9)">5</text><text class="cls-28" transform="translate(282.61 220.9)">Connected</text><path class="cls-26" d="M40,200.65H208.32a5,5,0,0,1,5,5V225a5,5,0,0,1-5,5H40a14.72,14.72,0,0,1-14.68-14.68h0A14.72,14.72,0,0,1,40,200.65Z"/><circle class="cls-14" cx="69.76" cy="215.33" r="9.74"/><text class="cls-27" transform="translate(66.85 219.9)">5</text><text class="cls-28" transform="translate(88.88 220.9)">Teamlisted</text><text class="cls-29" transform="translate(122.99 105.05)">Example’s Family &amp; Friends</text><text class="cls-15" transform="translate(122.99 172.27)">Team Created by <tspan class="cls-30" x="118.3" y="0">Ms. Example</tspan></text><text class="cls-31" transform="translate(122.99 126.77)">Lorem ipsum dolor sit amet, consectetuer adipiscing <tspan x="0" y="14.4">elit. Aenean commodo ligula eget dolor. Aenean m</tspan></text><path class="cls-22" d="M222.66,393.64a8.44,8.44,0,0,0,8.44,8.45h43.09a8.45,8.45,0,0,0,0-16.89H231.1a8.44,8.44,0,0,0-8.44,8.44Z"/><text class="cls-20" transform="translate(237.83 398.05)">Rep.</text><text class="cls-24" transform="translate(67.27 398.86)">Ms. Example</text><text class="cls-25" transform="translate(335.24 397.41)">Sister</text><use width="20.87" height="20.87" transform="translate(301.74 383.06)" xlink:href="#active"/><circle class="cls-17" cx="32.74" cy="393.44" r="10.44"/><text class="cls-23" transform="translate(27.57 397.83)">A</text><text class="cls-32" transform="translate(144.2 272.92)">Team members</text><path class="cls-33" d="M299.32,263.38H413.71a12,12,0,0,1,12,12V547.17a12,12,0,0,1-12,12H25a12,12,0,0,1-12-12V275.38a12,12,0,0,1,12-12H141.25"/><circle class="cls-17" cx="215.21" cy="41.8" r="15.73"/><use width="17.87" height="17.87" transform="translate(206.17 32.04)" xlink:href="#edit_white"/><circle class="cls-34" cx="421.79" cy="35.1" r="2.65"/><circle class="cls-34" cx="421.79" cy="42.38" r="2.65"/><circle class="cls-34" cx="421.79" cy="49.66" r="2.65"/><path class="cls-35" d="M98.63,26.81H28.37A15.26,15.26,0,0,0,13.09,40,15,15,0,0,0,28,56.79H98.63a15,15,0,0,0,15-15h0A15,15,0,0,0,98.63,26.81Z"/><circle class="cls-8" cx="98.75" cy="41.8" r="6.67"/><text class="cls-36" transform="translate(26.14 46.32)">Team 2</text></g></g></svg>